<svg width="694" height="907" viewBox="0 0 694 907" fill="none" xmlns="http://www.w3.org/2000/svg">
<mask id="mask0_147_610" style="mask-type:alpha" maskUnits="userSpaceOnUse" x="0" y="0" width="694" height="907">
<rect width="694" height="907" fill="white"/>
</mask>
<g mask="url(#mask0_147_610)">
<path opacity="0.35" fill-rule="evenodd" clip-rule="evenodd" d="M580.517 293.132C624.428 380.58 632.717 491.195 543.636 564.019C451.957 638.968 318.127 635.829 218.32 589.232C124.872 545.603 78.4476 454.981 105.753 359.581C133.795 261.605 225.834 176.641 341.026 160.519C452.204 144.958 538.577 209.608 580.517 293.132Z" fill="#8EC2F2"/>
<path opacity="0.4" fill-rule="evenodd" clip-rule="evenodd" d="M402.338 171.941C503.915 193.015 604.053 255.68 613.265 368.974C622.746 485.573 539.76 585.596 439.795 632.59C346.199 676.59 240.384 655.453 174.689 575.153C107.22 492.685 89.3377 369.566 144.572 271.735C197.882 177.313 305.319 151.813 402.338 171.941Z" fill="#23A6F0"/>
<path d="M592.894 431.584L397.295 318.656L269.824 405.504L454.658 512.217C458.391 514.374 462.992 514.374 466.724 512.217L592.894 439.374C595.893 437.643 595.893 433.315 592.894 431.584Z" fill="#F2F2F2"/>
<path d="M350.382 622.394L464.253 556.649C466.715 555.228 466.406 552.745 463.562 551.103C460.72 549.461 456.419 549.283 453.957 550.705L340.086 616.449C337.624 617.871 337.932 620.353 340.777 621.995C343.619 623.637 347.92 623.815 350.382 622.394Z" fill="#F2F2F2"/>
<path d="M472.553 536.591C472.468 536.444 472.299 536.368 472.135 536.404L466.727 537.52L468.816 541.155L472.504 537.046C472.616 536.92 472.636 536.736 472.553 536.591Z" fill="#D9EFFB"/>
<path d="M470.398 539.236C470.399 538.456 469.854 537.509 469.181 537.12C468.87 536.939 468.589 536.914 468.372 537.011C462.138 536.9 455.99 538.48 450.582 541.587L450.192 541.81L456.78 553.279L458.772 551.987C462.989 549.251 466.555 545.625 469.222 541.364L470.083 539.99C470.276 539.853 470.398 539.596 470.398 539.236Z" fill="#5F92D3"/>
<path d="M458.157 550.254C458.163 547.274 456.078 543.642 453.497 542.147C450.917 540.65 448.821 541.853 448.816 544.835C448.81 547.817 450.895 551.449 453.475 552.944C456.054 554.441 458.15 553.236 458.157 550.254Z" fill="#D9EFFB"/>
<path d="M404.452 584.73L456.78 553.279L450.192 541.811L396.666 571.181L404.452 584.73Z" fill="#D9EFFB"/>
<path d="M406.078 581.157C406.085 577.634 403.62 573.345 400.572 571.576C397.525 569.808 395.048 571.23 395.041 574.755C395.033 578.277 397.498 582.567 400.545 584.336C403.592 586.104 406.069 584.68 406.078 581.157Z" fill="#D9EFFB"/>
<path d="M403.795 582.469C403.803 578.944 401.338 574.655 398.289 572.887C395.242 571.119 392.765 572.542 392.758 576.065C392.751 579.588 395.215 583.878 398.264 585.646C401.31 587.416 403.788 585.992 403.795 582.469Z" fill="#D9EFFB"/>
<path d="M349.242 616.452L402.168 586.042L394.384 572.491L341.457 602.902L349.242 616.452Z" fill="#D9EFFB"/>
<path d="M350.868 612.879C350.876 609.354 348.411 605.066 345.362 603.298C342.315 601.528 339.838 602.952 339.831 606.476C339.824 609.999 342.288 614.29 345.336 616.058C348.383 617.824 350.859 616.402 350.868 612.879Z" fill="#D9EFFB"/>
<path d="M348.893 611.733C348.792 609.652 347.124 607.045 345.168 605.91C343.21 604.775 341.706 605.54 341.805 607.621C341.906 609.703 343.573 612.311 345.531 613.445C347.489 614.58 348.993 613.814 348.893 611.733Z" fill="#4067B1"/>
<path d="M406.479 580.926C406.488 577.403 404.022 573.112 400.975 571.344C397.926 569.578 395.45 571 395.442 574.522C395.436 578.047 397.901 582.337 400.947 584.103C403.995 585.873 406.472 584.45 406.479 580.926Z" fill="#5F92D3"/>
<path d="M406.479 580.926C406.488 577.403 404.022 573.112 400.975 571.344C399.748 570.631 398.615 570.444 397.698 570.696C398.703 569.668 400.335 569.562 402.183 570.631C405.23 572.401 407.695 576.69 407.687 580.213C407.683 582.317 406.795 583.665 405.433 584.039C406.087 583.37 406.476 582.313 406.479 580.926Z" fill="white"/>
<path d="M401.855 586.223L404.853 584.499L397.068 570.949L394.07 572.672L401.855 586.223Z" fill="#5F92D3"/>
<path d="M403.48 582.65C403.489 579.125 401.024 574.835 397.975 573.068C394.928 571.299 392.451 572.723 392.444 576.247C392.437 579.77 394.901 584.059 397.949 585.828C400.996 587.596 403.472 586.173 403.48 582.65Z" fill="#D9EFFB"/>
<path d="M346.401 613.273L343.041 607.426L331.823 613.871C330.209 614.799 329.652 616.861 330.58 618.475C331.507 620.089 333.566 620.646 335.181 619.718L346.401 613.273Z" fill="#1EA9E4"/>
<path d="M347.101 611.731C347.105 610.211 346.041 608.359 344.726 607.596C343.412 606.833 342.342 607.446 342.339 608.968C342.336 610.488 343.4 612.339 344.714 613.102C346.031 613.864 347.098 613.25 347.101 611.731Z" fill="#1EAEEB"/>
<path d="M359.702 591.335L358.039 590.37C357.084 589.817 355.811 589.94 354.456 590.717L348.691 594.03C347.603 594.655 346.715 596.185 346.712 597.439L346.708 600.309C346.706 600.79 346.465 601.34 346.117 601.745L346.318 603.074L344.897 602.243L344.901 602.242C344.695 602.133 344.565 601.891 344.566 601.539L344.572 598.67C344.578 596.054 346.428 592.863 348.697 591.561L354.462 588.248C356.388 587.142 358.197 586.966 359.558 587.754L361.219 588.72C362.174 589.273 363.447 589.15 364.801 588.372L388.038 575.02C388.337 574.848 388.608 574.835 388.802 574.953V574.951L390.219 575.782L388.995 576.24C388.82 576.751 388.457 577.246 388.032 577.489L364.795 590.841C362.869 591.948 361.059 592.123 359.702 591.335Z" fill="#5F92D3"/>
<path d="M359.478 591.213C358.522 590.659 357.25 590.782 355.897 591.561L350.132 594.872C349.044 595.498 348.156 597.028 348.153 598.283L348.147 601.152C348.146 601.834 347.665 602.663 347.074 603.002C346.483 603.341 346.004 603.064 346.005 602.382L346.011 599.513C346.017 596.896 347.869 593.708 350.136 592.403L355.901 589.091C357.828 587.983 359.636 587.809 360.995 588.597L362.658 589.562C363.614 590.116 364.884 589.994 366.239 589.215L389.477 575.863C390.068 575.522 390.547 575.801 390.545 576.483C390.544 577.164 390.064 577.993 389.472 578.332L366.235 591.685C364.309 592.792 362.5 592.967 361.141 592.18L359.478 591.213Z" fill="#5F92D3"/>
<path d="M337.197 627.086L347.822 620.951C349.103 620.212 348.941 618.919 347.462 618.064C345.983 617.211 343.747 617.119 342.463 617.858L331.838 623.992C330.557 624.731 330.718 626.023 332.198 626.878C333.677 627.734 335.915 627.825 337.197 627.086Z" fill="#F2F2F2"/>
<path d="M448.901 318.422C448.909 309.889 442.899 306.412 435.506 310.672L309.825 383.084C307.791 384.255 306.14 387.106 306.14 389.453C306.137 391.797 307.784 392.752 309.817 391.581L435.497 319.169C438.832 317.248 441.543 318.814 441.538 322.663L441.527 336.718C443.966 336.567 446.413 336.564 448.884 336.607L448.901 318.422Z" fill="#EE1696"/>
<path d="M309.77 416.855L435.451 371.055C442.846 366.796 448.866 356.388 448.875 347.855L448.884 336.607C446.413 336.564 443.966 336.567 441.526 336.718L441.512 352.096C441.509 355.945 438.793 360.638 435.459 362.56L309.779 408.357C307.745 409.529 306.094 412.381 306.093 414.727C306.09 417.071 307.738 418.026 309.77 416.855Z" fill="#D1078D"/>
<path d="M307.044 417.023L459.93 505.489L589.371 428.294L599.641 412.967L598.575 418.398L595.816 404.18L355.54 413.344L313.205 410.618L307.044 417.023Z" fill="#1EA9E4"/>
<path d="M312.114 390.325L312.073 409.144L459.836 494.632L463.829 476.698L312.114 390.325Z" fill="#268FBB"/>
<path d="M597.736 398.13L445.092 309.82L307.469 389.851L307.186 391.816L460.053 480.258L597.736 398.13Z" fill="#1EA9E4"/>
<path d="M549.075 443.479L584.962 422.191C587.985 420.067 590.357 415.772 590.36 412.182L590.388 409.363C590.389 407.082 589.434 405.612 587.966 405.185L517.316 444.487L459.784 475.604L459.836 494.632L549.075 443.479Z" fill="white"/>
<path d="M464.944 477.341L313.269 389.59L310.053 387.73L307.117 386.032C306.515 387.133 306.14 388.347 306.14 389.453C306.139 390.606 306.539 391.418 307.185 391.811L307.186 391.817L307.21 391.831L307.22 391.837L460.053 480.258L464.944 477.341Z" fill="#0C97D1"/>
<path d="M458.023 504.386L459.929 505.489L460.281 504.881L459.095 503.946L458.023 504.386Z" fill="white"/>
<path d="M458.073 479.109L460.028 480.238L459.537 479.173L458.073 479.109Z" fill="white"/>
<path d="M462.689 471.524L588.371 399.111C595.767 394.852 601.774 398.329 601.766 406.861L601.741 409.682C601.734 418.214 595.71 428.621 588.318 432.882L462.636 505.295C460.603 506.465 458.958 505.513 458.959 503.166C458.962 500.822 460.612 497.969 462.643 496.798L588.325 424.386C591.66 422.465 594.375 417.771 594.378 413.922L594.406 411.103C594.408 407.254 591.698 405.686 588.364 407.608L462.683 480.02C460.65 481.191 459.003 480.238 459.005 477.892C459.008 475.547 460.657 472.694 462.689 471.524Z" fill="#1EA9E4"/>
<path d="M406.716 401.318L472.025 363.691L528.666 396.46L463.358 434.089L406.716 401.318Z" fill="white"/>
<path d="M458.959 503.166C458.962 500.822 460.611 497.969 462.643 496.798L588.325 424.387C591.66 422.465 594.375 417.771 594.378 413.922L594.406 411.103C594.408 408.583 593.241 407.049 591.506 406.824C592.063 407.559 592.392 408.609 592.391 409.938L592.365 412.757C592.362 416.606 589.647 421.3 586.312 423.222L460.631 495.633C458.597 496.804 456.946 499.657 456.945 502.001C456.943 503.78 457.89 504.751 459.233 504.611C459.058 504.217 458.959 503.735 458.959 503.166Z" fill="white"/>
<path d="M459.005 477.892C459.008 475.547 460.657 472.694 462.689 471.524L588.371 399.111C591.556 397.278 594.479 396.885 596.781 397.706C594.323 395.611 590.568 395.522 586.358 397.946L460.677 470.359C458.645 471.53 456.995 474.383 456.992 476.727C456.991 478.504 457.936 479.478 459.281 479.337C459.104 478.943 459.005 478.461 459.005 477.892Z" fill="white"/>
<path d="M443.871 262.401C443.879 253.867 437.869 250.39 430.476 254.651L304.794 327.064C302.762 328.235 301.113 331.086 301.11 333.434C301.108 335.778 302.755 336.731 304.787 335.559L430.469 263.148C433.803 261.226 436.513 262.794 436.51 266.643L436.498 280.698C438.936 280.547 441.383 280.544 443.855 280.587L443.871 262.401Z" fill="#D9EFFB"/>
<path d="M304.741 360.833L430.421 315.035C437.815 310.775 443.839 300.368 443.846 291.834L443.855 280.587C441.383 280.544 438.936 280.547 436.498 280.698L436.483 296.076C436.48 299.925 433.765 304.617 430.43 306.54L304.748 352.336C302.716 353.507 301.067 356.36 301.064 358.706C301.062 361.051 302.708 362.006 304.741 360.833Z" fill="#5F92D3"/>
<path d="M302.014 361.002L454.902 449.469L584.341 372.275L594.61 356.947L593.545 362.378L590.785 348.16L350.509 357.325L308.178 354.598L302.014 361.002Z" fill="#5F92D3"/>
<path d="M307.086 334.305L307.044 353.125L454.807 438.612L458.799 420.677L307.086 334.305Z" fill="#8DBBE4"/>
<path d="M592.706 342.11L440.064 253.799L302.441 333.831L302.156 335.796L455.025 424.237L592.706 342.11Z" fill="#D9EFFB"/>
<path d="M544.044 387.461L579.933 366.17C582.957 364.046 585.328 359.751 585.331 356.162L585.358 353.343C585.359 351.062 584.405 349.592 582.936 349.165L512.286 388.467L454.754 419.584L454.807 438.612L544.044 387.461Z" fill="white"/>
<path d="M459.913 421.321L308.24 333.57L305.025 331.71L302.088 330.012C301.488 331.113 301.111 332.327 301.11 333.434C301.11 334.585 301.508 335.398 302.156 335.789V335.796L302.181 335.811L302.192 335.817L455.024 424.237L459.913 421.321Z" fill="#5F92D3"/>
<path d="M452.993 448.364L454.902 449.469L455.252 448.861L454.065 447.926L452.993 448.364Z" fill="white"/>
<path d="M453.045 423.089L454.997 424.218L454.508 423.152L453.045 423.089Z" fill="white"/>
<path d="M457.662 415.505L583.342 343.091C590.736 338.832 596.746 342.309 596.737 350.841L596.711 353.661C596.703 362.194 590.682 372.601 583.289 376.862L457.607 449.274C455.575 450.445 453.927 449.492 453.929 447.146C453.932 444.801 455.583 441.948 457.615 440.778L583.295 368.365C586.629 366.444 589.345 361.751 589.349 357.902L589.376 355.083C589.379 351.234 586.67 349.667 583.335 351.588L457.653 424C455.621 425.171 453.975 424.218 453.978 421.872C453.979 419.526 455.629 416.676 457.662 415.505Z" fill="#D9EFFB"/>
<path d="M401.686 345.298L466.996 307.671L523.637 340.44L458.327 378.069L401.686 345.298Z" fill="white"/>
<path d="M453.93 447.146C453.931 444.801 455.583 441.948 457.614 440.778L583.295 368.365C586.629 366.445 589.345 361.751 589.349 357.902L589.376 355.083C589.379 352.563 588.214 351.031 586.475 350.804C587.035 351.539 587.363 352.588 587.363 353.918L587.336 356.737C587.332 360.586 584.617 365.28 581.282 367.2L455.6 439.613C453.568 440.783 451.919 443.636 451.916 445.981C451.914 447.76 452.863 448.73 454.204 448.591C454.029 448.197 453.928 447.715 453.93 447.146Z" fill="white"/>
<path d="M453.978 421.872C453.979 419.526 455.629 416.676 457.662 415.505L583.342 343.091C586.526 341.258 589.451 340.865 591.752 341.686C589.294 339.59 585.537 339.501 581.328 341.926L455.646 414.338C453.614 415.509 451.965 418.361 451.962 420.707C451.96 422.484 452.909 423.458 454.25 423.317C454.075 422.923 453.976 422.441 453.978 421.872Z" fill="white"/>
<path d="M286.349 609.609L108.916 507.168C103.896 504.271 104.526 499.209 110.322 495.863L231.141 426.13C236.938 422.785 245.704 422.42 250.724 425.319L428.158 527.76C433.176 530.659 432.548 535.721 426.751 539.067L305.932 608.797C300.137 612.143 291.369 612.506 286.349 609.609Z" fill="#F2F2F2"/>
<path d="M469.716 346.286L292.282 243.845C290.221 242.657 288.127 242.475 286.268 243.109L286.28 243.09L285.958 243.213L285.88 243.242L279.467 245.695L285.222 248.514L285.14 248.827L256.239 380.382C254.793 386.967 257.689 394.653 262.709 397.551L435.875 497.528L435.257 504.866L442.265 502.15C444.62 501.048 446.505 498.56 447.284 495.012L476.185 363.455C477.63 356.872 474.734 349.185 469.716 346.286Z" fill="#263C7A"/>
<path d="M469.716 346.287L292.282 243.846C290.221 242.657 288.127 242.475 286.268 243.109L286.28 243.09L285.958 243.213L285.88 243.242L279.467 245.695L285.222 248.514L285.14 248.827L266.092 335.531L352.907 403.168L475.32 353.359C474.143 350.309 472.19 347.715 469.716 346.287Z" fill="#4067B1"/>
<path d="M463.024 366.51L476.532 360.759C476.78 355.529 474.614 350.124 471.06 347.235L449.68 356.227L463.024 366.51Z" fill="#2E4B8D"/>
<path d="M429.092 504.17L251.66 401.729C246.64 398.831 243.742 391.144 245.189 384.56L274.09 253.003C275.536 246.42 280.778 243.432 285.798 246.33L463.232 348.77C468.25 351.669 471.146 359.356 469.701 365.939L440.8 497.496C439.354 504.079 434.112 507.067 429.092 504.17Z" fill="#D9EFFB"/>
<path d="M464.935 348.147L287.501 245.707C285.07 244.303 282.594 244.305 280.514 245.403C282.183 245.039 284.002 245.294 285.798 246.331L463.232 348.77C468.25 351.668 471.146 359.357 469.701 365.939L440.8 497.496C440.055 500.89 438.292 503.303 436.078 504.472C439.075 503.817 441.574 501.1 442.503 496.872L471.404 365.317C472.85 358.733 469.954 351.046 464.935 348.147Z" fill="white"/>
<path d="M425.247 494.383L258.373 398.087C253.78 395.434 251.13 388.4 252.452 382.377L278.9 261.991C280.224 255.968 285.02 253.233 289.613 255.885L456.487 352.182C461.08 354.834 463.73 361.868 462.406 367.892L435.96 488.276C434.636 494.302 429.839 497.035 425.247 494.383Z" fill="white"/>
<path d="M425.247 494.383L258.373 398.087C253.78 395.434 251.13 388.4 252.452 382.377L278.9 261.991C280.224 255.968 285.02 253.233 289.613 255.885L456.487 352.182C461.08 354.834 463.73 361.868 462.406 367.892L435.96 488.276C434.636 494.302 429.839 497.035 425.247 494.383Z" fill="#263C7A"/>
<path d="M426.701 493.792L259.827 397.494C255.234 394.843 252.584 387.809 253.908 381.786L280.354 261.399C281.024 258.351 282.586 256.156 284.559 255.064C281.914 255.744 279.727 258.225 278.9 261.991L252.452 382.376C251.13 388.4 253.78 395.434 258.373 398.087L425.247 494.383C427.515 495.694 429.83 495.679 431.753 494.613C430.171 495.022 428.42 494.785 426.701 493.792Z" fill="#5F92D3"/>
<path d="M431.543 508.629L407.288 505.428L250.724 415.035C245.704 412.137 236.938 412.501 231.141 415.847L120.201 479.875L105.535 477.938V486.26L105.549 486.263C105.454 488.185 106.549 490.035 108.916 491.401L286.349 593.844C291.369 596.741 300.137 596.378 305.932 593.032L426.751 523.301C430.012 521.417 431.636 518.994 431.543 516.716V508.629Z" fill="#263C7A"/>
<path d="M313.906 451.512L302.781 445.09H180.489L120.201 479.875L105.535 477.938V486.26L105.549 486.263C105.454 488.185 106.549 490.035 108.916 491.401L286.349 593.844C289.002 595.375 292.702 595.987 296.456 595.738L313.906 451.512Z" fill="#4067B1"/>
<path d="M112.043 478.799L105.535 477.938V486.26L105.549 486.263C105.454 488.185 106.549 490.035 108.916 491.401L112.043 493.207V478.799Z" fill="#5F92D3"/>
<path d="M288.137 594.674C292.894 596.478 299.697 596.085 304.776 593.641V575.079H288.137V594.674Z" fill="#2E4B8D"/>
<path d="M286.349 585.532L108.916 483.091C103.896 480.192 104.526 475.131 110.322 471.784L231.141 402.053C236.938 398.707 245.704 398.344 250.724 401.241L428.158 503.684C433.176 506.581 432.548 511.642 426.751 514.989L305.932 584.72C300.137 588.067 291.369 588.43 286.349 585.532Z" fill="#D9EFFB"/>
<path d="M426.751 511.949L305.933 581.682C300.138 585.027 291.369 585.39 286.35 582.493L108.916 480.052C107.271 479.102 106.244 477.917 105.796 476.638C105.011 479.013 106.013 481.414 108.916 483.091L286.35 585.532C291.369 588.43 300.138 588.067 305.933 584.72L426.751 514.989C430.646 512.739 432.197 509.717 431.278 507.095C430.706 508.825 429.194 510.54 426.751 511.949Z" fill="white"/>
<path d="M184.381 449.177L176.353 444.541C175.71 444.169 175.79 443.519 176.534 443.09L186.01 437.618C186.754 437.188 187.881 437.142 188.525 437.514L196.552 442.15C197.197 442.522 197.115 443.171 196.371 443.602L186.896 449.073C186.152 449.503 185.026 449.549 184.381 449.177Z" fill="#5F92D3"/>
<path d="M196.779 456.334L188.751 451.699C188.106 451.327 188.187 450.678 188.931 450.248L198.408 444.776C199.152 444.346 200.278 444.3 200.923 444.672L208.95 449.307C209.595 449.679 209.515 450.33 208.771 450.759L199.294 456.23C198.55 456.66 197.424 456.706 196.779 456.334Z" fill="#5F92D3"/>
<path d="M209.177 463.492L201.15 458.856C200.505 458.486 200.585 457.835 201.329 457.405L210.806 451.935C211.55 451.505 212.676 451.457 213.321 451.829L221.349 456.465C221.994 456.837 221.912 457.488 221.167 457.918L211.692 463.388C210.948 463.818 209.821 463.864 209.177 463.492Z" fill="#5F92D3"/>
<path d="M226.323 457.582L218.296 452.946C217.651 452.574 217.733 451.924 218.477 451.495L226.431 446.902C227.175 446.472 228.3 446.426 228.946 446.798L236.975 451.432C237.618 451.806 237.538 452.455 236.793 452.885L228.838 457.478C228.094 457.908 226.969 457.954 226.323 457.582Z" fill="#5F92D3"/>
<path d="M238.722 464.739L230.694 460.104C230.049 459.732 230.131 459.083 230.875 458.653L238.829 454.06C239.573 453.63 240.699 453.583 241.344 453.956L249.371 458.591C250.016 458.963 249.936 459.612 249.192 460.042L241.236 464.635C240.493 465.065 239.367 465.111 238.722 464.739Z" fill="#5F92D3"/>
<path d="M251.12 471.897L243.092 467.261C242.447 466.889 242.529 466.24 243.273 465.81L251.227 461.217C251.971 460.787 253.097 460.741 253.742 461.113L261.771 465.748C262.415 466.121 262.334 466.771 261.59 467.2L253.635 471.793C252.89 472.223 251.765 472.269 251.12 471.897Z" fill="#5F92D3"/>
<path d="M263.518 479.054L255.489 474.42C254.845 474.048 254.926 473.398 255.67 472.969L263.625 468.376C264.369 467.946 265.495 467.898 266.14 468.272L274.167 472.906C274.813 473.278 274.731 473.928 273.987 474.357L266.033 478.95C265.289 479.38 264.163 479.426 263.518 479.054Z" fill="#5F92D3"/>
<path d="M275.916 486.213L267.887 481.578C267.242 481.206 267.324 480.555 268.068 480.126L276.022 475.533C276.766 475.103 277.893 475.057 278.537 475.429L286.564 480.063C287.211 480.437 287.129 481.088 286.385 481.517L278.431 486.109C277.685 486.539 276.56 486.585 275.916 486.213Z" fill="#5F92D3"/>
<path d="M288.313 493.371L280.285 488.737C279.642 488.365 279.722 487.714 280.466 487.284L288.42 482.693C289.164 482.261 290.291 482.214 290.935 482.587L298.964 487.222C299.608 487.594 299.528 488.245 298.783 488.674L290.828 493.266C290.084 493.696 288.958 493.743 288.313 493.371Z" fill="#5F92D3"/>
<path d="M300.711 500.53L292.683 495.894C292.039 495.522 292.121 494.871 292.863 494.441L300.819 489.85C301.563 489.42 302.688 489.372 303.333 489.744L311.361 494.379C312.006 494.752 311.926 495.403 311.181 495.833L303.226 500.424C302.482 500.854 301.356 500.902 300.711 500.53Z" fill="#5F92D3"/>
<path d="M313.11 507.687L305.082 503.052C304.437 502.68 304.517 502.03 305.262 501.6L313.217 497.008C313.961 496.578 315.087 496.53 315.73 496.903L323.759 501.538C324.404 501.91 324.322 502.56 323.578 502.99L315.624 507.582C314.88 508.011 313.753 508.059 313.11 507.687Z" fill="#5F92D3"/>
<path d="M325.508 514.845L317.479 510.209C316.833 509.837 316.915 509.187 317.66 508.757L325.615 504.165C326.359 503.735 327.485 503.69 328.128 504.06L336.157 508.695C336.801 509.068 336.72 509.719 335.976 510.148L328.022 514.742C327.278 515.171 326.151 515.217 325.508 514.845Z" fill="#5F92D3"/>
<path d="M337.904 522.002L329.877 517.368C329.232 516.996 329.312 516.347 330.056 515.917L338.011 511.324C338.756 510.894 339.883 510.847 340.527 511.22L348.556 515.855C349.199 516.225 349.119 516.876 348.375 517.306L340.419 521.899C339.675 522.328 338.55 522.374 337.904 522.002Z" fill="#5F92D3"/>
<path d="M244.592 454.192L236.563 449.557C235.92 449.185 236 448.536 236.744 448.106L244.698 443.513C245.442 443.084 246.569 443.036 247.213 443.41L255.242 448.044C255.885 448.416 255.807 449.065 255.061 449.495L247.107 454.088C246.363 454.518 245.236 454.564 244.592 454.192Z" fill="#5F92D3"/>
<path d="M232.009 446.928L223.98 442.294C223.335 441.92 223.417 441.27 224.161 440.84L232.115 436.248C232.861 435.818 233.986 435.771 234.63 436.143L242.659 440.779C243.304 441.151 243.222 441.802 242.478 442.231L234.524 446.823C233.78 447.253 232.653 447.3 232.009 446.928Z" fill="#5F92D3"/>
<path d="M219.406 439.65L202.115 429.668C201.47 429.296 201.551 428.647 202.296 428.217L210.25 423.624C210.994 423.194 212.12 423.148 212.765 423.52L230.055 433.502C230.7 433.874 230.618 434.525 229.874 434.954L221.92 439.546C221.176 439.976 220.05 440.023 219.406 439.65Z" fill="#5F92D3"/>
<path d="M228.214 430.802L214.183 422.7C213.539 422.328 213.62 421.679 214.364 421.248L222.318 416.656C223.062 416.227 224.189 416.181 224.834 416.553L238.865 424.652C239.509 425.024 239.429 425.675 238.684 426.105L230.729 430.696C229.985 431.128 228.859 431.174 228.214 430.802Z" fill="#5F92D3"/>
<path d="M256.989 461.35L248.961 456.714C248.316 456.342 248.398 455.693 249.142 455.264L257.098 450.67C257.842 450.241 258.966 450.195 259.611 450.567L267.64 455.203C268.284 455.575 268.203 456.224 267.459 456.654L259.504 461.247C258.76 461.677 257.634 461.722 256.989 461.35Z" fill="#5F92D3"/>
<path d="M269.388 468.508L261.36 463.873C260.715 463.501 260.795 462.852 261.541 462.422L269.495 457.829C270.239 457.399 271.365 457.353 272.009 457.725L280.037 462.36C280.682 462.732 280.6 463.381 279.856 463.811L271.902 468.404C271.158 468.834 270.032 468.88 269.388 468.508Z" fill="#5F92D3"/>
<path d="M281.786 475.666L273.758 471.03C273.111 470.658 273.193 470.009 273.938 469.579L281.891 464.986C282.637 464.556 283.763 464.51 284.407 464.882L292.435 469.518C293.08 469.89 292.998 470.539 292.254 470.969L284.3 475.562C283.556 475.992 282.429 476.038 281.786 475.666Z" fill="#5F92D3"/>
<path d="M294.183 482.823L286.155 478.189C285.511 477.817 285.591 477.167 286.335 476.738L294.289 472.145C295.035 471.715 296.16 471.669 296.806 472.041L304.834 476.675C305.478 477.047 305.398 477.697 304.654 478.126L296.698 482.719C295.954 483.149 294.829 483.195 294.183 482.823Z" fill="#5F92D3"/>
<path d="M306.58 489.982L298.553 485.347C297.908 484.975 297.988 484.324 298.732 483.895L306.688 479.302C307.432 478.872 308.557 478.826 309.203 479.198L317.231 483.834C317.875 484.206 317.795 484.855 317.051 485.286L309.097 489.878C308.353 490.308 307.226 490.354 306.58 489.982Z" fill="#5F92D3"/>
<path d="M318.979 497.14L310.951 492.506C310.306 492.134 310.388 491.483 311.132 491.053L319.086 486.46C319.83 486.03 320.956 485.984 321.601 486.356L329.628 490.991C330.274 491.363 330.193 492.014 329.449 492.443L321.494 497.035C320.749 497.465 319.623 497.512 318.979 497.14Z" fill="#5F92D3"/>
<path d="M331.377 504.299L323.349 499.663C322.704 499.291 322.785 498.64 323.529 498.21L331.484 493.619C332.228 493.189 333.354 493.141 333.997 493.513L342.026 498.149C342.672 498.521 342.591 499.172 341.845 499.602L333.892 504.193C333.147 504.623 332.02 504.671 331.377 504.299Z" fill="#5F92D3"/>
<path d="M343.775 511.456L335.746 506.821C335.103 506.449 335.183 505.799 335.927 505.369L343.882 500.777C344.626 500.347 345.752 500.3 346.397 500.672L354.425 505.306C355.069 505.678 354.989 506.329 354.245 506.759L346.289 511.35C345.545 511.78 344.42 511.828 343.775 511.456Z" fill="#5F92D3"/>
<path d="M356.173 518.614L348.144 513.978C347.501 513.606 347.579 512.956 348.325 512.526L356.281 507.934C357.025 507.504 358.15 507.457 358.794 507.829L366.823 512.465C367.466 512.837 367.386 513.488 366.642 513.917L358.688 518.51C357.944 518.94 356.817 518.986 356.173 518.614Z" fill="#5F92D3"/>
<path d="M378.213 531.339L360.696 521.226C360.051 520.854 360.133 520.203 360.877 519.773L368.831 515.18C369.575 514.75 370.702 514.704 371.348 515.076L388.863 525.19C389.508 525.562 389.428 526.213 388.683 526.643L380.728 531.234C379.984 531.664 378.858 531.711 378.213 531.339Z" fill="#5F92D3"/>
<path d="M402.352 517.403L387.566 508.868C386.92 508.496 387.002 507.845 387.746 507.416L395.7 502.824C396.446 502.393 397.57 502.347 398.215 502.719L413.001 511.254C413.645 511.626 413.564 512.277 412.82 512.705L404.865 517.3C404.121 517.728 402.995 517.775 402.352 517.403Z" fill="#5F92D3"/>
<path d="M278.701 459.95L270.674 455.315C270.027 454.943 270.109 454.291 270.853 453.863L278.807 449.271C279.553 448.842 280.679 448.793 281.322 449.165L289.351 453.801C289.996 454.173 289.914 454.823 289.17 455.253L281.216 459.845C280.472 460.276 279.345 460.322 278.701 459.95Z" fill="#5F92D3"/>
<path d="M265.996 452.615L257.967 447.979C257.321 447.607 257.403 446.956 258.148 446.527L266.101 441.935C266.847 441.504 267.973 441.458 268.616 441.83L276.645 446.464C277.29 446.838 277.208 447.488 276.464 447.918L268.51 452.51C267.766 452.94 266.639 452.987 265.996 452.615Z" fill="#5F92D3"/>
<path d="M253.288 445.277L245.26 440.643C244.615 440.271 244.697 439.62 245.441 439.192L253.395 434.597C254.139 434.169 255.265 434.121 255.91 434.493L263.939 439.129C264.582 439.501 264.502 440.151 263.758 440.58L255.803 445.173C255.059 445.603 253.933 445.649 253.288 445.277Z" fill="#5F92D3"/>
<path d="M240.582 437.942L232.554 433.306C231.909 432.934 231.991 432.285 232.735 431.855L240.689 427.262C241.433 426.832 242.559 426.787 243.204 427.159L251.233 431.793C251.876 432.165 251.796 432.816 251.052 433.244L243.096 437.839C242.352 438.267 241.227 438.314 240.582 437.942Z" fill="#5F92D3"/>
<path d="M291.098 467.108L283.071 462.472C282.426 462.1 282.507 461.45 283.251 461.02L291.205 456.428C291.95 455.999 293.075 455.953 293.722 456.323L301.75 460.958C302.393 461.331 302.312 461.982 301.569 462.412L293.613 467.005C292.869 467.434 291.744 467.48 291.098 467.108Z" fill="#5F92D3"/>
<path d="M303.496 474.265L295.467 469.631C294.824 469.259 294.904 468.608 295.648 468.18L303.604 463.587C304.348 463.157 305.473 463.11 306.119 463.482L314.146 468.118C314.791 468.49 314.711 469.139 313.967 469.569L306.013 474.162C305.267 474.592 304.142 474.637 303.496 474.265Z" fill="#5F92D3"/>
<path d="M315.895 481.424L307.867 476.788C307.222 476.416 307.303 475.767 308.047 475.337L316.002 470.744C316.746 470.314 317.872 470.268 318.517 470.64L326.544 475.275C327.19 475.648 327.109 476.297 326.365 476.727L318.41 481.32C317.665 481.75 316.538 481.796 315.895 481.424Z" fill="#5F92D3"/>
<path d="M328.293 488.581L320.264 483.946C319.62 483.574 319.701 482.925 320.445 482.496L328.399 477.903C329.144 477.473 330.27 477.425 330.913 477.799L338.942 482.433C339.586 482.805 339.506 483.454 338.761 483.884L330.806 488.477C330.062 488.907 328.936 488.953 328.293 488.581Z" fill="#5F92D3"/>
<path d="M340.691 495.74L332.662 491.104C332.017 490.732 332.099 490.082 332.843 489.653L340.797 485.06C341.541 484.63 342.668 484.584 343.312 484.956L351.341 489.59C351.984 489.964 351.904 490.613 351.159 491.043L343.204 495.636C342.46 496.066 341.335 496.112 340.691 495.74Z" fill="#5F92D3"/>
<path d="M353.088 502.897L345.06 498.262C344.417 497.89 344.495 497.241 345.241 496.811L353.197 492.218C353.939 491.788 355.065 491.741 355.71 492.114L363.739 496.749C364.382 497.121 364.302 497.77 363.558 498.2L355.603 502.793C354.859 503.223 353.733 503.269 353.088 502.897Z" fill="#5F92D3"/>
<path d="M365.486 510.055L357.458 505.419C356.813 505.047 356.894 504.398 357.64 503.968L365.593 499.375C366.338 498.945 367.463 498.899 368.108 499.271L376.136 503.906C376.781 504.279 376.7 504.929 375.956 505.358L368.001 509.951C367.257 510.381 366.131 510.427 365.486 510.055Z" fill="#5F92D3"/>
<path d="M377.884 517.214L369.857 512.579C369.211 512.207 369.292 511.556 370.036 511.127L377.991 506.534C378.736 506.104 379.861 506.056 380.506 506.43L388.534 511.064C389.179 511.436 389.097 512.087 388.353 512.517L380.399 517.108C379.655 517.538 378.529 517.584 377.884 517.214Z" fill="#5F92D3"/>
<path d="M390.282 524.372L382.255 519.736C381.608 519.364 381.69 518.714 382.434 518.284L390.388 513.692C391.132 513.261 392.259 513.215 392.905 513.587L400.932 518.221C401.577 518.595 401.495 519.246 400.751 519.675L392.797 524.267C392.053 524.697 390.928 524.744 390.282 524.372Z" fill="#5F92D3"/>
<path d="M272.173 442.245L264.145 437.61C263.5 437.238 263.582 436.588 264.326 436.158L272.28 431.565C273.024 431.135 274.15 431.089 274.794 431.461L282.822 436.097C283.468 436.469 283.387 437.118 282.641 437.55L274.688 442.141C273.943 442.571 272.817 442.617 272.173 442.245Z" fill="#5F92D3"/>
<path d="M259.836 435.123L251.808 430.487C251.163 430.115 251.245 429.465 251.989 429.035L259.945 424.443C260.689 424.014 261.814 423.966 262.458 424.338L270.487 428.974C271.13 429.346 271.05 429.997 270.306 430.427L262.352 435.018C261.608 435.449 260.481 435.495 259.836 435.123Z" fill="#5F92D3"/>
<path d="M247.501 428L239.472 423.366C238.828 422.992 238.908 422.343 239.653 421.913L247.607 417.32C248.351 416.891 249.478 416.845 250.123 417.217L258.151 421.853C258.794 422.225 258.713 422.874 257.97 423.304L250.014 427.897C249.27 428.326 248.145 428.372 247.501 428Z" fill="#5F92D3"/>
<path d="M235.164 420.877L227.135 416.244C226.491 415.872 226.572 415.22 227.316 414.79L235.271 410.197C236.016 409.769 237.141 409.722 237.786 410.094L245.814 414.73C246.459 415.102 246.377 415.751 245.633 416.182L237.679 420.774C236.935 421.203 235.809 421.249 235.164 420.877Z" fill="#5F92D3"/>
<path d="M247.849 413.554L239.821 408.918C239.176 408.546 239.258 407.897 240.002 407.467L242.631 405.948C243.376 405.518 244.501 405.473 245.146 405.845L253.174 410.481C253.819 410.853 253.739 411.502 252.994 411.932L250.364 413.451C249.62 413.88 248.494 413.926 247.849 413.554Z" fill="#5F92D3"/>
<path d="M263.949 422.85L255.921 418.214C255.274 417.842 255.356 417.191 256.101 416.762L258.729 415.244C259.475 414.814 260.601 414.767 261.244 415.139L269.273 419.775C269.918 420.147 269.836 420.797 269.092 421.227L266.463 422.745C265.719 423.175 264.592 423.222 263.949 422.85Z" fill="#5F92D3"/>
<path d="M276.233 429.942L268.206 425.307C267.559 424.935 267.641 424.283 268.385 423.853L271.014 422.337C271.758 421.907 272.885 421.86 273.531 422.234L281.558 426.867C282.203 427.239 282.121 427.889 281.377 428.319L278.748 429.837C278.004 430.266 276.877 430.314 276.233 429.942Z" fill="#5F92D3"/>
<path d="M288.518 437.034L280.489 432.399C279.844 432.027 279.926 431.377 280.67 430.947L283.299 429.429C284.043 428.999 285.17 428.953 285.814 429.325L293.843 433.96C294.488 434.332 294.406 434.983 293.662 435.411L291.033 436.93C290.287 437.36 289.161 437.407 288.518 437.034Z" fill="#5F92D3"/>
<path d="M300.803 444.127L292.775 439.491C292.13 439.119 292.211 438.47 292.955 438.04L295.585 436.521C296.329 436.091 297.455 436.045 298.1 436.417L306.128 441.053C306.771 441.425 306.691 442.074 305.947 442.504L303.317 444.023C302.573 444.453 301.446 444.499 300.803 444.127Z" fill="#5F92D3"/>
<path d="M369.387 483.724L361.358 479.09C360.714 478.716 360.794 478.066 361.539 477.636L364.169 476.118C364.914 475.69 366.04 475.642 366.684 476.014L374.712 480.65C375.357 481.022 375.275 481.671 374.531 482.101L371.902 483.619C371.158 484.05 370.032 484.096 369.387 483.724Z" fill="#5F92D3"/>
<path d="M381.671 490.816L373.644 486.182C372.999 485.809 373.08 485.16 373.823 484.731L376.454 483.211C377.198 482.782 378.324 482.736 378.969 483.108L386.996 487.742C387.642 488.114 387.56 488.765 386.816 489.193L384.187 490.712C383.443 491.142 382.317 491.19 381.671 490.816Z" fill="#5F92D3"/>
<path d="M393.956 497.909L385.927 493.273C385.284 492.901 385.365 492.252 386.109 491.822L388.739 490.303C389.483 489.873 390.609 489.827 391.252 490.199L399.281 494.835C399.926 495.207 399.846 495.857 399.1 496.286L396.472 497.806C395.727 498.235 394.6 498.281 393.956 497.909Z" fill="#5F92D3"/>
<path d="M406.242 505.001L398.214 500.367C397.569 499.995 397.649 499.345 398.395 498.916L401.024 497.397C401.768 496.967 402.894 496.921 403.537 497.293L411.566 501.927C412.211 502.299 412.129 502.948 411.385 503.38L408.756 504.897C408.012 505.327 406.885 505.373 406.242 505.001Z" fill="#5F92D3"/>
<path d="M284.571 449.403L276.543 444.769C275.898 444.397 275.979 443.746 276.723 443.316L284.678 438.723C285.422 438.294 286.548 438.246 287.191 438.62L295.22 443.254C295.865 443.626 295.785 444.277 295.039 444.707L287.085 449.298C286.341 449.728 285.214 449.775 284.571 449.403Z" fill="#5F92D3"/>
<path d="M296.969 456.562L288.94 451.926C288.295 451.554 288.376 450.903 289.121 450.473L297.075 445.882C297.819 445.452 298.946 445.405 299.591 445.777L307.619 450.413C308.262 450.785 308.181 451.435 307.437 451.865L299.482 456.457C298.738 456.886 297.613 456.934 296.969 456.562Z" fill="#5F92D3"/>
<path d="M309.366 463.719L301.338 459.084C300.693 458.712 300.773 458.062 301.519 457.632L309.475 453.04C310.217 452.611 311.344 452.562 311.988 452.935L320.017 457.57C320.66 457.942 320.58 458.592 319.836 459.022L311.882 463.614C311.138 464.043 310.011 464.091 309.366 463.719Z" fill="#5F92D3"/>
<path d="M321.764 470.877L313.736 466.241C313.091 465.869 313.172 465.219 313.916 464.789L321.871 460.197C322.616 459.768 323.741 459.72 324.386 460.092L332.415 464.728C333.059 465.1 332.978 465.751 332.234 466.181L324.279 470.774C323.535 471.203 322.409 471.249 321.764 470.877Z" fill="#5F92D3"/>
<path d="M334.162 478.034L326.135 473.4C325.489 473.028 325.57 472.379 326.314 471.947L334.269 467.356C335.014 466.926 336.139 466.879 336.784 467.252L344.812 471.885C345.457 472.257 345.375 472.908 344.631 473.338L336.677 477.931C335.933 478.36 334.807 478.406 334.162 478.034Z" fill="#5F92D3"/>
<path d="M346.56 485.193L338.531 480.557C337.886 480.185 337.968 479.536 338.712 479.106L346.666 474.513C347.41 474.083 348.537 474.037 349.183 474.409L357.21 479.045C357.855 479.417 357.773 480.066 357.029 480.496L349.075 485.089C348.329 485.519 347.206 485.565 346.56 485.193Z" fill="#5F92D3"/>
<path d="M358.958 492.35L350.929 487.715C350.286 487.343 350.366 486.694 351.11 486.264L359.064 481.671C359.808 481.242 360.935 481.196 361.581 481.568L369.608 486.202C370.253 486.574 370.173 487.223 369.429 487.653L361.473 492.246C360.729 492.676 359.602 492.722 358.958 492.35Z" fill="#5F92D3"/>
<path d="M371.355 499.509L363.327 494.873C362.683 494.501 362.765 493.851 363.509 493.422L371.463 488.829C372.207 488.399 373.332 488.353 373.977 488.725L382.006 493.361C382.65 493.733 382.57 494.382 381.825 494.812L373.87 499.405C373.126 499.835 372 499.881 371.355 499.509Z" fill="#5F92D3"/>
<path d="M383.754 506.666L375.726 502.031C375.081 501.659 375.163 501.01 375.907 500.58L383.861 495.987C384.605 495.557 385.732 495.511 386.375 495.883L394.403 500.518C395.048 500.89 394.968 501.539 394.222 501.969L386.268 506.562C385.524 506.992 384.398 507.038 383.754 506.666Z" fill="#5F92D3"/>
<path d="M213.69 450.287L190.046 436.635C189.401 436.263 189.483 435.614 190.227 435.184L198.181 430.591C198.925 430.161 200.052 430.115 200.696 430.487L224.34 444.139C224.985 444.511 224.903 445.16 224.159 445.59L216.205 450.183C215.459 450.613 214.334 450.659 213.69 450.287Z" fill="#5F92D3"/>
<path d="M366 538.224L342.357 524.572C341.712 524.2 341.793 523.551 342.537 523.121L350.492 518.528C351.236 518.098 352.362 518.053 353.008 518.425L376.651 532.075C377.295 532.447 377.215 533.097 376.471 533.526L368.516 538.12C367.77 538.548 366.647 538.596 366 538.224Z" fill="#5F92D3"/>
<path d="M316.42 525.41L308.391 520.774C307.747 520.402 307.828 519.751 308.572 519.321L318.049 513.851C318.793 513.421 319.918 513.375 320.564 513.747L328.591 518.383C329.236 518.755 329.156 519.404 328.412 519.834L318.935 525.304C318.19 525.736 317.065 525.782 316.42 525.41Z" fill="#5F92D3"/>
<path d="M226.385 473.43L213.546 466.016C212.903 465.644 212.983 464.993 213.727 464.564L223.203 459.093C223.947 458.663 225.074 458.616 225.718 458.988L238.558 466.4C239.203 466.773 239.121 467.424 238.377 467.854L228.901 473.324C228.156 473.753 227.032 473.8 226.385 473.43Z" fill="#5F92D3"/>
<path d="M304.474 518.512L291.635 511.1C290.991 510.728 291.072 510.077 291.816 509.648L301.292 504.177C302.036 503.747 303.162 503.7 303.806 504.072L316.645 511.485C317.29 511.857 317.21 512.508 316.464 512.938L306.989 518.408C306.245 518.838 305.119 518.884 304.474 518.512Z" fill="#5F92D3"/>
<path d="M244.274 483.755L231.435 476.342C230.79 475.97 230.87 475.321 231.614 474.891L241.091 469.419C241.835 468.989 242.961 468.943 243.606 469.315L256.445 476.729C257.09 477.101 257.009 477.751 256.265 478.181L246.789 483.652C246.044 484.081 244.918 484.127 244.274 483.755Z" fill="#5F92D3"/>
<path d="M243.693 469.366L299.515 501.594C300.207 501.994 300.207 502.642 299.515 503.042L289.85 508.622C289.158 509.021 288.036 509.021 287.343 508.622L231.521 476.394L243.693 469.366Z" fill="#5F92D3"/>
<path d="M351.07 538.388L360.013 543.551C360.542 543.856 360.475 544.388 359.866 544.741L355.987 546.979C355.378 547.331 354.455 547.368 353.927 547.063L344.984 541.901C344.457 541.596 344.522 541.062 345.132 540.711L349.008 538.473C349.619 538.12 350.541 538.083 351.07 538.388Z" fill="#5F92D3"/>
<path d="M338.568 531.169L347.513 536.333C348.04 536.638 347.974 537.17 347.364 537.524L343.487 539.761C342.878 540.113 341.955 540.152 341.426 539.847L332.484 534.685C331.955 534.379 332.02 533.846 332.632 533.493L336.508 531.255C337.119 530.904 338.04 530.864 338.568 531.169Z" fill="#5F92D3"/>
<path d="M326.172 524.012L335.114 529.176C335.643 529.481 335.576 530.013 334.967 530.366L331.09 532.602C330.479 532.956 329.556 532.994 329.028 532.688L320.087 527.526C319.558 527.219 319.624 526.687 320.233 526.336L324.111 524.098C324.721 523.745 325.643 523.707 326.172 524.012Z" fill="#5F92D3"/>
<path d="M345.416 527.218L354.359 532.38C354.886 532.685 354.82 533.217 354.21 533.572L350.335 535.808C349.724 536.161 348.802 536.199 348.272 535.894L339.33 530.732C338.802 530.427 338.869 529.893 339.478 529.54L343.354 527.302C343.965 526.951 344.888 526.911 345.416 527.218Z" fill="#5F92D3"/>
<path d="M394.388 387.547L327.608 348.991L328.466 344.65L395.248 383.207L394.388 387.547Z" fill="#D9EFFB"/>
<path d="M370.472 394.874L323.856 367.958L324.714 363.618L371.33 390.531L370.472 394.874Z" fill="#D9EFFB"/>
<path d="M366.059 381.759L325.73 358.475L326.59 354.133L366.919 377.416L366.059 381.759Z" fill="white"/>
<path d="M392.512 397.032L372.347 385.389L373.206 381.048L393.372 392.689L392.512 397.032Z" fill="#1EA9E4"/>
<path d="M320.496 311.113L300.332 299.472L301.191 295.13L321.355 306.772L320.496 311.113Z" fill="#D9EFFB"/>
<path d="M318.307 321.203L298.144 309.56L299.002 305.219L319.168 316.861L318.307 321.203Z" fill="white"/>
<path d="M417.278 461.146L397.113 449.506L397.972 445.163L418.138 456.806L417.278 461.146Z" fill="#D9EFFB"/>
<path d="M313.931 341.382L293.768 329.739L294.627 325.399L314.79 337.04L313.931 341.382Z" fill="#D9EFFB"/>
<path d="M357.501 344.507C356.857 345.909 355.234 346.408 353.875 345.624C352.516 344.838 351.934 343.067 352.577 341.664C353.219 340.263 354.842 339.762 356.202 340.548C357.561 341.333 358.142 343.106 357.501 344.507Z" fill="#1EA9E4"/>
<path d="M366.185 349.522C365.544 350.922 363.919 351.423 362.56 350.638C361.2 349.854 360.619 348.08 361.262 346.679C361.904 345.277 363.527 344.778 364.887 345.562C366.246 346.347 366.829 348.12 366.185 349.522Z" fill="white"/>
<path d="M374.872 354.537C374.229 355.938 372.604 356.437 371.245 355.653C369.885 354.868 369.305 353.095 369.947 351.693C370.59 350.293 372.213 349.792 373.572 350.577C374.933 351.361 375.514 353.134 374.872 354.537Z" fill="#D9EFFB"/>
<path d="M383.556 359.551C382.912 360.953 381.291 361.453 379.932 360.667C378.571 359.882 377.989 358.109 378.632 356.709C379.274 355.305 380.898 354.806 382.257 355.591C383.618 356.377 384.197 358.149 383.556 359.551Z" fill="#1EA9E4"/>
<path d="M281.71 310.836L240.516 287.059C239.699 286.589 238.882 286.571 238.175 286.889L238.184 286.863L233.273 289.169C233.273 289.169 235.118 289.816 236.2 290.197L230.255 320.187C229.772 322.626 230.863 325.462 232.693 326.517L272.068 349.243L271.371 352.762L276.33 350.438L276.308 350.43C277.15 350.015 277.818 349.102 278.079 347.789L284.15 317.168C284.633 314.727 283.541 311.893 281.71 310.836Z" fill="#0C97D1"/>
<path d="M268.89 352.639L227.694 328.863C225.864 327.806 224.771 324.972 225.255 322.531L231.325 291.91C231.808 289.469 233.685 288.348 235.515 289.404L276.711 313.181C278.54 314.238 279.634 317.071 279.151 319.512L273.08 350.134C272.597 352.575 270.719 353.695 268.89 352.639Z" fill="#1EA9E4"/>
<path d="M245.224 318.309C244.873 320.083 243.344 320.8 241.81 319.914C240.274 319.028 239.314 316.874 239.665 315.1C240.016 313.329 241.546 312.612 243.081 313.497C244.615 314.383 245.576 316.538 245.224 318.309Z" fill="white"/>
<path d="M253.646 323.17C253.293 324.941 251.765 325.66 250.229 324.774C248.694 323.888 247.735 321.734 248.086 319.962C248.436 318.189 249.966 317.472 251.501 318.358C253.036 319.243 253.995 321.398 253.646 323.17Z" fill="white"/>
<path d="M262.065 328.03C261.714 329.801 260.185 330.52 258.651 329.634C257.114 328.747 256.155 326.592 256.506 324.821C256.857 323.05 258.387 322.331 259.922 323.218C261.456 324.104 262.417 326.259 262.065 328.03Z" fill="white"/>
<path d="M263.217 272.334L222.021 248.559C221.206 248.086 220.389 248.069 219.682 248.387L219.691 248.36L214.779 250.669C214.779 250.669 216.624 251.312 217.706 251.693L211.76 281.683C211.277 284.124 212.369 286.958 214.2 288.015L253.575 310.741L252.876 314.26L257.837 311.936L257.813 311.929C258.655 311.512 259.325 310.599 259.584 309.287L265.655 278.664C266.138 276.225 265.047 273.391 263.217 272.334Z" fill="#5F92D3"/>
<path d="M250.395 314.137L209.2 290.36C207.369 289.303 206.278 286.469 206.761 284.03L212.832 253.408C213.315 250.967 215.191 249.847 217.021 250.903L258.218 274.679C260.048 275.736 261.139 278.57 260.656 281.009L254.585 311.632C254.102 314.072 252.226 315.194 250.395 314.137Z" fill="#D9EFFB"/>
<path d="M226.731 279.809C226.38 281.58 224.85 282.298 223.315 281.412C221.781 280.526 220.82 278.371 221.172 276.6C221.523 274.829 223.051 274.108 224.588 274.995C226.122 275.881 227.082 278.036 226.731 279.809Z" fill="white"/>
<path d="M235.151 284.667C234.799 286.439 233.27 287.158 231.736 286.272C230.2 285.387 229.24 283.231 229.593 281.46C229.942 279.687 231.472 278.968 233.007 279.855C234.541 280.741 235.502 282.896 235.151 284.667Z" fill="white"/>
<path d="M243.572 289.527C243.219 291.301 241.691 292.018 240.155 291.132C238.62 290.246 237.661 288.092 238.012 286.318C238.364 284.547 239.892 283.83 241.427 284.714C242.963 285.601 243.923 287.756 243.572 289.527Z" fill="white"/>
</g>
</svg>
