<svg width="388" height="221" viewBox="0 0 388 221" fill="none" xmlns="http://www.w3.org/2000/svg">
<path d="M309.624 86.4216H388L375.233 95.6347V113.761C375.233 115.851 373.538 117.545 371.448 117.545H309.624C307.533 117.545 305.838 115.851 305.838 113.761V90.2064C305.838 88.1157 307.533 86.4216 309.624 86.4216Z" fill="#F3F2F1"/>
<path d="M312.893 99.2314C312.893 99.3067 324.714 99.3683 339.292 99.3683C353.875 99.3683 365.694 99.3067 365.694 99.2314C365.694 99.1555 353.875 99.0944 339.292 99.0944C324.714 99.0944 312.893 99.1555 312.893 99.2314Z" fill="#DADBD8"/>
<path d="M312.893 106.19C312.893 106.266 324.714 106.327 339.292 106.327C353.875 106.327 365.694 106.266 365.694 106.19C365.694 106.115 353.875 106.054 339.292 106.054C324.714 106.054 312.893 106.115 312.893 106.19Z" fill="#DADBD8"/>
<path d="M190.59 19.5374H186.922V31.8235H190.59V19.5374Z" fill="#DADBD8"/>
<path d="M159.954 17.7575H156.287V31.8235H159.954V17.7575Z" fill="#DADBD8"/>
<path d="M167.614 14.8258H163.945V31.8235H167.614V14.8258Z" fill="#DADBD8"/>
<path d="M175.272 15.7581H171.605V31.8235H175.272V15.7581Z" fill="#DADBD8"/>
<path d="M182.931 10.3232H179.263V31.8235H182.931V10.3232Z" fill="#DADBD8"/>
<path d="M198.249 10.4277H194.581V31.8235H198.249V10.4277Z" fill="#DADBD8"/>
<path d="M205.908 17.455H202.24V31.8235H205.908V17.455Z" fill="#DADBD8"/>
<path d="M213.567 11.3699H209.899V31.8235H213.567V11.3699Z" fill="#DADBD8"/>
<path d="M221.225 6.76283H217.557V31.8235H221.225V6.76283Z" fill="#DADBD8"/>
<path d="M228.884 11.2654H225.216V31.8235H228.884V11.2654Z" fill="#DADBD8"/>
<path d="M325.525 30.6844L355.858 26.0493C358.4 42.6889 346.8 58.4738 330.16 61.0161C313.52 63.5584 297.736 51.9587 295.194 35.319C292.651 18.6793 304.251 2.89497 320.891 0.352161C323.54 -0.0526657 326.231 -0.108757 328.894 0.185513L325.525 30.6844Z" fill="#E7E8E5"/>
<path d="M335.367 0.282808L331.685 23.7952L354.765 19.4609C354.765 19.4609 351.371 6.28369 335.367 0.282808Z" fill="#DADBD8"/>
<path d="M38.0401 87.3633C37.9765 83.3805 34.6991 80.192 30.7347 80.2563C26.7697 80.3201 23.596 83.6126 23.6598 87.5954C23.7235 91.5782 27.0007 94.7668 30.9657 94.703C34.93 94.6386 38.1037 91.3461 38.0401 87.3633ZM15.8122 87.7219C15.679 79.3922 22.3168 72.5058 30.6084 72.3721C38.9003 72.2384 45.7548 78.9065 45.8878 87.2368C46.021 95.5671 39.3834 102.453 31.0916 102.587C22.7996 102.72 15.9452 96.0522 15.8122 87.7219Z" fill="#F3F2F1"/>
<path d="M15.8122 87.7219C15.679 79.3922 22.3168 72.5063 30.6084 72.3721L30.7347 80.2563C26.7697 80.3201 23.596 83.6126 23.6598 87.5954C23.7235 91.5782 27.0007 94.7668 30.9657 94.703L31.0916 102.587C22.7996 102.72 15.9454 96.0522 15.8122 87.7219Z" fill="#DADBD8"/>
<path d="M29.2582 71.1598C38.959 71.003 46.6977 78.5319 46.8535 88.2774L37.6724 88.4254C37.5979 83.7655 34.0523 80.8316 29.414 80.907L29.2582 71.1598Z" fill="#E7E8E5"/>
<path d="M113.52 163.495H94.4038V140.768H113.52V163.495Z" fill="#F3F2F1"/>
<path d="M95.0622 164.923H8.67029V139.287H95.0622V164.923Z" fill="#DADBD8"/>
<path d="M114.099 141.443H92.746V139.287H114.099C114.695 139.287 115.177 139.769 115.177 140.365C115.177 140.96 114.695 141.443 114.099 141.443Z" fill="#DADBD8"/>
<path d="M114.099 164.923H92.746V162.768H114.099C114.695 162.768 115.177 163.25 115.177 163.846C115.177 164.441 114.695 164.923 114.099 164.923Z" fill="#DADBD8"/>
<path d="M78.0629 139.287V164.923H88.2699V139.287H78.0629Z" fill="#E7E8E5"/>
<path d="M16.8865 139.57V165.208H27.0933V139.57H16.8865Z" fill="#E7E8E5"/>
<path d="M113.52 144.527C113.52 144.59 109.383 144.641 104.28 144.641C99.1754 144.641 95.0391 144.59 95.0391 144.527C95.0391 144.465 99.1754 144.414 104.28 144.414C109.383 144.414 113.52 144.465 113.52 144.527Z" fill="#DADBD8"/>
<path d="M113.52 147.935C113.52 147.998 109.383 148.049 104.28 148.049C99.1754 148.049 95.0391 147.998 95.0391 147.935C95.0391 147.872 99.1754 147.821 104.28 147.821C109.383 147.821 113.52 147.872 113.52 147.935Z" fill="#DADBD8"/>
<path d="M113.52 152.131C113.52 152.194 109.383 152.244 104.28 152.244C99.1754 152.244 95.0391 152.194 95.0391 152.131C95.0391 152.068 99.1754 152.017 104.28 152.017C109.383 152.017 113.52 152.068 113.52 152.131Z" fill="#DADBD8"/>
<path d="M113.52 156.327C113.52 156.391 109.383 156.441 104.28 156.441C99.1754 156.441 95.0391 156.391 95.0391 156.327C95.0391 156.265 99.1754 156.214 104.28 156.214C109.383 156.214 113.52 156.265 113.52 156.327Z" fill="#DADBD8"/>
<path d="M113.52 160.524C113.52 160.586 109.383 160.637 104.28 160.637C99.1754 160.637 95.0391 160.586 95.0391 160.524C95.0391 160.461 99.1754 160.41 104.28 160.41C109.383 160.41 113.52 160.461 113.52 160.524Z" fill="#DADBD8"/>
<path d="M72.5756 154.44H33.7089V149.823H72.5756V154.44Z" fill="#E7E8E5"/>
<path d="M113.326 179.274H93.916V165.426H113.326V179.274Z" fill="#FAFAF9"/>
<path d="M94.1332 179.776H11.5309V164.923H94.1332V179.776Z" fill="#F3F2F1"/>
<path d="M93.5331 165.928H114.395C114.673 165.928 114.897 165.703 114.897 165.426C114.897 165.148 114.673 164.923 114.395 164.923H93.5331V165.928Z" fill="#F3F2F1"/>
<path d="M93.5331 179.776H114.667C114.794 179.776 114.897 179.673 114.897 179.545V179.002C114.897 178.874 114.794 178.771 114.667 178.771H93.5331V179.776Z" fill="#F3F2F1"/>
<path d="M113.326 168.057C113.326 168.12 109.029 168.171 103.73 168.171C98.429 168.171 94.1332 168.12 94.1332 168.057C94.1332 167.994 98.429 167.943 103.73 167.943C109.029 167.943 113.326 167.994 113.326 168.057Z" fill="#DADBD8"/>
<path d="M113.326 170.676C113.326 170.739 109.029 170.79 103.73 170.79C98.429 170.79 94.1332 170.739 94.1332 170.676C94.1332 170.614 98.429 170.563 103.73 170.563C109.029 170.563 113.326 170.614 113.326 170.676Z" fill="#DADBD8"/>
<path d="M113.326 173.296C113.326 173.359 109.029 173.41 103.73 173.41C98.429 173.41 94.1332 173.359 94.1332 173.296C94.1332 173.234 98.429 173.183 103.73 173.183C109.029 173.183 113.326 173.234 113.326 173.296Z" fill="#DADBD8"/>
<path d="M113.326 175.916C113.326 175.979 109.029 176.03 103.73 176.03C98.429 176.03 94.1332 175.979 94.1332 175.916C94.1332 175.853 98.429 175.803 103.73 175.803C109.029 175.803 113.326 175.853 113.326 175.916Z" fill="#DADBD8"/>
<path d="M116.27 218.634H96.4582V181.096H116.27V218.634Z" fill="#E7E8E5"/>
<path d="M96.4582 220.477H3.46387V179.776H96.4582V220.477Z" fill="#DADBD8"/>
<path d="M117.82 220.477H93.916V217.838H117.82C118.549 217.838 119.141 218.429 119.141 219.158C119.141 219.887 118.549 220.477 117.82 220.477Z" fill="#DADBD8"/>
<path d="M118.535 182.415H93.916V179.776H118.535C118.869 179.776 119.141 180.047 119.141 180.382V181.81C119.141 182.145 118.869 182.415 118.535 182.415Z" fill="#DADBD8"/>
<path d="M116.27 186.128C116.27 186.19 111.835 186.241 106.365 186.241C100.893 186.241 96.4582 186.19 96.4582 186.128C96.4582 186.065 100.893 186.014 106.365 186.014C111.835 186.014 116.27 186.065 116.27 186.128Z" fill="#DADBD8"/>
<path d="M116.27 190.943C116.27 191.005 111.835 191.056 106.365 191.056C100.893 191.056 96.4582 191.005 96.4582 190.943C96.4582 190.88 100.893 190.829 106.365 190.829C111.835 190.829 116.27 190.88 116.27 190.943Z" fill="#DADBD8"/>
<path d="M116.27 195.757C116.27 195.819 111.835 195.87 106.365 195.87C100.893 195.87 96.4582 195.819 96.4582 195.757C96.4582 195.694 100.893 195.643 106.365 195.643C111.835 195.643 116.27 195.694 116.27 195.757Z" fill="#DADBD8"/>
<path d="M116.27 200.572C116.27 200.634 111.835 200.685 106.365 200.685C100.893 200.685 96.4582 200.634 96.4582 200.572C96.4582 200.509 100.893 200.458 106.365 200.458C111.835 200.458 116.27 200.509 116.27 200.572Z" fill="#DADBD8"/>
<path d="M116.27 205.386C116.27 205.449 111.835 205.5 106.365 205.5C100.893 205.5 96.4582 205.449 96.4582 205.386C96.4582 205.323 100.893 205.273 106.365 205.273C111.835 205.273 116.27 205.323 116.27 205.386Z" fill="#DADBD8"/>
<path d="M116.27 210.2C116.27 210.263 111.835 210.314 106.365 210.314C100.893 210.314 96.4582 210.263 96.4582 210.2C96.4582 210.138 100.893 210.087 106.365 210.087C111.835 210.087 116.27 210.138 116.27 210.2Z" fill="#DADBD8"/>
<path d="M116.27 215.016C116.27 215.078 111.835 215.129 106.365 215.129C100.893 215.129 96.4582 215.078 96.4582 215.016C96.4582 214.952 100.893 214.901 106.365 214.901C111.835 214.901 116.27 214.952 116.27 215.016Z" fill="#DADBD8"/>
<path d="M35.2856 202.354V204.619C35.2856 207.346 33.9221 208.905 31.2918 208.905C28.662 208.905 27.2983 207.346 27.2983 204.619V195.755C27.2983 193.027 28.662 191.469 31.2918 191.469C33.9221 191.469 35.2856 193.027 35.2856 195.755V197.411H32.7529V195.584C32.7529 194.367 32.2174 193.904 31.3649 193.904C30.5127 193.904 29.9771 194.367 29.9771 195.584V204.789C29.9771 206.007 30.5127 206.445 31.3649 206.445C32.2174 206.445 32.7529 206.007 32.7529 204.789V202.354H35.2856Z" fill="#E7E8E5"/>
<path d="M39.3746 204.789C39.3746 206.007 39.9104 206.469 40.7626 206.469C41.6151 206.469 42.1505 206.007 42.1505 204.789V195.584C42.1505 194.367 41.6151 193.904 40.7626 193.904C39.9104 193.904 39.3746 194.367 39.3746 195.584V204.789ZM36.6959 195.755C36.6959 193.027 38.1325 191.469 40.7626 191.469C43.3924 191.469 44.8294 193.027 44.8294 195.755V204.619C44.8294 207.346 43.3924 208.905 40.7626 208.905C38.1325 208.905 36.6959 207.346 36.6959 204.619V195.755Z" fill="#E7E8E5"/>
<path d="M46.5562 191.664H49.235V206.275H53.6426V208.71H46.5562V191.664Z" fill="#E7E8E5"/>
<path d="M57.2687 204.789C57.2687 206.007 57.8044 206.469 58.6564 206.469C59.509 206.469 60.0447 206.007 60.0447 204.789V195.584C60.0447 194.367 59.509 193.904 58.6564 193.904C57.8044 193.904 57.2687 194.367 57.2687 195.584V204.789ZM54.5898 195.755C54.5898 193.027 56.0267 191.469 58.6564 191.469C61.2867 191.469 62.7234 193.027 62.7234 195.755V204.619C62.7234 207.346 61.2867 208.905 58.6564 208.905C56.0267 208.905 54.5898 207.346 54.5898 204.619V195.755Z" fill="#E7E8E5"/>
<path d="M67.0076 191.664V204.814C67.0076 206.031 67.5434 206.469 68.3954 206.469C69.2479 206.469 69.7837 206.031 69.7837 204.814V191.664H72.316V204.643C72.316 207.371 70.9525 208.929 68.3228 208.929C65.6925 208.929 64.329 207.371 64.329 204.643V191.664H67.0076Z" fill="#E7E8E5"/>
<path d="M76.8192 194.099V199.335H77.8665C78.8648 199.335 79.4737 198.896 79.4737 197.532V195.852C79.4737 194.634 79.0595 194.099 78.1102 194.099H76.8192ZM79.7416 208.71C79.5953 208.271 79.4979 208.003 79.4979 206.615V203.937C79.4979 202.354 78.9622 201.77 77.7444 201.77H76.8192V208.71H74.1406V191.664H78.1828C80.9588 191.664 82.1524 192.954 82.1524 195.584V196.924C82.1524 198.677 81.5924 199.821 80.3989 200.382C81.7382 200.942 82.1766 202.232 82.1766 204.01V206.64C82.1766 207.468 82.2008 208.076 82.4686 208.71H79.7416Z" fill="#E7E8E5"/>
<path d="M34.7065 170.773H32.7529L32.8558 170.267H37.3396L37.229 170.773H35.2835L34.2792 175.802H33.7021L34.7065 170.773Z" fill="#DADBD8"/>
<path d="M41.1012 171.643L38.0648 176.34C37.5506 177.131 37.1635 177.376 36.5623 177.376C36.1752 177.376 35.7796 177.241 35.574 177.004L35.8743 176.593C36.0563 176.783 36.2935 176.894 36.6098 176.894C36.9658 176.894 37.2423 176.728 37.5668 176.222L37.8596 175.779L36.8234 171.643H37.3925L38.2543 175.185L40.5238 171.643H41.1012Z" fill="#DADBD8"/>
<path d="M45.1559 173.399C45.1559 172.584 44.6576 172.102 43.7875 172.102C42.7521 172.102 41.9927 172.916 41.9927 174.054C41.9927 174.869 42.491 175.344 43.3607 175.344C44.3968 175.344 45.1559 174.53 45.1559 173.399ZM45.7248 173.367C45.7248 174.797 44.7285 175.841 43.3687 175.841C42.5778 175.841 42.0239 175.517 41.7869 174.932L41.3125 177.336H40.7511L41.8821 171.643H42.4197L42.285 172.308C42.6803 171.865 43.2342 171.612 43.9065 171.612C44.9737 171.612 45.7248 172.275 45.7248 173.367Z" fill="#DADBD8"/>
<path d="M50.1116 173.399C50.1116 172.584 49.6133 172.102 48.7436 172.102C47.7075 172.102 46.9405 172.924 46.9405 174.054C46.9405 174.869 47.4387 175.344 48.3082 175.344C49.3445 175.344 50.1116 174.53 50.1116 173.399ZM46.3786 174.079C46.3786 172.663 47.3831 171.612 48.7826 171.612C49.9371 171.612 50.6726 172.292 50.6726 173.367C50.6726 174.79 49.6683 175.841 48.2685 175.841C47.1145 175.841 46.3786 175.146 46.3786 174.079Z" fill="#DADBD8"/>
<path d="M55.1066 173.311C55.1066 172.552 54.5927 172.102 53.7303 172.102C52.6787 172.102 51.9199 172.877 51.9199 173.935C51.9199 174.695 52.4259 175.146 53.2958 175.146C54.3396 175.146 55.1066 174.371 55.1066 173.311ZM56.0554 171.643L55.3283 175.296C55.0351 176.767 54.2601 177.376 52.9082 177.376C52.1253 177.376 51.4848 177.155 51.0581 176.751L51.3901 176.324C51.722 176.664 52.2836 176.878 52.948 176.878C53.999 176.878 54.553 176.395 54.7504 175.392L54.8458 174.932C54.4503 175.375 53.8888 175.644 53.1852 175.644C52.0855 175.644 51.3503 175.004 51.3503 173.968C51.3503 172.631 52.3386 171.612 53.7228 171.612C54.4896 171.612 55.1066 171.927 55.3437 172.56L55.5175 171.643H56.0554Z" fill="#DADBD8"/>
<path d="M59.7218 171.612L59.619 172.157C59.5634 172.157 59.5238 172.148 59.4606 172.148C58.575 172.148 57.9821 172.654 57.7764 173.691L57.3578 175.802H56.7962L57.6185 171.643H58.1559L58.0134 172.402C58.3858 171.856 58.9309 171.612 59.7218 171.612Z" fill="#DADBD8"/>
<path d="M63.5557 173.399C63.5557 172.584 63.0573 172.102 62.1877 172.102C61.1515 172.102 60.3847 172.924 60.3847 174.054C60.3847 174.869 60.8825 175.344 61.7526 175.344C62.7884 175.344 63.5557 174.53 63.5557 173.399ZM64.4885 171.643L63.6585 175.802H63.1206L63.2548 175.146C62.8593 175.581 62.3065 175.841 61.6338 175.841C60.5668 175.841 59.8226 175.178 59.8226 174.079C59.8226 172.654 60.8198 171.612 62.1718 171.612C62.9627 171.612 63.5161 171.936 63.7531 172.513L63.9269 171.643H64.4885Z" fill="#DADBD8"/>
<path d="M69.3173 173.399C69.3173 172.584 68.8189 172.102 67.9493 172.102C66.9136 172.102 66.1546 172.916 66.1546 174.054C66.1546 174.869 66.6524 175.344 67.5225 175.344C68.5582 175.344 69.3173 174.53 69.3173 173.399ZM69.8866 173.367C69.8866 174.797 68.8905 175.841 67.5302 175.841C66.7393 175.841 66.1854 175.517 65.9483 174.932L65.4742 177.336H64.9126L66.044 171.643H66.5809L66.4466 172.308C66.8421 171.865 67.396 171.612 68.0682 171.612C69.1352 171.612 69.8866 172.275 69.8866 173.367Z" fill="#DADBD8"/>
<path d="M74.9215 172.964C74.9215 173.114 74.9056 173.272 74.8737 173.438L74.3995 175.802H73.8374L74.3126 173.429C74.3357 173.295 74.3517 173.169 74.3517 173.051C74.3517 172.458 73.9958 172.118 73.2764 172.118C72.3908 172.118 71.7825 172.599 71.5839 173.573L71.1417 175.802H70.5801L71.7506 169.935H72.3116L71.8452 172.267C72.2406 171.817 72.794 171.612 73.4348 171.612C74.3753 171.612 74.9215 172.118 74.9215 172.964Z" fill="#DADBD8"/>
<path d="M80.1772 171.643L77.1405 176.34C76.6267 177.131 76.239 177.376 75.6383 177.376C75.2505 177.376 74.8551 177.241 74.6499 177.004L74.9497 176.593C75.1323 176.783 75.3693 176.894 75.6856 176.894C76.0415 176.894 76.3182 176.728 76.6427 176.222L76.9353 175.779L75.8996 171.643H76.4683L77.3302 175.185L79.5997 171.643H80.1772Z" fill="#DADBD8"/>
<path d="M92.707 0.703045H8.33795L22.0815 10.6207V30.1321C22.0815 32.3823 23.9054 34.2068 26.1556 34.2068H92.707C94.9572 34.2068 96.7811 32.3823 96.7811 30.1321V4.77716C96.7811 2.52697 94.9572 0.703045 92.707 0.703045Z" fill="#F3F2F1"/>
<path d="M89.1879 14.4924C89.1879 14.5733 76.4628 14.6393 60.7703 14.6393C45.0715 14.6393 32.3496 14.5733 32.3496 14.4924C32.3496 14.411 45.0715 14.345 60.7703 14.345C76.4628 14.345 89.1879 14.411 89.1879 14.4924Z" fill="#DADBD8"/>
<path d="M89.1879 21.9833C89.1879 22.0647 76.4628 22.1307 60.7703 22.1307C45.0715 22.1307 32.3496 22.0647 32.3496 21.9833C32.3496 21.9019 45.0715 21.8365 60.7703 21.8365C76.4628 21.8365 89.1879 21.9019 89.1879 21.9833Z" fill="#DADBD8"/>
<path d="M385.319 220.477C385.319 220.557 299.055 220.62 192.669 220.62C86.2452 220.62 0 220.557 0 220.477C0 220.399 86.2452 220.334 192.669 220.334C299.055 220.334 385.319 220.399 385.319 220.477Z" fill="#17282F"/>
<path d="M349.116 192.404C349.116 192.404 334.536 175.623 329.034 158.842C323.532 142.061 326.146 143.987 326.146 143.987C326.146 143.987 333.573 160.288 339.212 168.162C344.853 176.035 354.893 187.59 354.893 187.59L349.116 192.404Z" fill="#33535F"/>
<path d="M352.022 146.601C351.552 145.781 350.299 146.208 350.441 147.142C351.33 153.036 353.251 166.868 353.176 175.84C353.078 187.494 353.179 191.999 353.179 191.999H359.248C359.248 191.999 358.17 167.907 356.799 160.561C355.838 155.411 353.797 149.693 352.022 146.601Z" fill="#33535F"/>
<path d="M355.33 190.041C355.33 190.041 359.15 182.01 360.325 171.923C360.825 167.632 359.933 161.835 358.607 154.098C357.965 150.35 357.819 147.498 357.84 145.521C357.856 144.027 359.828 143.538 360.559 144.842C361.291 146.148 363.411 150.614 363.949 153.412C365.418 161.051 367.083 164.87 365.81 172.118C364.537 179.366 359.835 190.53 359.835 190.53L355.33 190.041Z" fill="#33535F"/>
<path d="M360.796 190.53C360.796 190.53 376.805 156.128 377.915 151.024C379.023 145.921 382.796 134.16 383.24 134.826C383.684 135.491 384.349 141.704 381.465 148.806C378.58 155.907 366.263 191.578 366.263 191.578H360.796V190.53Z" fill="#33535F"/>
<path d="M353.577 188.991C353.571 189 353.416 188.894 353.129 188.683C352.844 188.468 352.413 188.165 351.889 187.736C350.824 186.899 349.328 185.625 347.587 183.939C344.092 180.582 339.743 175.409 335.973 169.032C332.194 162.657 329.653 156.423 328.045 151.859C327.24 149.575 326.652 147.704 326.272 146.405C326.075 145.757 325.941 145.248 325.847 144.905C325.754 144.56 325.711 144.378 325.723 144.374C325.734 144.371 325.799 144.547 325.913 144.885C326.033 145.253 326.195 145.746 326.398 146.365C326.818 147.651 327.44 149.507 328.273 151.777C329.936 156.311 332.504 162.51 336.267 168.858C340.022 175.207 344.317 180.378 347.756 183.766C349.469 185.469 350.936 186.766 351.973 187.633C352.484 188.077 352.901 188.395 353.171 188.629C353.444 188.857 353.585 188.982 353.577 188.991Z" fill="#17282F"/>
<path d="M355.329 172.487C355.305 172.489 355.255 172.129 355.185 171.477C355.11 170.765 355.01 169.838 354.89 168.72C354.636 166.392 354.241 163.183 353.676 159.657C353.107 156.13 352.476 152.958 351.989 150.668C351.752 149.57 351.555 148.658 351.404 147.958C351.266 147.317 351.201 146.96 351.224 146.954C351.247 146.949 351.356 147.294 351.534 147.925C351.713 148.556 351.95 149.475 352.224 150.616C352.774 152.895 353.443 156.068 354.013 159.603C354.58 163.137 354.938 166.36 355.131 168.697C355.228 169.865 355.291 170.812 355.318 171.468C355.347 172.123 355.353 172.486 355.329 172.487Z" fill="#17282F"/>
<path d="M359.079 144.572C359.09 144.568 359.155 144.719 359.268 145.009C359.389 145.333 359.549 145.758 359.747 146.287C359.959 146.841 360.202 147.525 360.434 148.335C360.673 149.144 360.981 150.054 361.213 151.09C361.339 151.606 361.471 152.146 361.609 152.708C361.744 153.271 361.839 153.867 361.962 154.479C362.223 155.7 362.384 157.025 362.579 158.415C362.891 161.204 363.063 164.292 362.961 167.531C362.831 170.771 362.439 173.84 361.927 176.6C361.634 177.973 361.378 179.282 361.03 180.482C360.863 181.083 360.726 181.671 360.551 182.223C360.374 182.773 360.203 183.302 360.04 183.808C359.735 184.825 359.362 185.711 359.067 186.5C358.777 187.292 358.486 187.956 358.235 188.494C357.999 189.007 357.809 189.42 357.664 189.734C357.531 190.015 357.455 190.161 357.445 190.156C357.434 190.151 357.489 189.996 357.602 189.706C357.731 189.385 357.901 188.965 358.112 188.442C358.344 187.898 358.617 187.228 358.888 186.432C359.166 185.639 359.521 184.751 359.81 183.733C359.966 183.228 360.129 182.699 360.298 182.149C360.465 181.598 360.596 181.011 360.755 180.411C361.09 179.214 361.334 177.908 361.618 176.541C362.11 173.793 362.49 170.741 362.619 167.519C362.72 164.298 362.56 161.227 362.266 158.451C362.081 157.067 361.931 155.748 361.683 154.53C361.567 153.92 361.478 153.326 361.351 152.764C361.222 152.203 361.097 151.664 360.978 151.148C360.762 150.112 360.471 149.201 360.251 148.391C360.038 147.577 359.813 146.89 359.621 146.33C359.448 145.793 359.309 145.362 359.203 145.033C359.111 144.735 359.068 144.576 359.079 144.572Z" fill="#17282F"/>
<path d="M383.056 135.517C383.062 135.518 383.058 135.57 383.044 135.671C383.025 135.792 383.001 135.939 382.973 136.118C382.902 136.509 382.814 137.091 382.658 137.83C382.348 139.31 381.834 141.44 381.033 144.024C380.235 146.608 379.141 149.638 377.845 152.967C376.553 156.298 375.052 159.926 373.63 163.789C372.188 167.646 371.076 171.409 370.031 174.825C368.996 178.243 368.014 181.311 367.065 183.844C366.125 186.381 365.22 188.378 364.537 189.727C364.209 190.409 363.915 190.917 363.725 191.266C363.635 191.424 363.561 191.554 363.5 191.66C363.449 191.748 363.419 191.791 363.414 191.789C363.409 191.785 363.428 191.736 363.47 191.643C363.522 191.533 363.586 191.399 363.664 191.234C363.834 190.875 364.109 190.358 364.417 189.669C365.062 188.306 365.93 186.301 366.838 183.761C367.755 181.224 368.711 178.156 369.73 174.734C370.758 171.315 371.863 167.539 373.31 163.671C374.734 159.799 376.245 156.174 377.551 152.852C378.863 149.533 379.977 146.519 380.802 143.95C381.63 141.383 382.179 139.27 382.527 137.802C382.704 137.068 382.813 136.492 382.905 136.105C382.947 135.928 382.981 135.784 383.009 135.665C383.035 135.566 383.05 135.516 383.056 135.517Z" fill="#17282F"/>
<path d="M333.693 127.918C332.685 126.916 331.007 127.964 331.424 129.323C331.847 130.702 332.489 132.484 333.436 134.496C335.637 139.173 342.101 155.954 345.128 165.169C348.154 174.384 352.418 191.578 352.418 191.578L358.88 190.53C358.88 190.53 352.968 162.28 347.191 152.102C342.549 143.924 337.907 132.104 333.693 127.918Z" fill="#33535F"/>
<path d="M346.896 170.933C346.918 170.925 347.036 171.201 347.229 171.707C347.42 172.214 347.681 172.954 347.974 173.877C348.569 175.721 349.297 178.295 350.031 181.155C350.763 184.017 351.373 186.62 351.798 188.507C351.992 189.4 352.155 190.15 352.284 190.747C352.392 191.276 352.44 191.573 352.417 191.579C352.395 191.584 352.302 191.299 352.155 190.778C351.997 190.189 351.799 189.447 351.562 188.564C351.068 186.62 350.418 184.066 349.7 181.24C348.967 178.383 348.278 175.803 347.742 173.947C347.487 173.071 347.273 172.335 347.103 171.75C346.949 171.232 346.874 170.941 346.896 170.933Z" fill="#17282F"/>
<path d="M355.663 191.054C355.658 191.055 355.645 190.996 355.627 190.882C355.608 190.747 355.584 190.58 355.554 190.373C355.486 189.926 355.426 189.263 355.289 188.416C355.052 186.718 354.628 184.272 353.935 181.288C353.245 178.303 352.238 174.792 350.91 170.965C349.584 167.137 347.922 163 346.038 158.719C342.236 150.166 338.439 142.581 335.943 136.972C334.682 134.174 333.705 131.89 333.062 130.299C332.734 129.505 332.499 128.882 332.335 128.46C332.262 128.264 332.203 128.106 332.156 127.978C332.118 127.869 332.1 127.812 332.105 127.81C332.111 127.808 332.139 127.86 332.188 127.965C332.244 128.089 332.313 128.244 332.399 128.434C332.589 128.873 332.852 129.478 333.185 130.246C333.865 131.821 334.874 134.089 336.162 136.871C338.712 142.45 342.543 150.016 346.351 158.581C348.237 162.868 349.895 167.018 351.208 170.862C352.523 174.705 353.508 178.233 354.17 181.235C354.836 184.234 355.224 186.692 355.421 188.399C355.537 189.25 355.577 189.916 355.622 190.366C355.638 190.575 355.651 190.744 355.662 190.878C355.669 190.994 355.67 191.054 355.663 191.054Z" fill="#17282F"/>
<path d="M358.879 190.53C358.856 190.533 358.779 190.147 358.662 189.444C358.533 188.685 358.364 187.684 358.159 186.474C357.713 183.97 357.034 180.522 356.056 176.768C355.088 173.011 353.998 169.669 353.159 167.269C352.747 166.112 352.406 165.156 352.149 164.431C351.906 163.762 351.783 163.387 351.805 163.379C351.827 163.369 351.992 163.727 352.272 164.383C352.551 165.038 352.94 165.993 353.386 167.187C354.284 169.57 355.415 172.913 356.387 176.682C357.367 180.448 358.012 183.916 358.397 186.435C358.581 187.696 358.722 188.717 358.794 189.426C358.871 190.134 358.903 190.527 358.879 190.53Z" fill="#17282F"/>
<path d="M346.92 220.333H372.143V189.602H346.92V220.333Z" fill="#F2575D"/>
<path d="M346.92 220.333H372.143V189.602H346.92V220.333Z" fill="#228DD5"/>
<path d="M364.097 220.334H341.719V189.602H364.097V220.334Z" fill="#1EA9E4"/>
<path d="M36.1888 178.918C31.892 176.166 25.9371 176.114 21.7557 179.036C17.7856 181.811 15.77 186.863 15.9451 191.703C16.1202 196.544 18.4665 202.458 22.8519 205.001L35.7247 204.95C39.8349 201.928 42.6141 197.058 42.8081 191.96C43.0022 186.862 40.4851 181.67 36.1888 178.918Z" fill="#33535F"/>
<path d="M29.8507 205.468C29.8225 205.468 29.7949 205.074 29.7695 204.36C29.7473 203.569 29.7186 202.555 29.6842 201.341C29.6189 198.792 29.5187 195.273 29.3483 191.387C29.1769 187.5 28.9676 183.985 28.8087 181.44C28.7364 180.227 28.6759 179.215 28.6286 178.424C28.5917 177.712 28.5841 177.317 28.6123 177.314C28.6408 177.312 28.7017 177.703 28.7882 178.411C28.8757 179.12 28.982 180.147 29.0985 181.418C29.3316 183.959 29.5873 187.477 29.7587 191.368C29.9293 195.26 29.9839 198.786 29.9745 201.338C29.9704 202.614 29.9543 203.647 29.9296 204.36C29.9057 205.074 29.8791 205.468 29.8507 205.468Z" fill="#17282F"/>
<path d="M17.2427 190.606C17.2333 190.72 16.5339 190.755 15.6807 190.685C14.8271 190.614 14.1427 190.466 14.1522 190.353C14.1617 190.24 14.8606 190.205 15.7142 190.275C16.5674 190.345 17.2519 190.494 17.2427 190.606Z" fill="#17282F"/>
<path d="M17.4826 186.264C17.4364 186.368 16.833 186.2 16.1352 185.891C15.4369 185.581 14.9079 185.246 14.9541 185.142C15.0001 185.039 15.6034 185.205 16.3017 185.516C16.9996 185.825 17.5285 186.16 17.4826 186.264Z" fill="#17282F"/>
<path d="M19.7172 183.04C19.6583 183.134 18.98 182.814 18.2753 182.229C17.5684 181.646 17.1277 181.039 17.2096 180.964C17.2938 180.885 17.8528 181.349 18.5372 181.913C19.2189 182.479 19.7793 182.942 19.7172 183.04Z" fill="#17282F"/>
<path d="M21.9646 179.998C21.861 180.044 21.5359 179.536 21.239 178.864C20.9416 178.191 20.785 177.609 20.8888 177.563C20.9925 177.517 21.3176 178.025 21.6146 178.697C21.9117 179.37 22.0686 179.952 21.9646 179.998Z" fill="#17282F"/>
<path d="M25.4904 177.84C25.3894 177.887 25.0392 177.346 24.8072 176.597C24.573 175.848 24.5547 175.204 24.6649 175.185C24.7783 175.166 24.9739 175.754 25.1999 176.474C25.4225 177.196 25.5955 177.792 25.4904 177.84Z" fill="#17282F"/>
<path d="M31.3745 175.407C31.4817 175.444 31.4162 175.906 31.2288 176.438C31.041 176.97 30.8023 177.37 30.6951 177.333C30.5881 177.295 30.6534 176.833 30.8412 176.301C31.0286 175.769 31.2677 175.369 31.3745 175.407Z" fill="#17282F"/>
<path d="M35.7392 177.28C35.8161 177.363 35.5361 177.748 35.1139 178.138C34.6915 178.53 34.2868 178.779 34.2094 178.695C34.1322 178.612 34.4124 178.228 34.8348 177.836C35.257 177.446 35.662 177.197 35.7392 177.28Z" fill="#17282F"/>
<path d="M39.5816 179.761C39.6452 179.855 39.3037 180.197 38.8191 180.525C38.3342 180.854 37.8896 181.044 37.826 180.95C37.7625 180.856 38.1036 180.513 38.5888 180.185C39.0733 179.857 39.5181 179.667 39.5816 179.761Z" fill="#17282F"/>
<path d="M42.3095 183.46C42.3541 183.565 41.8159 183.894 41.1075 184.196C40.3994 184.498 39.7892 184.659 39.7447 184.555C39.7001 184.45 40.2383 184.121 40.9464 183.818C41.6548 183.517 42.2652 183.356 42.3095 183.46Z" fill="#17282F"/>
<path d="M43.3835 187.495C43.3975 187.607 42.8505 187.768 42.1612 187.854C41.4717 187.939 40.9019 187.917 40.888 187.804C40.874 187.692 41.4213 187.531 42.1107 187.446C42.7998 187.36 43.3698 187.382 43.3835 187.495Z" fill="#17282F"/>
<path d="M43.943 192.462C43.8974 192.566 43.3141 192.413 42.6403 192.12C41.9659 191.826 41.4562 191.504 41.5014 191.4C41.5467 191.296 42.1298 191.45 42.8042 191.742C43.4783 192.036 43.9881 192.358 43.943 192.462Z" fill="#17282F"/>
<path d="M43.4506 196.723C43.4147 196.827 42.6771 196.651 41.9066 196.145C41.1333 195.643 40.6767 195.038 40.7573 194.963C40.8409 194.881 41.4008 195.328 42.1314 195.802C42.8584 196.28 43.4925 196.613 43.4506 196.723Z" fill="#17282F"/>
<path d="M41.2318 200.603C41.1641 200.692 40.5769 200.347 40.0138 199.738C39.4482 199.132 39.1479 198.521 39.2407 198.46C39.3365 198.395 39.7734 198.878 40.3148 199.458C40.8536 200.041 41.3038 200.513 41.2318 200.603Z" fill="#17282F"/>
<path d="M20.1609 201.06C20.2135 201.16 19.5969 201.585 18.7845 202.008C17.9714 202.431 17.2702 202.692 17.218 202.592C17.1655 202.491 17.7815 202.067 18.5946 201.643C19.4074 201.22 20.1089 200.959 20.1609 201.06Z" fill="#17282F"/>
<path d="M18.2366 197.55C18.2832 197.653 17.7888 197.978 17.1324 198.276C16.4758 198.574 15.9056 198.731 15.8589 198.628C15.8119 198.524 16.3061 198.199 16.9627 197.901C17.6193 197.604 18.1895 197.446 18.2366 197.55Z" fill="#17282F"/>
<path d="M16.8216 194.442C16.8373 194.554 16.229 194.734 15.4628 194.842C14.6962 194.951 14.0622 194.948 14.0463 194.835C14.0302 194.723 14.6387 194.544 15.405 194.435C16.1717 194.327 16.8057 194.329 16.8216 194.442Z" fill="#17282F"/>
<path d="M21.462 192.729C21.496 192.834 20.9024 193.111 20.111 193.199C19.3193 193.29 18.6792 193.153 18.6883 193.042C18.6962 192.925 19.3152 192.878 20.0648 192.791C20.8143 192.708 21.4288 192.617 21.462 192.729Z" fill="#17282F"/>
<path d="M25.3173 188.892C25.3508 188.999 24.8783 189.238 24.2413 189.299C23.6042 189.363 23.0946 189.22 23.1068 189.11C23.1176 188.995 23.6092 188.95 24.2011 188.89C24.7933 188.834 25.2842 188.781 25.3173 188.892Z" fill="#17282F"/>
<path d="M26.0541 185.82C26.0169 185.928 25.5055 185.848 24.9121 185.642C24.3184 185.437 23.8672 185.184 23.9044 185.077C23.9414 184.97 24.4528 185.049 25.0464 185.254C25.6398 185.459 26.091 185.712 26.0541 185.82Z" fill="#17282F"/>
<path d="M27.4671 182.712C27.3885 182.791 27.037 182.56 26.7867 182.124C26.5346 181.689 26.5102 181.269 26.6176 181.24C26.7289 181.208 26.918 181.533 27.1427 181.918C27.364 182.306 27.5507 182.633 27.4671 182.712Z" fill="#17282F"/>
<path d="M25.7635 195.435C25.7904 195.545 25.3475 195.748 24.7747 195.888C24.4438 195.969 24.1418 196.011 23.9437 196.01L23.8627 195.77C24.0109 195.743 24.1067 195.75 24.1259 195.793C24.1452 195.837 24.0848 195.912 23.9647 196.003L23.8835 195.764C24.0586 195.672 24.3461 195.57 24.6772 195.489C25.25 195.349 25.7364 195.325 25.7635 195.435Z" fill="#17282F"/>
<path d="M26.5579 200.882C26.5991 200.988 26.0347 201.308 25.2971 201.599C24.559 201.888 23.9274 202.038 23.8857 201.932C23.8444 201.827 24.4086 201.506 25.1467 201.216C25.8845 200.926 26.5162 200.777 26.5579 200.882Z" fill="#17282F"/>
<path d="M22.2029 198.462C22.2394 198.57 21.8628 198.795 21.362 198.966C20.8609 199.136 20.4252 199.187 20.3887 199.08C20.3522 198.973 20.7284 198.747 21.2296 198.577C21.7304 198.406 22.1664 198.355 22.2029 198.462Z" fill="#17282F"/>
<path d="M22.5359 187.374C22.5099 187.482 21.8541 187.417 21.0968 187.148C20.339 186.88 19.7888 186.518 19.8371 186.417C19.8861 186.313 20.4982 186.501 21.2341 186.76C21.9691 187.022 22.5632 187.262 22.5359 187.374Z" fill="#17282F"/>
<path d="M33.0745 186.168C33.1368 186.263 32.7677 186.616 32.2501 186.958C31.7321 187.299 31.2617 187.499 31.1992 187.404C31.1369 187.309 31.5061 186.956 32.0239 186.614C32.5417 186.274 33.0118 186.073 33.0745 186.168Z" fill="#17282F"/>
<path d="M33.6473 191.638C33.6703 191.75 33.2822 191.924 32.7808 192.028C32.2795 192.132 31.8541 192.126 31.8308 192.015C31.8081 191.905 32.1959 191.73 32.6974 191.626C33.1991 191.522 33.6241 191.527 33.6473 191.638Z" fill="#17282F"/>
<path d="M34.3132 197.79C34.2655 197.893 33.7069 197.736 33.0659 197.439C32.4246 197.142 31.9435 196.818 31.991 196.715C32.0385 196.612 32.5971 196.769 33.2384 197.066C33.8796 197.363 34.3608 197.687 34.3132 197.79Z" fill="#17282F"/>
<path d="M32.9038 203.779C32.8159 203.851 32.4535 203.554 32.0938 203.117C31.7339 202.679 31.5135 202.266 31.6011 202.193C31.6888 202.121 32.0517 202.417 32.4112 202.856C32.7708 203.294 32.9913 203.707 32.9038 203.779Z" fill="#17282F"/>
<path d="M32.6157 182.139C32.6849 182.227 32.4456 182.529 32.0347 182.734C31.6246 182.941 31.2396 182.953 31.2106 182.845C31.1796 182.733 31.4804 182.554 31.8504 182.367C32.2217 182.182 32.5454 182.048 32.6157 182.139Z" fill="#17282F"/>
<path d="M37.7798 187.657C37.8177 187.762 37.3396 188.025 36.6862 188.114C36.0324 188.207 35.5013 188.084 35.509 187.973C35.5153 187.858 36.0206 187.794 36.6295 187.707C37.2386 187.625 37.7425 187.548 37.7798 187.657Z" fill="#17282F"/>
<path d="M36.7509 182.704C36.8011 182.804 36.3267 183.142 35.6521 183.357C34.9781 183.573 34.3952 183.573 34.3788 183.463C34.3603 183.348 34.8863 183.172 35.527 182.965C36.1684 182.761 36.6998 182.601 36.7509 182.704Z" fill="#17282F"/>
<path d="M38.9072 195.329C38.9057 195.44 38.0946 195.512 37.116 195.332C36.1364 195.157 35.4021 194.804 35.4397 194.701C35.4775 194.591 36.2447 194.758 37.1892 194.928C38.1326 195.101 38.9107 195.213 38.9072 195.329Z" fill="#17282F"/>
<path d="M36.9883 202.525C36.92 202.613 36.3224 202.261 35.7268 201.661C35.1289 201.062 34.7799 200.463 34.8685 200.395C34.9594 200.324 35.44 200.792 36.018 201.371C36.5938 201.952 37.0596 202.434 36.9883 202.525Z" fill="#17282F"/>
<path d="M28.55 176.849C28.611 176.937 26.9117 177.626 24.9477 179.696C22.9847 181.72 20.9593 185.295 20.4606 189.614C20.2219 191.761 20.4268 193.838 20.7313 195.692C21.0521 197.547 21.4775 199.195 21.8696 200.568C22.2639 201.941 22.6261 203.041 22.8691 203.804C23.113 204.566 23.2432 204.991 23.2152 205.001C23.1899 205.01 23.009 204.604 22.7185 203.857C22.4287 203.11 22.0234 202.022 21.5916 200.652C21.1616 199.283 20.7033 197.63 20.3583 195.757C20.0298 193.885 19.8074 191.774 20.0525 189.567C20.5618 185.148 22.6813 181.507 24.7386 179.494C25.7622 178.471 26.7243 177.789 27.426 177.394C27.7666 177.179 28.0609 177.064 28.2487 176.967C28.4404 176.877 28.5437 176.836 28.55 176.849Z" fill="#17282F"/>
<path d="M34.1535 205.264C34.0643 205.22 35.0769 203.661 36.0004 200.852C36.9515 198.077 37.7381 193.967 37.1047 189.503C36.8082 187.278 36.1645 185.215 35.3547 183.452C34.5142 181.714 33.4309 180.29 32.371 179.296C31.275 178.327 30.1982 177.771 29.4472 177.449C28.6875 177.132 28.2322 177.058 28.2387 177.022C28.2408 177.01 28.3561 177.016 28.5745 177.049C28.7908 177.088 29.1095 177.16 29.505 177.299C30.2901 177.583 31.4054 178.106 32.5626 179.078C33.6898 180.084 34.8083 181.505 35.6963 183.288C36.5435 185.082 37.2089 187.178 37.5116 189.446C38.1565 193.993 37.3071 198.166 36.2749 200.946C36.0429 201.656 35.7443 202.265 35.5217 202.812C35.2569 203.342 35.0386 203.803 34.838 204.168C34.4198 204.888 34.1782 205.278 34.1535 205.264Z" fill="#17282F"/>
<path d="M18.2366 204.292H40.888L41.027 208.826H18.2366V204.292Z" fill="#1EA9E4"/>
<path d="M20.1609 206.56L21.4621 220.4H38.022L39.3519 206.712L20.1609 206.56Z" fill="#1EA9E4"/>
<path d="M41.027 208.881C41.027 208.994 35.926 209.086 29.6352 209.086C23.3421 209.086 18.2422 208.994 18.2422 208.881C18.2422 208.767 23.3421 208.675 29.6352 208.675C35.926 208.675 41.027 208.767 41.027 208.881Z" fill="#17282F"/>
<path d="M38.7254 213.096C38.7473 213.11 38.5946 213.428 38.2403 213.962C37.8847 214.492 37.3194 215.237 36.4834 216.036L36.3792 216.136L36.2762 216.028C35.1856 214.883 33.687 213.481 31.8371 212.142L32.0876 212.13C31.4553 212.685 30.7961 213.264 30.1195 213.858C29.3151 214.558 28.5358 215.237 27.7928 215.884L27.6643 215.996L27.535 215.887C26.1245 214.701 24.8418 213.623 23.7531 212.708L23.9733 212.684C23.1921 213.637 22.5359 214.438 22.0164 215.071C21.5454 215.631 21.2725 215.931 21.2483 215.912C21.224 215.893 21.4509 215.556 21.8806 214.965C22.3714 214.309 22.9912 213.48 23.7297 212.493L23.824 212.367L23.9499 212.469C25.0549 213.365 26.357 214.42 27.7883 215.581L27.5311 215.585C28.2713 214.935 29.0476 214.253 29.8488 213.549C30.5278 212.957 31.1886 212.381 31.8233 211.829L31.9447 211.722L32.0741 211.818C33.9386 213.188 35.43 214.638 36.4917 215.829L36.2847 215.82C37.9651 214.296 38.6603 213.047 38.7254 213.096Z" fill="#17282F"/>
<path d="M310.891 216.601H71.1192C66.6941 216.601 63.1068 213.014 63.1068 208.588V55.4574C63.1068 51.0324 66.6941 47.445 71.1192 47.445H310.891C315.316 47.445 318.903 51.0324 318.903 55.4574V208.588C318.903 213.014 315.316 216.601 310.891 216.601Z" fill="#33535F"/>
<path d="M322.08 220.477H64.5215C59.1152 220.477 54.7323 216.094 54.7323 210.688V205.676H331.869V210.688C331.869 216.094 327.486 220.477 322.08 220.477Z" fill="#33535F"/>
<path d="M165.788 204.09L169.228 209.561H217.619L220.812 204.09H165.788Z" fill="#17282F"/>
<path d="M316.706 204.09C316.706 204.181 259.931 204.256 189.912 204.256C119.869 204.256 63.1068 204.181 63.1068 204.09C63.1068 203.998 119.869 203.924 189.912 203.924C259.931 203.924 316.706 203.998 316.706 204.09Z" fill="#17282F"/>
<path d="M308.777 199.617H72.2325C71.238 199.617 70.4316 198.811 70.4316 197.817V58.9721C70.4316 57.9776 71.2374 57.1718 72.2319 57.1718H308.777C309.772 57.1718 310.578 57.9776 310.578 58.9721V197.818C310.578 198.811 309.772 199.617 308.777 199.617Z" fill="#E7E8E5"/>
<path d="M310.321 199.826H70.1747L70.4316 67.8173H310.321V199.826Z" fill="white"/>
<path d="M90.1273 62.6733C90.1273 63.7327 89.2687 64.5913 88.2093 64.5913C87.1505 64.5913 86.2919 63.7327 86.2919 62.6733C86.2919 61.614 87.1505 60.7554 88.2093 60.7554C89.2687 60.7554 90.1273 61.614 90.1273 62.6733Z" fill="#17282F"/>
<path d="M78.5034 62.6733C78.5034 63.7327 77.6454 64.5913 76.5855 64.5913C75.5266 64.5913 74.6675 63.7327 74.6675 62.6733C74.6675 61.614 75.5266 60.7554 76.5855 60.7554C77.6454 60.7554 78.5034 61.614 78.5034 62.6733Z" fill="#17282F"/>
<path d="M84.083 62.6733C84.083 63.7327 83.2244 64.5913 82.165 64.5913C81.1056 64.5913 80.247 63.7327 80.247 62.6733C80.247 61.614 81.1056 60.7554 82.165 60.7554C83.2244 60.7554 84.083 61.614 84.083 62.6733Z" fill="#17282F"/>
<path d="M310.578 199.826H70.1747V187.079H310.578V199.826Z" fill="#17282F"/>
<path d="M79.257 194.928V195.336H77.3428V195.013L78.3747 194.033C78.6266 193.793 78.6712 193.64 78.6712 193.496C78.6712 193.259 78.5078 193.121 78.1888 193.121C77.9363 193.121 77.7246 193.206 77.5805 193.392L77.2427 193.132C77.4429 192.861 77.8032 192.702 78.2295 192.702C78.7933 192.702 79.1569 192.987 79.1569 193.448C79.1569 193.699 79.087 193.93 78.7267 194.268L78.0331 194.928H79.257Z" fill="white"/>
<path d="M79.5182 195.054C79.5182 194.868 79.6551 194.746 79.8218 194.746C79.989 194.746 80.1265 194.868 80.1265 195.054C80.1265 195.232 79.989 195.362 79.8218 195.362C79.6551 195.362 79.5182 195.232 79.5182 195.054ZM79.5182 193.64C79.5182 193.455 79.6551 193.333 79.8218 193.333C79.989 193.333 80.1265 193.455 80.1265 193.64C80.1265 193.818 79.989 193.948 79.8218 193.948C79.6551 193.948 79.5182 193.818 79.5182 193.64Z" fill="white"/>
<path d="M81.3345 192.739V195.336H80.8526V193.143H80.3037V192.739H81.3345Z" fill="white"/>
<path d="M84.1644 194.746H83.704V195.336H83.2365V194.746H81.8119V194.412L83.0918 192.739H83.6078L82.4015 194.338H83.2513V193.815H83.704V194.338H84.1644V194.746Z" fill="white"/>
<path d="M285.451 194.606H88.4073V193.708H285.451V194.606Z" fill="white"/>
<path d="M149.836 195.136H88.2599V192.74H149.836V195.136Z" fill="#F2575D"/>
<path d="M151.824 194.158C151.824 195.813 150.482 197.155 148.826 197.155C147.17 197.155 145.828 195.813 145.828 194.158C145.828 192.502 147.17 191.159 148.826 191.159C150.482 191.159 151.824 192.502 151.824 194.158Z" fill="#F2575D"/>
<path d="M289.946 194.151C289.946 193.88 289.742 193.709 289.427 193.709C289.115 193.709 288.9 193.899 288.9 194.155C288.9 194.399 289.093 194.592 289.438 194.592C289.738 194.592 289.946 194.421 289.946 194.151ZM290.413 194.128C290.413 194.644 289.994 194.971 289.464 194.971C288.756 194.971 288.34 194.515 288.34 193.68C288.34 192.789 288.859 192.3 289.612 192.3C289.872 192.3 290.121 192.355 290.295 192.466L290.117 192.83C289.976 192.737 289.806 192.703 289.623 192.703C289.133 192.703 288.826 193.008 288.826 193.598V193.602C288.982 193.42 289.23 193.331 289.52 193.331C290.032 193.331 290.413 193.642 290.413 194.128Z" fill="white"/>
<path d="M290.648 194.652C290.648 194.466 290.785 194.344 290.952 194.344C291.119 194.344 291.257 194.466 291.257 194.652C291.257 194.829 291.119 194.96 290.952 194.96C290.785 194.96 290.648 194.829 290.648 194.652ZM290.648 193.238C290.648 193.053 290.785 192.929 290.952 192.929C291.119 192.929 291.257 193.053 291.257 193.238C291.257 193.416 291.119 193.545 290.952 193.545C290.785 193.545 290.648 193.416 290.648 193.238Z" fill="white"/>
<path d="M293.251 193.635C293.251 193.008 293.007 192.718 292.65 192.718C292.298 192.718 292.053 193.008 292.053 193.635C292.053 194.262 292.298 194.551 292.65 194.551C293.007 194.551 293.251 194.262 293.251 193.635ZM291.567 193.635C291.567 192.782 292.034 192.3 292.65 192.3C293.27 192.3 293.737 192.782 293.737 193.635C293.737 194.488 293.27 194.971 292.65 194.971C292.034 194.971 291.567 194.488 291.567 193.635Z" fill="white"/>
<path d="M295.745 193.635C295.745 193.008 295.501 192.718 295.144 192.718C294.792 192.718 294.547 193.008 294.547 193.635C294.547 194.262 294.792 194.551 295.144 194.551C295.501 194.551 295.745 194.262 295.745 193.635ZM294.061 193.635C294.061 192.782 294.528 192.3 295.144 192.3C295.764 192.3 296.232 192.782 296.232 193.635C296.232 194.488 295.764 194.971 295.144 194.971C294.528 194.971 294.061 194.488 294.061 193.635Z" fill="white"/>
<path d="M300.427 193.473H299.529V190.884H302.114V191.782H300.427V193.473Z" fill="white"/>
<path d="M302.116 196.854H299.526V194.269H300.424V195.955H302.116V196.854Z" fill="white"/>
<path d="M306.241 196.854H303.655V195.955H305.342V194.263H306.241V196.854Z" fill="white"/>
<path d="M306.243 193.468H305.345V191.782H303.653V190.884H306.243V193.468Z" fill="white"/>
<path d="M103.106 75.6668H88.9519L81.8746 87.9249L88.9519 100.183H103.106L110.184 87.9249L103.106 75.6668Z" fill="#E7E8E5"/>
<path d="M90.1069 90.3241C89.4744 89.6239 88.8363 88.916 88.3754 88.0932C87.9145 87.2698 87.6394 86.3088 87.7924 85.3776C87.8815 84.8331 88.113 84.3144 88.1493 83.7638C88.1999 83.0064 87.8815 82.2149 88.1504 81.5048C88.5701 80.3949 90.064 80.2233 90.9699 79.4565C91.6751 78.8597 92.0188 77.8906 92.7944 77.3884C93.4726 76.9494 94.3433 76.9588 95.1425 77.0721C95.9422 77.1854 96.7464 77.3873 97.5467 77.2795C98.1171 77.2025 98.6545 76.972 99.2133 76.8334C99.7716 76.6953 100.395 76.659 100.893 76.9478C101.39 77.2371 101.67 77.9434 101.344 78.418C102.271 77.9901 103.449 78.7129 103.703 79.7018C103.956 80.6913 103.448 81.7595 102.663 82.4118C101.877 83.0642 100.861 83.3673 99.8574 83.5565C97.0164 84.0922 93.9346 83.7897 91.4864 82.2523" fill="#17282F"/>
<path d="M103.23 93.3493C103.135 91.5947 102.644 87.9986 102.162 84.7479C101.643 81.2519 98.528 78.7399 95.0017 78.9753L94.6513 78.9989C90.8885 79.4725 89.1884 82.9322 89.7654 86.6807L90.8704 100.183H100.053L99.8349 97.7909C99.8349 97.7909 103.428 96.9834 103.23 93.3493Z" fill="#F8A58D"/>
<path d="M99.8371 97.7381C99.8371 97.7381 97.5556 98.078 95.0139 96.7095C95.0139 96.7095 96.3075 99.2474 99.9086 98.6781L99.8371 97.7381Z" fill="#F68260"/>
<path d="M100.993 87.8627C101.021 88.1356 100.813 88.3847 100.528 88.4188C100.244 88.4535 99.9905 88.2604 99.9624 87.9876C99.9344 87.7142 100.142 87.4651 100.427 87.4304C100.711 87.3963 100.965 87.5894 100.993 87.8627Z" fill="#17282F"/>
<path d="M101.5 86.5741C101.44 86.6461 101.028 86.3815 100.47 86.4206C99.9124 86.4514 99.5219 86.766 99.457 86.7017C99.4251 86.6736 99.4823 86.5471 99.6522 86.4052C99.8189 86.2638 100.11 86.1186 100.458 86.0966C100.805 86.0752 101.106 86.1835 101.283 86.3034C101.464 86.4234 101.53 86.5422 101.5 86.5741Z" fill="#17282F"/>
<path d="M95.7223 88.2396C95.7503 88.5124 95.5418 88.7616 95.2569 88.7957C94.9731 88.8303 94.7195 88.6372 94.6915 88.3644C94.6634 88.0911 94.8719 87.8419 95.1557 87.8072C95.4406 87.7731 95.6942 87.9662 95.7223 88.2396Z" fill="#17282F"/>
<path d="M96.022 87.0454C95.9626 87.1175 95.55 86.8529 94.9923 86.892C94.4346 86.9222 94.044 87.2369 93.9791 87.1725C93.9472 87.1444 94.0044 87.0179 94.1744 86.876C94.3411 86.7352 94.632 86.5895 94.9797 86.5675C95.3273 86.5466 95.6281 86.6544 95.8053 86.7743C95.9851 86.8947 96.0517 87.013 96.022 87.0454Z" fill="#17282F"/>
<path d="M98.3244 91.048C98.3195 91.0161 98.6622 90.933 99.2193 90.8236C99.3607 90.7994 99.4938 90.762 99.5114 90.663C99.5378 90.5579 99.468 90.4083 99.3882 90.2471C99.2309 89.9116 99.0664 89.5596 98.8943 89.1905C98.2056 87.6851 97.6968 86.4431 97.7579 86.4162C97.819 86.3886 98.4262 87.5872 99.1148 89.0926C99.2809 89.4639 99.4399 89.8181 99.5912 90.1569C99.6561 90.3154 99.7611 90.4925 99.7023 90.7108C99.6715 90.8203 99.5719 90.9044 99.4823 90.9352C99.3926 90.9693 99.3128 90.9759 99.2424 90.9847C98.6792 91.0529 98.3283 91.0793 98.3244 91.048Z" fill="#17282F"/>
<path d="M96.0204 84.8491C95.9753 85.0042 95.4137 84.9695 94.7641 85.0927C94.1123 85.2022 93.5975 85.4288 93.5012 85.299C93.4583 85.2363 93.5408 85.0872 93.7443 84.9261C93.9462 84.7655 94.2746 84.6032 94.6645 84.5334C95.0545 84.4641 95.4186 84.5025 95.6634 84.5834C95.9098 84.6643 96.0391 84.7754 96.0204 84.8491Z" fill="#17282F"/>
<path d="M101.187 84.9734C101.097 85.1065 100.704 85.0009 100.241 85.0251C99.7782 85.0339 99.3932 85.1676 99.2948 85.0411C99.2507 84.9795 99.3036 84.8486 99.4669 84.7171C99.6275 84.5862 99.9025 84.4696 100.221 84.458C100.539 84.447 100.822 84.5433 100.992 84.6621C101.164 84.7814 101.226 84.9085 101.187 84.9734Z" fill="#17282F"/>
<path d="M90.2422 89.3495C90.1784 89.3264 87.6978 88.7785 87.9431 91.2554C88.1884 93.7322 90.8731 92.9247 90.8704 92.8532C90.8671 92.7823 90.2422 89.3495 90.2422 89.3495Z" fill="#F8A58D"/>
<path d="M89.7726 92.0397C89.761 92.0331 89.7324 92.0744 89.6626 92.1151C89.5949 92.1547 89.475 92.1893 89.3408 92.1536C89.0696 92.0832 88.8084 91.6899 88.7517 91.2449C88.7231 91.0199 88.7495 90.8005 88.8117 90.6151C88.8694 90.4265 88.9739 90.2878 89.1032 90.2515C89.2313 90.2081 89.3325 90.2779 89.3699 90.3445C89.4096 90.4105 89.3985 90.4617 89.4123 90.4644C89.42 90.4699 89.4618 90.4177 89.4316 90.3175C89.4162 90.2697 89.3815 90.2141 89.3182 90.1718C89.2544 90.1294 89.1642 90.1135 89.0735 90.1327C88.8837 90.1646 88.7297 90.3571 88.661 90.5612C88.5823 90.7669 88.5476 91.0139 88.5795 91.2664C88.645 91.7636 88.947 92.2058 89.3155 92.274C89.4937 92.3021 89.634 92.235 89.7033 92.169C89.7742 92.1002 89.7814 92.0436 89.7726 92.0397Z" fill="#F68260"/>
<path d="M101.978 81.3564C101.808 82.3421 99.8084 83.2452 98.1506 83.1974C96.6221 83.1528 95.8669 82.3943 94.7564 81.8553C94.0534 81.5143 94.0534 81.5143 93.0991 81.6688C92.328 81.7943 91.9281 82.7046 91.4952 83.3547C92.3197 85.1533 91.9864 87.2446 91.6366 89.1917C91.5981 89.4067 91.5502 89.6394 91.3857 89.7835C91.1074 90.0294 90.6564 89.882 90.3825 89.6312C89.9441 89.2302 89.7439 88.6345 89.6003 88.058C89.2731 86.744 89.1471 85.3684 89.355 84.0301C89.5629 82.6919 90.1168 81.3922 91.031 80.3933C92.1734 79.1453 93.8438 78.4253 95.5336 78.3384C97.2238 78.252 98.9207 78.7746 100.336 79.7019C100.993 80.132 101.607 80.6639 101.978 81.3564Z" fill="#17282F"/>
<path d="M98.6892 92.3021C98.2679 92.1062 97.8476 91.9099 97.4268 91.7135C97.3537 91.68 97.2761 91.6453 97.1969 91.6558C97.1078 91.6679 97.0358 91.7344 96.9786 91.8043C96.686 92.159 96.6117 92.6942 96.8383 93.0941C97.0649 93.4945 97.5985 93.7057 98.0236 93.5297C98.4708 93.3444 98.6886 92.8246 98.7233 92.3417L98.6892 92.3021Z" fill="#F68260"/>
<path d="M98.0627 93.6189C98.0825 93.6436 97.7992 93.8218 97.3229 93.6854C97.093 93.6167 96.8306 93.4396 96.6684 93.1535C96.5028 92.8752 96.4417 92.4765 96.5848 92.1184C96.6535 91.9407 96.7602 91.784 96.8906 91.6596C96.9571 91.5969 97.0242 91.5463 97.1056 91.499C97.1854 91.4396 97.3565 91.4308 97.4379 91.4792C97.7266 91.6398 97.9213 91.7768 98.115 91.9011C98.4851 92.1464 98.7035 92.3153 98.6837 92.3494C98.6639 92.3835 98.4087 92.2768 98.0132 92.076C97.7827 91.9561 97.56 91.8395 97.3394 91.724C97.2866 91.7103 97.2921 91.7097 97.2415 91.7361C97.1914 91.768 97.1331 91.8131 97.0858 91.8615C96.9874 91.9594 96.9054 92.0832 96.8526 92.2207C96.7426 92.4974 96.78 92.796 96.8999 93.027C97.0182 93.2603 97.2091 93.4143 97.3939 93.4957C97.7728 93.6585 98.0555 93.5732 98.0627 93.6189Z" fill="#17282F"/>
<path d="M97.6644 87.9249C97.6369 87.926 97.6397 87.6945 97.5297 87.3067C97.4202 86.9266 97.1556 86.3727 96.5814 85.9492C96.0259 85.5246 95.1178 85.2903 94.2415 85.6197C93.373 85.9211 92.6244 86.8463 92.6343 87.9244C92.6244 89.003 93.3725 89.9281 94.2415 90.2301C95.1178 90.5596 96.0264 90.3253 96.5814 89.9001C97.1556 89.4771 97.4202 88.9232 97.5297 88.5426C97.6397 88.1548 97.6369 87.9238 97.6644 87.9249C97.6743 87.9249 97.6815 87.9816 97.6848 88.0916C97.6908 88.201 97.6804 88.3644 97.6375 88.5701C97.5572 88.9749 97.3091 89.5816 96.7046 90.0613C96.121 90.5414 95.1282 90.8286 94.1519 90.4787C93.1833 90.1592 92.3362 89.1311 92.3478 87.9244C92.3362 86.7181 93.1833 85.6901 94.1519 85.3711C95.1282 85.0213 96.1205 85.3078 96.7041 85.788C97.3085 86.2677 97.5572 86.8749 97.6375 87.2797C97.6804 87.4849 97.6908 87.6488 97.6848 87.7583C97.6815 87.8677 97.6743 87.9249 97.6644 87.9249Z" fill="#17282F"/>
<path d="M103.842 87.6824C103.814 87.6829 103.817 87.4574 103.709 87.0801C103.603 86.7099 103.345 86.1708 102.785 85.7589C102.245 85.3458 101.36 85.1186 100.508 85.4388C99.6627 85.733 98.9345 86.6323 98.9439 87.6818C98.9345 88.7313 99.6627 89.6311 100.508 89.9254C101.361 90.2461 102.245 90.0184 102.785 89.6053C103.345 89.1933 103.603 88.6543 103.709 88.2841C103.817 87.9062 103.814 87.6813 103.842 87.6824C103.852 87.6824 103.859 87.7374 103.863 87.8446C103.869 87.9513 103.859 88.1108 103.817 88.311C103.74 88.706 103.498 89.2978 102.909 89.7664C102.339 90.2351 101.371 90.515 100.418 90.1735C99.473 89.8627 98.6463 88.8589 98.6578 87.6818C98.6468 86.5047 99.4735 85.5015 100.418 85.1907C101.371 84.8491 102.339 85.1291 102.908 85.5977C103.498 86.0663 103.74 86.6582 103.817 87.0531C103.859 87.2533 103.869 87.4128 103.863 87.5195C103.859 87.6268 103.852 87.6824 103.842 87.6824Z" fill="#17282F"/>
<path d="M98.8008 87.1114C98.7447 87.1642 98.4994 87.0058 98.1688 87.0162C97.8377 87.0162 97.6 87.1846 97.5412 87.1345C97.4653 87.0949 97.6963 86.7379 98.1638 86.7302C98.6308 86.7231 98.8739 87.0685 98.8008 87.1114Z" fill="#17282F"/>
<path d="M92.647 87.5569C92.6943 87.6207 92.2141 88.0596 91.5744 88.5371C90.9342 89.0145 90.377 89.3506 90.3297 89.2873C90.2824 89.2235 90.7626 88.7851 91.4028 88.3072C92.0425 87.8297 92.5997 87.4937 92.647 87.5569Z" fill="#17282F"/>
<path d="M143.699 87.8C143.699 87.8787 137.336 87.9431 129.488 87.9431C121.638 87.9431 115.277 87.8787 115.277 87.8C115.277 87.7208 121.638 87.657 129.488 87.657C137.336 87.657 143.699 87.7208 143.699 87.8Z" fill="#17282F"/>
<path d="M130.555 90.7747C130.555 90.8533 127.176 90.9177 123.009 90.9177C118.84 90.9177 115.463 90.8533 115.463 90.7747C115.463 90.6955 118.84 90.6311 123.009 90.6311C127.176 90.6311 130.555 90.6955 130.555 90.7747Z" fill="#17282F"/>
<path d="M228.849 109.777C228.849 109.777 236.403 113.458 239.056 122.961C241.709 132.466 249.834 157.216 249.834 157.216C249.834 157.216 254.476 162.678 254.974 166.724C255.471 170.768 254.476 180.551 252.985 182.375C251.492 184.199 249.364 183.897 249.364 183.897L229.822 182.043L222.127 130.518L228.849 109.777Z" fill="#1EA9E4"/>
<path d="M164.226 108.876C164.226 108.876 150.254 113.259 146.772 117.072L158.213 170.298L158.03 187.092H224.275C224.275 186.263 224.869 131.333 224.869 131.333L228.849 109.777L205.304 105.631L200.661 101.983L174.463 103.31L170.483 107.289L164.226 108.876Z" fill="#1EA9E4"/>
<path d="M158.078 180.723L158.124 178.49L158.1 180.705C158.092 180.711 158.085 180.717 158.078 180.723Z" fill="#A7A9A8"/>
<path d="M158.1 180.705L158.124 178.49L158.247 172.551C161.951 167.256 164.797 161.652 166.95 155.56C167.2 154.851 167.673 153.994 168.371 153.994C168.43 153.994 168.49 154 168.552 154.013C169.038 154.113 169.33 154.601 169.534 155.052C171.612 159.652 170.671 165.18 168.209 169.586C165.752 173.984 161.954 177.46 158.1 180.705Z" fill="#228DD5"/>
<path d="M146.772 117.072C146.772 117.072 142.168 123.349 140.256 127.445C138.344 131.543 122.503 165.956 121.547 169.507C120.592 173.057 118.133 184.255 125.371 186.85H140.256L155.196 156.639L155.96 121.574L146.772 117.072Z" fill="#1EA9E4"/>
<path d="M141.209 165.027C141.189 165.049 140.877 164.733 140.192 164.344C139.508 163.957 138.445 163.513 137.067 163.212C136.38 163.061 135.616 162.944 134.79 162.893C133.965 162.84 133.079 162.856 132.18 163.062C130.374 163.465 128.58 164.605 127.168 166.207C125.735 167.809 124.851 169.699 124.331 171.483C123.803 173.271 123.578 174.947 123.436 176.353C123.296 177.761 123.244 178.907 123.195 179.698C123.172 180.068 123.153 180.37 123.138 180.61C123.122 180.818 123.109 180.928 123.099 180.927C123.089 180.927 123.083 180.817 123.08 180.608C123.082 180.368 123.083 180.066 123.084 179.694C123.099 178.901 123.12 177.752 123.234 176.334C123.351 174.92 123.557 173.227 124.078 171.409C124.59 169.598 125.487 167.655 126.954 166.018C128.398 164.378 130.25 163.207 132.122 162.805C133.055 162.598 133.972 162.592 134.806 162.655C135.645 162.718 136.419 162.849 137.113 163.015C138.503 163.345 139.571 163.825 140.249 164.248C140.587 164.461 140.832 164.654 140.987 164.796C141.14 164.94 141.216 165.02 141.209 165.027Z" fill="#17282F"/>
<path d="M134.151 159.011C134.149 158.992 134.327 158.964 134.651 158.931C134.975 158.891 135.449 158.882 136.032 158.912C136.616 158.937 137.308 159.037 138.062 159.212C138.813 159.4 139.623 159.672 140.432 160.053C141.238 160.443 141.96 160.902 142.579 161.366C143.189 161.842 143.702 162.317 144.09 162.756C144.48 163.19 144.771 163.564 144.943 163.84C145.122 164.114 145.212 164.269 145.196 164.279C145.152 164.311 144.749 163.714 143.943 162.895C143.543 162.482 143.026 162.032 142.42 161.577C141.805 161.135 141.097 160.692 140.309 160.311C139.518 159.939 138.729 159.667 137.997 159.467C137.263 159.283 136.588 159.165 136.016 159.114C134.872 159.004 134.154 159.065 134.151 159.011Z" fill="#17282F"/>
<path d="M147.609 157.355C147.605 157.375 147.36 157.355 146.92 157.303C146.481 157.246 145.844 157.183 145.055 157.124C143.481 157.005 141.291 156.976 138.898 157.26C136.504 157.549 134.383 158.093 132.88 158.581C132.129 158.823 131.524 159.036 131.111 159.194C130.696 159.349 130.462 159.426 130.454 159.407C130.446 159.39 130.665 159.278 131.069 159.091C131.47 158.9 132.067 158.658 132.816 158.388C134.311 157.849 136.447 157.267 138.864 156.975C141.28 156.689 143.493 156.75 145.074 156.922C145.865 157.007 146.501 157.102 146.937 157.193C147.373 157.279 147.612 157.336 147.609 157.355Z" fill="#17282F"/>
<path d="M190.006 127.953C190 127.958 189.949 127.897 189.855 127.774C189.748 127.632 189.614 127.453 189.448 127.23C189.084 126.725 188.58 126.028 187.952 125.157C186.667 123.344 184.875 120.816 182.768 117.842L182.999 117.809C182.197 120.165 181.312 122.764 180.38 125.498L180.321 125.672L180.171 125.575C180.074 125.512 179.968 125.444 179.862 125.376C178.63 124.595 177.543 123.656 176.621 122.639C175.702 121.618 174.94 120.527 174.307 119.44C173.041 117.258 172.278 115.106 171.76 113.283C171.245 111.454 170.976 109.941 170.796 108.898C170.71 108.398 170.64 107.999 170.588 107.698C170.563 107.561 170.535 107.461 170.518 107.391C170.492 107.328 170.479 107.293 170.483 107.289C170.544 107.264 170.705 107.84 170.906 108.877C171.119 109.913 171.418 111.416 171.955 113.227C172.495 115.031 173.272 117.158 174.535 119.307C175.167 120.377 175.922 121.448 176.829 122.451C177.739 123.448 178.807 124.368 180.015 125.134C180.119 125.201 180.223 125.268 180.318 125.33L180.109 125.405C181.049 122.674 181.941 120.078 182.751 117.725L182.835 117.479L182.982 117.692C185.055 120.689 186.818 123.239 188.081 125.067C188.684 125.955 189.168 126.667 189.517 127.182C189.669 127.414 189.792 127.602 189.89 127.75C189.972 127.88 190.012 127.95 190.006 127.953Z" fill="#17282F"/>
<path d="M224.306 183.913C224.323 182.315 224.345 180.19 224.371 177.711C224.38 179.843 224.372 181.941 224.306 183.913Z" fill="#A7A9A8"/>
<path d="M224.306 183.915C218.679 181.351 214.163 176.572 211.08 171.212C207.998 165.851 206.639 159.515 207.252 153.362L224.407 166.556C224.291 170.046 224.357 173.933 224.371 177.71C224.345 180.19 224.323 182.315 224.306 183.913C224.306 183.914 224.306 183.914 224.306 183.915Z" fill="#228DD5"/>
<path d="M206.629 146.17C206.629 146.17 204.223 146.839 206.028 151.768C207.833 156.698 208.434 156.4 209.637 161.012C210.841 165.624 212.244 169.832 214.349 172.439C216.455 175.046 224.275 180.359 224.275 180.359L231.293 173.742C231.293 173.742 230.137 168.811 230.414 165.462C230.692 162.112 231.394 153.891 231.293 152.488C231.193 151.083 229.689 147.675 229.689 147.675V145.343L226.08 134.24C226.08 134.24 224.075 133.337 223.373 136.545L222.169 133.141C222.169 133.141 220.265 132.836 219.763 136.747C219.262 140.656 220.164 146.071 220.164 146.071L219.162 152.888L217.658 157.5L216.355 157.7C216.355 157.7 214.393 157.165 213.318 153.473C212.244 149.78 209.336 145.368 206.629 146.17Z" fill="#F8A58D"/>
<path d="M228.944 163.61C228.936 163.61 228.925 163.523 228.911 163.357C228.898 163.166 228.881 162.923 228.86 162.622C228.824 161.95 228.774 161.02 228.712 159.861C228.604 157.468 228.453 154.136 228.279 150.247L228.309 150.327C227.988 149.942 227.412 149.827 226.889 149.957C226.358 150.086 225.883 150.417 225.588 150.911C224.976 151.898 224.941 153.183 224.75 154.424C224.369 157.234 224.007 159.91 223.676 162.349C223.51 163.566 223.333 164.726 223.096 165.798C222.865 166.872 222.541 167.85 222.226 168.722C221.915 169.598 221.641 170.391 221.471 171.104C221.299 171.816 221.231 172.446 221.245 172.96C221.266 173.996 221.566 174.521 221.521 174.533C221.513 174.537 221.455 174.405 221.354 174.148C221.271 173.887 221.154 173.49 221.132 172.964C221.102 172.44 221.156 171.794 221.315 171.068C221.473 170.34 221.736 169.536 222.035 168.656C222.338 167.777 222.645 166.814 222.864 165.748C223.089 164.684 223.256 163.531 223.415 162.313C223.739 159.873 224.093 157.196 224.466 154.386C224.554 153.759 224.622 153.14 224.731 152.523C224.842 151.909 225.013 151.293 225.35 150.76C225.671 150.22 226.232 149.823 226.826 149.689C227.412 149.541 228.114 149.67 228.514 150.155L228.545 150.191L228.546 150.236C228.68 154.127 228.794 157.46 228.877 159.855C228.907 161.015 228.931 161.945 228.948 162.619C228.951 162.921 228.954 163.164 228.956 163.356C228.955 163.522 228.951 163.61 228.944 163.61Z" fill="#F68260"/>
<path d="M225.107 150.975C225.089 150.983 224.978 150.762 224.811 150.348C224.646 149.933 224.427 149.324 224.223 148.551C224.019 147.778 223.828 146.841 223.719 145.788C223.665 145.262 223.627 144.7 223.689 144.114C223.749 143.534 223.922 142.916 224.294 142.395C224.611 141.943 225.064 141.583 225.578 141.432L225.686 141.4L225.74 141.497C226.757 143.29 227.64 144.873 228.26 146.011C228.545 146.545 228.785 146.994 228.979 147.358C229.143 147.676 229.225 147.854 229.21 147.863C229.195 147.871 229.083 147.71 228.892 147.407C228.678 147.055 228.414 146.62 228.1 146.103C227.435 144.989 226.522 143.425 225.495 141.637L225.658 141.702C225.215 141.834 224.816 142.15 224.528 142.56C224.191 143.032 224.029 143.593 223.968 144.145C223.905 144.698 223.935 145.244 223.982 145.763C224.075 146.803 224.242 147.731 224.42 148.502C224.596 149.273 224.785 149.886 224.916 150.31C225.05 150.733 225.126 150.968 225.107 150.975Z" fill="#F68260"/>
<path d="M223.429 151.878C223.409 151.878 223.387 151.65 223.364 151.238C223.345 150.766 223.321 150.182 223.293 149.494C223.246 148.02 223.2 145.984 223.168 143.734C223.151 141.487 223.063 139.444 223.257 137.964C223.351 137.226 223.498 136.639 223.632 136.247C223.767 135.853 223.876 135.65 223.89 135.655C223.94 135.672 223.584 136.523 223.458 137.985C223.318 139.442 223.437 141.48 223.454 143.73C223.487 145.979 223.5 148.016 223.495 149.491C223.488 150.181 223.481 150.764 223.475 151.237C223.464 151.649 223.448 151.878 223.429 151.878Z" fill="#F68260"/>
<path d="M217.495 170.365C217.454 170.332 217.893 169.815 218.436 168.877C218.711 168.411 218.991 167.829 219.253 167.165C219.503 166.498 219.727 165.743 219.878 164.934C220.02 164.122 220.073 163.337 220.073 162.624C220.059 161.91 220.001 161.267 219.907 160.734C219.726 159.666 219.495 159.028 219.545 159.01C219.563 159.004 219.633 159.158 219.744 159.445C219.861 159.73 219.988 160.158 220.105 160.696C220.227 161.234 220.308 161.889 220.337 162.618C220.352 163.348 220.306 164.153 220.161 164.985C220.006 165.814 219.767 166.584 219.498 167.262C219.216 167.936 218.912 168.521 218.61 168.982C218.311 169.445 218.042 169.802 217.833 170.028C217.629 170.258 217.51 170.378 217.495 170.365Z" fill="#F68260"/>
<path d="M229.815 166.916L235.905 169.03C235.905 169.03 241.72 166.022 245.731 169.03C249.741 172.038 253.225 179.965 252.121 183.173C252.121 183.173 249.354 186.591 247.249 187.092C245.143 187.593 236.958 185.611 233.553 184.893C230.138 184.175 224.275 180.359 224.275 180.359L229.815 166.916Z" fill="#F8A58D"/>
<path d="M230.563 175.889C230.544 175.89 230.521 175.697 230.498 175.35C230.474 174.937 230.445 174.448 230.412 173.878C230.347 172.636 230.263 170.918 230.237 169.017C230.209 167.115 230.263 165.39 230.378 164.146C230.432 163.524 230.5 163.023 230.562 162.679C230.625 162.335 230.668 162.147 230.688 162.15C230.733 162.158 230.638 162.921 230.58 164.16C230.517 165.4 230.496 167.116 230.524 169.013C230.558 170.872 230.59 172.552 230.614 173.872C230.621 174.495 230.619 174.999 230.61 175.348C230.598 175.696 230.583 175.889 230.563 175.889Z" fill="#F68260"/>
<path d="M250.646 168.791C250.601 168.834 249.977 167.967 248.62 166.965C247.286 165.966 245.118 164.899 242.551 164.755C239.983 164.616 237.711 165.438 236.275 166.285C234.817 167.132 234.102 167.924 234.061 167.877C234.049 167.866 234.218 167.663 234.563 167.334C234.906 167.004 235.444 166.563 236.171 166.11C237.605 165.204 239.927 164.325 242.567 164.469C245.206 164.617 247.417 165.744 248.743 166.803C249.415 167.333 249.902 167.829 250.207 168.195C250.514 168.561 250.659 168.781 250.646 168.791Z" fill="#17282F"/>
<path d="M249.864 163.713C249.825 163.772 249.011 162.951 247.33 162.316C245.675 161.667 243.108 161.368 240.473 162.11C239.158 162.477 237.955 163.003 236.927 163.586C235.899 164.174 235.041 164.817 234.358 165.4C233.674 165.983 233.152 166.492 232.794 166.847C232.435 167.202 232.236 167.398 232.221 167.384C232.206 167.371 232.379 167.15 232.713 166.77C233.048 166.391 233.552 165.857 234.225 165.248C234.898 164.639 235.756 163.969 236.795 163.357C237.835 162.751 239.054 162.208 240.396 161.834C243.095 161.073 245.731 161.415 247.403 162.127C248.248 162.474 248.877 162.873 249.278 163.185C249.484 163.334 249.623 163.477 249.724 163.564C249.822 163.655 249.87 163.706 249.864 163.713Z" fill="#17282F"/>
<path d="M249.914 159.312C249.898 159.368 248.834 159.043 247.065 158.803C246.182 158.678 245.121 158.608 243.943 158.606C242.766 158.623 241.472 158.719 240.132 158.948C238.794 159.191 237.544 159.542 236.432 159.927C235.326 160.332 234.352 160.759 233.565 161.179C231.984 162.008 231.095 162.677 231.061 162.629C231.05 162.613 231.266 162.441 231.671 162.142C231.871 161.989 232.122 161.81 232.428 161.625C232.731 161.437 233.068 161.206 233.469 161C234.251 160.554 235.227 160.102 236.342 159.679C237.463 159.275 238.727 158.912 240.083 158.666C241.44 158.434 242.751 158.344 243.943 158.341C245.135 158.358 246.206 158.45 247.095 158.603C247.541 158.659 247.937 158.761 248.287 158.834C248.637 158.904 248.934 158.987 249.174 159.062C249.656 159.205 249.919 159.293 249.914 159.312Z" fill="#17282F"/>
<path d="M203.252 105.45C203.252 105.45 203.534 105.977 203.673 107.069C203.823 108.155 203.803 109.78 203.442 111.794C203.261 112.8 203.018 113.906 202.655 115.087C202.277 116.269 201.704 117.478 201.056 118.745C199.744 121.275 198.093 124.033 196.181 126.975L195.958 127.318L195.957 126.907C195.955 124.964 195.951 122.923 195.948 120.804L196.162 120.907C194.525 122.228 192.801 123.619 191.025 125.053L191.07 124.988C189.879 128.76 189.096 132.961 188.785 137.335C188.283 144.029 188.688 150.432 189.004 156.24C189.274 162.056 189.452 167.294 189.633 171.692C189.807 176.09 189.966 179.648 190.098 182.106C190.17 183.323 190.227 184.274 190.266 184.935C190.286 185.247 190.303 185.492 190.315 185.67C190.324 185.836 190.322 185.921 190.322 185.921C190.322 185.921 190.305 185.838 190.285 185.673C190.267 185.495 190.241 185.251 190.208 184.939C190.148 184.294 190.069 183.341 189.987 182.112C189.821 179.656 189.631 176.098 189.431 171.701C189.234 167.299 189 162.065 188.74 156.254C188.41 150.45 187.995 144.034 188.499 137.314C188.812 132.922 189.602 128.698 190.807 124.903L190.819 124.864L190.852 124.837C192.63 123.408 194.357 122.02 195.997 120.702L196.211 120.529L196.211 120.804C196.208 122.923 196.205 124.964 196.202 126.907L195.978 126.84C199.756 120.98 202.829 115.888 203.303 111.768C203.681 109.769 203.724 108.157 203.6 107.078C203.547 106.536 203.44 106.132 203.373 105.859C203.287 105.592 203.252 105.45 203.252 105.45Z" fill="#17282F"/>
<path d="M193.387 176.402L193.19 176.395C192.394 176.418 191.685 177.146 191.683 177.941C191.68 178.737 192.385 179.47 193.18 179.497C193.976 179.525 194.73 178.843 194.783 178.049C194.835 177.254 194.179 176.48 193.387 176.402Z" fill="white"/>
<path d="M193.387 155.202L193.19 155.196C192.394 155.219 191.685 155.946 191.683 156.742C191.68 157.538 192.385 158.271 193.18 158.298C193.976 158.326 194.73 157.645 194.783 156.85C194.835 156.056 194.179 155.281 193.387 155.202Z" fill="white"/>
<path d="M193.18 136.237C193.976 136.265 194.73 135.583 194.783 134.789C194.835 133.995 194.179 133.22 193.387 133.142L193.19 133.135C192.394 133.158 191.685 133.885 191.683 134.682C191.68 135.478 192.385 136.209 193.18 136.237Z" fill="white"/>
<path d="M169.434 80.61C167.505 78.4753 165.559 76.317 164.154 73.8066C162.748 71.2968 161.91 68.3673 162.375 65.528C162.647 63.868 163.353 62.2867 163.465 60.608C163.619 58.2978 162.648 55.8843 163.467 53.7188C164.747 50.3349 169.303 49.8119 172.064 47.4742C174.215 45.6536 175.262 42.6977 177.628 41.1669C179.695 39.8298 182.351 39.859 184.788 40.2033C187.226 40.5487 189.678 41.1636 192.118 40.8353C193.857 40.6015 195.495 39.898 197.199 39.4761C198.902 39.0543 200.803 38.9432 202.321 39.8249C203.838 40.7066 204.69 42.8605 203.695 44.3066C206.523 43.0024 210.114 45.2064 210.888 48.2223C211.661 51.2381 210.113 54.496 207.717 56.4849C205.321 58.4738 202.223 59.3984 199.163 59.9754C190.501 61.6079 181.105 60.6866 173.64 55.9987" fill="#17282F"/>
<path d="M199.885 109.732C199.462 106.453 199.116 103.717 199.095 103.378C199.095 103.378 210.052 100.915 209.448 89.8352C209.157 84.4806 207.657 73.5013 206.187 63.5842C204.607 52.9333 195.1 45.2884 184.357 46.0067L183.289 46.0782C171.816 47.5215 166.632 58.0718 168.392 69.5009L174.583 107.822C174.583 107.822 177.225 116.3 182.875 117.767L190.006 127.953L191.185 123.568L196.5 118.941C196.5 118.941 197.719 117.621 199.12 115.04C200.265 112.931 200.024 110.761 199.885 109.732Z" fill="#F8A58D"/>
<path d="M199.102 103.216C199.102 103.216 192.144 104.253 184.395 100.08C184.395 100.08 188.339 107.819 199.32 106.083L199.102 103.216Z" fill="#F68260"/>
<path d="M202.626 73.1048C202.711 73.9375 202.077 74.6966 201.209 74.8016C200.342 74.9061 199.568 74.3182 199.483 73.4854C199.398 72.6521 200.033 71.8925 200.899 71.7874C201.767 71.6818 202.541 72.2715 202.626 73.1048Z" fill="#17282F"/>
<path d="M204.172 69.1769C203.989 69.3953 202.733 68.5895 201.031 68.7078C199.331 68.8013 198.141 69.7605 197.942 69.5647C197.846 69.4778 198.02 69.0928 198.537 68.6605C199.046 68.2309 199.933 67.7864 200.993 67.7199C202.053 67.6544 202.971 67.985 203.509 68.3502C204.06 68.7166 204.262 69.0774 204.172 69.1769Z" fill="#17282F"/>
<path d="M186.555 74.2532C186.64 75.0865 186.005 75.8456 185.137 75.9506C184.27 76.0557 183.497 75.4672 183.412 74.6339C183.327 73.8016 183.961 73.0415 184.829 72.9359C185.696 72.8308 186.469 73.421 186.555 74.2532Z" fill="#17282F"/>
<path d="M187.47 70.6125C187.288 70.8314 186.029 70.0256 184.329 70.1439C182.629 70.2379 181.439 71.1961 181.24 71.0003C181.143 70.9139 181.316 70.5289 181.836 70.0966C182.344 69.6665 183.231 69.2226 184.291 69.1555C185.352 69.0911 186.269 69.4211 186.808 69.7864C187.357 70.1527 187.56 70.5141 187.47 70.6125Z" fill="#17282F"/>
<path d="M194.488 82.8162C194.474 82.7205 195.519 82.4669 197.218 82.133C197.649 82.0593 198.055 81.9449 198.108 81.6441C198.19 81.3234 197.977 80.8669 197.732 80.3757C197.253 79.3521 196.752 78.2784 196.226 77.153C194.127 72.563 192.576 68.7765 192.762 68.6935C192.948 68.611 194.8 72.2643 196.899 76.8549C197.406 77.9874 197.891 79.0672 198.352 80.1001C198.55 80.583 198.87 81.1243 198.692 81.7904C198.596 82.1226 198.293 82.3795 198.02 82.473C197.747 82.5769 197.503 82.5978 197.289 82.6253C195.571 82.8332 194.501 82.9124 194.488 82.8162Z" fill="#17282F"/>
<path d="M187.464 63.9158C187.327 64.3894 185.613 64.2838 183.633 64.6584C181.645 64.9923 180.076 65.6842 179.783 65.2876C179.652 65.0968 179.903 64.6424 180.524 64.1513C181.139 63.6612 182.14 63.1672 183.329 62.9538C184.519 62.7426 185.629 62.8598 186.375 63.1067C187.128 63.3526 187.521 63.6914 187.464 63.9158Z" fill="#17282F"/>
<path d="M203.217 64.2948C202.943 64.7007 201.744 64.3784 200.334 64.4538C198.922 64.4796 197.749 64.8877 197.447 64.5016C197.314 64.3135 197.476 63.9136 197.973 63.5132C198.462 63.1144 199.302 62.7591 200.272 62.7234C201.242 62.6898 202.105 62.9835 202.622 63.3466C203.146 63.7101 203.336 64.0973 203.217 64.2948Z" fill="#17282F"/>
<path d="M169.845 77.6376C169.651 77.5683 162.088 75.8967 162.836 83.4492C163.584 91.0012 171.769 88.5398 171.76 88.322C171.752 88.1042 169.845 77.6376 169.845 77.6376Z" fill="#F8A58D"/>
<path d="M168.413 85.8419C168.378 85.821 168.291 85.947 168.078 86.0713C167.871 86.1917 167.505 86.2973 167.097 86.189C166.27 85.975 165.473 84.7748 165.301 83.4174C165.214 82.732 165.293 82.0632 165.483 81.4966C165.659 80.9218 165.978 80.5 166.373 80.3889C166.763 80.2574 167.071 80.4692 167.184 80.6727C167.307 80.874 167.274 81.0291 167.315 81.0385C167.338 81.0555 167.465 80.896 167.373 80.5902C167.327 80.4433 167.221 80.2739 167.029 80.1463C166.833 80.017 166.559 79.9681 166.282 80.0258C165.704 80.1237 165.233 80.7117 165.024 81.3333C164.784 81.9603 164.679 82.7133 164.776 83.4834C164.976 85.0004 165.896 86.3474 167.019 86.5548C167.563 86.6406 167.991 86.4365 168.202 86.2357C168.418 86.0262 168.441 85.8529 168.413 85.8419Z" fill="#F68260"/>
<path d="M205.63 53.2655C205.112 56.272 199.015 59.0261 193.959 58.8792C189.298 58.7433 186.996 56.4305 183.61 54.7869C181.466 53.7474 181.466 53.7474 178.558 54.2199C176.206 54.6021 174.986 57.3765 173.665 59.3599C176.18 64.8432 175.164 71.2193 174.097 77.1569C173.98 77.8131 173.834 78.5215 173.333 78.9621C172.484 79.7107 171.108 79.2619 170.272 78.4979C168.936 77.274 168.328 75.4589 167.889 73.7005C166.891 69.6934 166.507 65.4983 167.141 61.4187C167.775 57.3386 169.463 53.3756 172.25 50.33C175.734 46.5238 180.826 44.3297 185.98 44.0646C191.133 43.7994 196.308 45.3945 200.624 48.2217C202.627 49.5336 204.499 51.1556 205.63 53.2655Z" fill="#17282F"/>
<path d="M195.601 86.6422C194.318 86.0438 193.034 85.4454 191.751 84.8469C191.53 84.7435 191.293 84.6379 191.051 84.6704C190.778 84.7067 190.56 84.9107 190.385 85.123C189.492 86.2044 189.267 87.8364 189.959 89.0569C190.65 90.2769 192.275 90.9215 193.571 90.3847C194.936 89.8198 195.599 88.2352 195.705 86.7622L195.601 86.6422Z" fill="#F68260"/>
<path d="M193.692 90.6569C193.702 90.6905 193.514 90.801 193.129 90.8813C192.747 90.9545 192.156 90.9837 191.472 90.7598C190.795 90.5425 190.032 90.0161 189.56 89.1713C189.08 88.3479 188.907 87.1846 189.326 86.1351C189.526 85.6131 189.838 85.1527 190.219 84.7886C190.412 84.6043 190.613 84.4536 190.844 84.3161C190.964 84.249 191.115 84.1841 191.288 84.1753C191.458 84.1654 191.61 84.2094 191.735 84.2611C191.986 84.3739 192.149 84.4949 192.334 84.6016C192.514 84.7122 192.689 84.8194 192.859 84.9239C193.191 85.1318 193.504 85.3276 193.797 85.5103C194.938 86.2352 195.624 86.7176 195.584 86.7858C195.545 86.8545 194.786 86.4954 193.593 85.8606C193.289 85.6962 192.965 85.5207 192.62 85.3342C192.445 85.238 192.266 85.139 192.081 85.0372C191.897 84.9388 191.697 84.8134 191.537 84.7507C191.361 84.6896 191.284 84.694 191.115 84.7908C190.948 84.897 190.765 85.0367 190.609 85.1918C190.293 85.5048 190.03 85.898 189.861 86.3403C189.508 87.2258 189.635 88.1895 190.024 88.9177C190.408 89.6575 191.028 90.1382 191.614 90.3803C192.205 90.6256 192.741 90.6624 193.105 90.6602C193.471 90.6509 193.68 90.6151 193.692 90.6569Z" fill="#17282F"/>
<path d="M192.477 73.2945C192.433 73.2983 192.483 72.591 192.176 71.382C191.873 70.1967 191.083 68.4536 189.3 67.1055C188.418 66.4471 187.305 65.8877 186.023 65.6633C184.75 65.4477 183.314 65.4889 181.948 66.0104C181.26 66.2502 180.597 66.6116 179.988 67.0681C179.372 67.5158 178.812 68.0713 178.351 68.7154C177.398 69.9833 176.861 71.6136 176.845 73.2928C176.861 74.9737 177.398 76.604 178.351 77.873C178.812 78.5165 179.371 79.0726 179.988 79.5203C180.597 79.9769 181.26 80.3382 181.948 80.578C183.314 81.0995 184.75 81.1413 186.024 80.9251C187.306 80.7007 188.418 80.1419 189.301 79.4829C191.084 78.1342 191.873 76.3912 192.176 75.2064C192.483 73.9974 192.433 73.2906 192.477 73.2945C192.482 73.2945 192.485 73.3374 192.485 73.4221C192.484 73.5244 192.482 73.6476 192.481 73.7989C192.481 73.965 192.472 74.1696 192.432 74.4094C192.401 74.6498 192.371 74.9292 192.285 75.2334C192.156 75.851 191.878 76.5837 191.431 77.3625C190.981 78.1381 190.325 78.951 189.424 79.6441C188.526 80.3305 187.387 80.9169 186.067 81.1589C184.758 81.3921 183.275 81.358 181.858 80.8261C181.146 80.5813 180.457 80.2106 179.825 79.7398C179.185 79.2783 178.604 78.7046 178.125 78.0391C177.134 76.7267 176.574 75.0348 176.559 73.2928C176.574 71.552 177.135 69.8606 178.125 68.5488C178.605 67.8832 179.185 67.3096 179.825 66.8486C180.457 66.3783 181.146 66.0071 181.858 65.7623C183.274 65.231 184.757 65.1963 186.067 65.4301C187.387 65.6715 188.525 66.2579 189.424 66.9443C190.324 67.6368 190.981 68.4498 191.431 69.2253C191.878 70.0042 192.156 70.7368 192.284 71.3545C192.37 71.6592 192.401 71.9386 192.432 72.179C192.472 72.4188 192.481 72.624 192.481 72.7896C192.482 72.9408 192.484 73.064 192.485 73.1663C192.485 73.251 192.482 73.2945 192.477 73.2945Z" fill="#17282F"/>
<path d="M211.313 72.5542C211.27 72.558 211.318 71.8688 211.019 70.6912C210.724 69.5367 209.953 67.8387 208.217 66.5258C207.356 65.8839 206.273 65.3393 205.024 65.1215C203.784 64.9114 202.385 64.9521 201.055 65.4598C200.385 65.693 199.739 66.0456 199.146 66.49C198.545 66.9262 198.001 67.4674 197.551 68.0945C196.624 69.3293 196.101 70.9173 196.085 72.5531C196.1 74.1894 196.623 75.7774 197.551 77.0133C198 77.6403 198.545 78.1821 199.145 78.6178C199.739 79.0627 200.385 79.4153 201.055 79.6485C202.386 80.1562 203.784 80.1969 205.025 79.9868C206.274 79.7684 207.357 79.2239 208.217 78.5825C209.953 77.2691 210.724 75.5711 211.019 74.4166C211.318 73.2395 211.27 72.5503 211.313 72.5542C211.323 72.5542 211.324 72.723 211.318 73.0459C211.318 73.2076 211.31 73.4073 211.271 73.641C211.24 73.8748 211.21 74.1476 211.127 74.4441C210.861 75.6228 210.107 77.3736 208.34 78.7437C207.465 79.4126 206.355 79.9846 205.068 80.2206C203.791 80.4483 202.346 80.4147 200.964 79.8966C200.27 79.6579 199.599 79.296 198.983 78.8378C198.359 78.3878 197.793 77.8284 197.325 77.1794C196.36 75.9006 195.813 74.251 195.799 72.5531C195.814 70.8557 196.36 69.2066 197.325 67.9278C197.793 67.2793 198.359 66.7199 198.983 66.2706C199.599 65.8118 200.27 65.4505 200.964 65.2117C202.346 64.6936 203.791 64.6606 205.068 64.8878C206.354 65.1232 207.464 65.6952 208.339 66.3646C210.106 67.7342 210.861 69.485 211.127 70.6642C211.21 70.9607 211.24 71.233 211.271 71.4673C211.31 71.7011 211.318 71.9007 211.318 72.0624C211.324 72.3853 211.323 72.5542 211.313 72.5542Z" fill="#17282F"/>
<path d="M195.943 70.8144C195.911 70.8463 195.73 70.6929 195.395 70.5344C195.064 70.376 194.567 70.2209 194.01 70.2308C193.451 70.2385 192.961 70.4118 192.636 70.5828C192.308 70.7539 192.134 70.9151 192.102 70.8843C192.075 70.8628 192.203 70.6433 192.531 70.4101C192.854 70.1791 193.386 69.9531 194.005 69.9443C194.624 69.9333 195.163 70.1395 195.494 70.3579C195.83 70.5779 195.967 70.7918 195.943 70.8144Z" fill="#17282F"/>
<path d="M177.178 72.1735C177.225 72.2368 175.682 73.4694 173.732 74.9259C171.78 76.3824 170.16 77.5116 170.113 77.4484C170.066 77.3851 171.608 76.1531 173.56 74.696C175.511 73.2401 177.131 72.1103 177.178 72.1735Z" fill="#17282F"/>
<path d="M180.005 128.405C179.556 128.405 179.105 128.124 178.73 127.84C172.776 123.342 169.936 115.526 170.657 108.097C170.697 108.327 170.743 108.594 170.796 108.898C170.976 109.941 171.245 111.454 171.76 113.283C172.278 115.106 173.041 117.258 174.307 119.44C174.94 120.527 175.702 121.618 176.621 122.639C177.543 123.656 178.63 124.595 179.862 125.376C179.968 125.444 180.073 125.512 180.171 125.575L180.321 125.672L180.38 125.498C181.28 122.857 182.136 120.343 182.916 118.052C182.945 118.092 182.974 118.133 183.002 118.173C183.425 121.45 182.838 124.612 181.178 127.485C180.974 127.839 180.727 128.208 180.343 128.346C180.232 128.387 180.119 128.405 180.005 128.405Z" fill="#228DD5"/>
<path d="M180.321 125.672L180.171 125.575C180.073 125.512 179.968 125.444 179.862 125.376C178.63 124.595 177.543 123.656 176.621 122.639C175.702 121.618 174.94 120.527 174.307 119.44C173.041 117.258 172.278 115.106 171.76 113.283C171.245 111.454 170.976 109.941 170.796 108.898C170.743 108.594 170.697 108.327 170.657 108.097C170.661 108.056 170.666 108.014 170.67 107.973C171.776 115.55 175.027 122.285 180.245 125.452C181.202 122.841 182.015 120.39 182.963 117.894C182.977 117.987 182.99 118.08 183.002 118.173C182.974 118.133 182.945 118.092 182.916 118.052C182.136 120.343 181.28 122.857 180.38 125.498L180.321 125.672Z" fill="#0F191D"/>
<path d="M196.059 130.771L195.331 123.341L191.34 124.799C192.928 123.517 194.473 122.271 195.949 121.079C195.952 123.1 195.955 125.048 195.957 126.907L195.958 127.318L196.181 126.975C198.093 124.033 199.744 121.275 201.056 118.745C201.704 117.478 202.277 116.269 202.655 115.087C203.018 113.906 203.261 112.8 203.442 111.794C203.719 110.243 203.796 108.924 203.748 107.903C203.739 107.503 203.714 107.289 203.714 107.289C203.714 107.289 204.723 114.246 202.761 118.188C200.8 122.131 196.059 130.771 196.059 130.771Z" fill="#228DD5"/>
<path d="M195.958 127.318L195.957 126.907C195.955 125.048 195.952 123.1 195.949 121.079C194.473 122.271 192.928 123.517 191.34 124.799L190.938 124.946L196.08 120.804V126.908L199.665 121.079C203.523 114.802 203.786 109.627 203.748 107.903C203.796 108.924 203.719 110.243 203.442 111.794C203.261 112.8 203.018 113.906 202.655 115.087C202.277 116.269 201.704 117.478 201.056 118.745C199.744 121.275 198.093 124.033 196.181 126.975L195.958 127.318Z" fill="#0F191D"/>
<path d="M124.437 170.298L124.363 170.288C124.14 168.011 125.348 165.746 127.129 164.309C128.91 162.872 131.192 162.176 133.465 161.911C134.083 161.839 134.71 161.798 135.336 161.798C136.888 161.798 138.434 162.05 139.831 162.71C141.79 163.635 143.301 164.902 143.564 167.053C142.852 166.293 142.061 165.611 141.21 165.026C141.215 165.018 141.139 164.939 140.987 164.796C140.832 164.654 140.587 164.461 140.249 164.248C139.571 163.825 138.503 163.345 137.113 163.015C136.419 162.849 135.645 162.718 134.806 162.655C134.519 162.633 134.222 162.62 133.918 162.62C133.339 162.62 132.734 162.669 132.122 162.805C130.25 163.207 128.398 164.378 126.954 166.018C125.784 167.324 124.976 168.825 124.437 170.298ZM141.073 164.934C140.394 164.479 139.679 164.086 138.936 163.763C139.439 163.955 139.86 164.156 140.192 164.344C140.633 164.595 140.919 164.815 141.073 164.934Z" fill="#228DD5"/>
<path d="M124.583 170.319L124.437 170.298C124.976 168.825 125.784 167.324 126.954 166.018C128.398 164.378 130.25 163.207 132.122 162.805C132.734 162.669 133.339 162.62 133.918 162.62C134.222 162.62 134.519 162.633 134.806 162.655C135.645 162.718 136.419 162.849 137.113 163.015C138.503 163.345 139.571 163.825 140.249 164.248C140.587 164.461 140.832 164.654 140.987 164.796C141.139 164.939 141.215 165.018 141.21 165.026C141.164 164.995 141.118 164.964 141.073 164.934C140.919 164.815 140.633 164.595 140.192 164.343C139.86 164.156 139.439 163.955 138.936 163.763C137.423 163.105 135.795 162.738 134.132 162.738C133.789 162.738 133.443 162.754 133.097 162.786C129.165 163.152 126.116 166.171 124.583 170.319Z" fill="#0F191D"/>
<path d="M252.849 172.923C252.201 171.504 251.532 170.063 250.645 168.792C250.645 168.792 250.646 168.792 250.646 168.791C250.659 168.781 250.514 168.561 250.207 168.195C250.169 168.151 250.129 168.104 250.087 168.056C249.835 167.75 249.567 167.457 249.277 167.182C247.737 165.714 245.688 164.833 243.572 164.574C243.245 164.524 242.909 164.488 242.567 164.469C242.375 164.458 242.185 164.454 241.996 164.454C240.011 164.454 238.238 165.011 236.932 165.678C236.444 165.897 235.968 166.143 235.507 166.413L234.669 167.094C236.97 165.009 240.072 163.85 243.172 163.85C243.87 163.85 244.567 163.908 245.255 164.028C247.39 164.401 249.458 165.363 250.93 166.952C252.401 168.541 253.215 170.789 252.849 172.923Z" fill="#228DD5"/>
<path d="M250.645 168.792C250.468 168.54 250.283 168.293 250.087 168.056C250.129 168.104 250.169 168.151 250.207 168.195C250.514 168.561 250.659 168.781 250.646 168.791C250.646 168.792 250.645 168.792 250.645 168.792ZM236.932 165.678C238.238 165.011 240.011 164.453 241.996 164.453C242.185 164.453 242.375 164.458 242.567 164.469C242.909 164.488 243.245 164.524 243.572 164.574C243.235 164.533 242.896 164.507 242.557 164.498C242.45 164.494 242.343 164.493 242.235 164.493C240.411 164.493 238.601 164.929 236.932 165.678Z" fill="#0F191D"/>
<path d="M222.609 132.443C222.591 132.435 222.662 132.221 222.806 131.842C222.976 131.408 223.185 130.874 223.431 130.244C223.963 128.896 224.693 127.033 225.463 124.962C226.234 122.89 226.899 121.003 227.377 119.634C227.603 118.997 227.794 118.456 227.949 118.016C228.088 117.636 228.173 117.428 228.192 117.433C228.211 117.439 228.162 117.659 228.055 118.05C227.95 118.442 227.784 119.005 227.57 119.698C227.14 121.084 226.504 122.986 225.732 125.062C224.96 127.136 224.199 128.992 223.618 130.321C223.328 130.986 223.085 131.521 222.909 131.886C222.733 132.252 222.627 132.451 222.609 132.443Z" fill="#17282F"/>
<path d="M153.266 132.983C153.188 132.998 152.59 130.38 151.931 127.137C151.271 123.892 150.799 121.249 150.877 121.233C150.954 121.217 151.552 123.834 152.211 127.079C152.871 130.324 153.343 132.967 153.266 132.983Z" fill="#17282F"/>
<path d="M152.228 165.701C152.402 165.789 150.213 148.561 150.213 148.561C150.213 148.561 151.595 135.488 152.371 134.883L152.391 130.27C152.391 130.27 154.529 128.975 155.103 131.066C155.103 131.066 156.999 129.42 157.331 133.339C157.662 137.258 157.732 141.263 157.732 141.263L161.951 151.815L162.647 152.166C162.647 152.166 163.553 143.9 164.081 142.683C164.608 141.466 164.969 138.508 166.969 138.952C168.97 139.396 169.137 141.051 168.777 143.748C168.417 146.445 167.97 149.229 168.136 150.971C168.303 152.713 169.094 156.547 168.851 159.593C168.608 162.638 166.94 165.853 165.189 168.109C163.438 170.364 160.094 175.03 158.276 176.436C157.641 176.927 152.228 165.701 152.228 165.701Z" fill="#F8A58D"/>
<path d="M154.359 151.682C154.338 151.681 154.344 151.418 154.37 150.945C154.406 150.416 154.452 149.745 154.508 148.944C154.637 147.254 154.834 144.923 155.07 142.35C155.191 141.067 155.307 139.845 155.413 138.723C155.468 138.17 155.503 137.645 155.432 137.168C155.366 136.692 155.179 136.278 154.906 135.98C154.349 135.376 153.633 135.223 153.183 135.224C152.718 135.22 152.475 135.347 152.466 135.315C152.462 135.307 152.52 135.276 152.637 135.225C152.755 135.183 152.937 135.125 153.18 135.112C153.651 135.078 154.423 135.2 155.055 135.842C155.366 136.16 155.586 136.622 155.667 137.132C155.753 137.642 155.723 138.189 155.676 138.747C155.577 139.869 155.469 141.092 155.355 142.377C155.119 144.95 154.89 147.278 154.71 148.962C154.618 149.76 154.541 150.428 154.481 150.955C154.421 151.425 154.378 151.684 154.359 151.682Z" fill="#F68260"/>
<path d="M156.627 144.636C156.668 144.671 156.198 145.085 155.88 145.997C155.54 146.895 155.417 148.244 155.178 149.715C154.951 151.188 154.73 152.519 154.555 153.48C154.38 154.441 154.253 155.032 154.214 155.026C154.175 155.02 154.232 154.418 154.355 153.449C154.478 152.48 154.668 151.144 154.895 149.671C155.134 148.208 155.287 146.847 155.691 145.923C155.882 145.461 156.115 145.124 156.301 144.918C156.485 144.709 156.617 144.626 156.627 144.636Z" fill="#F68260"/>
<path d="M155.076 130.839C155.095 130.836 155.147 131.029 155.223 131.382C155.3 131.733 155.396 132.246 155.501 132.882C155.711 134.153 155.941 135.92 156.086 137.881C156.23 139.844 156.262 141.625 156.241 142.914C156.231 143.558 156.212 144.079 156.187 144.438C156.164 144.797 156.141 144.996 156.122 144.995C156.079 144.994 156.07 144.199 156.039 142.915C156.008 141.63 155.944 139.857 155.801 137.902C155.656 135.949 155.458 134.185 155.3 132.91C155.142 131.636 155.034 130.846 155.076 130.839Z" fill="#F68260"/>
<path d="M167.249 146.992C167.291 147.056 166.632 147.362 165.828 147.112C165.02 146.871 164.645 146.25 164.715 146.219C164.779 146.164 165.202 146.631 165.911 146.838C166.616 147.062 167.227 146.91 167.249 146.992Z" fill="#F68260"/>
<path d="M152.466 163.56L141.317 168.244H134.675C134.675 168.244 128.105 170.295 127.094 176.453C126.083 182.612 125.939 185.782 128.827 186.544C131.715 187.305 139.873 187.389 143.916 186.048C147.959 184.706 158.549 176.16 158.549 176.16L159.57 169.978L152.466 163.56Z" fill="#F8A58D"/>
<path d="M155.076 170.365C155.062 170.379 154.95 170.275 154.759 170.074C154.561 169.88 154.317 169.561 154.035 169.154C153.484 168.331 152.88 167.082 152.478 165.627C152.061 164.175 151.884 162.818 151.791 161.839C151.707 160.857 151.711 160.248 151.748 160.246C151.79 160.243 151.857 160.847 151.993 161.816C152.136 162.783 152.343 164.12 152.754 165.549C153.15 166.981 153.71 168.211 154.206 169.045C154.708 169.878 155.116 170.33 155.076 170.365Z" fill="#F68260"/>
<path d="M159.93 172.32C159.87 172.298 160.372 171.45 160.565 169.93C160.657 169.176 160.649 168.257 160.433 167.276C160.22 166.293 159.75 165.281 159.068 164.336C158.39 163.386 157.629 162.56 156.987 161.761C156.338 160.965 155.819 160.187 155.48 159.482C155.138 158.777 154.98 158.156 154.921 157.724C154.865 157.29 154.887 157.048 154.902 157.048C154.958 157.036 154.939 158.032 155.661 159.391C156.015 160.066 156.538 160.816 157.191 161.593C157.838 162.376 158.608 163.199 159.301 164.17C159.999 165.134 160.487 166.2 160.691 167.22C160.9 168.239 160.887 169.186 160.766 169.958C160.645 170.732 160.432 171.332 160.255 171.728C160.169 171.93 160.087 172.077 160.03 172.176C159.973 172.275 159.939 172.324 159.93 172.32Z" fill="#F68260"/>
<path d="M142.743 145.476C142.673 145.513 141.457 143.3 140.027 140.534C138.596 137.767 137.494 135.495 137.565 135.459C137.635 135.422 138.851 137.635 140.281 140.402C141.711 143.168 142.814 145.44 142.743 145.476Z" fill="white"/>
<path d="M160.773 125.406C160.701 125.374 161.453 123.528 162.452 121.285C163.452 119.04 164.32 117.247 164.393 117.28C164.465 117.312 163.714 119.156 162.714 121.401C161.714 123.645 160.845 125.438 160.773 125.406Z" fill="white"/>
<path d="M178.428 138.431C178.367 138.482 177.236 137.216 175.902 135.605C174.567 133.992 173.535 132.644 173.596 132.594C173.657 132.544 174.788 133.809 176.123 135.422C177.457 137.033 178.489 138.381 178.428 138.431Z" fill="white"/>
<path d="M174.367 156.347C174.303 156.3 175.155 155.017 176.271 153.478C177.386 151.94 178.343 150.731 178.406 150.777C178.47 150.823 177.618 152.107 176.502 153.646C175.387 155.184 174.431 156.393 174.367 156.347Z" fill="white"/>
<path d="M168.899 181.653C168.865 181.67 168.615 181.249 168.253 180.547C167.892 179.846 167.424 178.861 166.953 177.752C166.482 176.643 166.098 175.622 165.843 174.875C165.588 174.129 165.46 173.657 165.496 173.644C165.534 173.63 165.73 174.077 166.033 174.804C166.378 175.631 166.776 176.586 167.216 177.64C167.67 178.689 168.081 179.638 168.436 180.461C168.75 181.183 168.935 181.634 168.899 181.653Z" fill="white"/>
<path d="M184.433 170.895C184.418 170.973 182.923 170.749 181.094 170.395C179.264 170.04 177.793 169.69 177.808 169.613C177.824 169.535 179.318 169.759 181.148 170.113C182.977 170.467 184.448 170.817 184.433 170.895Z" fill="white"/>
<path d="M196.48 147.249C196.422 147.196 197.847 145.564 199.664 143.605C201.481 141.646 203.001 140.101 203.058 140.155C203.117 140.209 201.691 141.84 199.874 143.8C198.057 145.759 196.538 147.303 196.48 147.249Z" fill="white"/>
<path d="M208.6 178.785C208.539 178.835 206.761 176.777 204.628 174.187C202.495 171.598 200.815 169.458 200.876 169.408C200.937 169.358 202.716 171.416 204.849 174.006C206.982 176.594 208.662 178.735 208.6 178.785Z" fill="white"/>
<path d="M133.364 165.344C133.404 165.423 131.779 166.247 130.009 167.606C128.229 168.955 127.005 170.304 126.94 170.244C126.913 170.22 127.184 169.851 127.688 169.31C128.191 168.769 128.937 168.064 129.835 167.378C130.734 166.693 131.61 166.161 132.265 165.819C132.92 165.475 133.347 165.311 133.364 165.344Z" fill="white"/>
<path d="M137.896 153.19C137.962 153.233 137.383 154.219 136.604 155.391C135.824 156.563 135.139 157.478 135.073 157.434C135.007 157.391 135.585 156.405 136.365 155.233C137.144 154.061 137.83 153.146 137.896 153.19Z" fill="white"/>
<path d="M148.106 165.125C148.043 165.163 147.47 164.2 147.171 162.866C146.864 161.533 146.965 160.418 147.037 160.425C147.123 160.425 147.152 161.51 147.45 162.802C147.739 164.097 148.183 165.088 148.106 165.125Z" fill="white"/>
<path d="M149.62 127.216C149.631 127.294 148.682 127.493 147.501 127.662C146.319 127.83 145.352 127.903 145.341 127.824C145.33 127.745 146.279 127.546 147.461 127.378C148.642 127.21 149.609 127.137 149.62 127.216Z" fill="white"/>
<path d="M157.289 113.616C157.327 113.685 156.497 114.219 155.434 114.808C154.371 115.396 153.478 115.818 153.44 115.749C153.402 115.68 154.232 115.146 155.295 114.557C156.358 113.969 157.25 113.547 157.289 113.616Z" fill="white"/>
<path d="M178.855 119.361C178.792 119.409 177.842 118.267 176.733 116.812C175.624 115.355 174.776 114.136 174.839 114.088C174.902 114.04 175.852 115.182 176.961 116.638C178.07 118.094 178.918 119.313 178.855 119.361Z" fill="white"/>
<path d="M206.231 133.038C206.178 133.088 205.178 132.058 204.25 130.561C203.316 129.066 202.835 127.714 202.904 127.689C202.981 127.655 203.574 128.938 204.493 130.409C205.407 131.884 206.296 132.982 206.231 133.038Z" fill="white"/>
<path d="M216.681 136.481C216.753 136.514 216.245 137.788 215.546 139.327C214.848 140.866 214.224 142.087 214.151 142.054C214.079 142.021 214.587 140.748 215.286 139.209C215.984 137.67 216.608 136.45 216.681 136.481Z" fill="white"/>
<path d="M218.141 122.22C218.08 122.27 216.836 120.875 215.362 119.104C213.888 117.333 212.743 115.856 212.803 115.805C212.864 115.755 214.108 117.149 215.583 118.921C217.056 120.692 218.201 122.169 218.141 122.22Z" fill="white"/>
<path d="M202.182 110.634C202.102 110.637 201.991 109.444 201.933 107.968C201.875 106.493 201.892 105.295 201.971 105.292C202.05 105.288 202.161 106.481 202.22 107.957C202.277 109.432 202.261 110.631 202.182 110.634Z" fill="white"/>
<path d="M215.194 109.912C215.204 109.991 213.683 110.259 211.798 110.51C209.911 110.763 208.373 110.904 208.363 110.826C208.352 110.747 209.873 110.479 211.759 110.227C213.645 109.975 215.183 109.833 215.194 109.912Z" fill="white"/>
<path d="M235.688 124.966C235.617 125.001 234.701 123.256 233.645 121.072C232.587 118.885 231.788 117.086 231.859 117.051C231.93 117.017 232.844 118.76 233.902 120.947C234.959 123.132 235.759 124.932 235.688 124.966Z" fill="white"/>
<path d="M232.237 137.974C232.16 137.959 232.374 136.557 232.716 134.843C233.058 133.13 233.399 131.753 233.476 131.769C233.553 131.784 233.339 133.186 232.997 134.9C232.655 136.613 232.315 137.99 232.237 137.974Z" fill="white"/>
<path d="M241.743 148.23C241.669 148.256 240.938 146.363 240.112 144.003C239.286 141.642 238.677 139.707 238.752 139.682C238.826 139.656 239.556 141.547 240.383 143.908C241.208 146.268 241.818 148.203 241.743 148.23Z" fill="white"/>
<path d="M240.419 154.227C240.406 154.298 239.087 154.023 237.641 153.234C236.19 152.453 235.24 151.499 235.291 151.449C235.347 151.383 236.361 152.221 237.778 152.982C239.189 153.753 240.444 154.144 240.419 154.227Z" fill="white"/>
<path d="M252.597 167.904C252.525 167.937 252.083 167.102 251.611 166.04C251.138 164.978 250.814 164.091 250.886 164.059C250.958 164.027 251.4 164.862 251.872 165.924C252.345 166.985 252.669 167.873 252.597 167.904Z" fill="white"/>
<path d="M180.675 186.979C180.597 186.988 180.405 185.897 180.247 184.543C180.09 183.188 180.026 182.083 180.105 182.074C180.183 182.065 180.374 183.156 180.532 184.51C180.689 185.864 180.753 186.969 180.675 186.979Z" fill="white"/>
<path d="M218.037 186.034C217.96 186.018 218.122 184.951 218.398 183.652C218.674 182.354 218.96 181.314 219.038 181.33C219.115 181.347 218.954 182.413 218.678 183.712C218.402 185.011 218.115 186.051 218.037 186.034Z" fill="white"/>
<path d="M225.202 76.9677L230.033 68.4531C227.896 64.9835 226.661 60.8995 226.661 56.5261C226.661 43.9479 236.857 33.7514 249.436 33.7514C262.013 33.7514 272.21 43.9479 272.21 56.5261C272.21 69.1038 262.013 79.3004 249.436 79.3004C244.183 79.3004 239.35 77.5177 235.498 74.531L235.505 74.5409L225.202 76.9677Z" fill="#FAFAF9"/>
<path d="M225.202 76.9677C225.692 76.8555 228.953 76.1102 235.521 74.6091L235.627 74.5855L235.561 74.4986L235.553 74.4887L235.455 74.5866C236.754 75.5931 238.31 76.5849 240.14 77.411C241.971 78.2234 244.07 78.8868 246.387 79.1948C247.543 79.3427 248.751 79.4379 249.993 79.3774C250.614 79.3422 251.246 79.3273 251.883 79.274C252.516 79.1783 253.157 79.0809 253.808 78.983C256.387 78.4737 259.025 77.4946 261.485 75.9683C263.943 74.4469 266.22 72.3815 268.045 69.8436C269.867 67.3102 271.248 64.3064 271.895 61.042C272.536 57.7825 272.483 54.2886 271.626 50.907C270.764 47.5375 269.154 44.2455 266.743 41.5377L265.812 40.5135C265.507 40.1698 265.142 39.8854 264.811 39.5697C264.464 39.271 264.15 38.9327 263.778 38.6687L262.684 37.8514C262.33 37.5653 261.94 37.3343 261.552 37.1022C261.166 36.8679 260.781 36.6341 260.396 36.4009C259.992 36.2046 259.588 36.0088 259.186 35.8129C258.781 35.6259 258.39 35.4048 257.965 35.2701C254.655 33.9566 251.126 33.456 247.753 33.7008C244.378 33.9439 241.149 34.912 238.379 36.4713C235.6 38.0186 233.257 40.0834 231.448 42.3903C229.634 44.6982 228.356 47.2432 227.565 49.7783C226.779 52.325 226.566 54.8508 226.575 57.1884C226.643 59.5321 227.069 61.691 227.691 63.5859C228.314 65.4835 229.131 67.1154 229.976 68.4883L229.975 68.4196C226.927 73.8798 225.437 76.548 225.202 76.9677C225.441 76.5519 226.968 73.9034 230.092 68.4861L230.112 68.452L230.091 68.4174C229.261 67.0467 228.458 65.4208 227.849 63.5342C227.242 61.6503 226.828 59.5068 226.769 57.1829C226.77 54.8645 226.989 52.363 227.775 49.8432C228.566 47.3351 229.838 44.8187 231.638 42.5393C233.432 40.2605 235.754 38.2221 238.504 36.6974C241.245 35.1595 244.437 34.2074 247.772 33.9709C251.107 33.7327 254.592 34.2294 257.861 35.5286C258.281 35.6611 258.666 35.8806 259.067 36.066C259.464 36.259 259.863 36.4521 260.262 36.6462C260.642 36.8773 261.022 37.1083 261.403 37.3404C261.787 37.5692 262.172 37.7969 262.522 38.0802L263.601 38.8876C263.97 39.1484 264.279 39.4828 264.622 39.7781C264.949 40.09 265.31 40.37 265.612 40.7105L266.531 41.7214C268.912 44.3962 270.503 47.6475 271.356 50.9752C272.203 54.3145 272.259 57.7671 271.629 60.9892C270.994 64.2151 269.631 67.1853 267.834 69.6924C266.034 72.2044 263.786 74.2522 261.357 75.762C258.926 77.2779 256.318 78.2531 253.766 78.7652C253.122 78.8642 252.486 78.9621 251.86 79.0589C251.229 79.1134 250.603 79.1299 249.988 79.1673C248.758 79.2316 247.559 79.1409 246.412 78.999C244.115 78.7019 242.031 78.0529 240.209 77.2554C238.389 76.4441 236.838 75.4677 235.541 74.4755L235.116 74.151L235.442 74.5739L235.45 74.5838L235.489 74.4727C228.941 76.0607 225.69 76.8494 225.202 76.9677Z" fill="#17282F"/>
<path d="M255.585 55.5751C255.585 56.8044 256.581 57.8005 257.81 57.8005C259.039 57.8005 260.036 56.8044 260.036 55.5751C260.036 54.3463 259.039 53.3496 257.81 53.3496C256.581 53.3496 255.585 54.3463 255.585 55.5751Z" fill="#17282F"/>
<path d="M246.678 55.5751C246.678 56.8044 247.674 57.8005 248.903 57.8005C250.133 57.8005 251.129 56.8044 251.129 55.5751C251.129 54.3463 250.133 53.3496 248.903 53.3496C247.674 53.3496 246.678 54.3463 246.678 55.5751Z" fill="#17282F"/>
<path d="M237.793 54.4624C237.179 55.5273 237.543 56.888 238.608 57.503C239.673 58.1174 241.034 57.7527 241.648 56.6878C242.263 55.6235 241.899 54.2622 240.834 53.6478C239.769 53.0334 238.409 53.3981 237.793 54.4624Z" fill="#17282F"/>
</svg>
