<svg width="36" height="36" viewBox="0 0 36 36" fill="none" xmlns="http://www.w3.org/2000/svg">
<path d="M21 10.5C20.9989 10.1285 20.86 9.77068 20.6102 9.49575C20.3604 9.22081 20.0174 9.04835 19.6478 9.01176C19.2781 8.97517 18.908 9.07704 18.6091 9.29766C18.3103 9.51828 18.1039 9.84195 18.03 10.206C17.691 11.901 17.22 12.756 16.692 13.347C16.182 13.917 15.579 14.319 14.637 14.94L14.169 15.252C13.8507 15.4777 13.6329 15.8186 13.5617 16.2022C13.4906 16.5859 13.5718 16.9822 13.7881 17.307C14.0043 17.6318 14.3387 17.8595 14.7201 17.9418C15.1015 18.0242 15.5 17.9547 15.831 17.748L16.257 17.469C16.836 17.088 17.436 16.692 18 16.23V25.5C18 25.8978 18.158 26.2794 18.4393 26.5607C18.7206 26.842 19.1022 27 19.5 27C19.8978 27 20.2794 26.842 20.5607 26.5607C20.842 26.2794 21 25.8978 21 25.5V10.5ZM18 0C15.6362 -3.52233e-08 13.2956 0.465584 11.1117 1.37017C8.92784 2.27475 6.94353 3.60062 5.27208 5.27208C3.60062 6.94353 2.27475 8.92784 1.37017 11.1117C0.465584 13.2956 0 15.6362 0 18C0 20.3638 0.465584 22.7044 1.37017 24.8883C2.27475 27.0722 3.60062 29.0565 5.27208 30.7279C6.94353 32.3994 8.92784 33.7252 11.1117 34.6298C13.2956 35.5344 15.6362 36 18 36C22.7739 36 27.3523 34.1036 30.7279 30.7279C34.1036 27.3523 36 22.7739 36 18C36 13.2261 34.1036 8.64773 30.7279 5.27208C27.3523 1.89642 22.7739 7.11366e-08 18 0ZM3 18C3 14.0218 4.58035 10.2064 7.3934 7.3934C10.2064 4.58035 14.0218 3 18 3C21.9782 3 25.7936 4.58035 28.6066 7.3934C31.4196 10.2064 33 14.0218 33 18C33 21.9782 31.4196 25.7936 28.6066 28.6066C25.7936 31.4196 21.9782 33 18 33C14.0218 33 10.2064 31.4196 7.3934 28.6066C4.58035 25.7936 3 21.9782 3 18Z" fill="#1EA9E4"/>
</svg>
