<svg width="24" height="24" viewBox="0 0 24 24" fill="none" xmlns="http://www.w3.org/2000/svg">
<circle cx="12" cy="12" r="12" fill="#FBC02D"/>
<path d="M19.2001 15.6C19.2001 15.904 19.0321 16.168 18.7761 16.304L12.4561 19.856C12.3281 19.952 12.1681 20 12.0001 20C11.8321 20 11.6721 19.952 11.5441 19.856L5.22405 16.304C5.0958 16.2366 4.98846 16.1353 4.91371 16.0112C4.83896 15.8871 4.79965 15.7449 4.80005 15.6V8.4C4.80005 8.096 4.96805 7.832 5.22405 7.696L11.5441 4.144C11.6721 4.048 11.8321 4 12.0001 4C12.1681 4 12.3281 4.048 12.4561 4.144L18.7761 7.696C19.0321 7.832 19.2001 8.096 19.2001 8.4V15.6ZM6.40005 9.6V14.4H7.40005V12.8H8.00005C8.4244 12.8 8.83136 12.6314 9.13142 12.3314C9.43148 12.0313 9.60005 11.6243 9.60005 11.2C9.60005 10.7757 9.43148 10.3687 9.13142 10.0686C8.83136 9.76857 8.4244 9.6 8.00005 9.6H6.40005ZM7.40005 12V10.4H7.80005C8.01223 10.4 8.21571 10.4843 8.36574 10.6343C8.51577 10.7843 8.60005 10.9878 8.60005 11.2C8.60005 11.4122 8.51577 11.6157 8.36574 11.7657C8.21571 11.9157 8.01223 12 7.80005 12H7.40005ZM10.2001 9.6V14.4H11.2001V12.8H11.8001L12.3281 14.4H13.3841L12.7521 12.488C13.1441 12.2 13.4001 11.728 13.4001 11.2C13.4001 10.7757 13.2315 10.3687 12.9314 10.0686C12.6314 9.76857 12.2244 9.6 11.8001 9.6H10.2001ZM11.2001 12V10.4H11.6001C11.8122 10.4 12.0157 10.4843 12.1657 10.6343C12.3158 10.7843 12.4001 10.9878 12.4001 11.2C12.4001 11.4122 12.3158 11.6157 12.1657 11.7657C12.0157 11.9157 11.8122 12 11.6001 12H11.2001ZM16.0001 9.6C14.8961 9.6 14.0001 10.672 14.0001 12C14.0001 13.328 14.8961 14.4 16.0001 14.4C17.1041 14.4 18.0001 13.328 18.0001 12C18.0001 10.672 17.1041 9.6 16.0001 9.6ZM16.0001 10.6C16.6081 10.6 17.1041 11.224 17.1041 12C17.1041 12.776 16.6081 13.4 16.0001 13.4C15.3921 13.4 14.9041 12.776 14.9041 12C14.9041 11.224 15.3921 10.6 16.0001 10.6Z" fill="white"/>
</svg>
