<svg width="24" height="24" viewBox="0 0 24 24" fill="none" xmlns="http://www.w3.org/2000/svg">
<path d="M22.3213 9.04257L16.0259 8.1301L13.2117 2.44017C13.1348 2.28438 13.0083 2.15827 12.8521 2.08161C12.4604 1.88873 11.9843 2.04947 11.7884 2.44017L8.97423 8.1301L2.67884 9.04257C2.50528 9.0673 2.34659 9.1489 2.2251 9.27254C2.07822 9.4231 1.99728 9.62566 2.00007 9.8357C2.00286 10.0457 2.08915 10.2461 2.23997 10.3927L6.79477 14.8215L5.71868 21.0753C5.69345 21.2207 5.70959 21.3704 5.76528 21.5071C5.82096 21.6439 5.91397 21.7624 6.03374 21.8492C6.15352 21.9359 6.29528 21.9875 6.44294 21.998C6.59059 22.0085 6.73825 21.9775 6.86916 21.9086L12.5001 18.9561L18.1309 21.9086C18.2847 21.9902 18.4632 22.0174 18.6343 21.9877C19.0657 21.9135 19.3558 21.5055 19.2814 21.0753L18.2053 14.8215L22.7601 10.3927C22.8841 10.2716 22.9659 10.1133 22.9907 9.9402C23.0577 9.50746 22.7552 9.10686 22.3213 9.04257ZM16.2887 14.1984L17.1838 19.3987L12.5001 16.9457L7.81632 19.4012L8.71141 14.2008L4.92277 10.5164L10.1594 9.75721L12.5001 5.02673L14.8407 9.75721L20.0773 10.5164L16.2887 14.1984Z" fill="#1EA9E4"/>
</svg>
