<svg width="70" height="14" viewBox="0 0 70 14" fill="none" xmlns="http://www.w3.org/2000/svg">
<path d="M1.57045 1.66V6.976C1.57045 7.608 1.73445 8.084 2.06245 8.404C2.39845 8.724 2.86245 8.884 3.45445 8.884C4.05445 8.884 4.51845 8.724 4.84645 8.404C5.18245 8.084 5.35045 7.608 5.35045 6.976V1.66H6.71845V6.952C6.71845 7.632 6.57045 8.208 6.27445 8.68C5.97845 9.152 5.58245 9.504 5.08645 9.736C4.59045 9.968 4.04245 10.084 3.44245 10.084C2.84245 10.084 2.29445 9.968 1.79845 9.736C1.31045 9.504 0.922453 9.152 0.634453 8.68C0.346453 8.208 0.202453 7.632 0.202453 6.952V1.66H1.57045ZM9.86761 4.36C10.0996 4.056 10.4156 3.8 10.8156 3.592C11.2156 3.384 11.6676 3.28 12.1716 3.28C12.7476 3.28 13.2716 3.424 13.7436 3.712C14.2236 3.992 14.5996 4.388 14.8716 4.9C15.1436 5.412 15.2796 6 15.2796 6.664C15.2796 7.328 15.1436 7.924 14.8716 8.452C14.5996 8.972 14.2236 9.38 13.7436 9.676C13.2716 9.964 12.7476 10.108 12.1716 10.108C11.6676 10.108 11.2196 10.008 10.8276 9.808C10.4356 9.6 10.1156 9.344 9.86761 9.04V13.144H8.49961V3.388H9.86761V4.36ZM13.8876 6.664C13.8876 6.208 13.7916 5.816 13.5996 5.488C13.4156 5.152 13.1676 4.9 12.8556 4.732C12.5516 4.556 12.2236 4.468 11.8716 4.468C11.5276 4.468 11.1996 4.556 10.8876 4.732C10.5836 4.908 10.3356 5.164 10.1436 5.5C9.95961 5.836 9.86761 6.232 9.86761 6.688C9.86761 7.144 9.95961 7.544 10.1436 7.888C10.3356 8.224 10.5836 8.48 10.8876 8.656C11.1996 8.832 11.5276 8.92 11.8716 8.92C12.2236 8.92 12.5516 8.832 12.8556 8.656C13.1676 8.472 13.4156 8.208 13.5996 7.864C13.7916 7.52 13.8876 7.12 13.8876 6.664ZM18.0004 1.12V10H16.6324V1.12H18.0004ZM22.6645 10.108C22.0405 10.108 21.4765 9.968 20.9725 9.688C20.4685 9.4 20.0725 9 19.7845 8.488C19.4965 7.968 19.3525 7.368 19.3525 6.688C19.3525 6.016 19.5005 5.42 19.7965 4.9C20.0925 4.38 20.4965 3.98 21.0085 3.7C21.5205 3.42 22.0925 3.28 22.7245 3.28C23.3565 3.28 23.9285 3.42 24.4405 3.7C24.9525 3.98 25.3565 4.38 25.6525 4.9C25.9485 5.42 26.0965 6.016 26.0965 6.688C26.0965 7.36 25.9445 7.956 25.6405 8.476C25.3365 8.996 24.9205 9.4 24.3925 9.688C23.8725 9.968 23.2965 10.108 22.6645 10.108ZM22.6645 8.92C23.0165 8.92 23.3445 8.836 23.6485 8.668C23.9605 8.5 24.2125 8.248 24.4045 7.912C24.5965 7.576 24.6925 7.168 24.6925 6.688C24.6925 6.208 24.6005 5.804 24.4165 5.476C24.2325 5.14 23.9885 4.888 23.6845 4.72C23.3805 4.552 23.0525 4.468 22.7005 4.468C22.3485 4.468 22.0205 4.552 21.7165 4.72C21.4205 4.888 21.1845 5.14 21.0085 5.476C20.8325 5.804 20.7445 6.208 20.7445 6.688C20.7445 7.4 20.9245 7.952 21.2845 8.344C21.6525 8.728 22.1125 8.92 22.6645 8.92ZM26.9928 6.664C26.9928 6 27.1288 5.412 27.4008 4.9C27.6808 4.388 28.0568 3.992 28.5288 3.712C29.0088 3.424 29.5368 3.28 30.1128 3.28C30.6328 3.28 31.0848 3.384 31.4688 3.592C31.8608 3.792 32.1728 4.044 32.4048 4.348V3.388H33.7848V10H32.4048V9.016C32.1728 9.328 31.8568 9.588 31.4568 9.796C31.0568 10.004 30.6008 10.108 30.0888 10.108C29.5208 10.108 29.0008 9.964 28.5288 9.676C28.0568 9.38 27.6808 8.972 27.4008 8.452C27.1288 7.924 26.9928 7.328 26.9928 6.664ZM32.4048 6.688C32.4048 6.232 32.3088 5.836 32.1168 5.5C31.9328 5.164 31.6888 4.908 31.3848 4.732C31.0808 4.556 30.7528 4.468 30.4008 4.468C30.0488 4.468 29.7208 4.556 29.4168 4.732C29.1128 4.9 28.8648 5.152 28.6728 5.488C28.4888 5.816 28.3968 6.208 28.3968 6.664C28.3968 7.12 28.4888 7.52 28.6728 7.864C28.8648 8.208 29.1128 8.472 29.4168 8.656C29.7288 8.832 30.0568 8.92 30.4008 8.92C30.7528 8.92 31.0808 8.832 31.3848 8.656C31.6888 8.48 31.9328 8.224 32.1168 7.888C32.3088 7.544 32.4048 7.144 32.4048 6.688ZM35.1256 6.664C35.1256 6 35.2616 5.412 35.5336 4.9C35.8136 4.388 36.1896 3.992 36.6616 3.712C37.1416 3.424 37.6736 3.28 38.2576 3.28C38.6896 3.28 39.1136 3.376 39.5296 3.568C39.9536 3.752 40.2896 4 40.5376 4.312V1.12H41.9176V10H40.5376V9.004C40.3136 9.324 40.0016 9.588 39.6016 9.796C39.2096 10.004 38.7576 10.108 38.2456 10.108C37.6696 10.108 37.1416 9.964 36.6616 9.676C36.1896 9.38 35.8136 8.972 35.5336 8.452C35.2616 7.924 35.1256 7.328 35.1256 6.664ZM40.5376 6.688C40.5376 6.232 40.4416 5.836 40.2496 5.5C40.0656 5.164 39.8216 4.908 39.5176 4.732C39.2136 4.556 38.8856 4.468 38.5336 4.468C38.1816 4.468 37.8536 4.556 37.5496 4.732C37.2456 4.9 36.9976 5.152 36.8056 5.488C36.6216 5.816 36.5296 6.208 36.5296 6.664C36.5296 7.12 36.6216 7.52 36.8056 7.864C36.9976 8.208 37.2456 8.472 37.5496 8.656C37.8616 8.832 38.1896 8.92 38.5336 8.92C38.8856 8.92 39.2136 8.832 39.5176 8.656C39.8216 8.48 40.0656 8.224 40.2496 7.888C40.4416 7.544 40.5376 7.144 40.5376 6.688ZM49.6036 4.504H48.3796V10H46.9996V4.504H46.2196V3.388H46.9996V2.92C46.9996 2.16 47.1996 1.608 47.5996 1.264C48.0076 0.912 48.6436 0.736 49.5076 0.736V1.876C49.0916 1.876 48.7996 1.956 48.6316 2.116C48.4636 2.268 48.3796 2.536 48.3796 2.92V3.388H49.6036V4.504ZM53.684 10.108C53.06 10.108 52.496 9.968 51.992 9.688C51.488 9.4 51.092 9 50.804 8.488C50.516 7.968 50.372 7.368 50.372 6.688C50.372 6.016 50.52 5.42 50.816 4.9C51.112 4.38 51.516 3.98 52.028 3.7C52.54 3.42 53.112 3.28 53.744 3.28C54.376 3.28 54.948 3.42 55.46 3.7C55.972 3.98 56.376 4.38 56.672 4.9C56.968 5.42 57.116 6.016 57.116 6.688C57.116 7.36 56.964 7.956 56.66 8.476C56.356 8.996 55.94 9.4 55.412 9.688C54.892 9.968 54.316 10.108 53.684 10.108ZM53.684 8.92C54.036 8.92 54.364 8.836 54.668 8.668C54.98 8.5 55.232 8.248 55.424 7.912C55.616 7.576 55.712 7.168 55.712 6.688C55.712 6.208 55.62 5.804 55.436 5.476C55.252 5.14 55.008 4.888 54.704 4.72C54.4 4.552 54.072 4.468 53.72 4.468C53.368 4.468 53.04 4.552 52.736 4.72C52.44 4.888 52.204 5.14 52.028 5.476C51.852 5.804 51.764 6.208 51.764 6.688C51.764 7.4 51.944 7.952 52.304 8.344C52.672 8.728 53.132 8.92 53.684 8.92ZM60.0644 4.504V8.164C60.0644 8.412 60.1204 8.592 60.2324 8.704C60.3524 8.808 60.5524 8.86 60.8324 8.86H61.6724V10H60.5924C59.9764 10 59.5044 9.856 59.1764 9.568C58.8484 9.28 58.6844 8.812 58.6844 8.164V4.504H57.9044V3.388H58.6844V1.744H60.0644V3.388H61.6724V4.504H60.0644ZM65.8012 10.108C65.1772 10.108 64.6132 9.968 64.1092 9.688C63.6052 9.4 63.2092 9 62.9212 8.488C62.6332 7.968 62.4892 7.368 62.4892 6.688C62.4892 6.016 62.6372 5.42 62.9332 4.9C63.2292 4.38 63.6332 3.98 64.1452 3.7C64.6572 3.42 65.2292 3.28 65.8612 3.28C66.4932 3.28 67.0652 3.42 67.5772 3.7C68.0892 3.98 68.4932 4.38 68.7892 4.9C69.0852 5.42 69.2332 6.016 69.2332 6.688C69.2332 7.36 69.0812 7.956 68.7772 8.476C68.4732 8.996 68.0572 9.4 67.5292 9.688C67.0092 9.968 66.4332 10.108 65.8012 10.108ZM65.8012 8.92C66.1532 8.92 66.4812 8.836 66.7852 8.668C67.0972 8.5 67.3492 8.248 67.5412 7.912C67.7332 7.576 67.8292 7.168 67.8292 6.688C67.8292 6.208 67.7372 5.804 67.5532 5.476C67.3692 5.14 67.1252 4.888 66.8212 4.72C66.5172 4.552 66.1892 4.468 65.8372 4.468C65.4852 4.468 65.1572 4.552 64.8532 4.72C64.5572 4.888 64.3212 5.14 64.1452 5.476C63.9692 5.804 63.8812 6.208 63.8812 6.688C63.8812 7.4 64.0612 7.952 64.4212 8.344C64.7892 8.728 65.2492 8.92 65.8012 8.92Z" fill="#BDBDBD"/>
</svg>
