<svg width="48" height="48" viewBox="0 0 48 48" fill="none" xmlns="http://www.w3.org/2000/svg">
<rect opacity="0.5" x="13.7832" y="20.7836" width="20" height="13" rx="6.5" fill="#E0E0E0"/>
<path d="M27.663 17.3512L24.313 14.0012C24.023 13.7112 23.543 13.7112 23.253 14.0012L19.903 17.3512C19.613 17.6412 19.613 18.1212 19.903 18.4112C20.193 18.7012 20.673 18.7012 20.963 18.4112L23.033 16.3412V27.0312C23.033 27.4412 23.373 27.7812 23.783 27.7812C24.193 27.7812 24.533 27.4412 24.533 27.0312V16.3412L26.603 18.4112C26.753 18.5612 26.943 18.6312 27.133 18.6312C27.323 18.6312 27.513 18.5612 27.663 18.4112C27.963 18.1212 27.963 17.6512 27.663 17.3512Z" fill="#E0E0E0"/>
<rect opacity="0.5" x="7.7832" y="7.78363" width="32" height="32" rx="16" fill="#E0E0E0"/>
</svg>
