<svg width="130" height="44" viewBox="0 0 130 44" fill="none" xmlns="http://www.w3.org/2000/svg">
<rect y="3" width="38" height="38" rx="19" fill="#1EA9E4"/>
<path d="M11.036 15.952C10.9053 15.7467 10.784 15.4667 10.672 15.112C10.56 14.7573 10.504 14.384 10.504 13.992C10.504 13.264 10.6627 12.7413 10.98 12.424C11.316 12.1067 11.7453 11.948 12.268 11.948H24.476C24.6067 12.1533 24.728 12.4333 24.84 12.788C24.952 13.1427 25.008 13.516 25.008 13.908C25.008 14.636 24.84 15.1587 24.504 15.476C24.1867 15.7933 23.7667 15.952 23.244 15.952H20.136V28.888C19.9307 28.944 19.604 29 19.156 29.056C18.7267 29.112 18.2973 29.14 17.868 29.14C17.4387 29.14 17.056 29.1027 16.72 29.028C16.4027 28.972 16.132 28.86 15.908 28.692C15.684 28.524 15.516 28.2907 15.404 27.992C15.292 27.6933 15.236 27.3013 15.236 26.816V15.952H11.036ZM24.5001 26.732C24.5001 25.948 24.7427 25.2947 25.2281 24.772C25.7134 24.2493 26.3761 23.988 27.2161 23.988C28.0561 23.988 28.7187 24.2493 29.2041 24.772C29.6894 25.2947 29.9321 25.948 29.9321 26.732C29.9321 27.516 29.6894 28.1693 29.2041 28.692C28.7187 29.2147 28.0561 29.476 27.2161 29.476C26.3761 29.476 25.7134 29.2147 25.2281 28.692C24.7427 28.1693 24.5001 27.516 24.5001 26.732Z" fill="white"/>
<path d="M56.608 15.152V18.44H52.144V32H48.04V18.44H43.576V15.152H56.608ZM62.5317 20.84C63.0117 20.104 63.6117 19.528 64.3317 19.112C65.0517 18.68 65.8517 18.464 66.7317 18.464V22.808H65.6037C64.5797 22.808 63.8117 23.032 63.2997 23.48C62.7877 23.912 62.5317 24.68 62.5317 25.784V32H58.4277V18.608H62.5317V20.84ZM74.5493 32.192C73.2373 32.192 72.0533 31.912 70.9973 31.352C69.9573 30.792 69.1333 29.992 68.5253 28.952C67.9333 27.912 67.6373 26.696 67.6373 25.304C67.6373 23.928 67.9413 22.72 68.5493 21.68C69.1573 20.624 69.9893 19.816 71.0453 19.256C72.1013 18.696 73.2853 18.416 74.5973 18.416C75.9093 18.416 77.0933 18.696 78.1493 19.256C79.2053 19.816 80.0373 20.624 80.6453 21.68C81.2533 22.72 81.5573 23.928 81.5573 25.304C81.5573 26.68 81.2453 27.896 80.6213 28.952C80.0133 29.992 79.1733 30.792 78.1013 31.352C77.0453 31.912 75.8613 32.192 74.5493 32.192ZM74.5493 28.64C75.3333 28.64 75.9973 28.352 76.5413 27.776C77.1013 27.2 77.3813 26.376 77.3813 25.304C77.3813 24.232 77.1093 23.408 76.5653 22.832C76.0373 22.256 75.3813 21.968 74.5973 21.968C73.7973 21.968 73.1333 22.256 72.6053 22.832C72.0773 23.392 71.8133 24.216 71.8133 25.304C71.8133 26.376 72.0693 27.2 72.5813 27.776C73.1093 28.352 73.7653 28.64 74.5493 28.64ZM90.2146 22.016H88.0066V32H83.9026V22.016H82.4146V18.608H83.9026V18.224C83.9026 16.576 84.3746 15.328 85.3186 14.48C86.2626 13.616 87.6466 13.184 89.4706 13.184C89.7746 13.184 89.9986 13.192 90.1426 13.208V16.688C89.3586 16.64 88.8066 16.752 88.4866 17.024C88.1666 17.296 88.0066 17.784 88.0066 18.488V18.608H90.2146V22.016ZM98.623 22.016H96.415V32H92.311V22.016H90.823V18.608H92.311V18.224C92.311 16.576 92.783 15.328 93.727 14.48C94.671 13.616 96.055 13.184 97.879 13.184C98.183 13.184 98.407 13.192 98.551 13.208V16.688C97.767 16.64 97.215 16.752 96.895 17.024C96.575 17.296 96.415 17.784 96.415 18.488V18.608H98.623V22.016ZM112.935 25.088C112.935 25.472 112.911 25.872 112.863 26.288H103.575C103.639 27.12 103.903 27.76 104.367 28.208C104.847 28.64 105.431 28.856 106.119 28.856C107.143 28.856 107.855 28.424 108.255 27.56H112.623C112.399 28.44 111.991 29.232 111.399 29.936C110.823 30.64 110.095 31.192 109.215 31.592C108.335 31.992 107.351 32.192 106.263 32.192C104.951 32.192 103.783 31.912 102.759 31.352C101.735 30.792 100.935 29.992 100.359 28.952C99.7834 27.912 99.4954 26.696 99.4954 25.304C99.4954 23.912 99.7754 22.696 100.335 21.656C100.911 20.616 101.711 19.816 102.735 19.256C103.759 18.696 104.935 18.416 106.263 18.416C107.559 18.416 108.711 18.688 109.719 19.232C110.727 19.776 111.511 20.552 112.071 21.56C112.647 22.568 112.935 23.744 112.935 25.088ZM108.735 24.008C108.735 23.304 108.495 22.744 108.015 22.328C107.535 21.912 106.935 21.704 106.215 21.704C105.527 21.704 104.943 21.904 104.463 22.304C103.999 22.704 103.711 23.272 103.599 24.008H108.735ZM123.02 18.464C124.588 18.464 125.836 18.976 126.764 20C127.708 21.008 128.18 22.4 128.18 24.176V32H124.1V24.728C124.1 23.832 123.868 23.136 123.404 22.64C122.94 22.144 122.316 21.896 121.532 21.896C120.748 21.896 120.124 22.144 119.66 22.64C119.196 23.136 118.964 23.832 118.964 24.728V32H114.86V18.608H118.964V20.384C119.38 19.792 119.94 19.328 120.644 18.992C121.348 18.64 122.14 18.464 123.02 18.464Z" fill="#3E3E3E"/>
</svg>
