<svg width="216" height="269" viewBox="0 0 216 269" fill="none" xmlns="http://www.w3.org/2000/svg">
<g clip-path="url(#clip0_338_3021)">
<rect width="216" height="269" rx="16" fill="#56CCF2"/>
<path d="M45.64 114.04V122.68C45.64 123.627 45.8867 124.353 46.38 124.86C46.8733 125.353 47.5667 125.6 48.46 125.6C49.3667 125.6 50.0667 125.353 50.56 124.86C51.0533 124.353 51.3 123.627 51.3 122.68V114.04H54.12V122.66C54.12 123.847 53.86 124.853 53.34 125.68C52.8333 126.493 52.1467 127.107 51.28 127.52C50.4267 127.933 49.4733 128.14 48.42 128.14C47.38 128.14 46.4333 127.933 45.58 127.52C44.74 127.107 44.0733 126.493 43.58 125.68C43.0867 124.853 42.84 123.847 42.84 122.66V114.04H45.64ZM59.6253 118.52C59.9853 118.013 60.4786 117.593 61.1053 117.26C61.7453 116.913 62.472 116.74 63.2853 116.74C64.232 116.74 65.0853 116.973 65.8453 117.44C66.6186 117.907 67.2253 118.573 67.6653 119.44C68.1186 120.293 68.3453 121.287 68.3453 122.42C68.3453 123.553 68.1186 124.56 67.6653 125.44C67.2253 126.307 66.6186 126.98 65.8453 127.46C65.0853 127.94 64.232 128.18 63.2853 128.18C62.472 128.18 61.752 128.013 61.1253 127.68C60.512 127.347 60.012 126.927 59.6253 126.42V133.28H56.8253V116.92H59.6253V118.52ZM65.4853 122.42C65.4853 121.753 65.3453 121.18 65.0653 120.7C64.7986 120.207 64.4386 119.833 63.9853 119.58C63.5453 119.327 63.0653 119.2 62.5453 119.2C62.0386 119.2 61.5586 119.333 61.1053 119.6C60.6653 119.853 60.3053 120.227 60.0253 120.72C59.7586 121.213 59.6253 121.793 59.6253 122.46C59.6253 123.127 59.7586 123.707 60.0253 124.2C60.3053 124.693 60.6653 125.073 61.1053 125.34C61.5586 125.593 62.0386 125.72 62.5453 125.72C63.0653 125.72 63.5453 125.587 63.9853 125.32C64.4386 125.053 64.7986 124.673 65.0653 124.18C65.3453 123.687 65.4853 123.1 65.4853 122.42ZM74.72 116.74C75.5467 116.74 76.2733 116.907 76.9 117.24C77.5267 117.56 78.02 117.98 78.38 118.5V116.92H81.2V128.08C81.2 129.107 80.9933 130.02 80.58 130.82C80.1667 131.633 79.5467 132.273 78.72 132.74C77.8933 133.22 76.8933 133.46 75.72 133.46C74.1467 133.46 72.8533 133.093 71.84 132.36C70.84 131.627 70.2733 130.627 70.14 129.36H72.92C73.0667 129.867 73.38 130.267 73.86 130.56C74.3533 130.867 74.9467 131.02 75.64 131.02C76.4533 131.02 77.1133 130.773 77.62 130.28C78.1267 129.8 78.38 129.067 78.38 128.08V126.36C78.02 126.88 77.52 127.313 76.88 127.66C76.2533 128.007 75.5333 128.18 74.72 128.18C73.7867 128.18 72.9333 127.94 72.16 127.46C71.3867 126.98 70.7733 126.307 70.32 125.44C69.88 124.56 69.66 123.553 69.66 122.42C69.66 121.3 69.88 120.307 70.32 119.44C70.7733 118.573 71.38 117.907 72.14 117.44C72.9133 116.973 73.7733 116.74 74.72 116.74ZM78.38 122.46C78.38 121.78 78.2467 121.2 77.98 120.72C77.7133 120.227 77.3533 119.853 76.9 119.6C76.4467 119.333 75.96 119.2 75.44 119.2C74.92 119.2 74.44 119.327 74 119.58C73.56 119.833 73.2 120.207 72.92 120.7C72.6533 121.18 72.52 121.753 72.52 122.42C72.52 123.087 72.6533 123.673 72.92 124.18C73.2 124.673 73.56 125.053 74 125.32C74.4533 125.587 74.9333 125.72 75.44 125.72C75.96 125.72 76.4467 125.593 76.9 125.34C77.3533 125.073 77.7133 124.7 77.98 124.22C78.2467 123.727 78.38 123.14 78.38 122.46ZM86.7347 118.64C87.0947 118.053 87.5614 117.593 88.1347 117.26C88.7214 116.927 89.388 116.76 90.1347 116.76V119.7H89.3947C88.5147 119.7 87.848 119.907 87.3947 120.32C86.9547 120.733 86.7347 121.453 86.7347 122.48V128H83.9347V116.92H86.7347V118.64ZM91.3006 122.42C91.3006 121.3 91.5206 120.307 91.9606 119.44C92.414 118.573 93.0206 117.907 93.7806 117.44C94.554 116.973 95.414 116.74 96.3606 116.74C97.1873 116.74 97.9073 116.907 98.5206 117.24C99.1473 117.573 99.6473 117.993 100.021 118.5V116.92H102.841V128H100.021V126.38C99.6606 126.9 99.1606 127.333 98.5206 127.68C97.894 128.013 97.1673 128.18 96.3406 128.18C95.4073 128.18 94.554 127.94 93.7806 127.46C93.0206 126.98 92.414 126.307 91.9606 125.44C91.5206 124.56 91.3006 123.553 91.3006 122.42ZM100.021 122.46C100.021 121.78 99.8873 121.2 99.6206 120.72C99.354 120.227 98.994 119.853 98.5406 119.6C98.0873 119.333 97.6006 119.2 97.0806 119.2C96.5606 119.2 96.0806 119.327 95.6406 119.58C95.2006 119.833 94.8406 120.207 94.5606 120.7C94.294 121.18 94.1606 121.753 94.1606 122.42C94.1606 123.087 94.294 123.673 94.5606 124.18C94.8406 124.673 95.2006 125.053 95.6406 125.32C96.094 125.587 96.574 125.72 97.0806 125.72C97.6006 125.72 98.0873 125.593 98.5406 125.34C98.994 125.073 99.354 124.7 99.6206 124.22C99.8873 123.727 100.021 123.14 100.021 122.46ZM104.855 122.42C104.855 121.3 105.075 120.307 105.515 119.44C105.969 118.573 106.582 117.907 107.355 117.44C108.129 116.973 108.989 116.74 109.935 116.74C110.655 116.74 111.342 116.9 111.995 117.22C112.649 117.527 113.169 117.94 113.555 118.46V113.2H116.395V128H113.555V126.36C113.209 126.907 112.722 127.347 112.095 127.68C111.469 128.013 110.742 128.18 109.915 128.18C108.982 128.18 108.129 127.94 107.355 127.46C106.582 126.98 105.969 126.307 105.515 125.44C105.075 124.56 104.855 123.553 104.855 122.42ZM113.575 122.46C113.575 121.78 113.442 121.2 113.175 120.72C112.909 120.227 112.549 119.853 112.095 119.6C111.642 119.333 111.155 119.2 110.635 119.2C110.115 119.2 109.635 119.327 109.195 119.58C108.755 119.833 108.395 120.207 108.115 120.7C107.849 121.18 107.715 121.753 107.715 122.42C107.715 123.087 107.849 123.673 108.115 124.18C108.395 124.673 108.755 125.053 109.195 125.32C109.649 125.587 110.129 125.72 110.635 125.72C111.155 125.72 111.642 125.593 112.095 125.34C112.549 125.073 112.909 124.7 113.175 124.22C113.442 123.727 113.575 123.14 113.575 122.46ZM129.43 122.22C129.43 122.62 129.403 122.98 129.35 123.3H121.25C121.317 124.1 121.597 124.727 122.09 125.18C122.583 125.633 123.19 125.86 123.91 125.86C124.95 125.86 125.69 125.413 126.13 124.52H129.15C128.83 125.587 128.217 126.467 127.31 127.16C126.403 127.84 125.29 128.18 123.97 128.18C122.903 128.18 121.943 127.947 121.09 127.48C120.25 127 119.59 126.327 119.11 125.46C118.643 124.593 118.41 123.593 118.41 122.46C118.41 121.313 118.643 120.307 119.11 119.44C119.577 118.573 120.23 117.907 121.07 117.44C121.91 116.973 122.877 116.74 123.97 116.74C125.023 116.74 125.963 116.967 126.79 117.42C127.63 117.873 128.277 118.52 128.73 119.36C129.197 120.187 129.43 121.14 129.43 122.22ZM126.53 121.42C126.517 120.7 126.257 120.127 125.75 119.7C125.243 119.26 124.623 119.04 123.89 119.04C123.197 119.04 122.61 119.253 122.13 119.68C121.663 120.093 121.377 120.673 121.27 121.42H126.53ZM142.799 128L139.039 123.28V128H136.239V113.2H139.039V121.62L142.759 116.92H146.399L141.519 122.48L146.439 128H142.799ZM158.219 122.22C158.219 122.62 158.192 122.98 158.139 123.3H150.039C150.106 124.1 150.386 124.727 150.879 125.18C151.372 125.633 151.979 125.86 152.699 125.86C153.739 125.86 154.479 125.413 154.919 124.52H157.939C157.619 125.587 157.006 126.467 156.099 127.16C155.192 127.84 154.079 128.18 152.759 128.18C151.692 128.18 150.732 127.947 149.879 127.48C149.039 127 148.379 126.327 147.899 125.46C147.432 124.593 147.199 123.593 147.199 122.46C147.199 121.313 147.432 120.307 147.899 119.44C148.366 118.573 149.019 117.907 149.859 117.44C150.699 116.973 151.666 116.74 152.759 116.74C153.812 116.74 154.752 116.967 155.579 117.42C156.419 117.873 157.066 118.52 157.519 119.36C157.986 120.187 158.219 121.14 158.219 122.22ZM155.319 121.42C155.306 120.7 155.046 120.127 154.539 119.7C154.032 119.26 153.412 119.04 152.679 119.04C151.986 119.04 151.399 119.253 150.919 119.68C150.452 120.093 150.166 120.673 150.059 121.42H155.319ZM53.06 148.36C53.06 149.107 52.88 149.807 52.52 150.46C52.1733 151.113 51.62 151.64 50.86 152.04C50.1133 152.44 49.1667 152.64 48.02 152.64H45.68V158H42.88V144.04H48.02C49.1 144.04 50.02 144.227 50.78 144.6C51.54 144.973 52.1067 145.487 52.48 146.14C52.8667 146.793 53.06 147.533 53.06 148.36ZM47.9 150.38C48.6733 150.38 49.2467 150.207 49.62 149.86C49.9933 149.5 50.18 149 50.18 148.36C50.18 147 49.42 146.32 47.9 146.32H45.68V150.38H47.9ZM57.848 148.64C58.208 148.053 58.6746 147.593 59.248 147.26C59.8346 146.927 60.5013 146.76 61.248 146.76V149.7H60.508C59.628 149.7 58.9613 149.907 58.508 150.32C58.068 150.733 57.848 151.453 57.848 152.48V158H55.048V146.92H57.848V148.64ZM68.0539 158.18C66.9872 158.18 66.0272 157.947 65.1739 157.48C64.3206 157 63.6472 156.327 63.1539 155.46C62.6739 154.593 62.4339 153.593 62.4339 152.46C62.4339 151.327 62.6806 150.327 63.1739 149.46C63.6806 148.593 64.3672 147.927 65.2339 147.46C66.1006 146.98 67.0672 146.74 68.1339 146.74C69.2006 146.74 70.1672 146.98 71.0339 147.46C71.9006 147.927 72.5806 148.593 73.0739 149.46C73.5806 150.327 73.8339 151.327 73.8339 152.46C73.8339 153.593 73.5739 154.593 73.0539 155.46C72.5472 156.327 71.8539 157 70.9739 157.48C70.1072 157.947 69.1339 158.18 68.0539 158.18ZM68.0539 155.74C68.5606 155.74 69.0339 155.62 69.4739 155.38C69.9272 155.127 70.2872 154.753 70.5539 154.26C70.8206 153.767 70.9539 153.167 70.9539 152.46C70.9539 151.407 70.6739 150.6 70.1139 150.04C69.5672 149.467 68.8939 149.18 68.0939 149.18C67.2939 149.18 66.6206 149.467 66.0739 150.04C65.5406 150.6 65.2739 151.407 65.2739 152.46C65.2739 153.513 65.5339 154.327 66.0539 154.9C66.5872 155.46 67.2539 155.74 68.0539 155.74ZM80.9678 149.22H79.0278V158H76.1878V149.22H74.9278V146.92H76.1878V146.36C76.1878 145 76.5745 144 77.3478 143.36C78.1211 142.72 79.2878 142.42 80.8478 142.46V144.82C80.1678 144.807 79.6945 144.92 79.4278 145.16C79.1611 145.4 79.0278 145.833 79.0278 146.46V146.92H80.9678V149.22ZM93.0823 152.22C93.0823 152.62 93.0557 152.98 93.0023 153.3H84.9023C84.969 154.1 85.249 154.727 85.7423 155.18C86.2357 155.633 86.8423 155.86 87.5623 155.86C88.6023 155.86 89.3423 155.413 89.7823 154.52H92.8023C92.4823 155.587 91.869 156.467 90.9623 157.16C90.0557 157.84 88.9423 158.18 87.6223 158.18C86.5557 158.18 85.5957 157.947 84.7423 157.48C83.9023 157 83.2423 156.327 82.7623 155.46C82.2957 154.593 82.0623 153.593 82.0623 152.46C82.0623 151.313 82.2957 150.307 82.7623 149.44C83.229 148.573 83.8823 147.907 84.7223 147.44C85.5623 146.973 86.529 146.74 87.6223 146.74C88.6757 146.74 89.6157 146.967 90.4423 147.42C91.2823 147.873 91.929 148.52 92.3823 149.36C92.849 150.187 93.0823 151.14 93.0823 152.22ZM90.1823 151.42C90.169 150.7 89.909 150.127 89.4023 149.7C88.8957 149.26 88.2757 149.04 87.5423 149.04C86.849 149.04 86.2623 149.253 85.7823 149.68C85.3157 150.093 85.029 150.673 84.9223 151.42H90.1823ZM99.3661 158.18C98.4594 158.18 97.6461 158.02 96.9261 157.7C96.2061 157.367 95.6328 156.92 95.2061 156.36C94.7928 155.8 94.5661 155.18 94.5261 154.5H97.3461C97.3994 154.927 97.6061 155.28 97.9661 155.56C98.3394 155.84 98.7994 155.98 99.3461 155.98C99.8794 155.98 100.293 155.873 100.586 155.66C100.893 155.447 101.046 155.173 101.046 154.84C101.046 154.48 100.859 154.213 100.486 154.04C100.126 153.853 99.5461 153.653 98.7461 153.44C97.9194 153.24 97.2394 153.033 96.7061 152.82C96.1861 152.607 95.7328 152.28 95.3461 151.84C94.9728 151.4 94.7861 150.807 94.7861 150.06C94.7861 149.447 94.9594 148.887 95.3061 148.38C95.6661 147.873 96.1728 147.473 96.8261 147.18C97.4928 146.887 98.2728 146.74 99.1661 146.74C100.486 146.74 101.539 147.073 102.326 147.74C103.113 148.393 103.546 149.28 103.626 150.4H100.946C100.906 149.96 100.719 149.613 100.386 149.36C100.066 149.093 99.6328 148.96 99.0861 148.96C98.5794 148.96 98.1861 149.053 97.9061 149.24C97.6394 149.427 97.5061 149.687 97.5061 150.02C97.5061 150.393 97.6928 150.68 98.0661 150.88C98.4394 151.067 99.0194 151.26 99.8061 151.46C100.606 151.66 101.266 151.867 101.786 152.08C102.306 152.293 102.753 152.627 103.126 153.08C103.513 153.52 103.713 154.107 103.726 154.84C103.726 155.48 103.546 156.053 103.186 156.56C102.839 157.067 102.333 157.467 101.666 157.76C101.013 158.04 100.246 158.18 99.3661 158.18ZM110.265 158.18C109.358 158.18 108.545 158.02 107.825 157.7C107.105 157.367 106.531 156.92 106.105 156.36C105.691 155.8 105.465 155.18 105.425 154.5H108.245C108.298 154.927 108.505 155.28 108.865 155.56C109.238 155.84 109.698 155.98 110.245 155.98C110.778 155.98 111.191 155.873 111.485 155.66C111.791 155.447 111.945 155.173 111.945 154.84C111.945 154.48 111.758 154.213 111.385 154.04C111.025 153.853 110.445 153.653 109.645 153.44C108.818 153.24 108.138 153.033 107.605 152.82C107.085 152.607 106.631 152.28 106.245 151.84C105.871 151.4 105.685 150.807 105.685 150.06C105.685 149.447 105.858 148.887 106.205 148.38C106.565 147.873 107.071 147.473 107.725 147.18C108.391 146.887 109.171 146.74 110.065 146.74C111.385 146.74 112.438 147.073 113.225 147.74C114.011 148.393 114.445 149.28 114.525 150.4H111.845C111.805 149.96 111.618 149.613 111.285 149.36C110.965 149.093 110.531 148.96 109.985 148.96C109.478 148.96 109.085 149.053 108.805 149.24C108.538 149.427 108.405 149.687 108.405 150.02C108.405 150.393 108.591 150.68 108.965 150.88C109.338 151.067 109.918 151.26 110.705 151.46C111.505 151.66 112.165 151.867 112.685 152.08C113.205 152.293 113.651 152.627 114.025 153.08C114.411 153.52 114.611 154.107 114.625 154.84C114.625 155.48 114.445 156.053 114.085 156.56C113.738 157.067 113.231 157.467 112.565 157.76C111.911 158.04 111.145 158.18 110.265 158.18ZM118.343 145.6C117.85 145.6 117.436 145.447 117.103 145.14C116.783 144.82 116.623 144.427 116.623 143.96C116.623 143.493 116.783 143.107 117.103 142.8C117.436 142.48 117.85 142.32 118.343 142.32C118.836 142.32 119.243 142.48 119.563 142.8C119.896 143.107 120.063 143.493 120.063 143.96C120.063 144.427 119.896 144.82 119.563 145.14C119.243 145.447 118.836 145.6 118.343 145.6ZM119.723 146.92V158H116.923V146.92H119.723ZM127.409 158.18C126.343 158.18 125.383 157.947 124.529 157.48C123.676 157 123.003 156.327 122.509 155.46C122.029 154.593 121.789 153.593 121.789 152.46C121.789 151.327 122.036 150.327 122.529 149.46C123.036 148.593 123.723 147.927 124.589 147.46C125.456 146.98 126.423 146.74 127.489 146.74C128.556 146.74 129.523 146.98 130.389 147.46C131.256 147.927 131.936 148.593 132.429 149.46C132.936 150.327 133.189 151.327 133.189 152.46C133.189 153.593 132.929 154.593 132.409 155.46C131.903 156.327 131.209 157 130.329 157.48C129.463 157.947 128.489 158.18 127.409 158.18ZM127.409 155.74C127.916 155.74 128.389 155.62 128.829 155.38C129.283 155.127 129.643 154.753 129.909 154.26C130.176 153.767 130.309 153.167 130.309 152.46C130.309 151.407 130.029 150.6 129.469 150.04C128.923 149.467 128.249 149.18 127.449 149.18C126.649 149.18 125.976 149.467 125.429 150.04C124.896 150.6 124.629 151.407 124.629 152.46C124.629 153.513 124.889 154.327 125.409 154.9C125.943 155.46 126.609 155.74 127.409 155.74ZM141.383 146.76C142.703 146.76 143.77 147.18 144.583 148.02C145.397 148.847 145.803 150.007 145.803 151.5V158H143.003V151.88C143.003 151 142.783 150.327 142.343 149.86C141.903 149.38 141.303 149.14 140.543 149.14C139.77 149.14 139.157 149.38 138.703 149.86C138.263 150.327 138.043 151 138.043 151.88V158H135.243V146.92H138.043V148.3C138.417 147.82 138.89 147.447 139.463 147.18C140.05 146.9 140.69 146.76 141.383 146.76ZM147.746 152.42C147.746 151.3 147.966 150.307 148.406 149.44C148.859 148.573 149.466 147.907 150.226 147.44C150.999 146.973 151.859 146.74 152.806 146.74C153.633 146.74 154.353 146.907 154.966 147.24C155.593 147.573 156.093 147.993 156.466 148.5V146.92H159.286V158H156.466V156.38C156.106 156.9 155.606 157.333 154.966 157.68C154.339 158.013 153.613 158.18 152.786 158.18C151.853 158.18 150.999 157.94 150.226 157.46C149.466 156.98 148.859 156.307 148.406 155.44C147.966 154.56 147.746 153.553 147.746 152.42ZM156.466 152.46C156.466 151.78 156.333 151.2 156.066 150.72C155.799 150.227 155.439 149.853 154.986 149.6C154.533 149.333 154.046 149.2 153.526 149.2C153.006 149.2 152.526 149.327 152.086 149.58C151.646 149.833 151.286 150.207 151.006 150.7C150.739 151.18 150.606 151.753 150.606 152.42C150.606 153.087 150.739 153.673 151.006 154.18C151.286 154.673 151.646 155.053 152.086 155.32C152.539 155.587 153.019 155.72 153.526 155.72C154.046 155.72 154.533 155.593 154.986 155.34C155.439 155.073 155.799 154.7 156.066 154.22C156.333 153.727 156.466 153.14 156.466 152.46ZM164.821 143.2V158H162.021V143.2H164.821Z" fill="white"/>
<path d="M19.6151 177.636C20.5271 177.636 21.3151 177.808 21.9791 178.152C22.6511 178.488 23.1631 178.972 23.5151 179.604C23.8751 180.236 24.0551 180.98 24.0551 181.836C24.0551 182.692 23.8751 183.436 23.5151 184.068C23.1631 184.692 22.6511 185.172 21.9791 185.508C21.3151 185.836 20.5271 186 19.6151 186H17.0111V177.636H19.6151ZM19.6151 185.1C20.6951 185.1 21.5191 184.816 22.0871 184.248C22.6551 183.672 22.9391 182.868 22.9391 181.836C22.9391 180.796 22.6511 179.984 22.0751 179.4C21.5071 178.816 20.6871 178.524 19.6151 178.524H18.1031V185.1H19.6151ZM24.9675 182.688C24.9675 182.016 25.1035 181.428 25.3755 180.924C25.6475 180.412 26.0195 180.016 26.4915 179.736C26.9715 179.456 27.5035 179.316 28.0875 179.316C28.6635 179.316 29.1635 179.44 29.5875 179.688C30.0115 179.936 30.3275 180.248 30.5355 180.624V179.424H31.6395V186H30.5355V184.776C30.3195 185.16 29.9955 185.48 29.5635 185.736C29.1395 185.984 28.6435 186.108 28.0755 186.108C27.4915 186.108 26.9635 185.964 26.4915 185.676C26.0195 185.388 25.6475 184.984 25.3755 184.464C25.1035 183.944 24.9675 183.352 24.9675 182.688ZM30.5355 182.7C30.5355 182.204 30.4355 181.772 30.2355 181.404C30.0355 181.036 29.7635 180.756 29.4195 180.564C29.0835 180.364 28.7115 180.264 28.3035 180.264C27.8955 180.264 27.5235 180.36 27.1875 180.552C26.8515 180.744 26.5835 181.024 26.3835 181.392C26.1835 181.76 26.0835 182.192 26.0835 182.688C26.0835 183.192 26.1835 183.632 26.3835 184.008C26.5835 184.376 26.8515 184.66 27.1875 184.86C27.5235 185.052 27.8955 185.148 28.3035 185.148C28.7115 185.148 29.0835 185.052 29.4195 184.86C29.7635 184.66 30.0355 184.376 30.2355 184.008C30.4355 183.632 30.5355 183.196 30.5355 182.7ZM34.4569 180.636C34.6729 180.26 34.9929 179.948 35.4169 179.7C35.8489 179.444 36.3489 179.316 36.9169 179.316C37.5009 179.316 38.0289 179.456 38.5009 179.736C38.9809 180.016 39.3569 180.412 39.6289 180.924C39.9009 181.428 40.0369 182.016 40.0369 182.688C40.0369 183.352 39.9009 183.944 39.6289 184.464C39.3569 184.984 38.9809 185.388 38.5009 185.676C38.0289 185.964 37.5009 186.108 36.9169 186.108C36.3569 186.108 35.8609 185.984 35.4289 185.736C35.0049 185.48 34.6809 185.164 34.4569 184.788V189.12H33.3649V179.424H34.4569V180.636ZM38.9209 182.688C38.9209 182.192 38.8209 181.76 38.6209 181.392C38.4209 181.024 38.1489 180.744 37.8049 180.552C37.4689 180.36 37.0969 180.264 36.6889 180.264C36.2889 180.264 35.9169 180.364 35.5729 180.564C35.2369 180.756 34.9649 181.04 34.7569 181.416C34.5569 181.784 34.4569 182.212 34.4569 182.7C34.4569 183.196 34.5569 183.632 34.7569 184.008C34.9649 184.376 35.2369 184.66 35.5729 184.86C35.9169 185.052 36.2889 185.148 36.6889 185.148C37.0969 185.148 37.4689 185.052 37.8049 184.86C38.1489 184.66 38.4209 184.376 38.6209 184.008C38.8209 183.632 38.9209 183.192 38.9209 182.688ZM40.9462 182.688C40.9462 182.016 41.0822 181.428 41.3542 180.924C41.6262 180.412 41.9982 180.016 42.4702 179.736C42.9502 179.456 43.4822 179.316 44.0662 179.316C44.6422 179.316 45.1422 179.44 45.5662 179.688C45.9902 179.936 46.3062 180.248 46.5142 180.624V179.424H47.6182V186H46.5142V184.776C46.2982 185.16 45.9742 185.48 45.5422 185.736C45.1182 185.984 44.6222 186.108 44.0542 186.108C43.4702 186.108 42.9422 185.964 42.4702 185.676C41.9982 185.388 41.6262 184.984 41.3542 184.464C41.0822 183.944 40.9462 183.352 40.9462 182.688ZM46.5142 182.7C46.5142 182.204 46.4142 181.772 46.2142 181.404C46.0142 181.036 45.7422 180.756 45.3982 180.564C45.0622 180.364 44.6902 180.264 44.2822 180.264C43.8742 180.264 43.5022 180.36 43.1662 180.552C42.8302 180.744 42.5622 181.024 42.3622 181.392C42.1622 181.76 42.0622 182.192 42.0622 182.688C42.0622 183.192 42.1622 183.632 42.3622 184.008C42.5622 184.376 42.8302 184.66 43.1662 184.86C43.5022 185.052 43.8742 185.148 44.2822 185.148C44.6902 185.148 45.0622 185.052 45.3982 184.86C45.7422 184.66 46.0142 184.376 46.2142 184.008C46.4142 183.632 46.5142 183.196 46.5142 182.7ZM50.6756 180.324V184.2C50.6756 184.52 50.7436 184.748 50.8796 184.884C51.0156 185.012 51.2516 185.076 51.5876 185.076H52.3916V186H51.4076C50.7996 186 50.3436 185.86 50.0396 185.58C49.7356 185.3 49.5836 184.84 49.5836 184.2V180.324H48.7316V179.424H49.5836V177.768H50.6756V179.424H52.3916V180.324H50.6756ZM57.2667 186L54.6867 183.096V186H53.5947V177.12H54.6867V182.34L57.2187 179.424H58.7427L55.6467 182.7L58.7547 186H57.2667ZM59.2425 182.688C59.2425 182.016 59.3785 181.428 59.6505 180.924C59.9225 180.412 60.2945 180.016 60.7665 179.736C61.2465 179.456 61.7785 179.316 62.3625 179.316C62.9385 179.316 63.4385 179.44 63.8625 179.688C64.2865 179.936 64.6025 180.248 64.8105 180.624V179.424H65.9145V186H64.8105V184.776C64.5945 185.16 64.2705 185.48 63.8385 185.736C63.4145 185.984 62.9185 186.108 62.3505 186.108C61.7665 186.108 61.2385 185.964 60.7665 185.676C60.2945 185.388 59.9225 184.984 59.6505 184.464C59.3785 183.944 59.2425 183.352 59.2425 182.688ZM64.8105 182.7C64.8105 182.204 64.7105 181.772 64.5105 181.404C64.3105 181.036 64.0385 180.756 63.6945 180.564C63.3585 180.364 62.9865 180.264 62.5785 180.264C62.1705 180.264 61.7985 180.36 61.4625 180.552C61.1265 180.744 60.8585 181.024 60.6585 181.392C60.4585 181.76 60.3585 182.192 60.3585 182.688C60.3585 183.192 60.4585 183.632 60.6585 184.008C60.8585 184.376 61.1265 184.66 61.4625 184.86C61.7985 185.052 62.1705 185.148 62.5785 185.148C62.9865 185.148 63.3585 185.052 63.6945 184.86C64.0385 184.66 64.3105 184.376 64.5105 184.008C64.7105 183.632 64.8105 183.196 64.8105 182.7ZM70.8439 179.304C71.6439 179.304 72.2919 179.548 72.7879 180.036C73.2839 180.516 73.5319 181.212 73.5319 182.124V186H72.4519V182.28C72.4519 181.624 72.2879 181.124 71.9599 180.78C71.6319 180.428 71.1839 180.252 70.6159 180.252C70.0399 180.252 69.5799 180.432 69.2359 180.792C68.8999 181.152 68.7319 181.676 68.7319 182.364V186H67.6399V179.424H68.7319V180.36C68.9479 180.024 69.2399 179.764 69.6079 179.58C69.9839 179.396 70.3959 179.304 70.8439 179.304ZM77.8669 182.688C77.8669 182.016 78.0029 181.428 78.2749 180.924C78.5469 180.412 78.9189 180.016 79.3909 179.736C79.8709 179.456 80.4029 179.316 80.9869 179.316C81.5629 179.316 82.0629 179.44 82.4869 179.688C82.9109 179.936 83.2269 180.248 83.4349 180.624V179.424H84.5389V186H83.4349V184.776C83.2189 185.16 82.8949 185.48 82.4629 185.736C82.0389 185.984 81.5429 186.108 80.9749 186.108C80.3909 186.108 79.8629 185.964 79.3909 185.676C78.9189 185.388 78.5469 184.984 78.2749 184.464C78.0029 183.944 77.8669 183.352 77.8669 182.688ZM83.4349 182.7C83.4349 182.204 83.3349 181.772 83.1349 181.404C82.9349 181.036 82.6629 180.756 82.3189 180.564C81.9829 180.364 81.6109 180.264 81.2029 180.264C80.7949 180.264 80.4229 180.36 80.0869 180.552C79.7509 180.744 79.4829 181.024 79.2829 181.392C79.0829 181.76 78.9829 182.192 78.9829 182.688C78.9829 183.192 79.0829 183.632 79.2829 184.008C79.4829 184.376 79.7509 184.66 80.0869 184.86C80.4229 185.052 80.7949 185.148 81.2029 185.148C81.6109 185.148 81.9829 185.052 82.3189 184.86C82.6629 184.66 82.9349 184.376 83.1349 184.008C83.3349 183.632 83.4349 183.196 83.4349 182.7ZM89.9362 186L87.3562 183.096V186H86.2642V177.12H87.3562V182.34L89.8882 179.424H91.4122L88.3162 182.7L91.4242 186H89.9362ZM94.648 186.108C94.144 186.108 93.692 186.024 93.292 185.856C92.892 185.68 92.576 185.44 92.344 185.136C92.112 184.824 91.984 184.468 91.96 184.068H93.088C93.12 184.396 93.272 184.664 93.544 184.872C93.824 185.08 94.188 185.184 94.636 185.184C95.052 185.184 95.38 185.092 95.62 184.908C95.86 184.724 95.98 184.492 95.98 184.212C95.98 183.924 95.852 183.712 95.596 183.576C95.34 183.432 94.944 183.292 94.408 183.156C93.92 183.028 93.52 182.9 93.208 182.772C92.904 182.636 92.64 182.44 92.416 182.184C92.2 181.92 92.092 181.576 92.092 181.152C92.092 180.816 92.192 180.508 92.392 180.228C92.592 179.948 92.876 179.728 93.244 179.568C93.612 179.4 94.032 179.316 94.504 179.316C95.232 179.316 95.82 179.5 96.268 179.868C96.716 180.236 96.956 180.74 96.988 181.38H95.896C95.872 181.036 95.732 180.76 95.476 180.552C95.228 180.344 94.892 180.24 94.468 180.24C94.076 180.24 93.764 180.324 93.532 180.492C93.3 180.66 93.184 180.88 93.184 181.152C93.184 181.368 93.252 181.548 93.388 181.692C93.532 181.828 93.708 181.94 93.916 182.028C94.132 182.108 94.428 182.2 94.804 182.304C95.276 182.432 95.66 182.56 95.956 182.688C96.252 182.808 96.504 182.992 96.712 183.24C96.928 183.488 97.04 183.812 97.048 184.212C97.048 184.572 96.948 184.896 96.748 185.184C96.548 185.472 96.264 185.7 95.896 185.868C95.536 186.028 95.12 186.108 94.648 186.108ZM104.47 182.46C104.47 182.668 104.458 182.888 104.434 183.12H99.1775C99.2175 183.768 99.4375 184.276 99.8375 184.644C100.246 185.004 100.738 185.184 101.314 185.184C101.786 185.184 102.178 185.076 102.49 184.86C102.81 184.636 103.034 184.34 103.162 183.972H104.338C104.162 184.604 103.81 185.12 103.282 185.52C102.754 185.912 102.098 186.108 101.314 186.108C100.69 186.108 100.13 185.968 99.6335 185.688C99.1455 185.408 98.7615 185.012 98.4815 184.5C98.2015 183.98 98.0615 183.38 98.0615 182.7C98.0615 182.02 98.1975 181.424 98.4695 180.912C98.7415 180.4 99.1215 180.008 99.6095 179.736C100.106 179.456 100.674 179.316 101.314 179.316C101.938 179.316 102.49 179.452 102.97 179.724C103.45 179.996 103.818 180.372 104.074 180.852C104.338 181.324 104.47 181.86 104.47 182.46ZM103.342 182.232C103.342 181.816 103.25 181.46 103.066 181.164C102.882 180.86 102.63 180.632 102.31 180.48C101.998 180.32 101.65 180.24 101.266 180.24C100.714 180.24 100.242 180.416 99.8495 180.768C99.4655 181.12 99.2455 181.608 99.1895 182.232H103.342ZM108.119 186.108C107.615 186.108 107.163 186.024 106.763 185.856C106.363 185.68 106.047 185.44 105.815 185.136C105.583 184.824 105.455 184.468 105.431 184.068H106.559C106.591 184.396 106.743 184.664 107.015 184.872C107.295 185.08 107.659 185.184 108.107 185.184C108.523 185.184 108.851 185.092 109.091 184.908C109.331 184.724 109.451 184.492 109.451 184.212C109.451 183.924 109.323 183.712 109.067 183.576C108.811 183.432 108.415 183.292 107.879 183.156C107.391 183.028 106.991 182.9 106.679 182.772C106.375 182.636 106.111 182.44 105.887 182.184C105.671 181.92 105.563 181.576 105.563 181.152C105.563 180.816 105.663 180.508 105.863 180.228C106.063 179.948 106.347 179.728 106.715 179.568C107.083 179.4 107.503 179.316 107.975 179.316C108.703 179.316 109.291 179.5 109.739 179.868C110.187 180.236 110.427 180.74 110.459 181.38H109.367C109.343 181.036 109.203 180.76 108.947 180.552C108.699 180.344 108.363 180.24 107.939 180.24C107.547 180.24 107.235 180.324 107.003 180.492C106.771 180.66 106.655 180.88 106.655 181.152C106.655 181.368 106.723 181.548 106.859 181.692C107.003 181.828 107.179 181.94 107.387 182.028C107.603 182.108 107.899 182.2 108.275 182.304C108.747 182.432 109.131 182.56 109.427 182.688C109.723 182.808 109.975 182.992 110.183 183.24C110.399 183.488 110.511 183.812 110.519 184.212C110.519 184.572 110.419 184.896 110.219 185.184C110.019 185.472 109.735 185.7 109.367 185.868C109.007 186.028 108.591 186.108 108.119 186.108ZM117.348 186.108C116.844 186.108 116.392 186.024 115.992 185.856C115.592 185.68 115.276 185.44 115.044 185.136C114.812 184.824 114.684 184.468 114.66 184.068H115.788C115.82 184.396 115.972 184.664 116.244 184.872C116.524 185.08 116.888 185.184 117.336 185.184C117.752 185.184 118.08 185.092 118.32 184.908C118.56 184.724 118.68 184.492 118.68 184.212C118.68 183.924 118.552 183.712 118.296 183.576C118.04 183.432 117.644 183.292 117.108 183.156C116.62 183.028 116.22 182.9 115.908 182.772C115.604 182.636 115.34 182.44 115.116 182.184C114.9 181.92 114.792 181.576 114.792 181.152C114.792 180.816 114.892 180.508 115.092 180.228C115.292 179.948 115.576 179.728 115.944 179.568C116.312 179.4 116.732 179.316 117.204 179.316C117.932 179.316 118.52 179.5 118.968 179.868C119.416 180.236 119.656 180.74 119.688 181.38H118.596C118.572 181.036 118.432 180.76 118.176 180.552C117.928 180.344 117.592 180.24 117.168 180.24C116.776 180.24 116.464 180.324 116.232 180.492C116 180.66 115.884 180.88 115.884 181.152C115.884 181.368 115.952 181.548 116.088 181.692C116.232 181.828 116.408 181.94 116.616 182.028C116.832 182.108 117.128 182.2 117.504 182.304C117.976 182.432 118.36 182.56 118.656 182.688C118.952 182.808 119.204 182.992 119.412 183.24C119.628 183.488 119.74 183.812 119.748 184.212C119.748 184.572 119.648 184.896 119.448 185.184C119.248 185.472 118.964 185.7 118.596 185.868C118.236 186.028 117.82 186.108 117.348 186.108ZM122.501 180.324V184.2C122.501 184.52 122.569 184.748 122.705 184.884C122.841 185.012 123.077 185.076 123.413 185.076H124.217V186H123.233C122.625 186 122.169 185.86 121.865 185.58C121.561 185.3 121.409 184.84 121.409 184.2V180.324H120.557V179.424H121.409V177.768H122.501V179.424H124.217V180.324H122.501ZM125.012 182.688C125.012 182.016 125.148 181.428 125.42 180.924C125.692 180.412 126.064 180.016 126.536 179.736C127.016 179.456 127.548 179.316 128.132 179.316C128.708 179.316 129.208 179.44 129.632 179.688C130.056 179.936 130.372 180.248 130.58 180.624V179.424H131.684V186H130.58V184.776C130.364 185.16 130.04 185.48 129.608 185.736C129.184 185.984 128.688 186.108 128.12 186.108C127.536 186.108 127.008 185.964 126.536 185.676C126.064 185.388 125.692 184.984 125.42 184.464C125.148 183.944 125.012 183.352 125.012 182.688ZM130.58 182.7C130.58 182.204 130.48 181.772 130.28 181.404C130.08 181.036 129.808 180.756 129.464 180.564C129.128 180.364 128.756 180.264 128.348 180.264C127.94 180.264 127.568 180.36 127.232 180.552C126.896 180.744 126.628 181.024 126.428 181.392C126.228 181.76 126.128 182.192 126.128 182.688C126.128 183.192 126.228 183.632 126.428 184.008C126.628 184.376 126.896 184.66 127.232 184.86C127.568 185.052 127.94 185.148 128.348 185.148C128.756 185.148 129.128 185.052 129.464 184.86C129.808 184.66 130.08 184.376 130.28 184.008C130.48 183.632 130.58 183.196 130.58 182.7ZM134.742 180.324V184.2C134.742 184.52 134.81 184.748 134.946 184.884C135.082 185.012 135.318 185.076 135.654 185.076H136.458V186H135.474C134.866 186 134.41 185.86 134.106 185.58C133.802 185.3 133.65 184.84 133.65 184.2V180.324H132.798V179.424H133.65V177.768H134.742V179.424H136.458V180.324H134.742ZM138.225 178.356C138.017 178.356 137.841 178.284 137.697 178.14C137.553 177.996 137.481 177.82 137.481 177.612C137.481 177.404 137.553 177.228 137.697 177.084C137.841 176.94 138.017 176.868 138.225 176.868C138.425 176.868 138.593 176.94 138.729 177.084C138.873 177.228 138.945 177.404 138.945 177.612C138.945 177.82 138.873 177.996 138.729 178.14C138.593 178.284 138.425 178.356 138.225 178.356ZM138.753 179.424V186H137.661V179.424H138.753ZM142.822 186.108C142.318 186.108 141.866 186.024 141.466 185.856C141.066 185.68 140.75 185.44 140.518 185.136C140.286 184.824 140.158 184.468 140.134 184.068H141.262C141.294 184.396 141.446 184.664 141.718 184.872C141.998 185.08 142.362 185.184 142.81 185.184C143.226 185.184 143.554 185.092 143.794 184.908C144.034 184.724 144.154 184.492 144.154 184.212C144.154 183.924 144.026 183.712 143.77 183.576C143.514 183.432 143.118 183.292 142.582 183.156C142.094 183.028 141.694 182.9 141.382 182.772C141.078 182.636 140.814 182.44 140.59 182.184C140.374 181.92 140.266 181.576 140.266 181.152C140.266 180.816 140.366 180.508 140.566 180.228C140.766 179.948 141.05 179.728 141.418 179.568C141.786 179.4 142.206 179.316 142.678 179.316C143.406 179.316 143.994 179.5 144.442 179.868C144.89 180.236 145.13 180.74 145.162 181.38H144.07C144.046 181.036 143.906 180.76 143.65 180.552C143.402 180.344 143.066 180.24 142.642 180.24C142.25 180.24 141.938 180.324 141.706 180.492C141.474 180.66 141.358 180.88 141.358 181.152C141.358 181.368 141.426 181.548 141.562 181.692C141.706 181.828 141.882 181.94 142.09 182.028C142.306 182.108 142.602 182.2 142.978 182.304C143.45 182.432 143.834 182.56 144.13 182.688C144.426 182.808 144.678 182.992 144.886 183.24C145.102 183.488 145.214 183.812 145.222 184.212C145.222 184.572 145.122 184.896 144.922 185.184C144.722 185.472 144.438 185.7 144.07 185.868C143.71 186.028 143.294 186.108 142.822 186.108ZM147.975 180.324V184.2C147.975 184.52 148.043 184.748 148.179 184.884C148.315 185.012 148.551 185.076 148.887 185.076H149.691V186H148.707C148.099 186 147.643 185.86 147.339 185.58C147.035 185.3 146.883 184.84 146.883 184.2V180.324H146.031V179.424H146.883V177.768H147.975V179.424H149.691V180.324H147.975ZM151.459 178.356C151.251 178.356 151.075 178.284 150.931 178.14C150.787 177.996 150.715 177.82 150.715 177.612C150.715 177.404 150.787 177.228 150.931 177.084C151.075 176.94 151.251 176.868 151.459 176.868C151.659 176.868 151.827 176.94 151.963 177.084C152.107 177.228 152.179 177.404 152.179 177.612C152.179 177.82 152.107 177.996 151.963 178.14C151.827 178.284 151.659 178.356 151.459 178.356ZM151.987 179.424V186H150.895V179.424H151.987ZM157.4 186L154.82 183.096V186H153.728V177.12H154.82V182.34L157.352 179.424H158.876L155.78 182.7L158.888 186H157.4ZM168.695 179.424V186H167.603V185.028C167.395 185.364 167.103 185.628 166.727 185.82C166.359 186.004 165.951 186.096 165.503 186.096C164.991 186.096 164.531 185.992 164.123 185.784C163.715 185.568 163.391 185.248 163.151 184.824C162.919 184.4 162.803 183.884 162.803 183.276V179.424H163.883V183.132C163.883 183.78 164.047 184.28 164.375 184.632C164.703 184.976 165.151 185.148 165.719 185.148C166.303 185.148 166.763 184.968 167.099 184.608C167.435 184.248 167.603 183.724 167.603 183.036V179.424H168.695ZM173.622 179.304C174.422 179.304 175.07 179.548 175.566 180.036C176.062 180.516 176.31 181.212 176.31 182.124V186H175.23V182.28C175.23 181.624 175.066 181.124 174.738 180.78C174.41 180.428 173.962 180.252 173.394 180.252C172.818 180.252 172.358 180.432 172.014 180.792C171.678 181.152 171.51 181.676 171.51 182.364V186H170.418V179.424H171.51V180.36C171.726 180.024 172.018 179.764 172.386 179.58C172.762 179.396 173.174 179.304 173.622 179.304ZM179.306 180.324V184.2C179.306 184.52 179.374 184.748 179.51 184.884C179.646 185.012 179.882 185.076 180.218 185.076H181.022V186H180.038C179.43 186 178.974 185.86 178.67 185.58C178.366 185.3 178.214 184.84 178.214 184.2V180.324H177.362V179.424H178.214V177.768H179.306V179.424H181.022V180.324H179.306ZM188.057 179.424V186H186.965V185.028C186.757 185.364 186.465 185.628 186.089 185.82C185.721 186.004 185.313 186.096 184.865 186.096C184.353 186.096 183.893 185.992 183.485 185.784C183.077 185.568 182.753 185.248 182.513 184.824C182.281 184.4 182.165 183.884 182.165 183.276V179.424H183.245V183.132C183.245 183.78 183.409 184.28 183.737 184.632C184.065 184.976 184.513 185.148 185.081 185.148C185.665 185.148 186.125 184.968 186.461 184.608C186.797 184.248 186.965 183.724 186.965 183.036V179.424H188.057ZM193.453 186L190.873 183.096V186H189.781V177.12H190.873V182.34L193.405 179.424H194.929L191.833 182.7L194.941 186H193.453ZM75.3607 195.636V204H74.2687V195.636H75.3607ZM80.7738 204L78.1938 201.096V204H77.1018V195.12H78.1938V200.34L80.7258 197.424H82.2498L79.1538 200.7L82.2618 204H80.7738ZM84.2496 195.12V204H83.1576V195.12H84.2496ZM85.5827 200.688C85.5827 200.016 85.7187 199.428 85.9907 198.924C86.2627 198.412 86.6347 198.016 87.1067 197.736C87.5867 197.456 88.1187 197.316 88.7027 197.316C89.2787 197.316 89.7787 197.44 90.2027 197.688C90.6267 197.936 90.9427 198.248 91.1507 198.624V197.424H92.2547V204H91.1507V202.776C90.9347 203.16 90.6107 203.48 90.1787 203.736C89.7547 203.984 89.2587 204.108 88.6907 204.108C88.1067 204.108 87.5787 203.964 87.1067 203.676C86.6347 203.388 86.2627 202.984 85.9907 202.464C85.7187 201.944 85.5827 201.352 85.5827 200.688ZM91.1507 200.7C91.1507 200.204 91.0507 199.772 90.8507 199.404C90.6507 199.036 90.3787 198.756 90.0347 198.564C89.6987 198.364 89.3267 198.264 88.9187 198.264C88.5107 198.264 88.1387 198.36 87.8027 198.552C87.4667 198.744 87.1987 199.024 86.9987 199.392C86.7987 199.76 86.6987 200.192 86.6987 200.688C86.6987 201.192 86.7987 201.632 86.9987 202.008C87.1987 202.376 87.4667 202.66 87.8027 202.86C88.1387 203.052 88.5107 203.148 88.9187 203.148C89.3267 203.148 89.6987 203.052 90.0347 202.86C90.3787 202.66 90.6507 202.376 90.8507 202.008C91.0507 201.632 91.1507 201.196 91.1507 200.7ZM97.1841 197.304C97.9841 197.304 98.6321 197.548 99.1281 198.036C99.6241 198.516 99.8721 199.212 99.8721 200.124V204H98.7921V200.28C98.7921 199.624 98.6281 199.124 98.3001 198.78C97.9721 198.428 97.5241 198.252 96.9561 198.252C96.3801 198.252 95.9201 198.432 95.5761 198.792C95.2401 199.152 95.0721 199.676 95.0721 200.364V204H93.9801V197.424H95.0721V198.36C95.2881 198.024 95.5801 197.764 95.9481 197.58C96.3241 197.396 96.7361 197.304 97.1841 197.304ZM108.287 204L105.707 201.096V204H104.615V195.12H105.707V200.34L108.239 197.424H109.763L106.667 200.7L109.775 204H108.287ZM110.263 200.688C110.263 200.016 110.399 199.428 110.671 198.924C110.943 198.412 111.315 198.016 111.787 197.736C112.267 197.456 112.799 197.316 113.383 197.316C113.959 197.316 114.459 197.44 114.883 197.688C115.307 197.936 115.623 198.248 115.831 198.624V197.424H116.935V204H115.831V202.776C115.615 203.16 115.291 203.48 114.859 203.736C114.435 203.984 113.939 204.108 113.371 204.108C112.787 204.108 112.259 203.964 111.787 203.676C111.315 203.388 110.943 202.984 110.671 202.464C110.399 201.944 110.263 201.352 110.263 200.688ZM115.831 200.7C115.831 200.204 115.731 199.772 115.531 199.404C115.331 199.036 115.059 198.756 114.715 198.564C114.379 198.364 114.007 198.264 113.599 198.264C113.191 198.264 112.819 198.36 112.483 198.552C112.147 198.744 111.879 199.024 111.679 199.392C111.479 199.76 111.379 200.192 111.379 200.688C111.379 201.192 111.479 201.632 111.679 202.008C111.879 202.376 112.147 202.66 112.483 202.86C112.819 203.052 113.191 203.148 113.599 203.148C114.007 203.148 114.379 203.052 114.715 202.86C115.059 202.66 115.331 202.376 115.531 202.008C115.731 201.632 115.831 201.196 115.831 200.7ZM126.568 197.304C127.08 197.304 127.536 197.412 127.936 197.628C128.336 197.836 128.652 198.152 128.884 198.576C129.116 199 129.232 199.516 129.232 200.124V204H128.152V200.28C128.152 199.624 127.988 199.124 127.66 198.78C127.34 198.428 126.904 198.252 126.352 198.252C125.784 198.252 125.332 198.436 124.996 198.804C124.66 199.164 124.492 199.688 124.492 200.376V204H123.412V200.28C123.412 199.624 123.248 199.124 122.92 198.78C122.6 198.428 122.164 198.252 121.612 198.252C121.044 198.252 120.592 198.436 120.256 198.804C119.92 199.164 119.752 199.688 119.752 200.376V204H118.66V197.424H119.752V198.372C119.968 198.028 120.256 197.764 120.616 197.58C120.984 197.396 121.388 197.304 121.828 197.304C122.38 197.304 122.868 197.428 123.292 197.676C123.716 197.924 124.032 198.288 124.24 198.768C124.424 198.304 124.728 197.944 125.152 197.688C125.576 197.432 126.048 197.304 126.568 197.304ZM136.736 197.424V204H135.644V203.028C135.436 203.364 135.144 203.628 134.768 203.82C134.4 204.004 133.992 204.096 133.544 204.096C133.032 204.096 132.572 203.992 132.164 203.784C131.756 203.568 131.432 203.248 131.192 202.824C130.96 202.4 130.844 201.884 130.844 201.276V197.424H131.924V201.132C131.924 201.78 132.088 202.28 132.416 202.632C132.744 202.976 133.192 203.148 133.76 203.148C134.344 203.148 134.804 202.968 135.14 202.608C135.476 202.248 135.644 201.724 135.644 201.036V197.424H136.736Z" fill="white"/>
<path d="M68.9292 230.832V237.744C68.9292 238.501 69.1265 239.083 69.5212 239.488C69.9159 239.883 70.4705 240.08 71.1852 240.08C71.9105 240.08 72.4705 239.883 72.8652 239.488C73.2599 239.083 73.4572 238.501 73.4572 237.744V230.832H75.7132V237.728C75.7132 238.677 75.5052 239.483 75.0892 240.144C74.6839 240.795 74.1345 241.285 73.4412 241.616C72.7585 241.947 71.9959 242.112 71.1532 242.112C70.3212 242.112 69.5639 241.947 68.8812 241.616C68.2092 241.285 67.6759 240.795 67.2812 240.144C66.8865 239.483 66.6892 238.677 66.6892 237.728V230.832H68.9292ZM80.1174 234.416C80.4054 234.011 80.8001 233.675 81.3014 233.408C81.8134 233.131 82.3948 232.992 83.0454 232.992C83.8028 232.992 84.4854 233.179 85.0934 233.552C85.7121 233.925 86.1974 234.459 86.5494 235.152C86.9121 235.835 87.0934 236.629 87.0934 237.536C87.0934 238.443 86.9121 239.248 86.5494 239.952C86.1974 240.645 85.7121 241.184 85.0934 241.568C84.4854 241.952 83.8028 242.144 83.0454 242.144C82.3948 242.144 81.8188 242.011 81.3174 241.744C80.8268 241.477 80.4268 241.141 80.1174 240.736V246.224H77.8774V233.136H80.1174V234.416ZM84.8054 237.536C84.8054 237.003 84.6934 236.544 84.4694 236.16C84.2561 235.765 83.9681 235.467 83.6054 235.264C83.2534 235.061 82.8694 234.96 82.4534 234.96C82.0481 234.96 81.6641 235.067 81.3014 235.28C80.9494 235.483 80.6614 235.781 80.4374 236.176C80.2241 236.571 80.1174 237.035 80.1174 237.568C80.1174 238.101 80.2241 238.565 80.4374 238.96C80.6614 239.355 80.9494 239.659 81.3014 239.872C81.6641 240.075 82.0481 240.176 82.4534 240.176C82.8694 240.176 83.2534 240.069 83.6054 239.856C83.9681 239.643 84.2561 239.339 84.4694 238.944C84.6934 238.549 84.8054 238.08 84.8054 237.536ZM92.1932 232.992C92.8545 232.992 93.4359 233.125 93.9372 233.392C94.4385 233.648 94.8332 233.984 95.1212 234.4V233.136H97.3772V242.064C97.3772 242.885 97.2119 243.616 96.8812 244.256C96.5505 244.907 96.0545 245.419 95.3932 245.792C94.7319 246.176 93.9319 246.368 92.9932 246.368C91.7345 246.368 90.6999 246.075 89.8892 245.488C89.0892 244.901 88.6359 244.101 88.5292 243.088H90.7532C90.8705 243.493 91.1212 243.813 91.5052 244.048C91.8999 244.293 92.3745 244.416 92.9292 244.416C93.5799 244.416 94.1079 244.219 94.5132 243.824C94.9185 243.44 95.1212 242.853 95.1212 242.064V240.688C94.8332 241.104 94.4332 241.451 93.9212 241.728C93.4199 242.005 92.8439 242.144 92.1932 242.144C91.4465 242.144 90.7639 241.952 90.1452 241.568C89.5265 241.184 89.0359 240.645 88.6732 239.952C88.3212 239.248 88.1452 238.443 88.1452 237.536C88.1452 236.64 88.3212 235.845 88.6732 235.152C89.0359 234.459 89.5212 233.925 90.1292 233.552C90.7479 233.179 91.4359 232.992 92.1932 232.992ZM95.1212 237.568C95.1212 237.024 95.0145 236.56 94.8012 236.176C94.5879 235.781 94.2999 235.483 93.9372 235.28C93.5745 235.067 93.1852 234.96 92.7692 234.96C92.3532 234.96 91.9692 235.061 91.6172 235.264C91.2652 235.467 90.9772 235.765 90.7532 236.16C90.5399 236.544 90.4332 237.003 90.4332 237.536C90.4332 238.069 90.5399 238.539 90.7532 238.944C90.9772 239.339 91.2652 239.643 91.6172 239.856C91.9799 240.069 92.3639 240.176 92.7692 240.176C93.1852 240.176 93.5745 240.075 93.9372 239.872C94.2999 239.659 94.5879 239.36 94.8012 238.976C95.0145 238.581 95.1212 238.112 95.1212 237.568ZM101.805 234.512C102.093 234.043 102.466 233.675 102.925 233.408C103.394 233.141 103.928 233.008 104.525 233.008V235.36H103.933C103.229 235.36 102.696 235.525 102.333 235.856C101.981 236.187 101.805 236.763 101.805 237.584V242H99.5649V233.136H101.805V234.512ZM105.458 237.536C105.458 236.64 105.634 235.845 105.986 235.152C106.348 234.459 106.834 233.925 107.442 233.552C108.06 233.179 108.748 232.992 109.506 232.992C110.167 232.992 110.743 233.125 111.234 233.392C111.735 233.659 112.135 233.995 112.434 234.4V233.136H114.69V242H112.434V240.704C112.146 241.12 111.746 241.467 111.234 241.744C110.732 242.011 110.151 242.144 109.49 242.144C108.743 242.144 108.06 241.952 107.442 241.568C106.834 241.184 106.348 240.645 105.986 239.952C105.634 239.248 105.458 238.443 105.458 237.536ZM112.434 237.568C112.434 237.024 112.327 236.56 112.114 236.176C111.9 235.781 111.612 235.483 111.25 235.28C110.887 235.067 110.498 234.96 110.082 234.96C109.666 234.96 109.282 235.061 108.93 235.264C108.578 235.467 108.29 235.765 108.066 236.16C107.852 236.544 107.746 237.003 107.746 237.536C107.746 238.069 107.852 238.539 108.066 238.944C108.29 239.339 108.578 239.643 108.93 239.856C109.292 240.069 109.676 240.176 110.082 240.176C110.498 240.176 110.887 240.075 111.25 239.872C111.612 239.659 111.9 239.36 112.114 238.976C112.327 238.581 112.434 238.112 112.434 237.568ZM116.301 237.536C116.301 236.64 116.477 235.845 116.829 235.152C117.192 234.459 117.683 233.925 118.301 233.552C118.92 233.179 119.608 232.992 120.365 232.992C120.941 232.992 121.491 233.12 122.013 233.376C122.536 233.621 122.952 233.952 123.261 234.368V230.16H125.533V242H123.261V240.688C122.984 241.125 122.595 241.477 122.093 241.744C121.592 242.011 121.011 242.144 120.349 242.144C119.603 242.144 118.92 241.952 118.301 241.568C117.683 241.184 117.192 240.645 116.829 239.952C116.477 239.248 116.301 238.443 116.301 237.536ZM123.277 237.568C123.277 237.024 123.171 236.56 122.957 236.176C122.744 235.781 122.456 235.483 122.093 235.28C121.731 235.067 121.341 234.96 120.925 234.96C120.509 234.96 120.125 235.061 119.773 235.264C119.421 235.467 119.133 235.765 118.909 236.16C118.696 236.544 118.589 237.003 118.589 237.536C118.589 238.069 118.696 238.539 118.909 238.944C119.133 239.339 119.421 239.643 119.773 239.856C120.136 240.069 120.52 240.176 120.925 240.176C121.341 240.176 121.731 240.075 122.093 239.872C122.456 239.659 122.744 239.36 122.957 238.976C123.171 238.581 123.277 238.112 123.277 237.568ZM135.961 237.376C135.961 237.696 135.94 237.984 135.897 238.24H129.417C129.471 238.88 129.695 239.381 130.089 239.744C130.484 240.107 130.969 240.288 131.545 240.288C132.377 240.288 132.969 239.931 133.321 239.216H135.737C135.481 240.069 134.991 240.773 134.265 241.328C133.54 241.872 132.649 242.144 131.593 242.144C130.74 242.144 129.972 241.957 129.289 241.584C128.617 241.2 128.089 240.661 127.705 239.968C127.332 239.275 127.145 238.475 127.145 237.568C127.145 236.651 127.332 235.845 127.705 235.152C128.079 234.459 128.601 233.925 129.273 233.552C129.945 233.179 130.719 232.992 131.593 232.992C132.436 232.992 133.188 233.173 133.849 233.536C134.521 233.899 135.039 234.416 135.401 235.088C135.775 235.749 135.961 236.512 135.961 237.376ZM133.641 236.736C133.631 236.16 133.423 235.701 133.017 235.36C132.612 235.008 132.116 234.832 131.529 234.832C130.975 234.832 130.505 235.003 130.121 235.344C129.748 235.675 129.519 236.139 129.433 236.736H133.641ZM141.729 232.72H144.561L148.049 236.304L144.561 239.888H141.729L145.233 236.304L141.729 232.72Z" fill="white"/>
<g opacity="0.2">
<path d="M-27.4315 192.58C-18.3479 190.82 20.6818 178.041 73.6034 198.849C139.755 224.858 154.413 296.153 272.602 288.487" stroke="white"/>
<path d="M-37.2133 230.208C-28.1297 228.449 10.9001 215.669 63.8217 236.477C129.974 262.486 144.631 333.781 262.821 326.115" stroke="white"/>
<path d="M-34.8507 221.152C-25.7671 219.393 13.2627 206.614 66.1842 227.421C132.336 253.43 146.994 324.726 265.183 317.059" stroke="white"/>
<path d="M-32.5586 212.088C-23.4174 210.182 15.9165 196.63 68.838 217.437C134.99 243.446 148.939 316.544 267.714 307.389" stroke="white"/>
<path d="M-29.9046 202.104C-20.7922 200.271 18.3896 187.105 71.3112 207.913C137.463 233.922 151.766 306.119 270.249 297.708" stroke="white"/>
</g>
<mask id="mask0_338_3021" style="mask-type:alpha" maskUnits="userSpaceOnUse" x="74" y="20" width="72" height="72">
<circle cx="110" cy="56" r="36" fill="#E4E9FF"/>
</mask>
<g mask="url(#mask0_338_3021)">
<circle cx="110" cy="56" r="36" fill="#D9EFFB"/>
<mask id="mask1_338_3021" style="mask-type:alpha" maskUnits="userSpaceOnUse" x="88" y="43" width="44" height="57">
<rect x="88.3999" y="43.2" width="43.2" height="56.8" rx="14" fill="#4791FF"/>
</mask>
<g mask="url(#mask1_338_3021)">
<rect x="88.3999" y="43.2" width="43.2" height="56.8" rx="14" fill="#75CEF4"/>
<rect x="94.8" y="61.6" width="30.4" height="10.4" rx="5.2" fill="#1EA9E4"/>
<path d="M100.8 64.8H114.8" stroke="white" stroke-width="2" stroke-linecap="round"/>
<path opacity="0.5" d="M100.8 68.8H108.4" stroke="white" stroke-width="2" stroke-linecap="round"/>
<rect x="94.8" y="75.2" width="30.4" height="10.4" rx="5.2" fill="#1EA9E4"/>
<path d="M100.8 78.4H114.8" stroke="white" stroke-width="2" stroke-linecap="round"/>
<path opacity="0.5" d="M100.8 82.4H108.4" stroke="white" stroke-width="2" stroke-linecap="round"/>
<circle opacity="0.1" cx="110" cy="46.4" r="12" fill="#050D35"/>
</g>
<circle cx="110" cy="44" r="12" fill="#FBC02D"/>
<path d="M117.2 47.6C117.2 47.904 117.032 48.168 116.776 48.304L110.456 51.856C110.328 51.952 110.168 52 110 52C109.832 52 109.672 51.952 109.544 51.856L103.224 48.304C103.096 48.2366 102.988 48.1353 102.914 48.0112C102.839 47.8871 102.8 47.7449 102.8 47.6V40.4C102.8 40.096 102.968 39.832 103.224 39.696L109.544 36.144C109.672 36.048 109.832 36 110 36C110.168 36 110.328 36.048 110.456 36.144L116.776 39.696C117.032 39.832 117.2 40.096 117.2 40.4V47.6ZM104.4 41.6V46.4H105.4V44.8H106C106.424 44.8 106.831 44.6314 107.131 44.3314C107.431 44.0313 107.6 43.6243 107.6 43.2C107.6 42.7757 107.431 42.3687 107.131 42.0686C106.831 41.7686 106.424 41.6 106 41.6H104.4ZM105.4 44V42.4H105.8C106.012 42.4 106.216 42.4843 106.366 42.6343C106.516 42.7843 106.6 42.9878 106.6 43.2C106.6 43.4122 106.516 43.6157 106.366 43.7657C106.216 43.9157 106.012 44 105.8 44H105.4ZM108.2 41.6V46.4H109.2V44.8H109.8L110.328 46.4H111.384L110.752 44.488C111.144 44.2 111.4 43.728 111.4 43.2C111.4 42.7757 111.231 42.3687 110.931 42.0686C110.631 41.7686 110.224 41.6 109.8 41.6H108.2ZM109.2 44V42.4H109.6C109.812 42.4 110.016 42.4843 110.166 42.6343C110.316 42.7843 110.4 42.9878 110.4 43.2C110.4 43.4122 110.316 43.6157 110.166 43.7657C110.016 43.9157 109.812 44 109.6 44H109.2ZM114 41.6C112.896 41.6 112 42.672 112 44C112 45.328 112.896 46.4 114 46.4C115.104 46.4 116 45.328 116 44C116 42.672 115.104 41.6 114 41.6ZM114 42.6C114.608 42.6 115.104 43.224 115.104 44C115.104 44.776 114.608 45.4 114 45.4C113.392 45.4 112.904 44.776 112.904 44C112.904 43.224 113.392 42.6 114 42.6Z" fill="white"/>
</g>
</g>
<defs>
<clipPath id="clip0_338_3021">
<rect width="216" height="269" rx="16" fill="white"/>
</clipPath>
</defs>
</svg>
