<svg width="216" height="269" viewBox="0 0 216 269" fill="none" xmlns="http://www.w3.org/2000/svg">
<g clip-path="url(#clip0_527_3029)">
<rect width="216" height="269" rx="16" fill="#FFC444"/>
<path d="M54.8695 125.78H59.4695V128H52.0695V114.04H54.8695V125.78ZM60.5291 122.42C60.5291 121.3 60.7491 120.307 61.1891 119.44C61.6425 118.573 62.2491 117.907 63.0091 117.44C63.7825 116.973 64.6425 116.74 65.5891 116.74C66.4158 116.74 67.1358 116.907 67.7491 117.24C68.3758 117.573 68.8758 117.993 69.2491 118.5V116.92H72.0691V128H69.2491V126.38C68.8891 126.9 68.3891 127.333 67.7491 127.68C67.1225 128.013 66.3958 128.18 65.5691 128.18C64.6358 128.18 63.7825 127.94 63.0091 127.46C62.2491 126.98 61.6425 126.307 61.1891 125.44C60.7491 124.56 60.5291 123.553 60.5291 122.42ZM69.2491 122.46C69.2491 121.78 69.1158 121.2 68.8491 120.72C68.5825 120.227 68.2225 119.853 67.7691 119.6C67.3158 119.333 66.8291 119.2 66.3091 119.2C65.7891 119.2 65.3091 119.327 64.8691 119.58C64.4291 119.833 64.0691 120.207 63.7891 120.7C63.5225 121.18 63.3891 121.753 63.3891 122.42C63.3891 123.087 63.5225 123.673 63.7891 124.18C64.0691 124.673 64.4291 125.053 64.8691 125.32C65.3225 125.587 65.8025 125.72 66.3091 125.72C66.8291 125.72 67.3158 125.593 67.7691 125.34C68.2225 125.073 68.5825 124.7 68.8491 124.22C69.1158 123.727 69.2491 123.14 69.2491 122.46ZM80.9438 116.76C82.2638 116.76 83.3305 117.18 84.1438 118.02C84.9572 118.847 85.3638 120.007 85.3638 121.5V128H82.5638V121.88C82.5638 121 82.3438 120.327 81.9038 119.86C81.4638 119.38 80.8638 119.14 80.1038 119.14C79.3305 119.14 78.7172 119.38 78.2638 119.86C77.8238 120.327 77.6038 121 77.6038 121.88V128H74.8038V116.92H77.6038V118.3C77.9772 117.82 78.4505 117.447 79.0238 117.18C79.6105 116.9 80.2505 116.76 80.9438 116.76ZM92.3665 116.74C93.1932 116.74 93.9198 116.907 94.5465 117.24C95.1732 117.56 95.6665 117.98 96.0265 118.5V116.92H98.8465V128.08C98.8465 129.107 98.6398 130.02 98.2265 130.82C97.8132 131.633 97.1932 132.273 96.3665 132.74C95.5398 133.22 94.5398 133.46 93.3665 133.46C91.7932 133.46 90.4998 133.093 89.4865 132.36C88.4865 131.627 87.9198 130.627 87.7865 129.36H90.5665C90.7132 129.867 91.0265 130.267 91.5065 130.56C91.9998 130.867 92.5932 131.02 93.2865 131.02C94.0998 131.02 94.7598 130.773 95.2665 130.28C95.7732 129.8 96.0265 129.067 96.0265 128.08V126.36C95.6665 126.88 95.1665 127.313 94.5265 127.66C93.8998 128.007 93.1798 128.18 92.3665 128.18C91.4332 128.18 90.5798 127.94 89.8065 127.46C89.0332 126.98 88.4198 126.307 87.9665 125.44C87.5265 124.56 87.3065 123.553 87.3065 122.42C87.3065 121.3 87.5265 120.307 87.9665 119.44C88.4198 118.573 89.0265 117.907 89.7865 117.44C90.5598 116.973 91.4198 116.74 92.3665 116.74ZM96.0265 122.46C96.0265 121.78 95.8932 121.2 95.6265 120.72C95.3598 120.227 94.9998 119.853 94.5465 119.6C94.0932 119.333 93.6065 119.2 93.0865 119.2C92.5665 119.2 92.0865 119.327 91.6465 119.58C91.2065 119.833 90.8465 120.207 90.5665 120.7C90.2998 121.18 90.1665 121.753 90.1665 122.42C90.1665 123.087 90.2998 123.673 90.5665 124.18C90.8465 124.673 91.2065 125.053 91.6465 125.32C92.0998 125.587 92.5798 125.72 93.0865 125.72C93.6065 125.72 94.0932 125.593 94.5465 125.34C94.9998 125.073 95.3598 124.7 95.6265 124.22C95.8932 123.727 96.0265 123.14 96.0265 122.46ZM105.921 116.74C106.748 116.74 107.475 116.907 108.101 117.24C108.728 117.56 109.221 117.98 109.581 118.5V116.92H112.401V128.08C112.401 129.107 112.195 130.02 111.781 130.82C111.368 131.633 110.748 132.273 109.921 132.74C109.095 133.22 108.095 133.46 106.921 133.46C105.348 133.46 104.055 133.093 103.041 132.36C102.041 131.627 101.475 130.627 101.341 129.36H104.121C104.268 129.867 104.581 130.267 105.061 130.56C105.555 130.867 106.148 131.02 106.841 131.02C107.655 131.02 108.315 130.773 108.821 130.28C109.328 129.8 109.581 129.067 109.581 128.08V126.36C109.221 126.88 108.721 127.313 108.081 127.66C107.455 128.007 106.735 128.18 105.921 128.18C104.988 128.18 104.135 127.94 103.361 127.46C102.588 126.98 101.975 126.307 101.521 125.44C101.081 124.56 100.861 123.553 100.861 122.42C100.861 121.3 101.081 120.307 101.521 119.44C101.975 118.573 102.581 117.907 103.341 117.44C104.115 116.973 104.975 116.74 105.921 116.74ZM109.581 122.46C109.581 121.78 109.448 121.2 109.181 120.72C108.915 120.227 108.555 119.853 108.101 119.6C107.648 119.333 107.161 119.2 106.641 119.2C106.121 119.2 105.641 119.327 105.201 119.58C104.761 119.833 104.401 120.207 104.121 120.7C103.855 121.18 103.721 121.753 103.721 122.42C103.721 123.087 103.855 123.673 104.121 124.18C104.401 124.673 104.761 125.053 105.201 125.32C105.655 125.587 106.135 125.72 106.641 125.72C107.161 125.72 107.648 125.593 108.101 125.34C108.555 125.073 108.915 124.7 109.181 124.22C109.448 123.727 109.581 123.14 109.581 122.46ZM114.416 122.42C114.416 121.3 114.636 120.307 115.076 119.44C115.529 118.573 116.136 117.907 116.896 117.44C117.669 116.973 118.529 116.74 119.476 116.74C120.303 116.74 121.023 116.907 121.636 117.24C122.263 117.573 122.763 117.993 123.136 118.5V116.92H125.956V128H123.136V126.38C122.776 126.9 122.276 127.333 121.636 127.68C121.009 128.013 120.283 128.18 119.456 128.18C118.523 128.18 117.669 127.94 116.896 127.46C116.136 126.98 115.529 126.307 115.076 125.44C114.636 124.56 114.416 123.553 114.416 122.42ZM123.136 122.46C123.136 121.78 123.003 121.2 122.736 120.72C122.469 120.227 122.109 119.853 121.656 119.6C121.203 119.333 120.716 119.2 120.196 119.2C119.676 119.2 119.196 119.327 118.756 119.58C118.316 119.833 117.956 120.207 117.676 120.7C117.409 121.18 117.276 121.753 117.276 122.42C117.276 123.087 117.409 123.673 117.676 124.18C117.956 124.673 118.316 125.053 118.756 125.32C119.209 125.587 119.689 125.72 120.196 125.72C120.716 125.72 121.203 125.593 121.656 125.34C122.109 125.073 122.469 124.7 122.736 124.22C123.003 123.727 123.136 123.14 123.136 122.46ZM134.831 116.76C136.151 116.76 137.217 117.18 138.031 118.02C138.844 118.847 139.251 120.007 139.251 121.5V128H136.451V121.88C136.451 121 136.231 120.327 135.791 119.86C135.351 119.38 134.751 119.14 133.991 119.14C133.217 119.14 132.604 119.38 132.151 119.86C131.711 120.327 131.491 121 131.491 121.88V128H128.691V116.92H131.491V118.3C131.864 117.82 132.337 117.447 132.911 117.18C133.497 116.9 134.137 116.76 134.831 116.76ZM141.193 122.42C141.193 121.3 141.413 120.307 141.853 119.44C142.307 118.573 142.913 117.907 143.673 117.44C144.447 116.973 145.307 116.74 146.253 116.74C147.08 116.74 147.8 116.907 148.413 117.24C149.04 117.573 149.54 117.993 149.913 118.5V116.92H152.733V128H149.913V126.38C149.553 126.9 149.053 127.333 148.413 127.68C147.787 128.013 147.06 128.18 146.233 128.18C145.3 128.18 144.447 127.94 143.673 127.46C142.913 126.98 142.307 126.307 141.853 125.44C141.413 124.56 141.193 123.553 141.193 122.42ZM149.913 122.46C149.913 121.78 149.78 121.2 149.513 120.72C149.247 120.227 148.887 119.853 148.433 119.6C147.98 119.333 147.493 119.2 146.973 119.2C146.453 119.2 145.973 119.327 145.533 119.58C145.093 119.833 144.733 120.207 144.453 120.7C144.187 121.18 144.053 121.753 144.053 122.42C144.053 123.087 144.187 123.673 144.453 124.18C144.733 124.673 145.093 125.053 145.533 125.32C145.987 125.587 146.467 125.72 146.973 125.72C147.493 125.72 147.98 125.593 148.433 125.34C148.887 125.073 149.247 124.7 149.513 124.22C149.78 123.727 149.913 123.14 149.913 122.46ZM161.608 116.76C162.928 116.76 163.995 117.18 164.808 118.02C165.621 118.847 166.028 120.007 166.028 121.5V128H163.228V121.88C163.228 121 163.008 120.327 162.568 119.86C162.128 119.38 161.528 119.14 160.768 119.14C159.995 119.14 159.381 119.38 158.928 119.86C158.488 120.327 158.268 121 158.268 121.88V128H155.468V116.92H158.268V118.3C158.641 117.82 159.115 117.447 159.688 117.18C160.275 116.9 160.915 116.76 161.608 116.76ZM58.1488 144.04V158H55.3488V148.92L51.6088 158H49.4888L45.7288 148.92V158H42.9288V144.04H46.1088L50.5488 154.42L54.9888 144.04H58.1488ZM65.8371 158.18C64.7704 158.18 63.8104 157.947 62.9571 157.48C62.1038 157 61.4304 156.327 60.9371 155.46C60.4571 154.593 60.2171 153.593 60.2171 152.46C60.2171 151.327 60.4638 150.327 60.9571 149.46C61.4638 148.593 62.1504 147.927 63.0171 147.46C63.8838 146.98 64.8504 146.74 65.9171 146.74C66.9838 146.74 67.9504 146.98 68.8171 147.46C69.6838 147.927 70.3638 148.593 70.8571 149.46C71.3638 150.327 71.6171 151.327 71.6171 152.46C71.6171 153.593 71.3571 154.593 70.8371 155.46C70.3304 156.327 69.6371 157 68.7571 157.48C67.8904 157.947 66.9171 158.18 65.8371 158.18ZM65.8371 155.74C66.3438 155.74 66.8171 155.62 67.2571 155.38C67.7104 155.127 68.0704 154.753 68.3371 154.26C68.6038 153.767 68.7371 153.167 68.7371 152.46C68.7371 151.407 68.4571 150.6 67.8971 150.04C67.3504 149.467 66.6771 149.18 65.8771 149.18C65.0771 149.18 64.4038 149.467 63.8571 150.04C63.3238 150.6 63.0571 151.407 63.0571 152.46C63.0571 153.513 63.3171 154.327 63.8371 154.9C64.3704 155.46 65.0371 155.74 65.8371 155.74ZM79.811 146.76C81.131 146.76 82.1977 147.18 83.011 148.02C83.8243 148.847 84.231 150.007 84.231 151.5V158H81.431V151.88C81.431 151 81.211 150.327 80.771 149.86C80.331 149.38 79.731 149.14 78.971 149.14C78.1977 149.14 77.5843 149.38 77.131 149.86C76.691 150.327 76.471 151 76.471 151.88V158H73.671V146.92H76.471V148.3C76.8443 147.82 77.3177 147.447 77.891 147.18C78.4777 146.9 79.1177 146.76 79.811 146.76ZM90.1537 149.22V154.58C90.1537 154.953 90.2403 155.227 90.4137 155.4C90.6003 155.56 90.907 155.64 91.3337 155.64H92.6337V158H90.8737C88.5137 158 87.3337 156.853 87.3337 154.56V149.22H86.0137V146.92H87.3337V144.18H90.1537V146.92H92.6337V149.22H90.1537ZM100.888 146.76C101.728 146.76 102.474 146.947 103.128 147.32C103.781 147.68 104.288 148.22 104.648 148.94C105.021 149.647 105.208 150.5 105.208 151.5V158H102.408V151.88C102.408 151 102.188 150.327 101.748 149.86C101.308 149.38 100.708 149.14 99.9476 149.14C99.1742 149.14 98.5609 149.38 98.1076 149.86C97.6676 150.327 97.4476 151 97.4476 151.88V158H94.6476V143.2H97.4476V148.3C97.8076 147.82 98.2876 147.447 98.8876 147.18C99.4876 146.9 100.154 146.76 100.888 146.76ZM110.67 143.2V158H107.87V143.2H110.67ZM124.037 146.92L117.177 163.24H114.197L116.597 157.72L112.157 146.92H115.297L118.157 154.66L121.057 146.92H124.037ZM140.492 148.36C140.492 149.107 140.312 149.807 139.952 150.46C139.605 151.113 139.052 151.64 138.292 152.04C137.545 152.44 136.598 152.64 135.452 152.64H133.112V158H130.312V144.04H135.452C136.532 144.04 137.452 144.227 138.212 144.6C138.972 144.973 139.538 145.487 139.912 146.14C140.298 146.793 140.492 147.533 140.492 148.36ZM135.332 150.38C136.105 150.38 136.678 150.207 137.052 149.86C137.425 149.5 137.612 149 137.612 148.36C137.612 147 136.852 146.32 135.332 146.32H133.112V150.38H135.332ZM141.76 152.42C141.76 151.3 141.98 150.307 142.42 149.44C142.873 148.573 143.48 147.907 144.24 147.44C145.013 146.973 145.873 146.74 146.82 146.74C147.646 146.74 148.366 146.907 148.98 147.24C149.606 147.573 150.106 147.993 150.48 148.5V146.92H153.3V158H150.48V156.38C150.12 156.9 149.62 157.333 148.98 157.68C148.353 158.013 147.626 158.18 146.8 158.18C145.866 158.18 145.013 157.94 144.24 157.46C143.48 156.98 142.873 156.307 142.42 155.44C141.98 154.56 141.76 153.553 141.76 152.42ZM150.48 152.46C150.48 151.78 150.346 151.2 150.08 150.72C149.813 150.227 149.453 149.853 149 149.6C148.546 149.333 148.06 149.2 147.54 149.2C147.02 149.2 146.54 149.327 146.1 149.58C145.66 149.833 145.3 150.207 145.02 150.7C144.753 151.18 144.62 151.753 144.62 152.42C144.62 153.087 144.753 153.673 145.02 154.18C145.3 154.673 145.66 155.053 146.1 155.32C146.553 155.587 147.033 155.72 147.54 155.72C148.06 155.72 148.546 155.593 149 155.34C149.453 155.073 149.813 154.7 150.08 154.22C150.346 153.727 150.48 153.14 150.48 152.46ZM160.274 158.18C159.368 158.18 158.554 158.02 157.834 157.7C157.114 157.367 156.541 156.92 156.114 156.36C155.701 155.8 155.474 155.18 155.434 154.5H158.254C158.308 154.927 158.514 155.28 158.874 155.56C159.248 155.84 159.708 155.98 160.254 155.98C160.788 155.98 161.201 155.873 161.494 155.66C161.801 155.447 161.954 155.173 161.954 154.84C161.954 154.48 161.768 154.213 161.394 154.04C161.034 153.853 160.454 153.653 159.654 153.44C158.828 153.24 158.148 153.033 157.614 152.82C157.094 152.607 156.641 152.28 156.254 151.84C155.881 151.4 155.694 150.807 155.694 150.06C155.694 149.447 155.868 148.887 156.214 148.38C156.574 147.873 157.081 147.473 157.734 147.18C158.401 146.887 159.181 146.74 160.074 146.74C161.394 146.74 162.448 147.073 163.234 147.74C164.021 148.393 164.454 149.28 164.534 150.4H161.854C161.814 149.96 161.628 149.613 161.294 149.36C160.974 149.093 160.541 148.96 159.994 148.96C159.488 148.96 159.094 149.053 158.814 149.24C158.548 149.427 158.414 149.687 158.414 150.02C158.414 150.393 158.601 150.68 158.974 150.88C159.348 151.067 159.928 151.26 160.714 151.46C161.514 151.66 162.174 151.867 162.694 152.08C163.214 152.293 163.661 152.627 164.034 153.08C164.421 153.52 164.621 154.107 164.634 154.84C164.634 155.48 164.454 156.053 164.094 156.56C163.748 157.067 163.241 157.467 162.574 157.76C161.921 158.04 161.154 158.18 160.274 158.18ZM171.173 158.18C170.266 158.18 169.453 158.02 168.733 157.7C168.013 157.367 167.439 156.92 167.013 156.36C166.599 155.8 166.373 155.18 166.333 154.5H169.153C169.206 154.927 169.413 155.28 169.773 155.56C170.146 155.84 170.606 155.98 171.153 155.98C171.686 155.98 172.099 155.873 172.393 155.66C172.699 155.447 172.853 155.173 172.853 154.84C172.853 154.48 172.666 154.213 172.293 154.04C171.933 153.853 171.353 153.653 170.553 153.44C169.726 153.24 169.046 153.033 168.513 152.82C167.993 152.607 167.539 152.28 167.153 151.84C166.779 151.4 166.593 150.807 166.593 150.06C166.593 149.447 166.766 148.887 167.113 148.38C167.473 147.873 167.979 147.473 168.633 147.18C169.299 146.887 170.079 146.74 170.973 146.74C172.293 146.74 173.346 147.073 174.133 147.74C174.919 148.393 175.353 149.28 175.433 150.4H172.753C172.713 149.96 172.526 149.613 172.193 149.36C171.873 149.093 171.439 148.96 170.893 148.96C170.386 148.96 169.993 149.053 169.713 149.24C169.446 149.427 169.313 149.687 169.313 150.02C169.313 150.393 169.499 150.68 169.873 150.88C170.246 151.067 170.826 151.26 171.613 151.46C172.413 151.66 173.073 151.867 173.593 152.08C174.113 152.293 174.559 152.627 174.933 153.08C175.319 153.52 175.519 154.107 175.533 154.84C175.533 155.48 175.353 156.053 174.993 156.56C174.646 157.067 174.139 157.467 173.473 157.76C172.819 158.04 172.053 158.18 171.173 158.18Z" fill="white"/>
<path d="M19.6151 177.636C20.5271 177.636 21.3151 177.808 21.9791 178.152C22.6511 178.488 23.1631 178.972 23.5151 179.604C23.8751 180.236 24.0551 180.98 24.0551 181.836C24.0551 182.692 23.8751 183.436 23.5151 184.068C23.1631 184.692 22.6511 185.172 21.9791 185.508C21.3151 185.836 20.5271 186 19.6151 186H17.0111V177.636H19.6151ZM19.6151 185.1C20.6951 185.1 21.5191 184.816 22.0871 184.248C22.6551 183.672 22.9391 182.868 22.9391 181.836C22.9391 180.796 22.6511 179.984 22.0751 179.4C21.5071 178.816 20.6871 178.524 19.6151 178.524H18.1031V185.1H19.6151ZM24.9675 182.688C24.9675 182.016 25.1035 181.428 25.3755 180.924C25.6475 180.412 26.0195 180.016 26.4915 179.736C26.9715 179.456 27.5035 179.316 28.0875 179.316C28.6635 179.316 29.1635 179.44 29.5875 179.688C30.0115 179.936 30.3275 180.248 30.5355 180.624V179.424H31.6395V186H30.5355V184.776C30.3195 185.16 29.9955 185.48 29.5635 185.736C29.1395 185.984 28.6435 186.108 28.0755 186.108C27.4915 186.108 26.9635 185.964 26.4915 185.676C26.0195 185.388 25.6475 184.984 25.3755 184.464C25.1035 183.944 24.9675 183.352 24.9675 182.688ZM30.5355 182.7C30.5355 182.204 30.4355 181.772 30.2355 181.404C30.0355 181.036 29.7635 180.756 29.4195 180.564C29.0835 180.364 28.7115 180.264 28.3035 180.264C27.8955 180.264 27.5235 180.36 27.1875 180.552C26.8515 180.744 26.5835 181.024 26.3835 181.392C26.1835 181.76 26.0835 182.192 26.0835 182.688C26.0835 183.192 26.1835 183.632 26.3835 184.008C26.5835 184.376 26.8515 184.66 27.1875 184.86C27.5235 185.052 27.8955 185.148 28.3035 185.148C28.7115 185.148 29.0835 185.052 29.4195 184.86C29.7635 184.66 30.0355 184.376 30.2355 184.008C30.4355 183.632 30.5355 183.196 30.5355 182.7ZM34.4569 180.636C34.6729 180.26 34.9929 179.948 35.4169 179.7C35.8489 179.444 36.3489 179.316 36.9169 179.316C37.5009 179.316 38.0289 179.456 38.5009 179.736C38.9809 180.016 39.3569 180.412 39.6289 180.924C39.9009 181.428 40.0369 182.016 40.0369 182.688C40.0369 183.352 39.9009 183.944 39.6289 184.464C39.3569 184.984 38.9809 185.388 38.5009 185.676C38.0289 185.964 37.5009 186.108 36.9169 186.108C36.3569 186.108 35.8609 185.984 35.4289 185.736C35.0049 185.48 34.6809 185.164 34.4569 184.788V189.12H33.3649V179.424H34.4569V180.636ZM38.9209 182.688C38.9209 182.192 38.8209 181.76 38.6209 181.392C38.4209 181.024 38.1489 180.744 37.8049 180.552C37.4689 180.36 37.0969 180.264 36.6889 180.264C36.2889 180.264 35.9169 180.364 35.5729 180.564C35.2369 180.756 34.9649 181.04 34.7569 181.416C34.5569 181.784 34.4569 182.212 34.4569 182.7C34.4569 183.196 34.5569 183.632 34.7569 184.008C34.9649 184.376 35.2369 184.66 35.5729 184.86C35.9169 185.052 36.2889 185.148 36.6889 185.148C37.0969 185.148 37.4689 185.052 37.8049 184.86C38.1489 184.66 38.4209 184.376 38.6209 184.008C38.8209 183.632 38.9209 183.192 38.9209 182.688ZM40.9462 182.688C40.9462 182.016 41.0822 181.428 41.3542 180.924C41.6262 180.412 41.9982 180.016 42.4702 179.736C42.9502 179.456 43.4822 179.316 44.0662 179.316C44.6422 179.316 45.1422 179.44 45.5662 179.688C45.9902 179.936 46.3062 180.248 46.5142 180.624V179.424H47.6182V186H46.5142V184.776C46.2982 185.16 45.9742 185.48 45.5422 185.736C45.1182 185.984 44.6222 186.108 44.0542 186.108C43.4702 186.108 42.9422 185.964 42.4702 185.676C41.9982 185.388 41.6262 184.984 41.3542 184.464C41.0822 183.944 40.9462 183.352 40.9462 182.688ZM46.5142 182.7C46.5142 182.204 46.4142 181.772 46.2142 181.404C46.0142 181.036 45.7422 180.756 45.3982 180.564C45.0622 180.364 44.6902 180.264 44.2822 180.264C43.8742 180.264 43.5022 180.36 43.1662 180.552C42.8302 180.744 42.5622 181.024 42.3622 181.392C42.1622 181.76 42.0622 182.192 42.0622 182.688C42.0622 183.192 42.1622 183.632 42.3622 184.008C42.5622 184.376 42.8302 184.66 43.1662 184.86C43.5022 185.052 43.8742 185.148 44.2822 185.148C44.6902 185.148 45.0622 185.052 45.3982 184.86C45.7422 184.66 46.0142 184.376 46.2142 184.008C46.4142 183.632 46.5142 183.196 46.5142 182.7ZM50.6756 180.324V184.2C50.6756 184.52 50.7436 184.748 50.8796 184.884C51.0156 185.012 51.2516 185.076 51.5876 185.076H52.3916V186H51.4076C50.7996 186 50.3436 185.86 50.0396 185.58C49.7356 185.3 49.5836 184.84 49.5836 184.2V180.324H48.7316V179.424H49.5836V177.768H50.6756V179.424H52.3916V180.324H50.6756ZM57.2667 186L54.6867 183.096V186H53.5947V177.12H54.6867V182.34L57.2187 179.424H58.7427L55.6467 182.7L58.7547 186H57.2667ZM59.2425 182.688C59.2425 182.016 59.3785 181.428 59.6505 180.924C59.9225 180.412 60.2945 180.016 60.7665 179.736C61.2465 179.456 61.7785 179.316 62.3625 179.316C62.9385 179.316 63.4385 179.44 63.8625 179.688C64.2865 179.936 64.6025 180.248 64.8105 180.624V179.424H65.9145V186H64.8105V184.776C64.5945 185.16 64.2705 185.48 63.8385 185.736C63.4145 185.984 62.9185 186.108 62.3505 186.108C61.7665 186.108 61.2385 185.964 60.7665 185.676C60.2945 185.388 59.9225 184.984 59.6505 184.464C59.3785 183.944 59.2425 183.352 59.2425 182.688ZM64.8105 182.7C64.8105 182.204 64.7105 181.772 64.5105 181.404C64.3105 181.036 64.0385 180.756 63.6945 180.564C63.3585 180.364 62.9865 180.264 62.5785 180.264C62.1705 180.264 61.7985 180.36 61.4625 180.552C61.1265 180.744 60.8585 181.024 60.6585 181.392C60.4585 181.76 60.3585 182.192 60.3585 182.688C60.3585 183.192 60.4585 183.632 60.6585 184.008C60.8585 184.376 61.1265 184.66 61.4625 184.86C61.7985 185.052 62.1705 185.148 62.5785 185.148C62.9865 185.148 63.3585 185.052 63.6945 184.86C64.0385 184.66 64.3105 184.376 64.5105 184.008C64.7105 183.632 64.8105 183.196 64.8105 182.7ZM70.8439 179.304C71.6439 179.304 72.2919 179.548 72.7879 180.036C73.2839 180.516 73.5319 181.212 73.5319 182.124V186H72.4519V182.28C72.4519 181.624 72.2879 181.124 71.9599 180.78C71.6319 180.428 71.1839 180.252 70.6159 180.252C70.0399 180.252 69.5799 180.432 69.2359 180.792C68.8999 181.152 68.7319 181.676 68.7319 182.364V186H67.6399V179.424H68.7319V180.36C68.9479 180.024 69.2399 179.764 69.6079 179.58C69.9839 179.396 70.3959 179.304 70.8439 179.304ZM77.8669 182.688C77.8669 182.016 78.0029 181.428 78.2749 180.924C78.5469 180.412 78.9189 180.016 79.3909 179.736C79.8709 179.456 80.4029 179.316 80.9869 179.316C81.5629 179.316 82.0629 179.44 82.4869 179.688C82.9109 179.936 83.2269 180.248 83.4349 180.624V179.424H84.5389V186H83.4349V184.776C83.2189 185.16 82.8949 185.48 82.4629 185.736C82.0389 185.984 81.5429 186.108 80.9749 186.108C80.3909 186.108 79.8629 185.964 79.3909 185.676C78.9189 185.388 78.5469 184.984 78.2749 184.464C78.0029 183.944 77.8669 183.352 77.8669 182.688ZM83.4349 182.7C83.4349 182.204 83.3349 181.772 83.1349 181.404C82.9349 181.036 82.6629 180.756 82.3189 180.564C81.9829 180.364 81.6109 180.264 81.2029 180.264C80.7949 180.264 80.4229 180.36 80.0869 180.552C79.7509 180.744 79.4829 181.024 79.2829 181.392C79.0829 181.76 78.9829 182.192 78.9829 182.688C78.9829 183.192 79.0829 183.632 79.2829 184.008C79.4829 184.376 79.7509 184.66 80.0869 184.86C80.4229 185.052 80.7949 185.148 81.2029 185.148C81.6109 185.148 81.9829 185.052 82.3189 184.86C82.6629 184.66 82.9349 184.376 83.1349 184.008C83.3349 183.632 83.4349 183.196 83.4349 182.7ZM89.9362 186L87.3562 183.096V186H86.2642V177.12H87.3562V182.34L89.8882 179.424H91.4122L88.3162 182.7L91.4242 186H89.9362ZM94.648 186.108C94.144 186.108 93.692 186.024 93.292 185.856C92.892 185.68 92.576 185.44 92.344 185.136C92.112 184.824 91.984 184.468 91.96 184.068H93.088C93.12 184.396 93.272 184.664 93.544 184.872C93.824 185.08 94.188 185.184 94.636 185.184C95.052 185.184 95.38 185.092 95.62 184.908C95.86 184.724 95.98 184.492 95.98 184.212C95.98 183.924 95.852 183.712 95.596 183.576C95.34 183.432 94.944 183.292 94.408 183.156C93.92 183.028 93.52 182.9 93.208 182.772C92.904 182.636 92.64 182.44 92.416 182.184C92.2 181.92 92.092 181.576 92.092 181.152C92.092 180.816 92.192 180.508 92.392 180.228C92.592 179.948 92.876 179.728 93.244 179.568C93.612 179.4 94.032 179.316 94.504 179.316C95.232 179.316 95.82 179.5 96.268 179.868C96.716 180.236 96.956 180.74 96.988 181.38H95.896C95.872 181.036 95.732 180.76 95.476 180.552C95.228 180.344 94.892 180.24 94.468 180.24C94.076 180.24 93.764 180.324 93.532 180.492C93.3 180.66 93.184 180.88 93.184 181.152C93.184 181.368 93.252 181.548 93.388 181.692C93.532 181.828 93.708 181.94 93.916 182.028C94.132 182.108 94.428 182.2 94.804 182.304C95.276 182.432 95.66 182.56 95.956 182.688C96.252 182.808 96.504 182.992 96.712 183.24C96.928 183.488 97.04 183.812 97.048 184.212C97.048 184.572 96.948 184.896 96.748 185.184C96.548 185.472 96.264 185.7 95.896 185.868C95.536 186.028 95.12 186.108 94.648 186.108ZM104.47 182.46C104.47 182.668 104.458 182.888 104.434 183.12H99.1775C99.2175 183.768 99.4375 184.276 99.8375 184.644C100.246 185.004 100.738 185.184 101.314 185.184C101.786 185.184 102.178 185.076 102.49 184.86C102.81 184.636 103.034 184.34 103.162 183.972H104.338C104.162 184.604 103.81 185.12 103.282 185.52C102.754 185.912 102.098 186.108 101.314 186.108C100.69 186.108 100.13 185.968 99.6335 185.688C99.1455 185.408 98.7615 185.012 98.4815 184.5C98.2015 183.98 98.0615 183.38 98.0615 182.7C98.0615 182.02 98.1975 181.424 98.4695 180.912C98.7415 180.4 99.1215 180.008 99.6095 179.736C100.106 179.456 100.674 179.316 101.314 179.316C101.938 179.316 102.49 179.452 102.97 179.724C103.45 179.996 103.818 180.372 104.074 180.852C104.338 181.324 104.47 181.86 104.47 182.46ZM103.342 182.232C103.342 181.816 103.25 181.46 103.066 181.164C102.882 180.86 102.63 180.632 102.31 180.48C101.998 180.32 101.65 180.24 101.266 180.24C100.714 180.24 100.242 180.416 99.8495 180.768C99.4655 181.12 99.2455 181.608 99.1895 182.232H103.342ZM108.119 186.108C107.615 186.108 107.163 186.024 106.763 185.856C106.363 185.68 106.047 185.44 105.815 185.136C105.583 184.824 105.455 184.468 105.431 184.068H106.559C106.591 184.396 106.743 184.664 107.015 184.872C107.295 185.08 107.659 185.184 108.107 185.184C108.523 185.184 108.851 185.092 109.091 184.908C109.331 184.724 109.451 184.492 109.451 184.212C109.451 183.924 109.323 183.712 109.067 183.576C108.811 183.432 108.415 183.292 107.879 183.156C107.391 183.028 106.991 182.9 106.679 182.772C106.375 182.636 106.111 182.44 105.887 182.184C105.671 181.92 105.563 181.576 105.563 181.152C105.563 180.816 105.663 180.508 105.863 180.228C106.063 179.948 106.347 179.728 106.715 179.568C107.083 179.4 107.503 179.316 107.975 179.316C108.703 179.316 109.291 179.5 109.739 179.868C110.187 180.236 110.427 180.74 110.459 181.38H109.367C109.343 181.036 109.203 180.76 108.947 180.552C108.699 180.344 108.363 180.24 107.939 180.24C107.547 180.24 107.235 180.324 107.003 180.492C106.771 180.66 106.655 180.88 106.655 181.152C106.655 181.368 106.723 181.548 106.859 181.692C107.003 181.828 107.179 181.94 107.387 182.028C107.603 182.108 107.899 182.2 108.275 182.304C108.747 182.432 109.131 182.56 109.427 182.688C109.723 182.808 109.975 182.992 110.183 183.24C110.399 183.488 110.511 183.812 110.519 184.212C110.519 184.572 110.419 184.896 110.219 185.184C110.019 185.472 109.735 185.7 109.367 185.868C109.007 186.028 108.591 186.108 108.119 186.108ZM117.348 186.108C116.844 186.108 116.392 186.024 115.992 185.856C115.592 185.68 115.276 185.44 115.044 185.136C114.812 184.824 114.684 184.468 114.66 184.068H115.788C115.82 184.396 115.972 184.664 116.244 184.872C116.524 185.08 116.888 185.184 117.336 185.184C117.752 185.184 118.08 185.092 118.32 184.908C118.56 184.724 118.68 184.492 118.68 184.212C118.68 183.924 118.552 183.712 118.296 183.576C118.04 183.432 117.644 183.292 117.108 183.156C116.62 183.028 116.22 182.9 115.908 182.772C115.604 182.636 115.34 182.44 115.116 182.184C114.9 181.92 114.792 181.576 114.792 181.152C114.792 180.816 114.892 180.508 115.092 180.228C115.292 179.948 115.576 179.728 115.944 179.568C116.312 179.4 116.732 179.316 117.204 179.316C117.932 179.316 118.52 179.5 118.968 179.868C119.416 180.236 119.656 180.74 119.688 181.38H118.596C118.572 181.036 118.432 180.76 118.176 180.552C117.928 180.344 117.592 180.24 117.168 180.24C116.776 180.24 116.464 180.324 116.232 180.492C116 180.66 115.884 180.88 115.884 181.152C115.884 181.368 115.952 181.548 116.088 181.692C116.232 181.828 116.408 181.94 116.616 182.028C116.832 182.108 117.128 182.2 117.504 182.304C117.976 182.432 118.36 182.56 118.656 182.688C118.952 182.808 119.204 182.992 119.412 183.24C119.628 183.488 119.74 183.812 119.748 184.212C119.748 184.572 119.648 184.896 119.448 185.184C119.248 185.472 118.964 185.7 118.596 185.868C118.236 186.028 117.82 186.108 117.348 186.108ZM122.501 180.324V184.2C122.501 184.52 122.569 184.748 122.705 184.884C122.841 185.012 123.077 185.076 123.413 185.076H124.217V186H123.233C122.625 186 122.169 185.86 121.865 185.58C121.561 185.3 121.409 184.84 121.409 184.2V180.324H120.557V179.424H121.409V177.768H122.501V179.424H124.217V180.324H122.501ZM125.012 182.688C125.012 182.016 125.148 181.428 125.42 180.924C125.692 180.412 126.064 180.016 126.536 179.736C127.016 179.456 127.548 179.316 128.132 179.316C128.708 179.316 129.208 179.44 129.632 179.688C130.056 179.936 130.372 180.248 130.58 180.624V179.424H131.684V186H130.58V184.776C130.364 185.16 130.04 185.48 129.608 185.736C129.184 185.984 128.688 186.108 128.12 186.108C127.536 186.108 127.008 185.964 126.536 185.676C126.064 185.388 125.692 184.984 125.42 184.464C125.148 183.944 125.012 183.352 125.012 182.688ZM130.58 182.7C130.58 182.204 130.48 181.772 130.28 181.404C130.08 181.036 129.808 180.756 129.464 180.564C129.128 180.364 128.756 180.264 128.348 180.264C127.94 180.264 127.568 180.36 127.232 180.552C126.896 180.744 126.628 181.024 126.428 181.392C126.228 181.76 126.128 182.192 126.128 182.688C126.128 183.192 126.228 183.632 126.428 184.008C126.628 184.376 126.896 184.66 127.232 184.86C127.568 185.052 127.94 185.148 128.348 185.148C128.756 185.148 129.128 185.052 129.464 184.86C129.808 184.66 130.08 184.376 130.28 184.008C130.48 183.632 130.58 183.196 130.58 182.7ZM134.742 180.324V184.2C134.742 184.52 134.81 184.748 134.946 184.884C135.082 185.012 135.318 185.076 135.654 185.076H136.458V186H135.474C134.866 186 134.41 185.86 134.106 185.58C133.802 185.3 133.65 184.84 133.65 184.2V180.324H132.798V179.424H133.65V177.768H134.742V179.424H136.458V180.324H134.742ZM138.225 178.356C138.017 178.356 137.841 178.284 137.697 178.14C137.553 177.996 137.481 177.82 137.481 177.612C137.481 177.404 137.553 177.228 137.697 177.084C137.841 176.94 138.017 176.868 138.225 176.868C138.425 176.868 138.593 176.94 138.729 177.084C138.873 177.228 138.945 177.404 138.945 177.612C138.945 177.82 138.873 177.996 138.729 178.14C138.593 178.284 138.425 178.356 138.225 178.356ZM138.753 179.424V186H137.661V179.424H138.753ZM142.822 186.108C142.318 186.108 141.866 186.024 141.466 185.856C141.066 185.68 140.75 185.44 140.518 185.136C140.286 184.824 140.158 184.468 140.134 184.068H141.262C141.294 184.396 141.446 184.664 141.718 184.872C141.998 185.08 142.362 185.184 142.81 185.184C143.226 185.184 143.554 185.092 143.794 184.908C144.034 184.724 144.154 184.492 144.154 184.212C144.154 183.924 144.026 183.712 143.77 183.576C143.514 183.432 143.118 183.292 142.582 183.156C142.094 183.028 141.694 182.9 141.382 182.772C141.078 182.636 140.814 182.44 140.59 182.184C140.374 181.92 140.266 181.576 140.266 181.152C140.266 180.816 140.366 180.508 140.566 180.228C140.766 179.948 141.05 179.728 141.418 179.568C141.786 179.4 142.206 179.316 142.678 179.316C143.406 179.316 143.994 179.5 144.442 179.868C144.89 180.236 145.13 180.74 145.162 181.38H144.07C144.046 181.036 143.906 180.76 143.65 180.552C143.402 180.344 143.066 180.24 142.642 180.24C142.25 180.24 141.938 180.324 141.706 180.492C141.474 180.66 141.358 180.88 141.358 181.152C141.358 181.368 141.426 181.548 141.562 181.692C141.706 181.828 141.882 181.94 142.09 182.028C142.306 182.108 142.602 182.2 142.978 182.304C143.45 182.432 143.834 182.56 144.13 182.688C144.426 182.808 144.678 182.992 144.886 183.24C145.102 183.488 145.214 183.812 145.222 184.212C145.222 184.572 145.122 184.896 144.922 185.184C144.722 185.472 144.438 185.7 144.07 185.868C143.71 186.028 143.294 186.108 142.822 186.108ZM147.975 180.324V184.2C147.975 184.52 148.043 184.748 148.179 184.884C148.315 185.012 148.551 185.076 148.887 185.076H149.691V186H148.707C148.099 186 147.643 185.86 147.339 185.58C147.035 185.3 146.883 184.84 146.883 184.2V180.324H146.031V179.424H146.883V177.768H147.975V179.424H149.691V180.324H147.975ZM151.459 178.356C151.251 178.356 151.075 178.284 150.931 178.14C150.787 177.996 150.715 177.82 150.715 177.612C150.715 177.404 150.787 177.228 150.931 177.084C151.075 176.94 151.251 176.868 151.459 176.868C151.659 176.868 151.827 176.94 151.963 177.084C152.107 177.228 152.179 177.404 152.179 177.612C152.179 177.82 152.107 177.996 151.963 178.14C151.827 178.284 151.659 178.356 151.459 178.356ZM151.987 179.424V186H150.895V179.424H151.987ZM157.4 186L154.82 183.096V186H153.728V177.12H154.82V182.34L157.352 179.424H158.876L155.78 182.7L158.888 186H157.4ZM168.695 179.424V186H167.603V185.028C167.395 185.364 167.103 185.628 166.727 185.82C166.359 186.004 165.951 186.096 165.503 186.096C164.991 186.096 164.531 185.992 164.123 185.784C163.715 185.568 163.391 185.248 163.151 184.824C162.919 184.4 162.803 183.884 162.803 183.276V179.424H163.883V183.132C163.883 183.78 164.047 184.28 164.375 184.632C164.703 184.976 165.151 185.148 165.719 185.148C166.303 185.148 166.763 184.968 167.099 184.608C167.435 184.248 167.603 183.724 167.603 183.036V179.424H168.695ZM173.622 179.304C174.422 179.304 175.07 179.548 175.566 180.036C176.062 180.516 176.31 181.212 176.31 182.124V186H175.23V182.28C175.23 181.624 175.066 181.124 174.738 180.78C174.41 180.428 173.962 180.252 173.394 180.252C172.818 180.252 172.358 180.432 172.014 180.792C171.678 181.152 171.51 181.676 171.51 182.364V186H170.418V179.424H171.51V180.36C171.726 180.024 172.018 179.764 172.386 179.58C172.762 179.396 173.174 179.304 173.622 179.304ZM179.306 180.324V184.2C179.306 184.52 179.374 184.748 179.51 184.884C179.646 185.012 179.882 185.076 180.218 185.076H181.022V186H180.038C179.43 186 178.974 185.86 178.67 185.58C178.366 185.3 178.214 184.84 178.214 184.2V180.324H177.362V179.424H178.214V177.768H179.306V179.424H181.022V180.324H179.306ZM188.057 179.424V186H186.965V185.028C186.757 185.364 186.465 185.628 186.089 185.82C185.721 186.004 185.313 186.096 184.865 186.096C184.353 186.096 183.893 185.992 183.485 185.784C183.077 185.568 182.753 185.248 182.513 184.824C182.281 184.4 182.165 183.884 182.165 183.276V179.424H183.245V183.132C183.245 183.78 183.409 184.28 183.737 184.632C184.065 184.976 184.513 185.148 185.081 185.148C185.665 185.148 186.125 184.968 186.461 184.608C186.797 184.248 186.965 183.724 186.965 183.036V179.424H188.057ZM193.453 186L190.873 183.096V186H189.781V177.12H190.873V182.34L193.405 179.424H194.929L191.833 182.7L194.941 186H193.453ZM74.8327 196.356C74.6247 196.356 74.4487 196.284 74.3047 196.14C74.1607 195.996 74.0887 195.82 74.0887 195.612C74.0887 195.404 74.1607 195.228 74.3047 195.084C74.4487 194.94 74.6247 194.868 74.8327 194.868C75.0327 194.868 75.2007 194.94 75.3367 195.084C75.4807 195.228 75.5527 195.404 75.5527 195.612C75.5527 195.82 75.4807 195.996 75.3367 196.14C75.2007 196.284 75.0327 196.356 74.8327 196.356ZM75.3607 197.424V204H74.2687V197.424H75.3607ZM80.7738 204L78.1938 201.096V204H77.1018V195.12H78.1938V200.34L80.7258 197.424H82.2498L79.1538 200.7L82.2618 204H80.7738ZM84.2496 195.12V204H83.1576V195.12H84.2496ZM85.5827 200.688C85.5827 200.016 85.7187 199.428 85.9907 198.924C86.2627 198.412 86.6347 198.016 87.1067 197.736C87.5867 197.456 88.1187 197.316 88.7027 197.316C89.2787 197.316 89.7787 197.44 90.2027 197.688C90.6267 197.936 90.9427 198.248 91.1507 198.624V197.424H92.2547V204H91.1507V202.776C90.9347 203.16 90.6107 203.48 90.1787 203.736C89.7547 203.984 89.2587 204.108 88.6907 204.108C88.1067 204.108 87.5787 203.964 87.1067 203.676C86.6347 203.388 86.2627 202.984 85.9907 202.464C85.7187 201.944 85.5827 201.352 85.5827 200.688ZM91.1507 200.7C91.1507 200.204 91.0507 199.772 90.8507 199.404C90.6507 199.036 90.3787 198.756 90.0347 198.564C89.6987 198.364 89.3267 198.264 88.9187 198.264C88.5107 198.264 88.1387 198.36 87.8027 198.552C87.4667 198.744 87.1987 199.024 86.9987 199.392C86.7987 199.76 86.6987 200.192 86.6987 200.688C86.6987 201.192 86.7987 201.632 86.9987 202.008C87.1987 202.376 87.4667 202.66 87.8027 202.86C88.1387 203.052 88.5107 203.148 88.9187 203.148C89.3267 203.148 89.6987 203.052 90.0347 202.86C90.3787 202.66 90.6507 202.376 90.8507 202.008C91.0507 201.632 91.1507 201.196 91.1507 200.7ZM97.1841 197.304C97.9841 197.304 98.6321 197.548 99.1281 198.036C99.6241 198.516 99.8721 199.212 99.8721 200.124V204H98.7921V200.28C98.7921 199.624 98.6281 199.124 98.3001 198.78C97.9721 198.428 97.5241 198.252 96.9561 198.252C96.3801 198.252 95.9201 198.432 95.5761 198.792C95.2401 199.152 95.0721 199.676 95.0721 200.364V204H93.9801V197.424H95.0721V198.36C95.2881 198.024 95.5801 197.764 95.9481 197.58C96.3241 197.396 96.7361 197.304 97.1841 197.304ZM108.287 204L105.707 201.096V204H104.615V195.12H105.707V200.34L108.239 197.424H109.763L106.667 200.7L109.775 204H108.287ZM110.263 200.688C110.263 200.016 110.399 199.428 110.671 198.924C110.943 198.412 111.315 198.016 111.787 197.736C112.267 197.456 112.799 197.316 113.383 197.316C113.959 197.316 114.459 197.44 114.883 197.688C115.307 197.936 115.623 198.248 115.831 198.624V197.424H116.935V204H115.831V202.776C115.615 203.16 115.291 203.48 114.859 203.736C114.435 203.984 113.939 204.108 113.371 204.108C112.787 204.108 112.259 203.964 111.787 203.676C111.315 203.388 110.943 202.984 110.671 202.464C110.399 201.944 110.263 201.352 110.263 200.688ZM115.831 200.7C115.831 200.204 115.731 199.772 115.531 199.404C115.331 199.036 115.059 198.756 114.715 198.564C114.379 198.364 114.007 198.264 113.599 198.264C113.191 198.264 112.819 198.36 112.483 198.552C112.147 198.744 111.879 199.024 111.679 199.392C111.479 199.76 111.379 200.192 111.379 200.688C111.379 201.192 111.479 201.632 111.679 202.008C111.879 202.376 112.147 202.66 112.483 202.86C112.819 203.052 113.191 203.148 113.599 203.148C114.007 203.148 114.379 203.052 114.715 202.86C115.059 202.66 115.331 202.376 115.531 202.008C115.731 201.632 115.831 201.196 115.831 200.7ZM126.568 197.304C127.08 197.304 127.536 197.412 127.936 197.628C128.336 197.836 128.652 198.152 128.884 198.576C129.116 199 129.232 199.516 129.232 200.124V204H128.152V200.28C128.152 199.624 127.988 199.124 127.66 198.78C127.34 198.428 126.904 198.252 126.352 198.252C125.784 198.252 125.332 198.436 124.996 198.804C124.66 199.164 124.492 199.688 124.492 200.376V204H123.412V200.28C123.412 199.624 123.248 199.124 122.92 198.78C122.6 198.428 122.164 198.252 121.612 198.252C121.044 198.252 120.592 198.436 120.256 198.804C119.92 199.164 119.752 199.688 119.752 200.376V204H118.66V197.424H119.752V198.372C119.968 198.028 120.256 197.764 120.616 197.58C120.984 197.396 121.388 197.304 121.828 197.304C122.38 197.304 122.868 197.428 123.292 197.676C123.716 197.924 124.032 198.288 124.24 198.768C124.424 198.304 124.728 197.944 125.152 197.688C125.576 197.432 126.048 197.304 126.568 197.304ZM136.736 197.424V204H135.644V203.028C135.436 203.364 135.144 203.628 134.768 203.82C134.4 204.004 133.992 204.096 133.544 204.096C133.032 204.096 132.572 203.992 132.164 203.784C131.756 203.568 131.432 203.248 131.192 202.824C130.96 202.4 130.844 201.884 130.844 201.276V197.424H131.924V201.132C131.924 201.78 132.088 202.28 132.416 202.632C132.744 202.976 133.192 203.148 133.76 203.148C134.344 203.148 134.804 202.968 135.14 202.608C135.476 202.248 135.644 201.724 135.644 201.036V197.424H136.736Z" fill="white"/>
<path d="M68.9292 230.832V237.744C68.9292 238.501 69.1265 239.083 69.5212 239.488C69.9159 239.883 70.4705 240.08 71.1852 240.08C71.9105 240.08 72.4705 239.883 72.8652 239.488C73.2599 239.083 73.4572 238.501 73.4572 237.744V230.832H75.7132V237.728C75.7132 238.677 75.5052 239.483 75.0892 240.144C74.6839 240.795 74.1345 241.285 73.4412 241.616C72.7585 241.947 71.9959 242.112 71.1532 242.112C70.3212 242.112 69.5639 241.947 68.8812 241.616C68.2092 241.285 67.6759 240.795 67.2812 240.144C66.8865 239.483 66.6892 238.677 66.6892 237.728V230.832H68.9292ZM80.1174 234.416C80.4054 234.011 80.8001 233.675 81.3014 233.408C81.8134 233.131 82.3948 232.992 83.0454 232.992C83.8028 232.992 84.4854 233.179 85.0934 233.552C85.7121 233.925 86.1974 234.459 86.5494 235.152C86.9121 235.835 87.0934 236.629 87.0934 237.536C87.0934 238.443 86.9121 239.248 86.5494 239.952C86.1974 240.645 85.7121 241.184 85.0934 241.568C84.4854 241.952 83.8028 242.144 83.0454 242.144C82.3948 242.144 81.8188 242.011 81.3174 241.744C80.8268 241.477 80.4268 241.141 80.1174 240.736V246.224H77.8774V233.136H80.1174V234.416ZM84.8054 237.536C84.8054 237.003 84.6934 236.544 84.4694 236.16C84.2561 235.765 83.9681 235.467 83.6054 235.264C83.2534 235.061 82.8694 234.96 82.4534 234.96C82.0481 234.96 81.6641 235.067 81.3014 235.28C80.9494 235.483 80.6614 235.781 80.4374 236.176C80.2241 236.571 80.1174 237.035 80.1174 237.568C80.1174 238.101 80.2241 238.565 80.4374 238.96C80.6614 239.355 80.9494 239.659 81.3014 239.872C81.6641 240.075 82.0481 240.176 82.4534 240.176C82.8694 240.176 83.2534 240.069 83.6054 239.856C83.9681 239.643 84.2561 239.339 84.4694 238.944C84.6934 238.549 84.8054 238.08 84.8054 237.536ZM92.1932 232.992C92.8545 232.992 93.4359 233.125 93.9372 233.392C94.4385 233.648 94.8332 233.984 95.1212 234.4V233.136H97.3772V242.064C97.3772 242.885 97.2119 243.616 96.8812 244.256C96.5505 244.907 96.0545 245.419 95.3932 245.792C94.7319 246.176 93.9319 246.368 92.9932 246.368C91.7345 246.368 90.6999 246.075 89.8892 245.488C89.0892 244.901 88.6359 244.101 88.5292 243.088H90.7532C90.8705 243.493 91.1212 243.813 91.5052 244.048C91.8999 244.293 92.3745 244.416 92.9292 244.416C93.5799 244.416 94.1079 244.219 94.5132 243.824C94.9185 243.44 95.1212 242.853 95.1212 242.064V240.688C94.8332 241.104 94.4332 241.451 93.9212 241.728C93.4199 242.005 92.8439 242.144 92.1932 242.144C91.4465 242.144 90.7639 241.952 90.1452 241.568C89.5265 241.184 89.0359 240.645 88.6732 239.952C88.3212 239.248 88.1452 238.443 88.1452 237.536C88.1452 236.64 88.3212 235.845 88.6732 235.152C89.0359 234.459 89.5212 233.925 90.1292 233.552C90.7479 233.179 91.4359 232.992 92.1932 232.992ZM95.1212 237.568C95.1212 237.024 95.0145 236.56 94.8012 236.176C94.5879 235.781 94.2999 235.483 93.9372 235.28C93.5745 235.067 93.1852 234.96 92.7692 234.96C92.3532 234.96 91.9692 235.061 91.6172 235.264C91.2652 235.467 90.9772 235.765 90.7532 236.16C90.5399 236.544 90.4332 237.003 90.4332 237.536C90.4332 238.069 90.5399 238.539 90.7532 238.944C90.9772 239.339 91.2652 239.643 91.6172 239.856C91.9799 240.069 92.3639 240.176 92.7692 240.176C93.1852 240.176 93.5745 240.075 93.9372 239.872C94.2999 239.659 94.5879 239.36 94.8012 238.976C95.0145 238.581 95.1212 238.112 95.1212 237.568ZM101.805 234.512C102.093 234.043 102.466 233.675 102.925 233.408C103.394 233.141 103.928 233.008 104.525 233.008V235.36H103.933C103.229 235.36 102.696 235.525 102.333 235.856C101.981 236.187 101.805 236.763 101.805 237.584V242H99.5649V233.136H101.805V234.512ZM105.458 237.536C105.458 236.64 105.634 235.845 105.986 235.152C106.348 234.459 106.834 233.925 107.442 233.552C108.06 233.179 108.748 232.992 109.506 232.992C110.167 232.992 110.743 233.125 111.234 233.392C111.735 233.659 112.135 233.995 112.434 234.4V233.136H114.69V242H112.434V240.704C112.146 241.12 111.746 241.467 111.234 241.744C110.732 242.011 110.151 242.144 109.49 242.144C108.743 242.144 108.06 241.952 107.442 241.568C106.834 241.184 106.348 240.645 105.986 239.952C105.634 239.248 105.458 238.443 105.458 237.536ZM112.434 237.568C112.434 237.024 112.327 236.56 112.114 236.176C111.9 235.781 111.612 235.483 111.25 235.28C110.887 235.067 110.498 234.96 110.082 234.96C109.666 234.96 109.282 235.061 108.93 235.264C108.578 235.467 108.29 235.765 108.066 236.16C107.852 236.544 107.746 237.003 107.746 237.536C107.746 238.069 107.852 238.539 108.066 238.944C108.29 239.339 108.578 239.643 108.93 239.856C109.292 240.069 109.676 240.176 110.082 240.176C110.498 240.176 110.887 240.075 111.25 239.872C111.612 239.659 111.9 239.36 112.114 238.976C112.327 238.581 112.434 238.112 112.434 237.568ZM116.301 237.536C116.301 236.64 116.477 235.845 116.829 235.152C117.192 234.459 117.683 233.925 118.301 233.552C118.92 233.179 119.608 232.992 120.365 232.992C120.941 232.992 121.491 233.12 122.013 233.376C122.536 233.621 122.952 233.952 123.261 234.368V230.16H125.533V242H123.261V240.688C122.984 241.125 122.595 241.477 122.093 241.744C121.592 242.011 121.011 242.144 120.349 242.144C119.603 242.144 118.92 241.952 118.301 241.568C117.683 241.184 117.192 240.645 116.829 239.952C116.477 239.248 116.301 238.443 116.301 237.536ZM123.277 237.568C123.277 237.024 123.171 236.56 122.957 236.176C122.744 235.781 122.456 235.483 122.093 235.28C121.731 235.067 121.341 234.96 120.925 234.96C120.509 234.96 120.125 235.061 119.773 235.264C119.421 235.467 119.133 235.765 118.909 236.16C118.696 236.544 118.589 237.003 118.589 237.536C118.589 238.069 118.696 238.539 118.909 238.944C119.133 239.339 119.421 239.643 119.773 239.856C120.136 240.069 120.52 240.176 120.925 240.176C121.341 240.176 121.731 240.075 122.093 239.872C122.456 239.659 122.744 239.36 122.957 238.976C123.171 238.581 123.277 238.112 123.277 237.568ZM135.961 237.376C135.961 237.696 135.94 237.984 135.897 238.24H129.417C129.471 238.88 129.695 239.381 130.089 239.744C130.484 240.107 130.969 240.288 131.545 240.288C132.377 240.288 132.969 239.931 133.321 239.216H135.737C135.481 240.069 134.991 240.773 134.265 241.328C133.54 241.872 132.649 242.144 131.593 242.144C130.74 242.144 129.972 241.957 129.289 241.584C128.617 241.2 128.089 240.661 127.705 239.968C127.332 239.275 127.145 238.475 127.145 237.568C127.145 236.651 127.332 235.845 127.705 235.152C128.079 234.459 128.601 233.925 129.273 233.552C129.945 233.179 130.719 232.992 131.593 232.992C132.436 232.992 133.188 233.173 133.849 233.536C134.521 233.899 135.039 234.416 135.401 235.088C135.775 235.749 135.961 236.512 135.961 237.376ZM133.641 236.736C133.631 236.16 133.423 235.701 133.017 235.36C132.612 235.008 132.116 234.832 131.529 234.832C130.975 234.832 130.505 235.003 130.121 235.344C129.748 235.675 129.519 236.139 129.433 236.736H133.641ZM141.729 232.72H144.561L148.049 236.304L144.561 239.888H141.729L145.233 236.304L141.729 232.72Z" fill="white"/>
<g opacity="0.2">
<path d="M-27.4318 192.58C-18.3482 190.82 20.6816 178.041 73.6032 198.849C139.755 224.858 154.413 296.153 272.602 288.487" stroke="white"/>
<path d="M-37.2135 230.208C-28.1299 228.449 10.8999 215.669 63.8214 236.477C129.973 262.486 144.631 333.781 262.821 326.115" stroke="white"/>
<path d="M-34.8507 221.152C-25.7671 219.393 13.2627 206.614 66.1842 227.421C132.336 253.43 146.994 324.726 265.183 317.059" stroke="white"/>
<path d="M-32.5586 212.088C-23.4174 210.182 15.9165 196.63 68.838 217.437C134.99 243.446 148.939 316.544 267.714 307.389" stroke="white"/>
<path d="M-29.9046 202.104C-20.7922 200.271 18.3896 187.105 71.3112 207.913C137.463 233.922 151.766 306.119 270.249 297.708" stroke="white"/>
</g>
<mask id="mask0_527_3029" style="mask-type:alpha" maskUnits="userSpaceOnUse" x="69" y="20" width="72" height="72">
<circle cx="105" cy="56" r="36" fill="#E4E9FF"/>
</mask>
<g mask="url(#mask0_527_3029)">
<circle cx="105" cy="56" r="36" fill="#D9EFFB"/>
<mask id="mask1_527_3029" style="mask-type:alpha" maskUnits="userSpaceOnUse" x="83" y="43" width="44" height="57">
<rect x="83.3999" y="43.2" width="43.2" height="56.8" rx="14" fill="#4791FF"/>
</mask>
<g mask="url(#mask1_527_3029)">
<rect x="83.3999" y="43.2" width="43.2" height="56.8" rx="14" fill="#75CEF4"/>
<rect x="89.7998" y="61.6" width="30.4" height="10.4" rx="5.2" fill="#1EA9E4"/>
<path d="M95.7998 64.8H109.8" stroke="white" stroke-width="2" stroke-linecap="round"/>
<path opacity="0.5" d="M95.7998 68.8H103.4" stroke="white" stroke-width="2" stroke-linecap="round"/>
<rect x="89.7998" y="75.2" width="30.4" height="10.4" rx="5.2" fill="#1EA9E4"/>
<path d="M95.7998 78.4H109.8" stroke="white" stroke-width="2" stroke-linecap="round"/>
<path opacity="0.5" d="M95.7998 82.4H103.4" stroke="white" stroke-width="2" stroke-linecap="round"/>
<circle opacity="0.1" cx="105" cy="46.4" r="12" fill="#050D35"/>
</g>
<circle cx="105" cy="44" r="12" fill="#FBC02D"/>
<path d="M100.066 44.212C99.9819 44.08 99.9039 43.9 99.8319 43.672C99.7599 43.444 99.7239 43.204 99.7239 42.952C99.7239 42.484 99.8259 42.148 100.03 41.944C100.246 41.74 100.522 41.638 100.858 41.638H108.706C108.79 41.77 108.868 41.95 108.94 42.178C109.012 42.406 109.048 42.646 109.048 42.898C109.048 43.366 108.94 43.702 108.724 43.906C108.52 44.11 108.25 44.212 107.914 44.212H105.916V52.528C105.784 52.564 105.574 52.6 105.286 52.636C105.01 52.672 104.734 52.69 104.458 52.69C104.182 52.69 103.936 52.666 103.72 52.618C103.516 52.582 103.342 52.51 103.198 52.402C103.054 52.294 102.946 52.144 102.874 51.952C102.802 51.76 102.766 51.508 102.766 51.196V44.212H100.066ZM99.7959 79.142C99.7959 78.638 99.9519 78.218 100.264 77.882C100.576 77.546 101.002 77.378 101.542 77.378C102.082 77.378 102.508 77.546 102.82 77.882C103.132 78.218 103.288 78.638 103.288 79.142C103.288 79.646 103.132 80.066 102.82 80.402C102.508 80.738 102.082 80.906 101.542 80.906C101.002 80.906 100.576 80.738 100.264 80.402C99.9519 80.066 99.7959 79.646 99.7959 79.142Z" fill="white"/>
</g>
</g>
<defs>
<clipPath id="clip0_527_3029">
<rect width="216" height="269" rx="16" fill="white"/>
</clipPath>
</defs>
</svg>
