<svg width="32" height="33" viewBox="0 0 32 33" fill="none" xmlns="http://www.w3.org/2000/svg">
<circle cx="16" cy="16" r="16" fill="#2F80ED"/>
<mask id="mask0_344_1753" style="mask-type:alpha" maskUnits="userSpaceOnUse" x="0" y="1" width="32" height="32">
<circle cx="16" cy="17" r="16" fill="#D9D9D9"/>
</mask>
<g mask="url(#mask0_344_1753)">
<path d="M4.3328 20.6151C4.3328 20.6151 4.08175 19.3713 4.07537 18.5213C4.069 17.6712 5.22245 18.328 5.22245 18.328C5.22245 18.328 4.7819 20.0822 4.3328 20.6151Z" fill="#A3A5A7"/>
<path d="M20.9479 16.9302C20.0433 15.1773 18.4357 13.892 16.5267 13.3953L14.6807 12.915C13.8751 12.7053 13.0342 12.6689 12.2134 12.8079L10.3275 13.1272C9.75283 13.2246 9.16659 13.2338 8.58912 13.1547L0 11.9777V19.9531L7.10905 20.6123C8.59827 20.7504 10.019 21.3027 11.2104 22.2068L15.0008 25.0833L22.7791 20.4788L20.9479 16.9302Z" fill="#F9B1B3"/>
<path d="M5.66772 12.7543L0 11.9777V19.9531L4.84017 20.4019C4.78358 19.9898 4.2701 15.8611 5.66772 12.7543Z" fill="#F89EA3"/>
<path d="M7.6725 20.6848C7.486 20.6541 7.2981 20.6297 7.10904 20.6122L4.70721 20.3895C5.77594 20.4886 7.66898 17.7697 9.71263 16.5542C9.38309 17.4781 8.47199 19.7731 7.6725 20.6848Z" fill="#F89EA3"/>
<path d="M5.45445 12.725C5.45445 12.725 3.5821 16.6411 4.35222 20.5074C4.37048 20.599 4.30162 20.6848 4.20817 20.6848H3.35675C3.18573 20.6848 3.0305 20.785 2.96002 20.9408C2.89258 21.0899 2.75277 21.1934 2.59053 21.2145L0 21.5507V11.2494L3.62035 11.7784C3.75032 11.7974 3.86193 11.8808 3.91693 12.0001C3.98295 12.1433 4.11718 12.2432 4.27327 12.2653L5.22248 12.4023C5.38847 12.4259 5.45445 12.5574 5.45445 12.725Z" fill="#F1F3F2"/>
<path d="M3.91691 12.0002C4.07838 12.1892 3.05283 14.721 2.89026 16.0253C2.49339 19.2089 3.11851 20.6849 2.96001 20.9409C3.01883 20.8108 3.13698 20.7205 3.27381 20.6939C2.96216 20.5933 2.65188 18.0847 3.01168 16.1105C3.43931 13.7642 4.00493 12.413 4.27008 12.2648C4.11533 12.2417 3.98249 12.1425 3.91691 12.0002Z" fill="#D7DAD8"/>
<path d="M5.45444 12.725C5.45444 12.5844 5.42449 12.4733 5.29852 12.4235C5.28769 12.4458 4.47887 13.6673 4.13844 15.9624C3.63822 19.3349 4.20816 20.6848 4.20816 20.6848C4.30162 20.6848 4.37047 20.5991 4.35222 20.5074C3.58209 16.6411 5.45444 12.725 5.45444 12.725Z" fill="#D7DAD8"/>
<path d="M32 11.3768C29.7255 11.5863 26.8647 11.8584 25.5237 12.021C24.2077 12.1806 22 12.5446 21.444 12.2638L21.0431 12.0245C20.6715 11.8027 20.2655 11.6445 19.8418 11.5564L17.761 11.1237C16.4245 10.8457 15.0331 11.0396 13.8236 11.6724C13.3392 11.9257 12.8226 12.1118 12.2879 12.2252L10.9499 12.5093C10.6882 12.5648 10.418 12.5676 10.1552 12.5174C9.801 12.4498 9.48202 12.7435 9.52036 13.102L9.52042 13.1024C9.56573 13.5267 9.80394 13.9065 10.1662 14.1319C10.6791 14.4512 11.2705 14.6222 11.8747 14.626L12.4409 14.6295L11.3268 15.3505C9.97693 16.224 8.77437 17.3065 7.76426 18.5573L6.91556 19.6083C6.6209 19.8738 6.48177 20.2711 6.54634 20.6625C6.63748 21.2145 7.03537 21.6663 7.57143 21.8265L7.58423 21.8304C7.83172 21.9043 8.09751 21.8873 8.33348 21.7824L8.94826 21.509L8.45297 22.0565C8.26449 22.2649 8.17444 22.5441 8.20561 22.8233C8.2762 23.4551 8.77674 23.9529 9.40893 24.0199L9.79133 24.0604C10.0218 24.0849 10.2535 24.0269 10.4453 23.8968L10.6413 23.7639L10.6655 23.9608C10.7378 24.5493 11.1719 25.0289 11.7503 25.1592C12.1302 25.2448 12.5285 25.1688 12.8502 24.9493L12.9637 24.8719L12.9626 24.9363C12.9528 25.5244 13.4059 26.017 13.9928 26.0563C14.4612 26.0876 14.9262 25.9591 15.312 25.6917L16.9197 24.5772L20.714 22.179C21.086 21.944 21.4212 21.6551 21.7086 21.3219C22.0211 20.9596 22.464 20.7304 22.9415 20.7007C23.469 20.668 24.3763 19.9404 24.9419 19.8598C26.3821 19.6547 29.9215 19.7851 32 19.8871V11.3768Z" fill="#FBC4C4"/>
<path d="M9.52044 13.1024C9.56575 13.5267 9.80396 13.9064 10.1662 14.1319C10.4842 14.3298 10.8323 14.4706 11.1947 14.55C11.2228 14.3608 11.2543 14.1721 11.2815 13.9826C11.3116 13.7728 11.3402 13.5612 11.3594 13.3502C11.3678 13.2578 11.3778 13.1612 11.3753 13.0683C11.375 13.0192 11.3704 12.9705 11.3613 12.9221C11.3579 12.9121 11.3783 12.7333 11.3757 12.7251C11.3103 12.7281 10.2046 12.8654 10.1648 12.519L10.1552 12.5174C9.80102 12.4498 9.48204 12.7435 9.52038 13.102L9.52044 13.1024Z" fill="#FBC4C4"/>
<path d="M18.7249 13.6719C18.317 13.264 17.5714 13.552 16.9998 13.4689C16.3953 13.3809 15.2129 13.2024 14.6025 13.1581C14.3975 13.1433 14.1935 13.1232 13.99 13.0998C13.6079 13.3475 13.1837 13.5292 12.7719 13.7235C12.1834 14.0011 11.6234 14.3379 10.9891 14.4975C11.0906 14.5267 11.9052 14.9353 12.2531 14.751C13.3053 14.1934 15.4475 14.8634 16.0519 14.9291C16.3388 14.9603 17.2573 14.8566 17.5032 14.7389C18.1482 14.4301 18.9064 13.8534 18.7249 13.6719Z" fill="#FBC4C4"/>
<path d="M32 18.02C30.1396 18.0438 27.407 18.0653 25.7766 18.0856C25.0885 18.0941 24.4867 18.5316 24.2447 19.1758C24.2065 19.2774 24.1532 19.3716 24.1081 19.466C23.6374 20.4515 22.934 20.6911 22.9377 20.701L22.9416 20.7007C23.469 20.668 24.3763 19.9403 24.9419 19.8598C26.3822 19.6547 29.9215 19.7851 32 19.887V18.02Z" fill="#FBC4C4"/>
<path d="M6.91556 19.6083L7.76426 18.5573C8.77444 17.3065 9.97693 16.224 11.3268 15.3505L11.8359 15.021L11.8338 15.0283C11.0104 16.3639 12.624 16.6897 12.8881 17.0789C13.1735 17.4998 12.1619 18.3088 12.5119 19.1034C12.7837 19.7205 13.9389 19.6269 14.1849 19.6914C14.8462 19.8647 14.088 20.395 14.3699 20.9747C14.4659 21.1721 15.3703 21.1571 15.7092 21.3221C16.1054 21.5151 15.8739 21.7532 16.107 21.6348C16.3071 21.533 16.2487 20.7225 16.9143 20.5749C17.2081 20.5098 18.2621 21.547 18.7849 21.4116C19.2007 21.3039 19.4813 20.9691 19.7996 20.706C20.456 20.1636 21.1365 20.883 21.8457 21.1797C21.7977 21.2245 21.7518 21.2718 21.7086 21.3219C21.4212 21.6551 21.086 21.944 20.714 22.179L16.9197 24.5772L15.312 25.6917C14.9262 25.9591 14.4612 26.0876 13.9928 26.0563C13.4059 26.017 12.9528 25.5244 12.9626 24.9363L12.9637 24.8719L12.8502 24.9493C12.5285 25.1688 12.1302 25.2448 11.7503 25.1592C11.1719 25.0289 10.7378 24.5493 10.6655 23.9608L10.6413 23.7639L10.4453 23.8968C10.2535 24.0269 10.0218 24.0849 9.79133 24.0604L9.40893 24.0199C8.77674 23.9529 8.2762 23.4551 8.20561 22.8233C8.17444 22.5441 8.26449 22.2649 8.45297 22.0565L8.94826 21.509L8.33348 21.7824C8.09751 21.8873 7.83172 21.9043 7.58423 21.8304L7.57143 21.8265C7.03537 21.6663 6.63748 21.2145 6.54634 20.6625C6.48177 20.2711 6.6209 19.8738 6.91556 19.6083Z" fill="#FAB8BA"/>
<path d="M14.1156 23.3534C14.0017 23.6859 13.2694 25.2727 13.5491 25.9291C13.1933 25.7403 12.9555 25.364 12.9626 24.9364L12.9637 24.872C12.9637 24.872 13.352 24.4802 14.1156 23.3534Z" fill="#F7989E"/>
<path d="M12.8257 21.6685C12.6572 22.2598 10.77 23.8236 10.8972 24.577C10.7749 24.3967 10.6933 24.1869 10.6655 23.9608L10.6413 23.7638C10.5713 23.8298 11.9312 22.5623 12.8257 21.6685Z" fill="#F7989E"/>
<path d="M10.7545 19.4161C10.8564 19.43 8.94826 21.5089 8.94826 21.5089L8.33347 21.7822C8.12618 21.8745 7.89584 21.8987 7.67517 21.8531C7.70051 21.8209 10.5662 19.3904 10.7545 19.4161Z" fill="#F7989E"/>
<path d="M12.2531 14.7511L13.0898 14.1924C13.6255 13.9117 14.2405 13.8208 14.8345 13.9347L16.434 14.2412C17.2205 14.3919 18.0303 14.1396 18.592 13.5688L18.6671 13.4926C18.9441 13.2111 18.8527 12.7393 18.4906 12.5816L15.1078 11.8436C14.5129 11.7565 13.9056 11.8343 13.352 12.0685C13.352 12.0685 10.6278 13.0899 8.94392 13.1921C8.41573 13.2339 10.5254 15.3068 11.7525 15.0751L12.2531 14.7511Z" fill="#F9B1B3"/>
<path d="M18.0431 12.9586C17.8139 13.0066 17.2455 12.8345 17.0244 12.7694C16.6321 12.6537 16.4333 12.379 16.5545 12.1592L18.4906 12.5815C18.5395 12.6029 18.583 12.6302 18.6217 12.6617C18.441 12.7843 18.2594 12.9132 18.0431 12.9586Z" fill="#FBD0CF"/>
<path d="M23.1886 21.2049L23.1827 21.2355C23.1004 21.6652 22.8108 22.0265 22.4092 22.2005C22.2035 22.2896 21.9685 22.2805 21.7703 22.1756L20.9827 21.7592C20.6215 21.5681 20.4609 21.1367 20.6094 20.756C20.7315 20.443 21.021 20.2268 21.3556 20.1983L21.6953 20.1694C21.9472 20.1481 22.2009 20.1797 22.4398 20.2624L22.6948 20.3507C23.0488 20.4732 23.2591 20.837 23.1886 21.2049Z" fill="#F9B1B3"/>
<path d="M21.2994 20.6799L21.351 20.6266C21.4653 20.5086 21.6442 20.4808 21.7889 20.5589L21.859 20.5848C22.0335 20.679 22.1321 20.8709 22.1071 21.0675L22.0876 21.2216C22.0622 21.4213 21.9412 21.596 21.7631 21.6899C21.6189 21.766 21.4484 21.7744 21.2973 21.7128L21.1139 21.6065C21.0064 21.542 20.9651 21.473 20.9532 21.3862C20.9724 21.0831 21.0882 20.8981 21.2994 20.6799Z" fill="#FBD0CF"/>
<path d="M17.4166 24.1766L17.445 24.2922C17.5279 24.6293 17.4939 24.9847 17.3484 25.3C17.1975 25.6272 16.8568 25.8237 16.4981 25.7906C15.983 25.7431 15.4968 25.5312 15.1113 25.1861C14.6278 24.7534 14.2507 24.215 14.0091 23.6128L13.8408 23.1934C13.7957 23.0809 13.8145 22.9529 13.8902 22.8581C14.0985 22.5972 14.4218 22.4554 14.7549 22.4787C15.2288 22.5119 15.6636 22.7538 15.9417 23.139L16.1395 23.4129C16.3291 23.6754 16.5929 23.8752 16.8969 23.9865L17.4166 24.1766Z" fill="#F9B1B3"/>
<path d="M16.997 25.6826C17.0445 25.4349 16.9284 25.0786 16.6437 24.6783C16.3783 24.3051 15.4698 22.6927 14.967 22.5085C15.3568 22.5891 15.7057 22.8122 15.9418 23.139L16.1395 23.4129C16.3291 23.6754 16.5929 23.8752 16.897 23.9865L17.4166 24.1766L17.445 24.2922C17.5279 24.6294 17.4939 24.9848 17.3484 25.3C17.2723 25.4651 17.1477 25.5968 16.997 25.6826Z" fill="#F7989E"/>
<path d="M14.6688 22.8408L14.7407 22.8229C14.9003 22.7834 15.0667 22.8548 15.1479 22.9977L15.3582 23.3673C15.4563 23.5397 15.4382 23.7546 15.3128 23.9082L15.2146 24.0284C15.0872 24.1843 14.8919 24.2683 14.6912 24.2536C14.5285 24.2417 14.3795 24.1584 14.2841 24.026L14.0203 23.5282C13.9634 23.4165 13.965 23.3361 14.0009 23.2562C14.1778 23.0094 14.374 22.9139 14.6688 22.8408Z" fill="#FBD0CF"/>
<path d="M19.1834 23.0649L19.2154 23.1953C19.3089 23.5754 19.2705 23.9761 19.1066 24.3315C18.9364 24.7003 18.5523 24.9219 18.1479 24.8846C17.5671 24.831 17.019 24.5921 16.5845 24.2032V24.2031C16.0393 23.7153 15.6141 23.1083 15.3417 22.4294L15.152 21.9565C15.1011 21.8297 15.1224 21.6853 15.2076 21.5785C15.4426 21.2843 15.807 21.1244 16.1825 21.1507C16.7169 21.1881 17.2071 21.4609 17.5206 21.8952L17.7436 22.204C17.9573 22.5 18.2547 22.7252 18.5976 22.8506L19.1834 23.0649Z" fill="#F9B1B3"/>
<path d="M18.7807 24.2716C18.5773 23.8429 18.0152 23.1629 17.7365 22.7832C17.2482 22.1178 16.8813 21.4284 16.3279 21.1675C16.8049 21.2401 17.2357 21.5006 17.5206 21.8952L17.7436 22.204C17.9573 22.5 18.2547 22.7252 18.5976 22.8506L19.1834 23.065L19.2154 23.1953C19.3089 23.5754 19.2705 23.9761 19.1066 24.3315C19.0546 24.4441 18.9826 24.5426 18.8964 24.6246C18.8729 24.505 18.8355 24.3871 18.7807 24.2716Z" fill="#F7989E"/>
<path d="M16.0701 21.5359L16.1467 21.517C16.3165 21.4749 16.4937 21.5508 16.5802 21.7028L16.8042 22.0961C16.9086 22.2794 16.8895 22.508 16.7559 22.6713L16.6513 22.7993C16.5158 22.965 16.308 23.0544 16.0943 23.0386C15.9211 23.026 15.7624 22.9372 15.6608 22.7965L15.3798 22.2669C15.3192 22.1481 15.3209 22.0626 15.3591 21.9776C15.5473 21.715 15.7563 21.6135 16.0701 21.5359Z" fill="#FBD0CF"/>
<path d="M20.9297 21.9435L20.9618 22.0738C21.0553 22.454 21.0169 22.8546 20.8528 23.21C20.6827 23.5789 20.2987 23.8004 19.8943 23.7631C19.3135 23.7096 18.7654 23.4707 18.3308 23.0817C17.7856 22.5939 17.3604 21.9868 17.088 21.3079L16.8983 20.8351C16.8475 20.7082 16.8687 20.5638 16.954 20.457C17.1889 20.1629 17.5533 20.0029 17.9288 20.0292C18.4632 20.0667 18.9534 20.3394 19.2669 20.7737L19.49 21.0825C19.7037 21.3785 20.0011 21.6037 20.3439 21.7292L20.9297 21.9435Z" fill="#F9B1B3"/>
<path d="M17.8338 20.4878L17.9058 20.47C18.0654 20.4304 18.2317 20.5018 18.3131 20.6446L18.5233 21.0143C18.6214 21.1866 18.6033 21.4016 18.4779 21.5552L18.3796 21.6754C18.2523 21.8313 18.057 21.9153 17.8563 21.9006C17.6937 21.8887 17.5446 21.8053 17.4493 21.673L17.1854 21.1751C17.1285 21.0635 17.1301 20.9831 17.1659 20.9031C17.3428 20.6563 17.5391 20.5609 17.8338 20.4878Z" fill="#FBD0CF"/>
</g>
</svg>
