<svg width="30" height="31" viewBox="0 0 30 31" fill="none" xmlns="http://www.w3.org/2000/svg">
<path opacity="0.8" d="M28.5 25.0001H25.5V20.5001C25.5 20.1023 25.342 19.7207 25.0607 19.4394C24.7794 19.1581 24.3978 19.0001 24 19.0001H16.5V14.9351L18.195 15.8201C18.4422 15.9494 18.7205 16.0072 18.9988 15.987C19.277 15.9669 19.5441 15.8695 19.7701 15.7059C19.996 15.5423 20.1718 15.3189 20.2778 15.0608C20.3838 14.8028 20.4157 14.5203 20.37 14.2451L19.77 10.6901L22.35 8.15509C22.5454 7.96427 22.685 7.72371 22.7537 7.45937C22.8225 7.19502 22.8177 6.91693 22.74 6.65509C22.6531 6.3885 22.4931 6.15162 22.2784 5.97133C22.0636 5.79104 21.8026 5.67455 21.525 5.63509L18 5.08009L16.35 1.84009C16.2272 1.58649 16.0354 1.37261 15.7966 1.22295C15.5579 1.0733 15.2818 0.993927 15 0.993927C14.7182 0.993927 14.4421 1.0733 14.2034 1.22295C13.9646 1.37261 13.7728 1.58649 13.65 1.84009L12 5.08009L8.415 5.60509C8.13738 5.64455 7.87639 5.76104 7.66162 5.94133C7.44686 6.12162 7.28694 6.3585 7.2 6.62509C7.12228 6.88693 7.11753 7.16502 7.18626 7.42936C7.25499 7.69371 7.39459 7.93427 7.59 8.12509L10.23 10.6901L9.63 14.2451C9.58427 14.5203 9.61619 14.8028 9.72218 15.0608C9.82816 15.3189 10.004 15.5423 10.2299 15.7059C10.4559 15.8695 10.723 15.9669 11.0012 15.987C11.2795 16.0072 11.5578 15.9494 11.805 15.8201L13.5 14.9351V19.0001H6C5.60218 19.0001 5.22064 19.1581 4.93934 19.4394C4.65804 19.7207 4.5 20.1023 4.5 20.5001V25.0001H1.5C1.10218 25.0001 0.720644 25.1581 0.43934 25.4394C0.158035 25.7207 0 26.1023 0 26.5001V29.5001C0 29.8979 0.158035 30.2794 0.43934 30.5608C0.720644 30.8421 1.10218 31.0001 1.5 31.0001C1.89782 31.0001 2.27936 30.8421 2.56066 30.5608C2.84196 30.2794 3 29.8979 3 29.5001V28.0001H9V29.5001C9 29.8979 9.15804 30.2794 9.43934 30.5608C9.72064 30.8421 10.1022 31.0001 10.5 31.0001C10.8978 31.0001 11.2794 30.8421 11.5607 30.5608C11.842 30.2794 12 29.8979 12 29.5001V26.5001C12 26.1023 11.842 25.7207 11.5607 25.4394C11.2794 25.1581 10.8978 25.0001 10.5 25.0001H7.5V22.0001H22.5V25.0001H19.5C19.1022 25.0001 18.7206 25.1581 18.4393 25.4394C18.158 25.7207 18 26.1023 18 26.5001V29.5001C18 29.8979 18.158 30.2794 18.4393 30.5608C18.7206 30.8421 19.1022 31.0001 19.5 31.0001C19.8978 31.0001 20.2794 30.8421 20.5607 30.5608C20.842 30.2794 21 29.8979 21 29.5001V28.0001H27V29.5001C27 29.8979 27.158 30.2794 27.4393 30.5608C27.7206 30.8421 28.1022 31.0001 28.5 31.0001C28.8978 31.0001 29.2794 30.8421 29.5607 30.5608C29.842 30.2794 30 29.8979 30 29.5001V26.5001C30 26.1023 29.842 25.7207 29.5607 25.4394C29.2794 25.1581 28.8978 25.0001 28.5 25.0001ZM15 10.9451C14.7538 10.9463 14.5117 11.0081 14.295 11.1251L13.095 11.7551L13.32 10.4051C13.3594 10.1663 13.3404 9.92153 13.2646 9.69167C13.1889 9.46182 13.0586 9.2537 12.885 9.08509L11.91 8.12509L13.26 7.93009C13.5015 7.89782 13.7315 7.80721 13.9302 7.66607C14.1288 7.52494 14.2901 7.33754 14.4 7.12009L15 5.89009L15.6 7.12009C15.7099 7.33754 15.8712 7.52494 16.0698 7.66607C16.2685 7.80721 16.4985 7.89782 16.74 7.93009L18.09 8.12509L17.115 9.08509C16.9414 9.2537 16.8111 9.46182 16.7354 9.69167C16.6596 9.92153 16.6406 10.1663 16.68 10.4051L16.905 11.7551L15.705 11.1251C15.4883 11.0081 15.2462 10.9463 15 10.9451Z" fill="white"/>
</svg>
