<svg width="17" height="24" viewBox="0 0 17 24" fill="none" xmlns="http://www.w3.org/2000/svg">
<path d="M2.104 18.944C4.152 17.2373 5.784 15.8187 7 14.688C8.216 13.536 9.22933 12.3413 10.04 11.104C10.8507 9.86667 11.256 8.65067 11.256 7.456C11.256 6.368 11 5.51467 10.488 4.896C9.976 4.27733 9.18667 3.968 8.12 3.968C7.05333 3.968 6.232 4.33067 5.656 5.056C5.08 5.76 4.78133 6.73067 4.76 7.968H0.408C0.493333 5.408 1.25067 3.46667 2.68 2.144C4.13067 0.821332 5.96533 0.159998 8.184 0.159998C10.616 0.159998 12.4827 0.810665 13.784 2.112C15.0853 3.392 15.736 5.088 15.736 7.2C15.736 8.864 15.288 10.4533 14.392 11.968C13.496 13.4827 12.472 14.8053 11.32 15.936C10.168 17.0453 8.664 18.3893 6.808 19.968H16.248V23.68H0.44V20.352L2.104 18.944Z" fill="#1EA9E4"/>
</svg>
