<svg width="17" height="25" viewBox="0 0 17 25" fill="none" xmlns="http://www.w3.org/2000/svg">
<path d="M0.76 6.816C0.866667 4.68267 1.61333 3.04 3 1.888C4.408 0.714665 6.25333 0.127998 8.536 0.127998C10.0933 0.127998 11.4267 0.405332 12.536 0.959999C13.6453 1.49333 14.4773 2.22933 15.032 3.168C15.608 4.08533 15.896 5.13067 15.896 6.304C15.896 7.648 15.544 8.78933 14.84 9.728C14.1573 10.6453 13.336 11.264 12.376 11.584V11.712C13.6133 12.096 14.5733 12.7787 15.256 13.76C15.96 14.7413 16.312 16 16.312 17.536C16.312 18.816 16.0133 19.9573 15.416 20.96C14.84 21.9627 13.976 22.752 12.824 23.328C11.6933 23.8827 10.328 24.16 8.728 24.16C6.31733 24.16 4.35467 23.552 2.84 22.336C1.32533 21.12 0.525333 19.328 0.44 16.96H4.792C4.83467 18.0053 5.18667 18.848 5.848 19.488C6.53067 20.1067 7.45867 20.416 8.632 20.416C9.72 20.416 10.552 20.1173 11.128 19.52C11.7253 18.9013 12.024 18.112 12.024 17.152C12.024 15.872 11.6187 14.9547 10.808 14.4C9.99733 13.8453 8.73867 13.568 7.032 13.568H6.104V9.888H7.032C10.0613 9.888 11.576 8.87467 11.576 6.848C11.576 5.93067 11.2987 5.216 10.744 4.704C10.2107 4.192 9.432 3.936 8.408 3.936C7.40533 3.936 6.62667 4.21333 6.072 4.768C5.53867 5.30133 5.22933 5.984 5.144 6.816H0.76Z" fill="#1EA9E4"/>
</svg>
