<svg width="388" height="388" viewBox="0 0 388 388" fill="none" xmlns="http://www.w3.org/2000/svg">
<path d="M387.709 193.854C387.709 300.917 300.917 387.708 193.854 387.708C86.7918 387.708 0 300.917 0 193.854C0 86.7912 86.7918 6.10352e-05 193.854 6.10352e-05C300.917 6.10352e-05 387.709 86.7912 387.709 193.854Z" fill="#0A8C60"/>
<path d="M20.485 278.023C20.485 278.023 33.7426 279.722 41.3202 291.753L39.7027 292.856C39.7027 292.856 29.5451 281.713 21.3289 279.727C13.1129 277.738 20.485 278.023 20.485 278.023Z" fill="#82B378"/>
<path d="M26.3294 245.093C26.3294 245.093 39.739 265.455 32.0943 290.244L28.6442 289.316C28.6442 289.316 31.9931 262.014 24.9774 248.282C17.9617 234.55 26.3294 245.093 26.3294 245.093Z" fill="#82B378"/>
<path d="M49.6114 69.3655L3.14662 309.576C2.20162 314.464 5.94466 319 10.9207 319H35.4258L49.6114 69.3655Z" fill="#E2E6EE"/>
<path d="M351.504 158.816C351.504 158.816 341.365 172.441 345.691 189.981L348.129 189.475C348.129 189.475 346.889 170.357 352.316 161.088C357.744 151.819 351.504 158.816 351.504 158.816Z" fill="#C7DCFB"/>
<path d="M302.975 109.197C302.975 109.197 296.578 130.791 309.977 150.653L312.779 148.91C312.779 148.91 302.503 125.673 305.024 111.655C307.548 97.6343 302.975 109.197 302.975 109.197Z" fill="#DFEBFD"/>
<path d="M50.1698 68.3933L19.372 304.243C18.3507 312.063 24.439 319 32.3258 319H77.5057L52.033 67.5415L50.1698 68.3933Z" fill="#75CEF4"/>
<path d="M50.1695 68.3933L36.3823 302.739C35.8634 311.56 42.8768 319 51.7131 319H119.095L50.1695 68.3933Z" fill="#42B8EA"/>
<path d="M49.6509 70.3063L56.3546 302.739C55.8357 311.56 62.8485 319 71.6853 319H139.067L49.6509 70.3063Z" fill="#1EA9E4"/>
<path d="M372.26 319H106.579C99.9461 319 94.2592 314.259 93.0669 307.734L52.6408 86.6513C50.8038 76.6142 58.5137 67.366 68.7185 67.366H331.27C337.903 67.366 343.59 72.1067 344.782 78.6321L385.772 302.791C387.315 311.227 380.837 319 372.26 319Z" fill="white"/>
<path d="M57.9006 115.363H351.685L344.151 73.6214C343.498 69.9997 340.346 67.3659 336.666 67.3659H52.1011C50.5471 67.3659 49.3731 68.7758 49.6508 70.3063L57.9006 115.363Z" fill="#E2E6EE"/>
<path d="M64.769 54.8052C57.7431 54.8052 52.0301 60.5156 52.0301 67.5389H54.4778C54.4778 61.8652 59.0927 57.2503 64.769 57.2503C70.4427 57.2503 75.0603 61.8652 75.0603 67.5389C75.0603 68.6789 74.8768 69.7743 74.5309 70.7964C73.522 73.8232 71.1424 76.2238 68.1339 77.2641C67.2534 77.5708 66.3231 77.7621 65.3534 77.8145V80.2621C66.4855 80.2124 67.5731 80.0132 68.6083 79.6856C72.741 78.3779 75.967 75.013 77.0834 70.7964C77.3586 69.756 77.5053 68.6658 77.5053 67.5389C77.5053 60.5156 71.7923 54.8052 64.769 54.8052Z" fill="#78ACEA"/>
<path d="M68.7082 78.9491C68.7082 79.2033 68.6715 79.4523 68.6086 79.6855C68.2862 80.8517 67.2196 81.7061 65.9512 81.7061C64.4286 81.7061 63.1917 80.4717 63.1917 78.9491C63.1917 77.4265 64.4286 76.1896 65.9512 76.1896C66.8396 76.1896 67.6285 76.6141 68.1343 77.2641C68.4959 77.7305 68.7082 78.3149 68.7082 78.9491Z" fill="#78ACEA"/>
<path d="M110.434 54.8052C103.411 54.8052 97.6975 60.5156 97.6975 67.5389H100.143C100.143 61.8652 104.76 57.2503 110.434 57.2503C116.11 57.2503 120.725 61.8652 120.725 67.5389C120.725 68.6789 120.539 69.7743 120.196 70.7964C119.184 73.8232 116.807 76.2238 113.799 77.2641C112.921 77.5708 111.988 77.7621 111.018 77.8145V80.2621C112.148 80.2124 113.238 80.0132 114.273 79.6856C118.406 78.3779 121.634 75.013 122.751 70.7964C123.026 69.756 123.173 68.6658 123.173 67.5389C123.173 60.5156 117.457 54.8052 110.434 54.8052Z" fill="#78ACEA"/>
<path d="M114.37 78.9491C114.37 79.2033 114.336 79.4523 114.273 79.6855C113.951 80.8517 112.884 81.7061 111.613 81.7061C110.091 81.7061 108.856 80.4717 108.856 78.9491C108.856 77.4265 110.091 76.1896 111.613 76.1896C112.504 76.1896 113.296 76.6141 113.799 77.2641C114.158 77.7305 114.37 78.3149 114.37 78.9491Z" fill="#78ACEA"/>
<path d="M156.101 54.8052C149.078 54.8052 143.365 60.5156 143.365 67.5389H145.807C145.807 61.8652 150.422 57.2503 156.101 57.2503C161.775 57.2503 166.392 61.8652 166.392 67.5389C166.392 68.6789 166.206 69.7743 165.86 70.7964C164.852 73.8232 162.472 76.2238 159.466 77.2641C158.586 77.5708 157.653 77.7621 156.683 77.8145V80.2621C157.812 80.2124 158.903 80.0132 159.938 79.6856C164.073 78.3753 167.297 75.013 168.413 70.7964C168.688 69.756 168.835 68.6658 168.835 67.5389C168.835 60.5156 163.122 54.8052 156.101 54.8052Z" fill="#78ACEA"/>
<path d="M160.037 78.9491C160.037 79.2033 160.001 79.4523 159.938 79.6855C159.615 80.8517 158.549 81.7061 157.28 81.7061C155.758 81.7061 154.521 80.4717 154.521 78.9491C154.521 77.4265 155.758 76.1896 157.28 76.1896C158.169 76.1896 158.958 76.6141 159.466 77.2641C159.825 77.7305 160.037 78.3149 160.037 78.9491Z" fill="#78ACEA"/>
<path d="M201.763 54.8052C194.74 54.8052 189.03 60.5156 189.03 67.5389H191.475C191.475 61.8652 196.09 57.2503 201.763 57.2503C207.44 57.2503 212.057 61.8652 212.057 67.5389C212.057 68.6789 211.871 69.7743 211.528 70.7964C210.516 73.8232 208.139 76.2238 205.131 77.2641C204.25 77.5708 203.32 77.7621 202.35 77.8145V80.2621C203.477 80.2124 204.57 80.0132 205.605 79.6856C209.74 78.3753 212.964 75.013 214.08 70.7964C214.355 69.756 214.502 68.6658 214.502 67.5389C214.502 60.5156 208.789 54.8052 201.763 54.8052Z" fill="#78ACEA"/>
<path d="M205.705 78.9491C205.705 79.2033 205.668 79.4523 205.605 79.6855C205.283 80.8517 204.213 81.7061 202.945 81.7061C201.422 81.7061 200.188 80.4717 200.188 78.9491C200.188 77.4265 201.422 76.1896 202.945 76.1896C203.833 76.1896 204.625 76.6141 205.131 77.2641C205.492 77.7305 205.705 78.3149 205.705 78.9491Z" fill="#78ACEA"/>
<path d="M247.431 54.8052C240.407 54.8052 234.694 60.5156 234.694 67.5389H237.137C237.137 61.8652 241.757 57.2503 247.431 57.2503C253.104 57.2503 257.722 61.8652 257.722 67.5389C257.722 68.6789 257.536 69.7743 257.192 70.7964C256.181 73.8232 253.801 76.2238 250.793 77.2641C249.918 77.5708 248.982 77.7621 248.015 77.8145V80.2621C249.144 80.2124 250.235 80.0132 251.267 79.6856C255.403 78.3779 258.631 75.013 259.745 70.7964C260.02 69.756 260.167 68.6658 260.167 67.5389C260.167 60.5156 254.454 54.8052 247.431 54.8052Z" fill="#78ACEA"/>
<path d="M251.367 78.9491C251.367 79.2033 251.33 79.4523 251.267 79.6855C250.945 80.8517 249.881 81.7061 248.61 81.7061C247.087 81.7061 245.85 80.4717 245.85 78.9491C245.85 77.4265 247.087 76.1896 248.61 76.1896C249.501 76.1896 250.29 76.6141 250.793 77.2641C251.154 77.7305 251.367 78.3149 251.367 78.9491Z" fill="#78ACEA"/>
<path d="M293.098 54.8052C286.072 54.8052 280.359 60.5156 280.359 67.5389H282.804C282.804 61.8652 287.419 57.2503 293.098 57.2503C298.772 57.2503 303.386 61.8652 303.386 67.5389C303.386 68.6789 303.2 69.7743 302.857 70.7964C301.846 73.8232 299.469 76.2238 296.46 77.2641C295.582 77.5708 294.649 77.7621 293.68 77.8145V80.2621C294.812 80.2124 295.899 80.0132 296.934 79.6856C301.065 78.3779 304.293 75.013 305.41 70.7964C305.685 69.756 305.832 68.6658 305.832 67.5389C305.832 60.5156 300.119 54.8052 293.098 54.8052Z" fill="#78ACEA"/>
<path d="M297.034 78.9491C297.034 79.2033 296.997 79.4523 296.935 79.6855C296.612 80.8517 295.543 81.7061 294.275 81.7061C292.752 81.7061 291.518 80.4717 291.518 78.9491C291.518 77.4265 292.752 76.1896 294.275 76.1896C295.163 76.1896 295.954 76.6141 296.46 77.2641C296.822 77.7305 297.034 78.3149 297.034 78.9491Z" fill="#78ACEA"/>
<path d="M338.76 54.8052C331.737 54.8052 326.026 60.5156 326.026 67.5389H328.469C328.469 61.8652 333.086 57.2503 338.76 57.2503C344.434 57.2503 349.054 61.8652 349.054 67.5389C349.054 68.6789 348.868 69.7743 348.524 70.7964C347.513 73.8232 345.136 76.2238 342.125 77.2641C341.247 77.5708 340.317 77.7621 339.347 77.8145V80.2621C340.476 80.2124 341.567 80.0132 342.602 79.6856C346.732 78.3779 349.961 75.013 351.074 70.7964C351.35 69.756 351.496 68.6658 351.496 67.5389C351.496 60.5156 345.783 54.8052 338.76 54.8052Z" fill="#78ACEA"/>
<path d="M342.699 78.9491C342.699 79.2033 342.665 79.4523 342.602 79.6855C342.277 80.8517 341.21 81.7061 339.942 81.7061C338.419 81.7061 337.185 80.4717 337.185 78.9491C337.185 77.4265 338.419 76.1896 339.942 76.1896C340.83 76.1896 341.619 76.6141 342.125 77.2641C342.486 77.7305 342.699 78.3149 342.699 78.9491Z" fill="#78ACEA"/>
<path d="M227.791 193.778H212.94C211.224 193.778 209.549 192.376 209.216 190.657L206.352 175.805C206.022 174.089 207.154 172.684 208.873 172.684H223.724C225.441 172.684 227.115 174.089 227.445 175.805L230.312 190.657C230.643 192.376 229.508 193.778 227.791 193.778Z" fill="#75CEF4"/>
<path d="M265.266 193.778H250.415C248.699 193.778 247.024 192.376 246.694 190.657L243.827 175.805C243.497 174.089 244.631 172.684 246.348 172.684H261.199C262.916 172.684 264.59 174.089 264.923 175.805L267.787 190.657C268.118 192.376 266.986 193.778 265.266 193.778Z" fill="#75CEF4"/>
<path d="M302.744 193.778H287.893C286.174 193.778 284.5 192.376 284.169 190.657L281.305 175.805C280.972 174.089 282.107 172.684 283.823 172.684H298.675C300.391 172.684 302.066 174.089 302.398 175.805L305.263 190.657C305.593 192.376 304.461 193.778 302.744 193.778Z" fill="#42B8EA"/>
<path d="M115.366 193.778H100.515C98.7984 193.778 97.1212 192.376 96.791 190.657L93.9266 175.805C93.5938 174.089 94.7286 172.684 96.4451 172.684H111.296C113.013 172.684 114.69 174.089 115.02 175.805L117.885 190.657C118.217 192.376 117.083 193.778 115.366 193.778Z" fill="#75CEF4"/>
<path d="M99.0892 149.193H92.7053C91.9689 149.193 91.2483 148.59 91.1067 147.851L89.875 141.47C89.7335 140.731 90.221 140.128 90.9574 140.128H97.3386C98.0776 140.128 98.7983 140.731 98.9398 141.47L100.172 147.851C100.313 148.59 99.8256 149.193 99.0892 149.193Z" fill="#F99746"/>
<path d="M152.841 193.778H137.99C136.274 193.778 134.596 192.376 134.266 190.657L131.402 175.805C131.072 174.089 132.204 172.684 133.92 172.684H148.771C150.488 172.684 152.165 174.089 152.495 175.805L155.36 190.657C155.692 192.376 154.558 193.778 152.841 193.778Z" fill="#75CEF4"/>
<path d="M190.316 193.778H175.465C173.749 193.778 172.074 192.376 171.741 190.657L168.877 175.805C168.547 174.089 169.679 172.684 171.395 172.684H186.246C187.966 172.684 189.64 174.089 189.97 175.805L192.835 190.657C193.168 192.376 192.033 193.778 190.316 193.778Z" fill="#75CEF4"/>
<path d="M340.22 193.778H325.368C323.652 193.778 321.975 192.376 321.644 190.657L318.78 175.805C318.447 174.089 319.582 172.684 321.299 172.684H336.15C337.866 172.684 339.543 174.089 339.874 175.805L342.738 190.657C343.071 192.376 341.936 193.778 340.22 193.778Z" fill="#42B8EA"/>
<path d="M221.57 161.523H206.719C205.002 161.523 203.325 160.118 202.995 158.402L200.131 143.551C199.8 141.834 200.933 140.429 202.649 140.429H217.5C219.217 140.429 220.894 141.834 221.224 143.551L224.089 158.402C224.421 160.118 223.287 161.523 221.57 161.523Z" fill="#75CEF4"/>
<path d="M259.045 161.523H244.194C242.477 161.523 240.803 160.118 240.47 158.402L237.606 143.551C237.276 141.834 238.408 140.429 240.124 140.429H254.975C256.694 140.429 258.369 141.834 258.699 143.551L261.566 158.402C261.896 160.118 260.762 161.523 259.045 161.523Z" fill="#75CEF4"/>
<path d="M296.52 161.523H281.669C279.952 161.523 278.278 160.118 277.948 158.402L275.081 143.551C274.751 141.834 275.885 140.429 277.602 140.429H292.453C294.169 140.429 295.844 141.834 296.177 143.551L299.041 158.402C299.371 160.118 298.237 161.523 296.52 161.523Z" fill="#42B8EA"/>
<path d="M333.998 161.523H319.147C317.428 161.523 315.753 160.118 315.423 158.402L312.556 143.551C312.226 141.834 313.361 140.429 315.077 140.429H329.928C331.645 140.429 333.319 141.834 333.652 143.551L336.517 158.402C336.847 160.118 335.715 161.523 333.998 161.523Z" fill="#42B8EA"/>
<path d="M234.388 227.967H219.537C217.82 227.967 216.143 226.562 215.813 224.846L212.948 209.994C212.615 208.278 213.75 206.873 215.467 206.873H230.318C232.034 206.873 233.712 208.278 234.042 209.994L236.906 224.846C237.236 226.562 236.104 227.967 234.388 227.967Z" fill="#75CEF4"/>
<path d="M271.863 227.967H257.012C255.295 227.967 253.618 226.562 253.288 224.846L250.423 209.994C250.091 208.278 251.225 206.873 252.942 206.873H267.793C269.509 206.873 271.187 208.278 271.517 209.994L274.381 224.846C274.714 226.562 273.579 227.967 271.863 227.967Z" fill="#75CEF4"/>
<path d="M309.338 227.967H294.487C292.77 227.967 291.096 226.562 290.763 224.846L287.899 209.994C287.568 208.278 288.701 206.873 290.417 206.873H305.268C306.985 206.873 308.662 208.278 308.992 209.994L311.857 224.846C312.189 226.562 311.055 227.967 309.338 227.967Z" fill="#42B8EA"/>
<path d="M121.96 227.967H107.108C105.392 227.967 103.717 226.562 103.384 224.846L100.52 209.994C100.19 208.278 101.322 206.873 103.041 206.873H117.892C119.609 206.873 121.283 208.278 121.614 209.994L124.481 224.846C124.811 226.562 123.676 227.967 121.96 227.967Z" fill="#75CEF4"/>
<path d="M159.435 227.967H144.583C142.867 227.967 141.192 226.562 140.859 224.846L137.995 209.994C137.665 208.278 138.8 206.873 140.516 206.873H155.367C157.084 206.873 158.758 208.278 159.091 209.994L161.956 224.846C162.286 226.562 161.154 227.967 159.435 227.967Z" fill="#75CEF4"/>
<path d="M196.912 227.967H182.061C180.342 227.967 178.667 226.562 178.337 224.846L175.47 209.994C175.14 208.278 176.275 206.873 177.991 206.873H192.842C194.559 206.873 196.234 208.278 196.566 209.994L199.431 224.846C199.761 226.562 198.629 227.967 196.912 227.967Z" fill="#75CEF4"/>
<path d="M346.813 227.967H331.962C330.245 227.967 328.571 226.562 328.238 224.846L325.374 209.994C325.043 208.278 326.176 206.873 327.892 206.873H342.746C344.462 206.873 346.137 208.278 346.467 209.994L349.334 224.846C349.664 226.562 348.53 227.967 346.813 227.967Z" fill="#42B8EA"/>
<path d="M240.981 262.153H226.13C224.413 262.153 222.739 260.748 222.406 259.032L219.542 244.181C219.211 242.464 220.344 241.059 222.06 241.059H236.914C238.63 241.059 240.305 242.464 240.635 244.181L243.502 259.032C243.832 260.748 242.698 262.153 240.981 262.153Z" fill="#75CEF4"/>
<path d="M278.456 262.153H263.605C261.889 262.153 260.214 260.748 259.881 259.032L257.017 244.181C256.687 242.464 257.819 241.059 259.538 241.059H274.389C276.106 241.059 277.78 242.464 278.11 244.181L280.977 259.032C281.307 260.748 280.173 262.153 278.456 262.153Z" fill="#75CEF4"/>
<path d="M315.931 262.153H301.08C299.364 262.153 297.689 260.748 297.359 259.032L294.492 244.181C294.162 242.464 295.296 241.059 297.013 241.059H311.864C313.581 241.059 315.255 242.464 315.588 244.181L318.452 259.032C318.783 260.748 317.651 262.153 315.931 262.153Z" fill="#42B8EA"/>
<path d="M128.556 262.153H113.704C111.985 262.153 110.311 260.748 109.98 259.032L107.116 244.181C106.783 242.464 107.918 241.059 109.635 241.059H124.486C126.202 241.059 127.877 242.464 128.21 244.181L131.074 259.032C131.404 260.748 130.272 262.153 128.556 262.153Z" fill="#75CEF4"/>
<path d="M166.031 262.153H151.18C149.463 262.153 147.786 260.748 147.456 259.032L144.591 244.181C144.259 242.464 145.393 241.059 147.11 241.059H161.961C163.678 241.059 165.355 242.464 165.685 244.181L168.549 259.032C168.882 260.748 167.747 262.153 166.031 262.153Z" fill="#75CEF4"/>
<path d="M203.506 262.153H188.655C186.938 262.153 185.261 260.748 184.931 259.032L182.067 244.181C181.736 242.464 182.868 241.059 184.585 241.059H199.436C201.153 241.059 202.83 242.464 203.16 244.181L206.024 259.032C206.357 260.748 205.223 262.153 203.506 262.153Z" fill="#75CEF4"/>
<path d="M353.409 262.153H338.558C336.842 262.153 335.164 260.748 334.834 259.032L331.97 244.181C331.637 242.464 332.772 241.059 334.488 241.059H349.339C351.056 241.059 352.733 242.464 353.063 244.181L355.928 259.032C356.258 260.748 355.126 262.153 353.409 262.153Z" fill="#42B8EA"/>
<path d="M247.203 294.41H232.351C230.635 294.41 228.96 293.006 228.627 291.289L225.763 276.438C225.433 274.719 226.568 273.314 228.284 273.314H243.135C244.852 273.314 246.526 274.719 246.859 276.438L249.724 291.289C250.054 293.006 248.922 294.41 247.203 294.41Z" fill="#75CEF4"/>
<path d="M284.68 294.41H269.829C268.11 294.41 266.435 293.006 266.105 291.289L263.238 276.438C262.908 274.719 264.043 273.314 265.759 273.314H280.61C282.327 273.314 284.002 274.719 284.334 276.438L287.199 291.289C287.529 293.006 286.397 294.41 284.68 294.41Z" fill="#75CEF4"/>
<path d="M322.155 294.41H307.304C305.588 294.41 303.911 293.006 303.58 291.289L300.716 276.438C300.383 274.719 301.518 273.314 303.234 273.314H318.086C319.802 273.314 321.479 274.719 321.81 276.438L324.674 291.289C325.004 293.006 323.872 294.41 322.155 294.41Z" fill="#42B8EA"/>
<path d="M134.777 294.41H119.926C118.209 294.41 116.532 293.006 116.202 291.289L113.337 276.438C113.005 274.719 114.139 273.314 115.856 273.314H130.707C132.424 273.314 134.101 274.719 134.431 276.438L137.295 291.289C137.628 293.006 136.493 294.41 134.777 294.41Z" fill="#75CEF4"/>
<path d="M172.252 294.41H157.401C155.685 294.41 154.007 293.006 153.677 291.289L150.813 276.438C150.483 274.719 151.615 273.314 153.331 273.314H168.182C169.901 273.314 171.576 274.719 171.906 276.438L174.771 291.289C175.103 293.006 173.969 294.41 172.252 294.41Z" fill="#75CEF4"/>
<path d="M209.727 294.41H194.876C193.16 294.41 191.485 293.006 191.152 291.289L188.288 276.438C187.958 274.719 189.09 273.314 190.809 273.314H205.66C207.377 273.314 209.051 274.719 209.381 276.438L212.248 291.289C212.579 293.006 211.444 294.41 209.727 294.41Z" fill="#75CEF4"/>
<path d="M144.101 143.33H104.758C104.176 143.33 103.702 142.856 103.702 142.277C103.702 141.698 104.176 141.223 104.758 141.223H144.101C144.681 141.223 145.155 141.698 145.155 142.277C145.155 142.856 144.681 143.33 144.101 143.33Z" fill="#AFCDFB"/>
<path d="M145.299 148.097H105.953C105.374 148.097 104.899 147.623 104.899 147.041C104.899 146.462 105.374 145.988 105.953 145.988H145.299C145.878 145.988 146.352 146.462 146.352 147.041C146.352 147.623 145.878 148.097 145.299 148.097Z" fill="#AFCDFB"/>
<path d="M101.904 107.85H88.4021C87.2962 107.85 86.392 106.943 86.392 105.837C86.392 104.734 87.2962 103.827 88.4021 103.827H101.904C103.01 103.827 103.914 104.734 103.914 105.837C103.914 106.943 103.01 107.85 101.904 107.85Z" fill="white"/>
<path d="M138.952 107.85H125.45C124.344 107.85 123.437 106.943 123.437 105.837C123.437 104.734 124.344 103.827 125.45 103.827H138.952C140.057 103.827 140.962 104.734 140.962 105.837C140.962 106.943 140.057 107.85 138.952 107.85Z" fill="white"/>
<path d="M176 107.85H162.498C161.392 107.85 160.485 106.943 160.485 105.837C160.485 104.734 161.392 103.827 162.498 103.827H176C177.106 103.827 178.01 104.734 178.01 105.837C178.01 106.943 177.106 107.85 176 107.85Z" fill="white"/>
<path d="M213.045 107.85H199.544C198.438 107.85 197.534 106.943 197.534 105.837C197.534 104.734 198.438 103.827 199.544 103.827H213.045C214.151 103.827 215.058 104.734 215.058 105.837C215.058 106.943 214.151 107.85 213.045 107.85Z" fill="white"/>
<path d="M250.093 107.85H236.592C235.486 107.85 234.582 106.943 234.582 105.837C234.582 104.734 235.486 103.827 236.592 103.827H250.093C251.199 103.827 252.103 104.734 252.103 105.837C252.103 106.943 251.199 107.85 250.093 107.85Z" fill="white"/>
<path d="M287.141 107.85H273.64C272.534 107.85 271.627 106.943 271.627 105.837C271.627 104.734 272.534 103.827 273.64 103.827H287.141C288.247 103.827 289.151 104.734 289.151 105.837C289.151 106.943 288.247 107.85 287.141 107.85Z" fill="white"/>
<path d="M324.189 107.85H310.688C309.582 107.85 308.675 106.943 308.675 105.837C308.675 104.734 309.582 103.827 310.688 103.827H324.189C325.295 103.827 326.199 104.734 326.199 105.837C326.199 106.943 325.295 107.85 324.189 107.85Z" fill="white"/>
<path d="M238.795 161.816C235.816 161.816 233.643 160.87 232.461 159.033C230.192 155.511 231.942 150.574 237.666 144.36C241.846 139.821 246.728 136.226 246.775 136.189C246.967 136.048 247.237 136.09 247.378 136.281C247.52 136.472 247.478 136.742 247.286 136.884C247.095 137.025 228.281 150.954 233.185 158.567C234.739 160.978 238.064 161.138 240.583 160.847C245.245 160.307 251.322 157.796 256.841 154.13C262.554 150.335 266.579 146.061 267.882 142.397C268.739 139.997 268.474 138.296 267.096 137.342C265.316 136.111 261.598 136.108 257.15 137.34C252.889 138.516 248.602 140.636 245.96 142.872C245.779 143.026 245.507 143.003 245.352 142.822C245.198 142.641 245.221 142.369 245.402 142.214C248.133 139.903 252.546 137.717 256.92 136.509C261.681 135.191 265.568 135.238 267.586 136.632C268.781 137.46 269.942 139.182 268.694 142.688C267.329 146.522 263.183 150.954 257.318 154.848C251.692 158.585 245.473 161.148 240.682 161.701C240.022 161.777 239.393 161.816 238.795 161.816Z" fill="#C65447"/>
</svg>
