<svg width="1440" height="912" viewBox="0 0 1440 912" fill="none" xmlns="http://www.w3.org/2000/svg">
<path d="M0 342.257L729.861 469.211L0 289.104V342.257Z" fill="#FBFBFB"/>
<path d="M0 589.984L729.861 469.211L0 540.048V589.984Z" fill="#FBFBFB"/>
<path d="M0 466.327L729.861 469.211L0 418.28V466.327Z" fill="#FBFBFB"/>
<path d="M1440 351.704L729.861 469.211L1440 400.291V351.704Z" fill="#FBFBFB"/>
<path d="M1440 472.018L729.861 469.211L1440 518.767V472.018Z" fill="#FBFBFB"/>
<path d="M537.843 912L729.861 469.211L457.453 912H537.843Z" fill="#FBFBFB"/>
<path d="M0 732.257L729.861 469.211L0 672.242V732.257Z" fill="#FBFBFB"/>
<path d="M0 912H21.9431L729.861 469.211L0 839.704V912Z" fill="#FBFBFB"/>
<path d="M1440 732.633L729.861 469.211L1440 799.439V732.633Z" fill="#FBFBFB"/>
<path d="M725.503 912L729.863 469.211L652.832 912H725.503Z" fill="#FBFBFB"/>
<path d="M1420.33 912L729.861 469.211L1290.23 912H1420.33Z" fill="#FBFBFB"/>
<path d="M1127.71 912L729.861 469.211L1036.94 912H1127.71Z" fill="#FBFBFB"/>
<path d="M912.528 912L729.861 469.211L837 912H912.528Z" fill="#FBFBFB"/>
<path d="M320.379 912L729.863 469.211L216.527 912H320.379Z" fill="#FBFBFB"/>
<path d="M1440 213.275L729.861 469.211L1440 271.668V213.275Z" fill="#FBFBFB"/>
<path d="M1440 25.0343L729.861 469.211L1440 108.732V25.0343Z" fill="#FBFBFB"/>
<path d="M1440 592.736L729.861 469.211L1440 644.452V592.736Z" fill="#FBFBFB"/>
<path d="M0 198.475L729.861 469.211L0 129.812V198.475Z" fill="#FBFBFB"/>
<path d="M1163.79 -9.15527e-05L729.861 469.211L1273.83 -9.15527e-05H1163.79Z" fill="#FBFBFB"/>
<path d="M308.27 -9.15527e-05L729.864 469.211L404.459 -9.15527e-05H308.27Z" fill="#FBFBFB"/>
<path d="M0 -9.15527e-05V1.1618L729.861 469.211L136.058 -9.15527e-05H0Z" fill="#FBFBFB"/>
<path d="M933.339 -9.15527e-05L729.861 469.211L1018.53 -9.15527e-05H933.339Z" fill="#FBFBFB"/>
<path d="M536.293 -9.15527e-05L729.861 469.211L616.331 -9.15527e-05H536.293Z" fill="#FBFBFB"/>
<path d="M734.484 -9.15527e-05L729.861 469.211L811.495 -9.15527e-05H734.484Z" fill="#FBFBFB"/>
<path d="M198.086 648.437L198.055 648.401C204.268 643.923 211.738 640.184 219.995 637.065L220.01 637.081C211.749 640.204 204.301 643.956 198.086 648.437Z" fill="#81A2DA"/>
<path d="M178.433 665.851L178.424 665.842C182.551 661.567 186.924 657.404 191.689 653.417L191.716 653.444C186.955 657.432 182.556 661.579 178.433 665.851Z" fill="#81A2DA"/>
<path d="M48.4628 707.305L48.457 707.298C54.2193 704.409 59.427 701.156 64.242 697.645L64.2645 697.665C59.4494 701.175 54.2239 704.416 48.4628 707.305Z" fill="#587B9B"/>
<path d="M73.2112 690.462L73.1953 690.446C79.6958 684.704 85.4794 678.486 90.941 672.034C85.4794 678.486 79.7125 684.718 73.2112 690.462ZM90.9592 672.012C90.9805 671.987 91.0006 671.963 91.0222 671.938C91.0006 671.963 90.9805 671.987 90.9592 672.012ZM91.6679 671.172C91.695 671.141 91.7218 671.108 91.7489 671.075C91.7218 671.108 91.695 671.141 91.6679 671.172Z" fill="#587B9B"/>
<path d="M651.277 250.175C651.277 250.175 649.537 257.935 654.778 265.572C660.02 273.208 663.772 272.685 663.772 272.685C663.772 272.685 730.349 242.999 749.456 239.764C768.564 236.53 779.821 239.635 779.821 239.635C779.821 239.635 773.227 233.674 767.367 221.012C761.508 208.351 751.744 178.846 751.744 178.846C751.744 178.846 737.081 197.714 713.43 213.925C687.765 231.517 653.031 245.271 651.277 250.175Z" fill="#E6E4E0"/>
<path d="M757.092 203.811L754.391 219.635L757.092 218.477L761.338 209.986L757.092 203.811Z" fill="white"/>
<path d="M663.841 272.653C663.918 272.62 664.067 272.554 664.279 272.459L664.373 272.418C664.466 272.376 664.567 272.332 664.679 272.282L664.749 272.251C664.872 272.197 665.004 272.138 665.149 272.074L665.304 272.006C665.447 271.942 665.603 271.874 665.765 271.802L665.896 271.744C666.781 271.353 667.923 270.852 669.286 270.254L669.462 270.177C669.742 270.054 670.03 269.929 670.329 269.798C670.409 269.763 670.492 269.727 670.573 269.692C670.853 269.57 671.14 269.445 671.434 269.316C671.549 269.266 671.665 269.215 671.782 269.164C672.05 269.049 672.323 268.929 672.602 268.808C672.736 268.75 672.869 268.692 673.006 268.633C673.286 268.511 673.573 268.386 673.863 268.26C674.014 268.194 674.163 268.13 674.317 268.063C674.713 267.892 675.118 267.716 675.532 267.538L675.6 267.508C676.077 267.302 676.563 267.091 677.062 266.876C667.296 256.819 664.962 247.143 664.564 241.391C657.708 245.011 652.832 247.837 651.546 249.678L651.529 249.702L651.419 249.882C651.363 249.983 651.31 250.083 651.277 250.175C651.277 250.175 650.597 253.206 651.367 257.345C651.406 257.551 651.448 257.761 651.493 257.973C651.586 258.397 651.693 258.832 651.818 259.274C651.944 259.717 652.087 260.168 652.25 260.624C652.413 261.082 652.595 261.545 652.799 262.013C653.311 263.182 653.959 264.379 654.778 265.572C660.02 273.208 663.772 272.685 663.772 272.685L663.826 272.66L663.841 272.653Z" fill="#302E36"/>
<path d="M670.678 258.877C669.35 256.803 668.293 254.794 667.463 252.881L665.186 253.907L666.461 261.137L670.678 258.877Z" fill="#55565E"/>
<path d="M663.772 272.685C663.772 272.685 668.153 270.731 674.983 267.775C666.2 257.781 663.643 248.351 663.04 242.199C656.983 245.437 652.727 247.982 651.542 249.683L651.529 249.703L651.408 249.898C651.356 249.994 651.308 250.088 651.277 250.175C651.277 250.175 649.537 257.935 654.778 265.572C656.416 267.958 657.909 269.547 659.186 270.605C659.698 271.028 660.174 271.367 660.613 271.636C660.832 271.771 661.041 271.889 661.24 271.992C661.639 272.198 661.996 272.344 662.308 272.448C663.244 272.758 663.772 272.685 663.772 272.685Z" fill="#DF242E"/>
<path d="M652.846 251.603L662.109 245.428L661.681 244.786L652.418 250.961" fill="#AC2529"/>
<path d="M653.103 254.434L662.366 248.259L661.938 247.617L652.676 253.792" fill="#AC2529"/>
<path d="M653.875 257.006L663.137 250.831L662.71 250.189L653.447 256.364" fill="#AC2529"/>
<path d="M654.646 259.837L663.909 253.662L663.481 253.02L654.219 259.195" fill="#E13244"/>
<path d="M655.811 263.019L665.292 257.185L664.887 256.527L655.406 262.361" fill="#E13244"/>
<path d="M657.217 265.388L666.947 259.978L666.571 259.304L656.842 264.714" fill="#E13244"/>
<path d="M658.841 267.926L668.883 263.122L668.55 262.426L658.508 267.23" fill="#AC2529"/>
<path d="M656.609 260.4C657.036 261.298 658.942 261.285 660.867 260.37C662.793 259.456 664.008 257.987 663.581 257.088C663.154 256.189 661.248 256.202 659.323 257.117C657.397 258.031 656.182 259.5 656.609 260.4Z" fill="white"/>
<path d="M779.822 239.635C779.822 239.635 777.338 237.389 774.065 232.728L774.074 232.727C777.343 237.385 779.822 239.635 779.822 239.635ZM771.267 228.409C770.492 227.112 769.701 225.699 768.912 224.17C768.915 224.169 768.918 224.168 768.921 224.168C769.71 225.697 770.501 227.109 771.276 228.407L771.267 228.409Z" fill="#4766B5"/>
<path d="M774.064 232.728C773.178 231.466 772.234 230.028 771.266 228.409L771.275 228.407C772.243 230.025 773.187 231.465 774.072 232.727L774.064 232.728Z" fill="#4F6FB6"/>
<path d="M675.892 265.634C675.028 264.69 674.229 263.75 673.488 262.818C692.634 253.607 722.916 239.475 742.815 232.341C752.412 228.901 761.261 226.226 768.912 224.17C769.701 225.699 770.492 227.112 771.267 228.409C772.236 230.028 773.179 231.466 774.065 232.728C777.338 237.389 779.822 239.635 779.822 239.635C779.822 239.635 779.821 239.635 779.818 239.634C779.738 239.612 778.45 239.267 776.073 238.932C774.529 236.604 772.81 233.698 771.112 230.174C763.406 232.019 754.483 234.45 744.792 237.627C734.499 241.001 721.435 246.135 708.531 251.508C707.132 251.72 705.391 252.14 703.336 252.811C699.576 252.811 682.283 257.699 681.155 260.331C681.155 260.331 681.46 261.415 681.994 262.923C679.87 263.861 677.829 264.768 675.892 265.634Z" fill="#B9BAB6"/>
<path d="M663.771 272.685H663.772H663.771ZM673.91 266.521C673.117 265.567 672.38 264.62 671.695 263.682C672.28 263.399 672.879 263.111 673.487 262.818C674.227 263.75 675.027 264.69 675.891 265.634C675.218 265.935 674.557 266.23 673.91 266.521Z" fill="#29272D"/>
<path d="M663.616 272.692C663.085 272.692 661.231 272.496 658.586 270.078C661.379 268.699 665.964 266.447 671.696 263.682C672.381 264.62 673.117 265.567 673.911 266.521C668.829 268.799 664.566 270.739 661.531 272.13C662.595 272.629 663.327 272.691 663.624 272.691C663.72 272.691 663.771 272.685 663.773 272.685H663.772C663.771 272.685 663.717 272.692 663.616 272.692Z" fill="#B7272B"/>
<path d="M749.457 239.764C755.999 238.657 761.622 238.292 766.186 238.292C767.838 238.292 769.352 238.34 770.719 238.417C769.352 238.34 767.839 238.292 766.188 238.292C761.623 238.292 755.999 238.657 749.457 239.764Z" fill="#B9BAB6"/>
<path d="M770.742 238.419C770.738 238.418 770.731 238.418 770.727 238.417C770.731 238.418 770.737 238.418 770.742 238.419Z" fill="#B9BAB6"/>
<path d="M776.073 238.933C775.424 238.842 774.696 238.751 773.888 238.668C774.696 238.751 775.424 238.841 776.073 238.933ZM773.877 238.666C773.877 238.666 773.876 238.666 773.875 238.666C773.876 238.666 773.877 238.666 773.877 238.666Z" fill="#4766B5"/>
<path d="M776.073 238.933C775.424 238.841 774.695 238.751 773.888 238.668C773.884 238.667 773.88 238.667 773.877 238.666C773.877 238.666 773.876 238.666 773.875 238.666C772.936 238.57 771.89 238.484 770.742 238.419C772.882 238.54 774.667 238.734 776.072 238.932L776.073 238.933ZM770.726 238.417C770.724 238.417 770.722 238.417 770.719 238.417C770.722 238.417 770.724 238.417 770.726 238.417Z" fill="#B9BAB6"/>
<path d="M663.773 272.684C663.774 272.684 663.774 272.684 663.774 272.684C663.774 272.684 663.774 272.684 663.773 272.684ZM663.774 272.683C663.775 272.683 663.775 272.683 663.776 272.683C663.775 272.683 663.775 272.683 663.774 272.683ZM663.777 272.683C663.778 272.682 663.779 272.682 663.78 272.681C663.779 272.682 663.778 272.682 663.777 272.683ZM663.78 272.681C663.78 272.681 663.781 272.68 663.782 272.68C663.781 272.68 663.78 272.681 663.78 272.681ZM663.783 272.68C663.783 272.679 663.784 272.679 663.785 272.679C663.784 272.679 663.783 272.679 663.783 272.68ZM663.79 272.676C663.79 272.676 663.791 272.676 663.792 272.676C663.791 272.676 663.791 272.676 663.79 272.676ZM663.799 272.673H663.8H663.799ZM663.804 272.67C663.804 272.67 663.805 272.67 663.805 272.669C663.805 272.67 663.804 272.67 663.804 272.67ZM663.807 272.669C663.808 272.669 663.81 272.668 663.81 272.667C663.81 272.668 663.808 272.669 663.807 272.669ZM663.812 272.666C663.814 272.666 663.815 272.666 663.817 272.665C663.815 272.666 663.814 272.666 663.812 272.666ZM663.818 272.664C663.819 272.663 663.821 272.663 663.822 272.662C663.821 272.663 663.819 272.663 663.818 272.664ZM663.846 272.652C663.847 272.652 663.848 272.651 663.848 272.651C663.848 272.651 663.847 272.652 663.846 272.652ZM676.021 267.326C676.363 267.178 676.709 267.029 677.062 266.876C676.659 266.461 676.269 266.047 675.891 265.634C677.829 264.768 679.869 263.861 681.993 262.923C682.167 263.414 682.365 263.949 682.586 264.508C680.235 265.511 678.034 266.457 676.021 267.326Z" fill="#969C9B"/>
<path d="M674.983 267.775C674.615 267.356 674.257 266.937 673.91 266.521C674.557 266.23 675.218 265.935 675.891 265.634C676.269 266.047 676.659 266.461 677.062 266.876C676.709 267.029 676.362 267.178 676.02 267.326C675.669 267.478 675.323 267.627 674.983 267.775Z" fill="#242227"/>
<path d="M663.625 272.691C663.327 272.691 662.596 272.629 661.531 272.13C664.566 270.739 668.829 268.798 673.911 266.521C674.258 266.937 674.616 267.356 674.984 267.775C668.674 270.506 664.457 272.381 663.849 272.651C663.848 272.651 663.848 272.652 663.847 272.652C663.838 272.656 663.83 272.659 663.823 272.662C663.821 272.663 663.82 272.663 663.819 272.664C663.818 272.665 663.818 272.665 663.818 272.665C663.816 272.666 663.814 272.666 663.813 272.666C663.813 272.667 663.812 272.667 663.811 272.667C663.811 272.668 663.809 272.669 663.808 272.669C663.808 272.669 663.807 272.669 663.806 272.669C663.806 272.67 663.805 272.67 663.804 272.67C663.804 272.671 663.802 272.672 663.801 272.673H663.8C663.797 272.674 663.795 272.675 663.793 272.676C663.792 272.676 663.791 272.676 663.791 272.676C663.791 272.677 663.789 272.677 663.788 272.678C663.787 272.678 663.787 272.679 663.786 272.679C663.785 272.679 663.784 272.679 663.784 272.68C663.783 272.68 663.783 272.68 663.783 272.68C663.782 272.68 663.781 272.681 663.781 272.681C663.78 272.682 663.779 272.682 663.778 272.683C663.777 272.683 663.777 272.683 663.777 272.683C663.776 272.683 663.776 272.683 663.775 272.683C663.775 272.683 663.775 272.683 663.775 272.684C663.775 272.684 663.775 272.684 663.774 272.684H663.774C663.774 272.685 663.774 272.685 663.774 272.685C663.771 272.685 663.721 272.691 663.625 272.691Z" fill="#972427"/>
<path d="M712.618 252.126C712.503 251.63 711.779 251.34 710.496 251.34C709.944 251.34 709.288 251.393 708.531 251.508C721.436 246.135 734.5 241.002 744.792 237.628C754.483 234.451 763.407 232.019 771.112 230.174C772.81 233.698 774.529 236.604 776.073 238.932C774.668 238.734 772.884 238.54 770.743 238.419C770.738 238.418 770.733 238.418 770.728 238.417C770.726 238.417 770.723 238.417 770.72 238.417C769.352 238.34 767.839 238.292 766.187 238.292C761.623 238.292 756 238.657 749.458 239.764C749.029 239.837 748.577 239.922 748.102 240.021C746.407 240.373 744.42 240.887 742.208 241.533C740.885 241.918 739.481 242.352 738.006 242.827C737.444 243.008 736.872 243.195 736.29 243.387C735.666 243.594 735.027 243.809 734.382 244.029C734.057 244.138 733.736 244.249 733.407 244.362C732.996 244.504 732.578 244.649 732.16 244.795C731.923 244.877 731.687 244.96 731.448 245.044C731.116 245.16 730.786 245.277 730.45 245.397C730.247 245.468 730.037 245.543 729.832 245.617C729.523 245.727 729.214 245.837 728.901 245.95C728.696 246.024 728.487 246.1 728.281 246.174C727.946 246.295 727.614 246.415 727.276 246.539C727.037 246.626 726.797 246.714 726.556 246.802C726.139 246.956 725.714 247.112 725.292 247.268C724.962 247.39 724.633 247.512 724.301 247.636C723.657 247.876 723.007 248.119 722.355 248.365C721.778 248.582 721.195 248.804 720.612 249.025C717.988 250.024 715.312 251.063 712.618 252.126Z" fill="#969C9B"/>
<path d="M777.97 205.191C791.664 235.947 791.972 244.943 787.232 247.171C782.492 249.4 770.662 234.218 760.807 213.262C750.952 192.305 746.805 173.51 751.545 171.281C756.284 169.053 765.15 176.4 777.97 205.191Z" fill="#302E36"/>
<path d="M762.749 211.967C755.064 195.626 750.686 180.518 750.922 172.695C749.553 179.009 753.792 194.755 761.886 211.967C769.214 227.55 777.632 239.933 783.417 244.347C777.427 238.544 769.624 226.585 762.749 211.967Z" fill="#8F9596"/>
<path d="M775.475 206.364C784.454 225.459 789.507 241.986 786.761 243.277C784.015 244.568 774.509 230.136 765.531 211.041C756.55 191.945 751.498 175.419 754.244 174.128C756.99 172.837 766.495 187.269 775.475 206.364Z" fill="#F79834"/>
<path d="M761.438 201.883C762.685 204.83 764.054 207.899 765.532 211.041C767.091 214.359 768.667 217.531 770.221 220.51L772.557 217.659L765.268 200.902L761.438 201.883Z" fill="#7E8F94"/>
<path d="M770.635 208.531C772.647 213.159 773.508 217.245 772.557 217.659C771.606 218.073 769.204 214.656 767.191 210.029C765.178 205.401 764.317 201.315 765.268 200.901C766.219 200.488 768.621 203.904 770.635 208.531Z" fill="#E6E4E0"/>
<path d="M751.573 202.933L743.49 218.09L752.443 213.286L755.543 202.681L751.573 202.933Z" fill="white"/>
<path d="M752.248 214.721L742.48 220.784L739.449 226.846L750.564 220.11L752.248 214.721Z" fill="white"/>
<path d="M687.17 271.609C687.17 271.609 687.546 272.361 691.306 273.112C695.065 273.864 712.611 252.452 712.611 252.452C712.936 251.051 709.595 250.768 703.335 252.811L687.17 271.609Z" fill="#DFD2EB"/>
<path d="M687.17 273.133H712.633V251.34H687.17V273.133Z" fill="#B5ADBD"/>
<path d="M681.154 260.331C681.154 260.331 683.786 269.729 687.17 271.609C690.553 273.488 706.172 253.69 706.172 253.69C706.172 253.69 707.094 252.811 703.335 252.811C699.575 252.811 682.282 257.699 681.154 260.331Z" fill="#DFD2EB"/>
<path d="M690.712 269.421C690.645 269.421 689.055 269.417 687.437 269.012C685.698 268.578 684.162 263.149 683.4 259.951C683.301 259.537 683.558 259.121 683.973 259.022C684.384 258.923 684.803 259.178 684.902 259.594C685.841 263.535 687.19 267.167 687.848 267.527C689.239 267.871 690.698 267.878 690.713 267.878C691.139 267.878 691.484 268.223 691.483 268.65C691.483 269.076 691.138 269.421 690.712 269.421Z" fill="white"/>
<path d="M704.19 259.633C704.19 259.633 708.896 262.358 709.887 264.338C710.877 266.32 710.629 268.548 710.629 268.548C710.629 268.548 721.031 281.179 721.774 281.674C722.112 281.9 723.217 281.869 724.393 281.838C725.802 281.801 727.313 281.764 727.717 282.17C728.46 282.912 727.966 283.16 725.983 286.132C724.003 289.103 718.059 296.286 715.088 294.8C712.562 293.537 696.018 274.245 693.789 271.025C693.789 271.025 701.218 264.834 704.19 259.633Z" fill="#DFD2EB"/>
<path d="M713.868 291.806C713.671 291.806 713.473 291.73 713.323 291.58C707.957 286.214 696.41 272.37 696.294 272.232C696.021 271.904 696.066 271.417 696.393 271.143C696.72 270.872 697.207 270.916 697.48 271.242C697.596 271.381 709.097 285.172 714.414 290.488C714.716 290.79 714.716 291.278 714.414 291.58C714.264 291.73 714.066 291.806 713.868 291.806Z" fill="white"/>
<path d="M715.977 295H715.977H715.977ZM716.19 294.991C716.198 294.99 716.206 294.989 716.214 294.988C716.206 294.989 716.198 294.99 716.19 294.991ZM716.458 294.956C716.471 294.954 716.485 294.951 716.499 294.948C716.485 294.951 716.471 294.954 716.458 294.956ZM716.5 294.948C716.519 294.944 716.539 294.941 716.558 294.937C716.539 294.941 716.519 294.944 716.5 294.948ZM716.616 294.924C716.617 294.924 716.617 294.924 716.618 294.923C716.618 294.924 716.617 294.924 716.616 294.924ZM716.873 294.856C716.881 294.853 716.889 294.851 716.897 294.849C716.889 294.851 716.881 294.853 716.873 294.856ZM716.943 294.834C716.989 294.819 717.035 294.804 717.08 294.788C717.035 294.804 716.989 294.819 716.943 294.834ZM715.083 294.798C715.083 294.798 715.083 294.798 715.082 294.798C715.083 294.798 715.083 294.798 715.083 294.798ZM717.081 294.787C717.091 294.784 717.101 294.78 717.111 294.776C717.101 294.78 717.091 294.784 717.081 294.787ZM717.179 294.751C717.198 294.745 717.217 294.737 717.236 294.73C717.217 294.737 717.199 294.745 717.179 294.751ZM717.253 294.723C717.261 294.72 717.269 294.717 717.277 294.713C717.269 294.717 717.261 294.72 717.253 294.723ZM717.297 294.705C717.297 294.705 717.297 294.705 717.298 294.704C717.297 294.705 717.297 294.705 717.297 294.705ZM717.322 294.694C717.337 294.688 717.354 294.681 717.369 294.675C717.354 294.681 717.337 294.688 717.322 294.694ZM717.385 294.668C717.394 294.664 717.402 294.661 717.411 294.657C717.402 294.661 717.394 294.664 717.385 294.668ZM717.662 294.541C717.668 294.538 717.674 294.535 717.679 294.533C717.674 294.535 717.668 294.538 717.662 294.541ZM717.694 294.526C717.706 294.52 717.719 294.514 717.73 294.508C717.719 294.514 717.706 294.52 717.694 294.526ZM717.762 294.491C717.763 294.491 717.763 294.491 717.763 294.491C717.763 294.491 717.763 294.491 717.762 294.491ZM717.788 294.478C717.794 294.476 717.799 294.473 717.804 294.47C717.799 294.473 717.794 294.475 717.788 294.478ZM717.811 294.467C717.816 294.464 717.821 294.461 717.827 294.458C717.821 294.461 717.816 294.464 717.811 294.467ZM717.845 294.449C717.85 294.447 717.855 294.444 717.859 294.441C717.855 294.444 717.85 294.447 717.845 294.449ZM717.859 294.441C717.87 294.436 717.881 294.43 717.892 294.424C717.881 294.43 717.87 294.436 717.859 294.441ZM717.892 294.424C717.902 294.419 717.913 294.413 717.924 294.407C717.913 294.413 717.902 294.419 717.892 294.424ZM717.924 294.407C717.953 294.391 717.983 294.375 718.012 294.359C717.983 294.375 717.953 294.391 717.924 294.407ZM718.036 294.345C718.055 294.335 718.073 294.325 718.092 294.314C718.073 294.325 718.055 294.335 718.036 294.345ZM718.11 294.304C718.146 294.283 718.182 294.262 718.217 294.241C718.181 294.262 718.146 294.283 718.11 294.304ZM718.244 294.225C718.293 294.196 718.342 294.166 718.391 294.135C718.342 294.166 718.293 294.196 718.244 294.225ZM718.408 294.125C719.466 293.465 720.582 292.492 721.638 291.422C720.582 292.492 719.466 293.465 718.408 294.125Z" fill="#4766B5"/>
<path d="M721.639 291.422C723.307 289.734 724.827 287.805 725.744 286.485C724.827 287.805 723.307 289.734 721.639 291.422ZM725.75 286.476C725.753 286.472 725.755 286.468 725.758 286.464C725.755 286.468 725.753 286.472 725.75 286.476ZM725.771 286.444C725.775 286.439 725.779 286.434 725.782 286.429C725.779 286.434 725.775 286.439 725.771 286.444ZM725.804 286.397C725.809 286.39 725.815 286.383 725.819 286.375C725.815 286.383 725.809 286.39 725.804 286.397ZM725.828 286.363C725.835 286.353 725.842 286.342 725.85 286.331C725.842 286.342 725.835 286.353 725.828 286.363ZM725.855 286.323C725.859 286.318 725.862 286.313 725.865 286.308C725.862 286.313 725.859 286.318 725.855 286.323ZM725.872 286.299C725.874 286.295 725.877 286.29 725.88 286.286C725.877 286.29 725.874 286.295 725.872 286.299ZM725.88 286.285C725.895 286.265 725.909 286.244 725.923 286.223C725.909 286.244 725.895 286.265 725.88 286.285Z" fill="#4F6FB6"/>
<path d="M723.228 281.859C723.226 281.859 723.225 281.859 723.225 281.859C723.225 281.859 723.226 281.859 723.228 281.859ZM723.23 281.859C723.57 281.859 723.942 281.849 724.323 281.84C723.942 281.849 723.57 281.859 723.23 281.859ZM724.444 281.837C724.834 281.826 725.231 281.817 725.608 281.817C725.231 281.817 724.834 281.826 724.444 281.837ZM725.614 281.817C725.613 281.817 725.611 281.817 725.611 281.817C725.611 281.817 725.613 281.817 725.614 281.817Z" fill="#4F6FB6"/>
<path d="M715.979 295H715.978C715.66 295 715.361 294.937 715.089 294.8C715.087 294.799 715.086 294.799 715.084 294.798C715.084 294.798 715.084 294.798 715.083 294.798C714.895 294.702 714.623 294.498 714.293 294.22C715.313 294.159 716.562 293.821 717.565 292.819C719.299 291.085 726.233 283.656 725.985 282.665C725.914 282.382 725.359 282.281 724.601 282.281C722.706 282.281 719.546 282.912 719.546 282.912C719.546 282.912 709.392 272.016 707.906 270.778C706.421 269.539 708.402 268.548 708.402 265.577C708.402 262.605 704.191 259.633 704.191 259.633C704.191 259.633 708.898 262.358 709.888 264.339C710.548 265.658 710.658 267.088 710.658 267.895C710.658 268.3 710.63 268.548 710.63 268.548C710.63 268.548 721.032 281.179 721.775 281.674C721.996 281.821 722.544 281.859 723.224 281.859C723.225 281.859 723.226 281.859 723.228 281.859C723.228 281.859 723.229 281.859 723.23 281.859C723.57 281.859 723.942 281.849 724.323 281.84C724.346 281.839 724.37 281.839 724.394 281.838C724.41 281.838 724.427 281.837 724.444 281.837C724.834 281.826 725.231 281.817 725.608 281.817C725.609 281.817 725.61 281.817 725.61 281.817C725.611 281.817 725.613 281.817 725.613 281.817C726.571 281.817 727.406 281.88 727.705 282.157C727.71 282.161 727.715 282.165 727.718 282.17C727.935 282.386 728.046 282.56 728.046 282.772C728.047 283.135 727.721 283.608 727.039 284.59C726.752 285.004 726.401 285.508 725.985 286.132C725.969 286.156 725.952 286.18 725.936 286.205C725.932 286.211 725.928 286.217 725.924 286.223C725.91 286.244 725.896 286.265 725.881 286.285V286.286C725.878 286.29 725.875 286.295 725.873 286.299C725.87 286.302 725.868 286.305 725.867 286.308C725.863 286.313 725.86 286.318 725.856 286.323C725.854 286.326 725.853 286.328 725.851 286.331C725.843 286.342 725.836 286.353 725.829 286.363C725.826 286.367 725.823 286.371 725.82 286.375C725.816 286.383 725.81 286.39 725.805 286.397C725.802 286.402 725.799 286.407 725.795 286.412C725.791 286.417 725.787 286.423 725.783 286.429C725.78 286.434 725.776 286.439 725.772 286.444C725.769 286.451 725.764 286.458 725.759 286.464C725.756 286.468 725.754 286.472 725.751 286.476C725.749 286.479 725.747 286.482 725.745 286.485C724.828 287.805 723.308 289.734 721.64 291.422C720.583 292.492 719.468 293.465 718.409 294.125C718.404 294.129 718.398 294.132 718.393 294.135C718.344 294.166 718.294 294.196 718.246 294.225C718.237 294.23 718.227 294.236 718.219 294.241C718.183 294.262 718.147 294.283 718.112 294.304C718.105 294.307 718.099 294.311 718.094 294.314C718.074 294.325 718.056 294.335 718.037 294.345C718.03 294.35 718.021 294.355 718.013 294.359C717.984 294.375 717.955 294.391 717.926 294.407C717.915 294.413 717.904 294.419 717.893 294.424C717.882 294.43 717.871 294.436 717.861 294.441C717.856 294.444 717.851 294.447 717.847 294.449C717.841 294.452 717.834 294.455 717.828 294.458C717.823 294.461 717.817 294.464 717.812 294.467C717.81 294.468 717.808 294.469 717.806 294.47C717.8 294.473 717.795 294.476 717.79 294.478C717.781 294.483 717.773 294.487 717.764 294.491C717.764 294.491 717.764 294.491 717.763 294.491C717.753 294.497 717.743 294.502 717.732 294.508C717.72 294.514 717.708 294.52 717.695 294.526C717.69 294.528 717.685 294.531 717.681 294.533C717.675 294.535 717.669 294.538 717.664 294.541C717.58 294.582 717.496 294.621 717.412 294.657C717.404 294.661 717.395 294.664 717.387 294.668C717.381 294.67 717.377 294.673 717.371 294.675C717.355 294.681 717.339 294.688 717.323 294.694C717.316 294.698 717.307 294.701 717.3 294.704C717.299 294.705 717.299 294.705 717.298 294.705C717.292 294.707 717.285 294.711 717.279 294.713C717.27 294.717 717.262 294.72 717.254 294.723C717.249 294.725 717.242 294.728 717.237 294.73C717.218 294.737 717.199 294.745 717.181 294.751C717.175 294.753 717.17 294.755 717.164 294.758C717.147 294.764 717.13 294.77 717.113 294.776C717.103 294.78 717.093 294.784 717.083 294.787C717.083 294.788 717.083 294.788 717.082 294.788C717.036 294.804 716.991 294.819 716.944 294.834C716.93 294.839 716.914 294.843 716.899 294.849C716.89 294.851 716.883 294.853 716.874 294.856C716.789 294.881 716.704 294.904 716.619 294.923C716.619 294.924 716.618 294.924 716.617 294.924C716.598 294.928 716.579 294.932 716.559 294.937C716.54 294.941 716.521 294.944 716.501 294.948C716.501 294.948 716.501 294.948 716.501 294.948C716.487 294.951 716.473 294.954 716.459 294.956C716.377 294.971 716.295 294.981 716.216 294.988C716.207 294.989 716.2 294.99 716.191 294.991C716.119 294.997 716.048 295 715.979 295Z" fill="#B5ADBD"/>
<path d="M684.378 263.564C683.871 263.391 683.506 262.911 683.506 262.346C683.506 262.038 683.615 261.754 683.796 261.533C683.97 262.187 684.165 262.878 684.378 263.564ZM685.855 263.071C685.666 262.467 685.479 261.826 685.3 261.163C685.758 261.36 686.079 261.815 686.079 262.346C686.079 262.615 685.997 262.864 685.855 263.071Z" fill="#B5ADBD"/>
<path d="M684.793 263.632C684.649 263.632 684.509 263.608 684.379 263.564C684.166 262.878 683.971 262.187 683.797 261.533C684.033 261.244 684.392 261.06 684.793 261.06C684.974 261.06 685.145 261.097 685.3 261.163C685.48 261.826 685.667 262.467 685.856 263.071C685.625 263.41 685.235 263.632 684.793 263.632Z" fill="#CAC9C7"/>
<path d="M700.487 256.942C699.777 256.942 699.201 256.367 699.201 255.656C699.201 254.946 699.777 254.37 700.487 254.37C701.198 254.37 701.774 254.946 701.774 255.656C701.774 256.367 701.198 256.942 700.487 256.942Z" fill="#B5ADBD"/>
</svg>
