<svg width="20" height="10" viewBox="0 0 20 10" fill="none" xmlns="http://www.w3.org/2000/svg">
<path d="M18.6118 0.22423L9.99912 8.19412L1.38645 0.22423C1.23257 0.0815463 1.026 0.00166626 0.810891 0.00166626C0.595786 0.00166626 0.389214 0.0815463 0.235334 0.22423C0.160826 0.293531 0.101633 0.376249 0.0612238 0.46754C0.0208142 0.558831 0 0.65686 0 0.755883C0 0.854906 0.0208142 0.952933 0.0612238 1.04422C0.101633 1.13552 0.160826 1.21823 0.235334 1.28754L9.39771 9.76782C9.55862 9.9167 9.77442 10 9.99912 10C10.2238 10 10.4396 9.9167 10.6005 9.76782L19.7629 1.28917C19.8379 1.21982 19.8976 1.1369 19.9383 1.0453C19.979 0.95371 20 0.8553 20 0.755883C20 0.656466 19.979 0.558055 19.9383 0.466462C19.8976 0.374868 19.8379 0.291947 19.7629 0.222593C19.609 0.0799098 19.4025 3.05176e-05 19.1873 3.05176e-05C18.9722 3.05176e-05 18.7657 0.0799098 18.6118 0.222593V0.22423Z" fill="#C7C9D1"/>
</svg>
