<svg width="20" height="17" viewBox="0 0 20 17" fill="none" xmlns="http://www.w3.org/2000/svg">
<path d="M15.8076 16.5665C15.7216 16.6711 15.6135 16.7552 15.4911 16.8129C15.3687 16.8706 15.2349 16.9004 15.0996 16.9001C14.9819 16.9008 14.8652 16.8778 14.7566 16.8324C14.6479 16.7871 14.5495 16.7203 14.4672 16.6361L10.8624 13.0265C10.6939 12.8578 10.5992 12.629 10.5992 12.3905C10.5992 12.152 10.6939 11.9233 10.8624 11.7545C10.9458 11.6708 11.0449 11.6043 11.1541 11.559C11.2632 11.5136 11.3802 11.4903 11.4984 11.4903C11.6166 11.4903 11.7336 11.5136 11.8427 11.559C11.9519 11.6043 12.051 11.6708 12.1344 11.7545L14.1996 13.8329V1.00011C14.1996 0.761418 14.2944 0.532499 14.4632 0.363716C14.632 0.194934 14.8609 0.100113 15.0996 0.100113C15.3383 0.100113 15.5672 0.194934 15.736 0.363716C15.9048 0.532499 15.9996 0.761418 15.9996 1.00011V13.8209L18.066 11.7593C18.1494 11.6758 18.2484 11.6095 18.3574 11.5642C18.4665 11.519 18.5834 11.4957 18.7014 11.4957C18.8194 11.4957 18.9363 11.519 19.0454 11.5642C19.1544 11.6095 19.2534 11.6758 19.3368 11.7593C19.5053 11.9281 19.6 12.1568 19.6 12.3953C19.6 12.6338 19.5053 12.8626 19.3368 13.0313L15.8064 16.5665H15.8076ZM5.6076 0.433713C5.52163 0.329175 5.41353 0.245025 5.29109 0.187335C5.16866 0.129646 5.03494 0.0998548 4.8996 0.100113C4.78187 0.0994258 4.6652 0.122446 4.55655 0.167802C4.4479 0.213158 4.3495 0.279921 4.2672 0.364113L0.663599 3.97371C0.495058 4.14246 0.400391 4.37121 0.400391 4.60971C0.400391 4.84821 0.495058 5.07696 0.663599 5.24571C0.746996 5.32945 0.84611 5.3959 0.955251 5.44124C1.06439 5.48658 1.18141 5.50992 1.2996 5.50992C1.41778 5.50992 1.5348 5.48658 1.64395 5.44124C1.75309 5.3959 1.8522 5.32945 1.9356 5.24571L3.9996 3.16851V16.0001C3.9996 16.2388 4.09442 16.4677 4.2632 16.6365C4.43199 16.8053 4.6609 16.9001 4.8996 16.9001C5.13829 16.9001 5.36721 16.8053 5.536 16.6365C5.70478 16.4677 5.7996 16.2388 5.7996 16.0001V3.17931L7.866 5.24091C7.94937 5.32447 8.04841 5.39077 8.15744 5.436C8.26648 5.48123 8.38336 5.50452 8.5014 5.50452C8.61944 5.50452 8.73632 5.48123 8.84535 5.436C8.95438 5.39077 9.05342 5.32447 9.1368 5.24091C9.30534 5.07216 9.40001 4.84341 9.40001 4.60491C9.40001 4.36641 9.30534 4.13766 9.1368 3.96891L5.6064 0.432513L5.6076 0.433713Z" fill="#3E3E3E"/>
</svg>
