<svg width="494" height="388" viewBox="0 0 494 388" fill="none" xmlns="http://www.w3.org/2000/svg">
<path d="M443.89 193.854C443.89 300.917 357.098 387.708 250.035 387.708C142.972 387.708 56.1806 300.917 56.1806 193.854C56.1806 86.7911 142.972 0 250.035 0C357.098 0 443.89 86.7911 443.89 193.854Z" fill="#0A8C60"/>
<path d="M484.494 207.248H8.58464C6.84072 207.248 5.41321 205.82 5.41321 204.076V109.019C5.41321 107.274 6.84072 105.847 8.58464 105.847H484.494C486.238 105.847 487.665 107.274 487.665 109.019V204.076C487.665 205.82 486.238 207.248 484.494 207.248Z" fill="white"/>
<path d="M14.6933 111.26C12.5606 111.26 10.8259 112.995 10.8259 115.127V197.969C10.8259 200.065 12.5968 201.836 14.6933 201.836H478.387C480.482 201.836 482.253 200.065 482.253 197.969V115.127C482.253 113.03 480.482 111.26 478.387 111.26H14.6933ZM478.387 212.66H14.6933C6.5912 212.66 0 206.07 0 197.969V115.127C0 107.025 6.5912 100.434 14.6933 100.434H478.387C486.487 100.434 493.079 107.025 493.079 115.127V197.969C493.079 206.07 486.487 212.66 478.387 212.66Z" fill="#1EA9E4"/>
<path d="M38.9542 143.975C41.8245 131.5 54.2638 123.713 66.7391 126.583C79.2145 129.453 87.0015 141.893 84.1317 154.368C81.262 166.843 68.8222 174.63 56.3468 171.76C43.8714 168.89 36.0844 156.45 38.9542 143.975Z" fill="white"/>
<path d="M101.939 191.639L94.7896 197.551C94.247 198 93.4363 197.924 92.9875 197.381L71.6723 171.608C71.2234 171.066 71.3001 170.255 71.8428 169.806L78.9914 163.894C79.534 163.445 80.3453 163.522 80.7941 164.064L102.109 189.837C102.558 190.38 102.481 191.191 101.939 191.639Z" fill="#2B4449"/>
<path d="M61.3584 126.569C57.2107 126.569 53.1361 127.73 49.533 129.985C44.4686 133.155 40.9421 138.108 39.6023 143.931C38.2631 149.754 39.2712 155.749 42.4414 160.814C45.611 165.878 50.5637 169.405 56.3866 170.744C62.2095 172.084 68.2053 171.076 73.2696 167.905C78.3346 164.735 81.861 159.783 83.2009 153.96C84.5401 148.137 83.532 142.142 80.3618 137.077C77.1916 132.013 72.2395 128.486 66.416 127.147C64.7358 126.76 63.041 126.569 61.3584 126.569ZM61.4534 176.011C59.4176 176.011 57.3689 175.78 55.3356 175.313C48.2931 173.692 42.3022 169.427 38.4679 163.301C34.6336 157.175 33.414 149.923 35.0346 142.88C36.6547 135.837 40.9201 129.846 47.0458 126.012C53.1716 122.177 60.4239 120.958 67.467 122.578C74.5101 124.198 80.5004 128.464 84.3353 134.59C88.1696 140.716 89.3886 147.968 87.7685 155.011C86.1485 162.054 81.8825 168.044 75.7567 171.879C71.3994 174.606 66.4699 176.011 61.4534 176.011Z" fill="#2B4449"/>
<path d="M480.213 228.435H106.756L85.0368 195.351C82.1965 191.023 75.8978 190.735 72.665 194.784L45.798 228.435H12.8659C8.76676 228.435 5.41321 231.752 5.41321 235.805V304.388C5.41321 308.441 8.76676 311.757 12.8659 311.757H480.213C484.312 311.757 487.665 308.441 487.665 304.388V235.805C487.665 231.752 484.312 228.435 480.213 228.435Z" fill="#D9D9D9"/>
<path d="M101.89 267.024C101.89 281.069 90.5041 292.456 76.4583 292.456C62.4125 292.456 51.0268 281.069 51.0268 267.024C51.0268 252.978 62.4125 241.592 76.4583 241.592C90.5041 241.592 101.89 252.978 101.89 267.024Z" fill="white"/>
</svg>
