<svg width="861" height="532" viewBox="0 0 861 532" fill="none" xmlns="http://www.w3.org/2000/svg">
<path d="M19.9212 532C8.96452 532 0 523.036 0 512.079V20.6905C0 9.73383 8.96452 0.769313 19.9212 0.769313H843.329C854.285 0.769313 863.25 9.73383 863.25 20.6905V512.079C863.25 523.036 854.285 532 843.329 532H19.9212Z" fill="white"/>
<mask id="mask0_250_1281" style="mask-type:alpha" maskUnits="userSpaceOnUse" x="0" y="0" width="864" height="532">
<path d="M19.9212 532C8.96452 532 0 523.036 0 512.079V20.6905C0 9.73383 8.96452 0.769313 19.9212 0.769313H843.329C854.285 0.769313 863.25 9.73383 863.25 20.6905V512.079C863.25 523.036 854.285 532 843.329 532H19.9212Z" fill="white"/>
</mask>
<g mask="url(#mask0_250_1281)">
<path d="M334.103 410.606C335.06 432.619 336.497 537.894 336.973 541.722C337.452 545.549 358.508 542.678 358.508 542.678L355.16 433.096L334.103 410.606Z" fill="#C78954"/>
<path d="M404.925 289.54C369.699 302.303 326.927 322.079 316.876 330.692C306.827 339.305 305.389 371.361 314.482 387.635C323.577 403.907 384.347 484.773 397.747 501.048C411.145 517.316 435.551 551.29 440.814 557.034C446.077 562.776 471.92 581.92 517.379 557.036C562.839 532.15 881.055 378.064 908.332 357.009C922.688 344.569 926.036 331.65 904.026 303.894C882.013 276.139 813.581 185.7 797.314 171.344C781.046 156.986 762.862 154.117 732.236 167.516C701.608 180.914 470.961 265.613 404.925 289.54" fill="white"/>
<path d="M766.352 159.534C756.786 159.534 745.714 162.344 732.502 168.124C702.51 181.243 477.533 263.938 405.153 290.163C368.917 303.292 327.048 322.849 317.308 331.196C307.542 339.567 306.26 371.559 315.061 387.311C324.204 403.668 385.393 484.999 398.26 500.627C405.346 509.23 415.405 522.644 424.28 534.478C432.094 544.9 438.843 553.9 441.304 556.586C442.452 557.838 453.14 568.821 474.688 568.821C487.813 568.821 502.069 564.66 517.06 556.453C533.238 547.597 584.428 522.144 643.703 492.673C753.613 438.024 890.401 370.011 907.927 356.484C921.788 344.47 925.522 332.07 903.507 304.307C898.22 297.642 890.235 287.335 880.991 275.401C852.4 238.491 809.189 182.711 796.874 171.842C787.36 163.445 777.662 159.534 766.352 159.534V159.534ZM474.688 570.149C474.688 570.149 474.689 570.149 474.688 570.149C452.573 570.149 441.513 558.78 440.325 557.483C437.819 554.749 431.051 545.724 423.216 535.275C414.351 523.451 404.301 510.052 397.235 501.471C384.352 485.824 323.069 404.361 313.902 387.959C304.677 371.448 306.102 339.053 316.444 330.187C326.281 321.758 368.346 302.087 404.7 288.915C477.071 262.694 702.004 180.016 731.97 166.908C745.353 161.052 756.599 158.206 766.352 158.206C778.005 158.206 787.983 162.222 797.753 170.845C810.163 181.798 853.418 237.637 882.041 274.588C891.283 286.518 899.265 296.823 904.547 303.482C927.125 331.953 922.901 345.263 908.766 357.511C891.11 371.142 754.258 439.187 644.294 493.861C585.033 523.328 533.852 548.775 517.699 557.617C502.51 565.932 488.038 570.149 474.688 570.149Z" fill="#100F0D"/>
<path d="M446.146 386.989C433.454 382.378 426.248 378.113 422.683 381.376C419.118 384.633 397.233 411.346 389.266 422.391C381.299 433.433 377.307 439.498 381.199 443.453C385.095 447.411 421.485 466.772 436.298 474.674C451.109 482.573 473.946 491.305 479.413 492.736C484.884 494.167 486.33 495.727 493.853 480.46C501.376 465.194 509.485 445.472 509.485 445.472L446.146 386.989" fill="#F7925B"/>
<path d="M455.708 383.951C445.319 386.912 423.044 394.528 421.308 395.204C419.575 395.878 412.023 408.715 412.483 411.85C412.944 414.986 425.546 476.095 427.198 480.844C428.843 485.598 434.257 490.275 442.025 487.658C449.792 485.042 515.328 467.081 520.213 464.863C525.103 462.641 520.692 447.186 516.504 433.838C512.315 420.493 473.62 381.943 455.708 383.951" fill="#FDE4AB"/>
<path d="M412.66 412.492C415.501 411.974 427.839 411.432 427.787 406.639C427.738 402.007 422.856 399.246 421.949 395.028C421.769 394.19 420.489 394.546 420.668 395.381C421.315 398.39 424.193 401.122 425.621 403.813C426.102 404.717 426.593 405.817 426.412 406.875C426.187 408.199 423.129 408.984 422.17 409.283C418.988 410.27 415.577 410.615 412.307 411.21C411.465 411.364 411.822 412.643 412.66 412.492" fill="#100F0D"/>
<path d="M432.239 417.659C434.427 417.265 436.447 416.407 438.544 415.697C441.084 414.835 443.737 414.27 446.291 413.424C451.556 411.679 456.815 409.589 462.264 408.509C463.104 408.342 462.749 407.061 461.912 407.227C456.8 408.241 452 410.279 447.027 411.776C442.061 413.27 436.979 415.464 431.885 416.378C431.043 416.531 431.402 417.811 432.239 417.659" fill="#100F0D"/>
<path d="M427.01 426.955C430.022 424.803 433.589 425.341 437.024 424.715C441.323 423.929 445.444 421.992 449.51 420.459C453.655 418.897 457.8 417.37 462.067 416.168C466.249 414.991 470.583 414.609 474.819 413.69C475.656 413.508 475.303 412.228 474.467 412.408C470.224 413.33 465.919 413.781 461.713 414.888C457.052 416.115 452.544 417.902 448.037 419.6C443.915 421.155 439.366 423.511 434.884 423.654C431.912 423.749 428.823 424.034 426.339 425.808C425.649 426.301 426.311 427.454 427.01 426.955" fill="#100F0D"/>
<path d="M435.229 443.684C439.487 440.914 444.656 440.634 449.442 439.327C452.006 438.626 454.452 437.652 456.954 436.769C458.619 436.181 460.334 436.182 461.922 435.308C462.673 434.896 462.003 433.749 461.253 434.162C459.206 435.288 456.655 435.449 454.465 436.262C452.072 437.153 449.689 437.928 447.205 438.53C442.853 439.585 438.395 440.041 434.56 442.538C433.844 443.003 434.51 444.153 435.229 443.684" fill="#100F0D"/>
<path d="M434.908 450.797C443.983 450.294 452.546 446.841 461.184 444.293C466.075 442.85 470.969 441.413 475.81 439.802C479.711 438.506 483.793 437.802 487.447 435.851C488.204 435.448 487.533 434.301 486.777 434.704C483.222 436.603 479.241 437.235 475.457 438.522C471.032 440.029 466.537 441.332 462.053 442.654C453.161 445.269 444.244 448.951 434.908 449.469C434.055 449.517 434.051 450.847 434.908 450.797" fill="#100F0D"/>
<path d="M439.566 461.892C443.394 461 447.172 460.018 450.925 458.848C453.124 458.163 455.748 457.727 457.622 456.306C458.295 455.796 457.635 454.642 456.953 455.16C454.995 456.644 452.128 457.083 449.814 457.804C446.316 458.895 442.781 459.779 439.212 460.611C438.378 460.806 438.733 462.085 439.566 461.892Z" fill="#100F0D"/>
<path d="M369.46 146.785C362.046 149.426 350.8 156.836 352.952 170.114C355.107 183.393 374.843 260.196 383.816 288.548C392.788 316.902 392.431 320.489 405.35 335.564C418.27 350.638 449.854 399.806 464.927 411.29C480 422.775 480.36 423.494 502.971 415.956C525.58 408.419 620.686 360.328 639.35 351.714C658.012 343.101 672.727 336.282 667.343 324.439C661.96 312.594 652.629 302.546 636.838 286.395C621.046 270.246 590.182 240.457 587.669 237.228C584.798 215.336 575.468 178.011 573.314 163.654C571.16 149.299 564.701 116.999 562.188 107.308C559.674 97.6169 553.934 91.517 533.118 97.6169C512.3 103.718 390.637 139.249 369.46 146.785Z" fill="#D0F0FA"/>
<path d="M366.48 148.11C360.139 153.664 361.808 161.595 363.147 169.131C365.06 179.916 367.798 190.553 370.536 201.152C376.817 225.46 383.51 249.662 390.123 273.882C392.294 281.832 394.501 289.775 396.564 297.755C398.358 304.7 400.97 311.295 405.022 316.733C417.952 334.087 430.896 351.436 444.112 368.571C452.524 379.478 461.423 389.9 471.454 399.364C473.838 401.612 476.286 404.436 479.267 405.923C482.257 407.416 485.808 406.879 488.933 406.193C499.737 403.818 510.056 398.321 520.079 393.725C531.292 388.581 542.457 383.336 553.614 378.072C573.983 368.461 594.317 358.771 614.577 348.931C623.872 344.417 633.138 339.85 642.443 335.356C648.641 332.361 655.187 329.383 660.475 324.894C663.109 322.661 665.021 319.546 663.251 316.208C662.85 315.449 661.704 316.12 662.105 316.877C665.394 323.083 652.9 328.537 648.963 330.614C641.154 334.736 633.073 338.347 625.164 342.272C616.371 346.636 607.525 350.886 598.68 355.14C574.689 366.678 550.646 378.114 526.494 389.31C516.441 393.968 506.389 398.839 495.98 402.651C491.552 404.272 486.058 406.403 481.266 405.252C478.118 404.497 475.624 401.433 473.365 399.333C453.929 381.285 438.593 359.314 422.726 338.192C417.193 330.827 411.675 323.451 406.17 316.063C401.832 310.242 399.512 303.833 397.701 296.847C392.387 276.361 386.591 255.996 381.064 235.567C376.793 219.786 372.503 204.002 368.614 188.122C366.561 179.745 364.527 171.267 363.493 162.696C362.835 157.242 363.144 152.794 367.419 149.049C368.066 148.485 367.122 147.55 366.48 148.11Z" fill="#100F0D"/>
<path d="M482.925 408.779C482.925 412.128 482.925 415.477 482.925 418.827C482.925 419.683 484.253 419.683 484.253 418.827C484.253 415.477 484.253 412.128 484.253 408.779C484.253 407.922 482.925 407.922 482.925 408.779Z" fill="#100F0D"/>
<path d="M399.824 321.901C400.727 320.071 401.992 318.524 403.154 316.856C404.423 315.033 405.56 315.222 407.623 314.656C412.02 313.449 416.003 310.944 420.201 309.223C429.163 305.551 438.433 302.791 447.348 298.946C467.139 290.411 486.654 281.25 506.607 273.093C528.254 264.242 549.842 255.44 571.108 245.671C574.842 243.956 578.569 242.222 582.235 240.372C583.595 239.685 586.046 238.872 586.918 237.502C587.379 236.778 586.229 236.112 585.771 236.832C584.858 238.265 581.136 239.447 579.613 240.196C575.177 242.376 570.677 244.426 566.178 246.469C555.209 251.446 544.164 256.263 533.085 260.993C521.058 266.126 508.801 270.662 496.764 275.77C477.015 284.156 457.711 293.722 437.739 301.571C430.173 304.544 422.289 306.64 414.94 310.149C413.056 311.049 411.176 311.936 409.232 312.705C407.284 313.477 405.357 313.565 403.378 314.109C402.674 314.303 402.337 315.644 402.006 316.185C400.944 317.925 399.586 319.387 398.677 321.232C398.299 321.997 399.446 322.67 399.824 321.901" fill="#100F0D"/>
<path d="M429.038 316.542C441.854 310.133 559.674 262.351 571.878 257.326C584.08 252.302 588.386 250.148 595.923 257.683C603.461 265.221 631.454 294.65 636.48 300.75C641.502 306.852 654.425 313.671 636.838 324.796C619.25 335.923 520.556 380.068 507.995 385.809C495.434 391.552 486.461 399.446 475.695 387.604C464.927 375.76 437.652 337.358 430.115 328.387C422.578 319.415 424.732 318.695 429.038 316.542Z" fill="#A5D9E2"/>
<path d="M573.155 325.173C569.826 325.173 563.492 328.213 551.654 334.037C547.306 336.179 537.417 340.561 526.948 345.199C515.561 350.245 503.786 355.462 498.782 357.964C498.042 358.334 497.992 358.675 497.976 358.788C497.795 360.027 500.447 362.51 503.256 365.138C503.867 365.712 504.51 366.312 505.165 366.939C506.029 367.764 507.163 368.165 508.629 368.165C512.843 368.165 519.116 364.815 525.758 361.272C528.937 359.575 532.225 357.82 535.531 356.289L540.831 353.841C554.21 347.663 574.425 338.328 579.74 335.261C581.675 334.145 582.627 333.191 582.653 332.344C582.699 330.723 579.492 328.62 575.052 325.709L574.923 325.624C574.461 325.321 573.882 325.173 573.155 325.173V325.173ZM508.629 369.493C506.83 369.493 505.357 368.955 504.249 367.899C503.595 367.276 502.957 366.68 502.348 366.107C498.755 362.745 496.382 360.524 496.661 358.598C496.771 357.84 497.284 357.227 498.188 356.776C503.22 354.26 515.008 349.035 526.41 343.986C536.866 339.351 546.743 334.975 551.068 332.847C566.799 325.106 572.457 322.418 575.652 324.515L575.781 324.598C580.937 327.98 584.048 330.021 583.981 332.382C583.939 333.765 582.837 335.008 580.404 336.412C575.037 339.509 554.788 348.858 541.388 355.046L536.089 357.496C532.816 359.009 529.545 360.755 526.383 362.443C519.59 366.069 513.175 369.493 508.629 369.493" fill="#100F0D"/>
<path d="M490.281 361.786C489.953 361.786 489.606 361.84 489.222 361.953C486.355 362.798 482.173 364.681 479.462 366.037C478.709 366.413 478.271 366.916 478.121 367.575C477.838 368.813 478.567 370.604 480.227 372.753C482.039 375.097 483.174 376.424 485.464 376.424C487.06 376.424 489.249 375.764 492.347 374.349C495.536 372.894 497.293 371.497 497.573 370.197C497.85 368.911 496.683 367.58 495.451 366.174L495.351 366.061C494.964 365.617 494.606 365.188 494.266 364.779C492.821 363.041 491.778 361.786 490.281 361.786V361.786ZM485.464 377.752C482.412 377.752 480.841 375.717 479.177 373.565C477.238 371.054 476.446 368.941 476.826 367.28C477.064 366.239 477.769 365.398 478.867 364.85C479.866 364.35 485.042 361.799 488.847 360.68C489.355 360.531 489.823 360.458 490.281 360.458C492.4 360.458 493.675 361.989 495.289 363.929C495.621 364.33 495.972 364.751 496.35 365.187L496.45 365.299C497.844 366.891 499.288 368.538 498.872 370.475C498.49 372.258 496.592 373.873 492.9 375.558C489.576 377.076 487.282 377.752 485.464 377.752Z" fill="#100F0D"/>
<path d="M479.514 347.67C479.186 347.67 478.84 347.724 478.456 347.837C475.599 348.678 471.412 350.562 468.694 351.919C467.943 352.295 467.504 352.799 467.353 353.459C467.07 354.698 467.798 356.489 469.459 358.637C471.272 360.982 472.409 362.308 474.699 362.308C476.295 362.308 478.481 361.648 481.579 360.233C484.769 358.778 486.526 357.382 486.807 356.08C487.083 354.795 485.919 353.465 484.687 352.059L484.587 351.945C484.198 351.501 483.838 351.071 483.5 350.66C482.055 348.923 481.011 347.67 479.514 347.67V347.67ZM474.699 363.636C471.645 363.636 470.073 361.601 468.409 359.448C466.47 356.941 465.68 354.827 466.059 353.164C466.296 352.123 467.002 351.281 468.101 350.732C471 349.283 475.145 347.427 478.08 346.563C478.587 346.415 479.056 346.342 479.514 346.342C481.632 346.342 482.906 347.873 484.52 349.81C484.853 350.212 485.206 350.635 485.586 351.071L485.686 351.184C487.08 352.776 488.521 354.422 488.104 356.359C487.722 358.141 485.824 359.756 482.132 361.442C478.808 362.96 476.517 363.636 474.699 363.636" fill="#100F0D"/>
<path d="M468.746 333.552C468.418 333.552 468.07 333.607 467.688 333.72C464.824 334.563 460.641 336.447 457.928 337.806C457.176 338.182 456.738 338.683 456.588 339.343C456.305 340.579 457.034 342.371 458.695 344.521C460.507 346.866 461.644 348.192 463.93 348.192C465.527 348.192 467.716 347.533 470.814 346.117C474.001 344.662 475.758 343.266 476.039 341.964C476.315 340.68 475.153 339.351 473.923 337.944L473.819 337.827C473.432 337.384 473.072 336.952 472.73 336.542C471.285 334.807 470.242 333.552 468.746 333.552V333.552ZM463.93 349.52C460.879 349.52 459.309 347.485 457.645 345.332C455.704 342.823 454.913 340.708 455.293 339.046C455.53 338.005 456.236 337.166 457.333 336.619C460.226 335.17 464.369 333.313 467.312 332.446C467.82 332.297 468.288 332.224 468.746 332.224C470.864 332.224 472.138 333.755 473.752 335.693C474.085 336.093 474.437 336.518 474.818 336.953L474.922 337.07C476.313 338.661 477.753 340.308 477.337 342.244C476.955 344.025 475.057 345.64 471.366 347.326C468.042 348.844 465.749 349.52 463.93 349.52" fill="#100F0D"/>
<path d="M457.981 319.436C457.651 319.436 457.305 319.491 456.922 319.603C454.055 320.447 449.871 322.333 447.161 323.69C446.409 324.066 445.971 324.569 445.819 325.228C445.538 326.464 446.266 328.256 447.927 330.405C449.74 332.75 450.874 334.077 453.164 334.077C454.76 334.077 456.947 333.417 460.046 332.001C463.235 330.547 464.993 329.148 465.272 327.848C465.548 326.563 464.385 325.235 463.152 323.827L463.053 323.711C462.663 323.268 462.306 322.837 461.966 322.428C460.52 320.691 459.476 319.436 457.981 319.436ZM453.164 335.405C450.112 335.405 448.539 333.37 446.877 331.216C444.936 328.707 444.146 326.593 444.526 324.93C444.765 323.89 445.47 323.05 446.567 322.503C447.566 322.002 452.74 319.449 456.548 318.33C457.054 318.181 457.522 318.108 457.981 318.108C460.098 318.108 461.373 319.641 462.986 321.58C463.32 321.979 463.671 322.402 464.051 322.837L464.152 322.952C465.545 324.544 466.988 326.189 466.571 328.127C466.187 329.909 464.29 331.524 460.598 333.21C457.274 334.728 454.982 335.405 453.164 335.405" fill="#100F0D"/>
<path d="M500.809 338.219C500.481 338.219 500.133 338.275 499.749 338.388C496.893 339.228 492.705 341.113 489.987 342.47C489.237 342.845 488.799 343.348 488.649 344.007C488.366 345.246 489.094 347.037 490.755 349.188C492.568 351.532 493.703 352.857 495.992 352.857C497.588 352.857 499.774 352.198 502.871 350.784C506.062 349.328 507.821 347.93 508.1 346.631C508.377 345.344 507.213 344.013 505.979 342.606L505.881 342.493C505.493 342.051 505.135 341.619 504.795 341.211C503.349 339.474 502.305 338.219 500.809 338.219V338.219ZM495.992 354.185C492.94 354.185 491.369 352.152 489.705 349.999C487.764 347.489 486.974 345.375 487.354 343.712C487.592 342.669 488.297 341.831 489.394 341.283C492.294 339.834 496.438 337.977 499.373 337.114C499.882 336.964 500.35 336.891 500.809 336.891C502.927 336.891 504.202 338.422 505.815 340.361C506.149 340.762 506.499 341.183 506.879 341.618L506.977 341.73C508.373 343.324 509.816 344.971 509.4 346.91C509.015 348.692 507.117 350.306 503.425 351.993C500.102 353.511 497.81 354.185 495.992 354.185Z" fill="#100F0D"/>
<path d="M490.041 324.103C489.711 324.103 489.366 324.157 488.981 324.27C486.128 325.111 481.941 326.995 479.221 328.354C478.469 328.73 478.031 329.232 477.881 329.892C477.598 331.13 478.327 332.921 479.988 335.071C481.8 337.415 482.937 338.741 485.225 338.741C486.823 338.741 489.009 338.082 492.107 336.668C495.296 335.212 497.054 333.814 497.334 332.514C497.611 331.228 496.446 329.897 495.213 328.491L495.114 328.377C494.725 327.933 494.366 327.503 494.026 327.094C492.581 325.357 491.537 324.103 490.041 324.103V324.103ZM485.225 340.069C482.173 340.069 480.602 338.036 478.938 335.883C476.997 333.371 476.206 331.259 476.586 329.597C476.823 328.556 477.529 327.715 478.627 327.167C481.528 325.716 485.672 323.858 488.605 322.997C489.114 322.848 489.584 322.775 490.041 322.775C492.16 322.775 493.434 324.305 495.047 326.244C495.381 326.645 495.733 327.067 496.112 327.503L496.212 327.614C497.607 329.208 499.049 330.855 498.632 332.792C498.249 334.575 496.35 336.191 492.659 337.876C489.335 339.394 487.044 340.069 485.225 340.069" fill="#100F0D"/>
<path d="M479.274 309.987C478.944 309.987 478.598 310.041 478.213 310.154C475.367 310.992 471.175 312.878 468.453 314.238C467.702 314.614 467.264 315.116 467.114 315.776C466.831 317.014 467.56 318.805 469.222 320.955C471.033 323.3 472.169 324.626 474.458 324.626C476.055 324.626 478.242 323.966 481.34 322.552C484.529 321.096 486.287 319.699 486.566 318.398C486.842 317.112 485.679 315.783 484.445 314.376L484.347 314.262C483.959 313.818 483.602 313.389 483.262 312.98C481.816 311.242 480.77 309.987 479.274 309.987V309.987ZM474.458 325.954C471.405 325.954 469.835 323.92 468.171 321.767C466.231 319.257 465.439 317.143 465.819 315.481C466.057 314.44 466.762 313.599 467.859 313.051C470.765 311.599 474.911 309.741 477.838 308.881C478.347 308.732 478.816 308.659 479.274 308.659C481.393 308.659 482.668 310.19 484.282 312.13C484.615 312.531 484.966 312.952 485.346 313.388L485.445 313.501C486.84 315.093 488.281 316.74 487.865 318.676C487.483 320.459 485.585 322.075 481.893 323.76C478.569 325.278 476.276 325.954 474.458 325.954" fill="#100F0D"/>
<path d="M522.102 328.77C521.772 328.77 521.426 328.824 521.042 328.937C518.201 329.77 514.139 331.593 511.282 333.021C510.532 333.396 510.093 333.899 509.943 334.558C509.66 335.797 510.388 337.587 512.049 339.737C513.86 342.081 514.995 343.407 517.285 343.407C518.881 343.407 521.07 342.749 524.168 341.335C527.357 339.878 529.115 338.479 529.394 337.181C529.67 335.895 528.507 334.566 527.275 333.159L527.174 333.042C526.786 332.6 526.43 332.171 526.09 331.765C524.644 330.025 523.598 328.77 522.102 328.77V328.77ZM517.285 344.735C514.233 344.735 512.662 342.703 510.999 340.55C509.059 338.038 508.268 335.923 508.648 334.261C508.886 333.22 509.591 332.381 510.688 331.832C513.597 330.379 517.744 328.52 520.667 327.664C521.175 327.513 521.643 327.442 522.102 327.442C524.221 327.442 525.496 328.973 527.11 330.915C527.443 331.314 527.794 331.734 528.172 332.168L528.275 332.284C529.668 333.875 531.109 335.522 530.693 337.459C530.311 339.239 528.413 340.855 524.721 342.543C521.397 344.059 519.103 344.735 517.285 344.735" fill="#100F0D"/>
<path d="M511.335 314.654C511.006 314.654 510.66 314.708 510.276 314.821C507.429 315.659 503.368 317.48 500.515 318.905C499.765 319.28 499.326 319.783 499.175 320.442C498.891 321.679 499.62 323.471 501.28 325.622C503.093 327.965 504.228 329.291 506.518 329.291C508.114 329.291 510.302 328.633 513.4 327.219C516.59 325.763 518.348 324.365 518.627 323.066C518.904 321.779 517.74 320.45 516.506 319.042L516.407 318.928C516.018 318.484 515.659 318.052 515.32 317.645C513.876 315.908 512.832 314.654 511.335 314.654V314.654ZM506.518 330.619C503.466 330.619 501.894 328.587 500.229 326.434C498.29 323.922 497.502 321.807 497.881 320.145C498.118 319.104 498.824 318.265 499.921 317.716C502.825 316.266 506.971 314.408 509.901 313.548C510.408 313.397 510.878 313.326 511.335 313.326C513.453 313.326 514.727 314.856 516.34 316.795C516.674 317.196 517.026 317.617 517.406 318.052L517.506 318.167C518.901 319.759 520.342 321.407 519.925 323.345C519.542 325.126 517.646 326.741 513.953 328.427C510.628 329.943 508.336 330.619 506.518 330.619" fill="#100F0D"/>
<path d="M500.568 300.538C500.239 300.538 499.892 300.592 499.508 300.705C496.648 301.547 492.463 303.431 489.748 304.789C488.997 305.163 488.56 305.667 488.41 306.325C488.125 307.564 488.855 309.355 490.515 311.505C492.326 313.848 493.463 315.174 495.751 315.174C497.348 315.174 499.535 314.516 502.633 313.101C505.822 311.646 507.582 310.249 507.861 308.948C508.137 307.663 506.972 306.333 505.74 304.926L505.639 304.811C505.252 304.369 504.895 303.939 504.556 303.532C503.11 301.793 502.065 300.538 500.568 300.538V300.538ZM495.751 316.502C492.698 316.502 491.128 314.469 489.464 312.316C487.525 309.806 486.734 307.692 487.113 306.031C487.352 304.988 488.058 304.15 489.153 303.6C492.05 302.153 496.192 300.296 499.134 299.431C499.641 299.283 500.11 299.21 500.568 299.21C502.688 299.21 503.964 300.742 505.578 302.684C505.91 303.082 506.259 303.503 506.637 303.936L506.738 304.049C508.133 305.643 509.575 307.29 509.159 309.227C508.777 311.01 506.878 312.623 503.186 314.31C499.862 315.826 497.568 316.502 495.751 316.502" fill="#100F0D"/>
<path d="M543.396 319.319C543.067 319.319 542.72 319.374 542.336 319.487C539.477 320.329 535.292 322.212 532.576 323.571C531.824 323.946 531.385 324.45 531.235 325.108C530.952 326.346 531.681 328.136 533.342 330.285C535.154 332.631 536.291 333.957 538.579 333.957C540.175 333.957 542.363 333.299 545.461 331.882C548.65 330.427 550.408 329.03 550.687 327.73C550.963 326.445 549.799 325.115 548.565 323.706L548.468 323.593C548.081 323.151 547.723 322.722 547.384 322.314C545.938 320.576 544.893 319.319 543.396 319.319V319.319ZM538.579 335.286C535.526 335.286 533.955 333.252 532.292 331.098C530.353 328.589 529.561 326.474 529.94 324.814C530.178 323.772 530.884 322.932 531.981 322.382C534.879 320.933 539.021 319.078 541.962 318.213C542.469 318.064 542.938 317.991 543.396 317.991C545.516 317.991 546.792 319.525 548.407 321.467C548.737 321.864 549.087 322.286 549.465 322.719L549.565 322.831C550.959 324.423 552.402 326.07 551.986 328.009C551.603 329.791 549.706 331.406 546.014 333.092C542.691 334.608 540.397 335.286 538.579 335.286" fill="#100F0D"/>
<path d="M532.628 305.203C532.3 305.203 531.953 305.257 531.569 305.369C528.729 306.203 524.666 308.025 521.808 309.453C521.058 309.829 520.619 310.332 520.468 310.992C520.186 312.231 520.914 314.02 522.574 316.169C524.387 318.514 525.524 319.84 527.814 319.84C529.41 319.84 531.596 319.181 534.694 317.765C537.884 316.311 539.641 314.914 539.92 313.614C540.197 312.327 539.032 310.997 537.797 309.588L537.7 309.477C537.312 309.035 536.956 308.604 536.616 308.197C535.17 306.458 534.126 305.203 532.628 305.203V305.203ZM527.814 321.168C524.76 321.168 523.188 319.135 521.524 316.982C519.585 314.473 518.795 312.359 519.174 310.696C519.412 309.655 520.117 308.814 521.214 308.264C524.122 306.811 528.27 304.955 531.195 304.097C531.701 303.947 532.171 303.875 532.628 303.875C534.747 303.875 536.022 305.408 537.637 307.349C537.969 307.749 538.32 308.17 538.699 308.603L538.795 308.713C540.191 310.306 541.635 311.954 541.219 313.891C540.837 315.674 538.939 317.289 535.247 318.975C531.923 320.492 529.632 321.168 527.814 321.168" fill="#100F0D"/>
<path d="M521.86 291.087C521.532 291.087 521.187 291.141 520.801 291.254C517.945 292.094 513.76 293.979 511.043 295.339C510.291 295.714 509.853 296.217 509.703 296.875C509.418 298.114 510.147 299.904 511.809 302.054C513.62 304.398 514.757 305.725 517.046 305.725C518.643 305.725 520.831 305.066 523.928 303.652C527.116 302.196 528.875 300.798 529.155 299.498C529.431 298.212 528.268 296.883 527.035 295.475L526.936 295.361C526.548 294.918 526.191 294.489 525.851 294.082C524.403 292.343 523.358 291.087 521.86 291.087V291.087ZM517.046 307.053C513.994 307.053 512.423 305.02 510.758 302.867C508.818 300.355 508.027 298.24 508.406 296.578C508.645 295.539 509.351 294.698 510.449 294.151C513.346 292.7 517.489 290.844 520.426 289.981C520.934 289.83 521.404 289.759 521.86 289.759C523.981 289.759 525.257 291.291 526.872 293.233C527.205 293.633 527.555 294.054 527.934 294.487L528.034 294.6C529.429 296.192 530.87 297.839 530.453 299.776C530.07 301.557 528.171 303.174 524.48 304.86C521.157 306.376 518.864 307.053 517.046 307.053Z" fill="#100F0D"/>
<path d="M564.688 309.867C564.36 309.867 564.014 309.922 563.629 310.035C560.773 310.875 556.586 312.761 553.869 314.12C553.118 314.496 552.679 314.998 552.529 315.658C552.246 316.895 552.975 318.687 554.637 320.836C556.447 323.18 557.584 324.505 559.872 324.505C561.47 324.505 563.656 323.848 566.754 322.432C569.944 320.975 571.704 319.579 571.983 318.278C572.259 316.991 571.093 315.662 569.859 314.254L569.762 314.142C569.373 313.699 569.013 313.267 568.673 312.858C567.228 311.122 566.184 309.867 564.688 309.867V309.867ZM559.872 325.833C556.822 325.833 555.249 323.8 553.586 321.647C551.646 319.139 550.854 317.024 551.236 315.362C551.472 314.322 552.177 313.481 553.276 312.932C556.173 311.482 560.316 309.626 563.253 308.761C563.762 308.612 564.232 308.539 564.688 308.539C566.807 308.539 568.082 310.07 569.695 312.009C570.028 312.409 570.381 312.833 570.761 313.268L570.858 313.379C572.254 314.971 573.697 316.618 573.28 318.557C572.898 320.339 571 321.955 567.307 323.641C563.983 325.157 561.692 325.833 559.872 325.833" fill="#100F0D"/>
<path d="M553.924 295.752C553.594 295.752 553.248 295.807 552.862 295.92C550.003 296.762 545.817 298.645 543.102 300.002C542.352 300.378 541.914 300.882 541.764 301.542C541.481 302.779 542.209 304.571 543.87 306.72C545.682 309.064 546.817 310.391 549.105 310.391C550.702 310.391 552.89 309.732 555.989 308.315C559.177 306.861 560.936 305.463 561.216 304.163C561.492 302.879 560.326 301.548 559.093 300.139L558.994 300.026C558.605 299.583 558.246 299.151 557.907 298.742C556.463 297.007 555.419 295.752 553.924 295.752V295.752ZM549.105 311.719C546.053 311.719 544.482 309.685 542.82 307.531C540.881 305.024 540.089 302.908 540.469 301.245C540.707 300.204 541.412 299.364 542.509 298.815C545.405 297.367 549.548 295.512 552.488 294.646C552.997 294.497 553.465 294.424 553.924 294.424C556.042 294.424 557.316 295.956 558.926 297.893C559.26 298.293 559.612 298.717 559.993 299.152L560.091 299.265C561.487 300.858 562.931 302.504 562.515 304.442C562.131 306.224 560.233 307.839 556.541 309.523C553.217 311.041 550.923 311.719 549.105 311.719" fill="#100F0D"/>
<path d="M543.156 281.635C542.826 281.635 542.481 281.69 542.096 281.802C539.244 282.642 535.057 284.528 532.336 285.888C531.585 286.263 531.147 286.767 530.996 287.427C530.713 288.665 531.442 290.455 533.102 292.604C534.914 294.949 536.05 296.274 538.34 296.274C539.936 296.274 542.122 295.616 545.221 294.2C548.412 292.744 550.17 291.347 550.449 290.046C550.726 288.76 549.561 287.429 548.326 286.022L548.229 285.909C547.84 285.465 547.48 285.034 547.14 284.623C545.695 282.889 544.651 281.635 543.156 281.635V281.635ZM538.34 297.603C535.287 297.603 533.716 295.569 532.052 293.416C530.113 290.908 529.322 288.793 529.701 287.131C529.939 286.089 530.645 285.249 531.742 284.699C534.644 283.249 538.789 281.392 541.72 280.529C542.229 280.38 542.699 280.307 543.156 280.307C545.274 280.307 546.548 281.837 548.16 283.775C548.493 284.176 548.846 284.599 549.228 285.035L549.326 285.147C550.722 286.739 552.164 288.386 551.747 290.325C551.364 292.107 549.465 293.723 545.773 295.409C542.449 296.927 540.158 297.603 538.34 297.603Z" fill="#100F0D"/>
<path d="M585.982 300.417C585.654 300.417 585.307 300.471 584.924 300.584C582.068 301.425 577.882 303.311 575.165 304.669C574.413 305.045 573.975 305.548 573.823 306.207C573.541 307.446 574.268 309.236 575.93 311.387C577.741 313.729 578.878 315.055 581.166 315.055C582.763 315.055 584.95 314.396 588.05 312.98C591.239 311.525 592.997 310.129 593.276 308.829C593.552 307.543 592.389 306.215 591.158 304.809L591.057 304.693C590.669 304.251 590.31 303.821 589.97 303.413C588.525 301.673 587.48 300.417 585.982 300.417V300.417ZM581.166 316.383C578.114 316.383 576.543 314.351 574.879 312.198C572.94 309.688 572.15 307.574 572.53 305.912C572.766 304.871 573.474 304.03 574.571 303.482C577.469 302.032 581.614 300.174 584.548 299.31C585.056 299.162 585.525 299.089 585.982 299.089C588.102 299.089 589.377 300.621 590.992 302.563C591.325 302.963 591.676 303.384 592.055 303.819L592.156 303.933C593.551 305.526 594.992 307.171 594.575 309.108C594.191 310.89 592.294 312.503 588.602 314.189C585.277 315.707 582.985 316.383 581.166 316.383" fill="#100F0D"/>
<path d="M595.074 314.773C594.746 314.773 594.398 314.829 594.014 314.942C591.174 315.776 587.11 317.598 584.254 319.024C583.504 319.399 583.066 319.902 582.915 320.562C582.633 321.801 583.36 323.592 585.021 325.74C586.832 328.086 587.969 329.411 590.257 329.411C591.853 329.411 594.041 328.752 597.139 327.338C600.329 325.881 602.089 324.484 602.368 323.184C602.643 321.898 601.479 320.569 600.246 319.161L600.147 319.048C599.758 318.605 599.4 318.174 599.06 317.765C597.615 316.028 596.571 314.773 595.074 314.773V314.773ZM590.257 330.739C587.204 330.739 585.634 328.706 583.97 326.553C582.032 324.043 581.241 321.927 581.621 320.266C581.858 319.225 582.564 318.384 583.661 317.836C586.568 316.383 590.715 314.526 593.64 313.668C594.147 313.517 594.617 313.445 595.074 313.445C597.194 313.445 598.467 314.978 600.081 316.917C600.414 317.318 600.765 317.74 601.146 318.174L601.244 318.286C602.64 319.878 604.081 321.525 603.667 323.463C603.284 325.244 601.385 326.86 597.692 328.547C594.369 330.063 592.075 330.739 590.257 330.739" fill="#100F0D"/>
<path d="M617.807 305.441C617.477 305.441 617.132 305.495 616.747 305.608C613.906 306.445 609.841 308.266 606.987 309.691C606.237 310.068 605.797 310.571 605.647 311.23C605.364 312.468 606.092 314.259 607.753 316.409C609.565 318.753 610.701 320.079 612.991 320.079C614.587 320.079 616.773 319.42 619.872 318.004C623.062 316.549 624.822 315.152 625.101 313.85C625.377 312.565 624.211 311.235 622.977 309.829L622.879 309.716C622.491 309.274 622.132 308.843 621.794 308.434C620.349 306.697 619.303 305.441 617.807 305.441ZM612.991 321.407C609.938 321.407 608.367 319.374 606.703 317.221C604.764 314.711 603.972 312.595 604.353 310.934C604.59 309.893 605.296 309.052 606.393 308.503C609.299 307.052 613.447 305.195 616.371 304.335C616.88 304.186 617.35 304.113 617.807 304.113C619.926 304.113 621.201 305.645 622.815 307.586C623.147 307.985 623.499 308.408 623.877 308.842L623.976 308.954C625.371 310.545 626.815 312.191 626.398 314.129C626.016 315.911 624.118 317.528 620.424 319.213C617.102 320.731 614.809 321.407 612.991 321.407Z" fill="#100F0D"/>
<path d="M575.217 286.302C574.889 286.302 574.542 286.356 574.158 286.469C571.312 287.306 567.25 289.127 564.398 290.553C563.645 290.927 563.207 291.431 563.057 292.091C562.774 293.329 563.502 295.12 565.163 297.27C566.976 299.614 568.113 300.94 570.401 300.94C571.997 300.94 574.185 300.28 577.283 298.867C580.471 297.41 582.229 296.014 582.508 294.712C582.784 293.427 581.622 292.099 580.391 290.692L580.289 290.575C579.9 290.132 579.542 289.702 579.202 289.293C577.756 287.555 576.712 286.302 575.217 286.302V286.302ZM570.401 302.268C567.349 302.268 565.777 300.235 564.113 298.082C562.172 295.573 561.382 293.457 561.762 291.795C562 290.753 562.706 289.914 563.803 289.366C566.708 287.914 570.854 286.056 573.784 285.195C574.291 285.047 574.759 284.974 575.217 284.974C577.335 284.974 578.61 286.504 580.224 288.443C580.557 288.844 580.908 289.266 581.287 289.702L581.391 289.817C582.783 291.409 584.224 293.055 583.808 294.991C583.424 296.774 581.526 298.39 577.836 300.075C574.512 301.592 572.219 302.268 570.401 302.268" fill="#100F0D"/>
<path d="M564.45 272.186C564.122 272.186 563.775 272.24 563.391 272.353C560.544 273.191 556.483 275.012 553.63 276.437C552.88 276.814 552.441 277.316 552.29 277.976C552.008 279.213 552.735 281.004 554.396 283.154C556.209 285.498 557.345 286.824 559.632 286.824C561.228 286.824 563.415 286.165 566.515 284.748C569.705 283.294 571.463 281.898 571.742 280.596C572.019 279.311 570.855 277.981 569.621 276.575L569.522 276.459C569.134 276.017 568.775 275.587 568.437 275.178C566.991 273.441 565.945 272.186 564.45 272.186V272.186ZM559.632 288.152C556.582 288.152 555.01 286.119 553.346 283.966C551.407 281.456 550.617 279.34 550.997 277.68C551.234 276.639 551.939 275.798 553.036 275.25C555.94 273.798 560.087 271.941 563.017 271.079C563.523 270.931 563.992 270.858 564.45 270.858C566.567 270.858 567.842 272.389 569.457 274.328C569.789 274.728 570.141 275.151 570.521 275.586L570.621 275.7C572.016 277.292 573.457 278.939 573.04 280.877C572.657 282.658 570.76 284.273 567.068 285.957C563.742 287.475 561.45 288.152 559.632 288.152Z" fill="#100F0D"/>
<path d="M607.278 290.968C606.95 290.968 606.602 291.023 606.218 291.136C603.366 291.974 599.178 293.86 596.457 295.22C595.706 295.596 595.268 296.099 595.117 296.758C594.835 297.996 595.563 299.786 597.224 301.936C599.036 304.279 600.171 305.604 602.461 305.604C604.057 305.604 606.243 304.946 609.342 303.531C612.532 302.076 614.29 300.678 614.57 299.378C614.846 298.094 613.682 296.765 612.449 295.357L612.35 295.243C611.962 294.8 611.605 294.369 611.266 293.962C609.82 292.224 608.774 290.968 607.278 290.968V290.968ZM602.461 306.932C599.407 306.932 597.836 304.9 596.174 302.748C594.233 300.238 593.443 298.123 593.822 296.462C594.061 295.421 594.766 294.58 595.863 294.031C598.766 292.581 602.912 290.723 605.843 289.863C606.351 289.711 606.819 289.639 607.278 289.639C609.396 289.639 610.671 291.172 612.286 293.112C612.618 293.512 612.97 293.933 613.348 294.367L613.448 294.482C614.842 296.074 616.285 297.721 615.868 299.658C615.485 301.439 613.587 303.053 609.894 304.74C606.571 306.256 604.279 306.932 602.461 306.932" fill="#100F0D"/>
<path d="M596.507 276.85C596.179 276.85 595.834 276.906 595.449 277.017C592.613 277.853 588.547 279.675 585.69 281.102C584.938 281.478 584.501 281.98 584.351 282.64C584.068 283.878 584.797 285.67 586.459 287.82C588.268 290.163 589.404 291.489 591.691 291.489C593.29 291.489 595.476 290.829 598.575 289.415C601.764 287.959 603.523 286.562 603.803 285.263C604.08 283.978 602.915 282.647 601.683 281.241L601.583 281.126C601.196 280.684 600.838 280.254 600.499 279.847C599.052 278.108 598.006 276.85 596.507 276.85V276.85ZM591.691 292.817C588.641 292.817 587.07 290.784 585.408 288.631C583.468 286.12 582.676 284.007 583.055 282.345C583.293 281.303 583.998 280.464 585.096 279.915C588.005 278.462 592.154 276.602 595.074 275.744C595.583 275.595 596.051 275.522 596.507 275.522C598.629 275.522 599.906 277.056 601.52 278.999C601.852 279.397 602.202 279.818 602.582 280.251L602.681 280.364C604.076 281.958 605.518 283.605 605.101 285.542C604.717 287.324 602.819 288.938 599.127 290.623C595.803 292.141 593.511 292.817 591.691 292.817" fill="#100F0D"/>
<path d="M585.742 262.734C585.414 262.734 585.067 262.79 584.683 262.903C581.827 263.743 577.639 265.628 574.923 266.986C574.173 267.362 573.735 267.866 573.585 268.524C573.302 269.763 574.029 271.554 575.691 273.703C577.502 276.047 578.638 277.373 580.928 277.373C582.524 277.373 584.711 276.713 587.81 275.299C590.998 273.843 592.757 272.445 593.036 271.146C593.312 269.86 592.15 268.532 590.919 267.127L590.818 267.01C590.43 266.568 590.073 266.138 589.733 265.73C588.285 263.992 587.24 262.734 585.742 262.734V262.734ZM580.928 278.701C577.874 278.701 576.303 276.667 574.64 274.514C572.701 272.005 571.91 269.891 572.288 268.23C572.527 267.188 573.233 266.348 574.33 265.799C577.227 264.349 581.371 262.492 584.309 261.629C584.816 261.479 585.285 261.406 585.742 261.406C587.863 261.406 589.139 262.94 590.753 264.88C591.086 265.28 591.437 265.701 591.816 266.136L591.919 266.252C593.31 267.843 594.751 269.489 594.334 271.425C593.952 273.207 592.054 274.822 588.362 276.507C585.038 278.025 582.746 278.701 580.928 278.701" fill="#100F0D"/>
<path d="M390.995 154.444C383.28 157.411 374.247 160.902 375.923 169.757C378.157 181.565 386.926 214.978 391.951 235.794C396.974 256.609 404.871 283.404 406.546 289.867C408.223 296.325 409.178 303.98 418.269 300.154C427.363 296.325 552.017 242.968 562.785 237.467C573.553 231.962 576.902 231.248 574.749 222.633C572.595 214.017 560.393 144.154 556.804 127.168C553.216 110.179 551.298 105.634 536.705 109.941C522.111 114.247 406.546 148.46 390.995 154.444" fill="#A5D9E2"/>
<path d="M519.236 237.471C517.396 238.545 509.503 242.207 499.237 246.831C497.818 247.477 496.351 248.122 494.859 248.797C489.289 251.296 483.218 253.966 477.157 256.619C467.613 260.799 458.064 264.918 450.442 268.106C444.24 270.705 439.317 272.686 436.69 273.591C424.258 277.898 419.951 274.308 416.361 262.593C412.773 250.865 396.982 195.595 394.582 186.021C392.186 176.458 397.238 173.159 407.504 169.281C416.361 165.921 469.709 149.183 486.461 143.672C503.214 138.172 503.214 145.824 505.366 153.003C505.596 153.748 505.943 154.97 506.386 156.576C509.174 166.626 515.82 191.605 520.283 208.086C520.598 209.233 520.901 210.337 521.188 211.402C521.333 211.961 521.475 212.49 521.619 213.009C521.646 213.11 521.677 213.21 521.703 213.311C521.963 214.243 522.192 215.105 522.407 215.938C523.098 218.364 523.642 220.331 524.03 221.68C527.131 232.447 524.977 234.112 519.236 237.471" fill="white"/>
<path d="M499.237 246.831C497.818 247.477 496.351 248.122 494.859 248.797C492.763 244.835 488.127 232.318 486.046 227.264C485.872 226.819 485.716 226.416 485.57 226.103L489.333 223.416C489.333 223.416 489.735 224.394 490.38 225.958C492.504 231.083 497.243 242.495 499.237 246.831" fill="#FDE4AB"/>
<path d="M521.62 213.009C517.785 216.27 472.989 232.511 472.285 230.228C471.566 227.889 466.19 185.904 465.286 179.257C464.382 172.626 464.569 171.908 469.779 170.114C474.919 168.333 496.035 159.549 506.387 156.577" fill="white"/>
<path d="M472.898 231.098C472.659 231.098 472.467 231.078 472.324 231.037C471.862 230.901 471.704 230.594 471.652 230.423C471.119 228.696 468.352 207.739 465.798 188.231C465.253 184.068 464.83 180.83 464.629 179.348C463.698 172.532 463.936 171.424 469.562 169.485C471.179 168.925 474.364 167.677 478.395 166.096C487.135 162.67 499.106 157.976 506.203 155.939C506.551 155.838 506.923 156.041 507.024 156.393C507.126 156.747 506.922 157.114 506.57 157.215C499.532 159.235 487.596 163.916 478.879 167.333C474.834 168.918 471.639 170.172 469.997 170.741C465.215 172.389 465.063 172.703 465.944 179.169C466.146 180.652 466.571 183.892 467.115 188.059C468.896 201.667 472.162 226.626 472.861 229.793C476.822 230.195 517.306 215.806 521.188 212.503C521.469 212.266 521.886 212.297 522.126 212.579C522.362 212.858 522.329 213.278 522.05 213.514C518.496 216.537 479.295 231.098 472.898 231.098" fill="#100F0D"/>
<path d="M477.157 256.619C467.613 260.799 458.064 264.919 450.442 268.106C447.959 261.733 443.993 248.952 443.633 243.09C452.247 236.815 465.645 236.337 465.645 236.337C465.645 236.337 474.76 248.209 477.157 256.619" fill="#100F0D"/>
<path d="M426.885 243.149C426.168 247.276 420.602 252.838 423.295 256.069C425.987 259.299 429.936 254.633 430.654 250.327C430.293 258.043 434.781 253.557 432.807 244.764C430.293 241.534 426.885 243.149 426.885 243.149" fill="#F7925B"/>
<path d="M471.566 195.956C471.926 190.572 473.542 187.521 475.695 188.057C477.847 188.598 475.155 191.469 475.155 191.469C479.464 189.314 483.052 186.983 483.769 189.853C484.487 192.724 478.387 197.03 476.772 198.107C475.155 199.185 471.566 195.956 471.566 195.956" fill="#F7925B"/>
<path d="M423.177 244.644C422.938 245.841 431.911 246.798 433.705 247.157C435.5 247.515 437.413 232.382 437.771 230.053C439.089 241.176 440.226 246.32 441.481 246.32C442.736 246.32 468.156 237.228 467.977 235.255C467.799 233.28 460.8 219.461 460.8 219.461C468.156 222.334 477.31 220.717 478.387 198.825C474.797 196.493 471.208 195.415 470.669 195.775C470.13 196.135 468.696 209.234 465.107 209.414C461.519 209.592 453.263 202.774 444.11 205.824C434.96 208.874 425.33 216.055 423.177 244.644" fill="#01AB71"/>
<path d="M439.445 208.696C438.729 205.645 438.729 202.774 437.293 202.595C435.858 202.414 428.185 200.711 427.287 191.378C426.392 182.047 439.625 177.47 442.855 181.778C446.085 186.085 448.598 193.441 445.368 198.646C442.855 201.876 444.829 203.132 445.368 206.182C445.906 209.234 440.341 210.669 439.445 208.696" fill="#F7925B"/>
<path d="M485.744 173.704C487.896 176.394 490.23 177.652 490.23 179.446C490.41 183.393 477.847 198.466 495.253 203.132C508.539 206.694 510.685 194.698 510.328 187.879C509.968 181.06 496.509 178.728 497.227 177.47C498.305 170.832 498.664 169.934 497.407 169.934C496.151 169.934 486.281 172.267 485.744 173.704Z" fill="#FDE4AB"/>
<path d="M482.334 209.592C487.538 206.542 499.739 193.084 502.431 191.469C505.123 189.853 508.533 202.774 500.818 209.414C493.1 216.052 483.769 213.72 482.334 209.592Z" fill="#F5793B"/>
<path d="M510.507 140.924C513.737 139.848 530.484 134.345 531.803 133.865C533.118 133.386 533.595 137.695 533.953 140.446C534.313 143.198 534.195 143.557 530.723 144.753C527.256 145.948 515.533 149.779 513.737 150.138C511.944 150.495 511.583 149.417 511.105 147.384C510.626 145.352 509.312 141.522 510.507 140.924" fill="#FDE4AB"/>
<path d="M550.463 133.508C551.313 128.671 541.491 126.211 540.057 133.508C538.62 140.804 549.267 140.327 550.463 133.508Z" fill="#D0F0FA"/>
<path d="M516.607 161.087C519.168 161.144 521.418 160.336 523.727 159.295C527.023 157.809 530.265 156.278 533.605 154.877C536.975 153.462 540.332 151.927 543.841 150.884C547.091 149.919 550.354 149.329 553.371 147.717C554.127 147.315 553.456 146.167 552.702 146.571C549.805 148.118 546.63 148.756 543.488 149.604C540.711 150.355 538.028 151.576 535.384 152.695C532.516 153.906 529.577 154.99 526.761 156.314C523.471 157.86 520.373 159.844 516.607 159.759C515.751 159.739 515.753 161.067 516.607 161.087" fill="#100F0D"/>
<path d="M520.173 169.431C527.057 166.334 534.373 164.41 541.369 161.602C542.154 161.287 541.812 160.002 541.016 160.322C533.914 163.172 526.492 165.139 519.504 168.285C518.723 168.636 519.399 169.78 520.173 169.431" fill="#100F0D"/>
<path d="M545.675 160.526C549.026 159.771 552.331 158.875 555.545 157.654C556.337 157.354 555.994 156.069 555.192 156.375C551.978 157.594 548.674 158.49 545.322 159.246C544.486 159.433 544.841 160.714 545.675 160.526" fill="#100F0D"/>
<path d="M522.684 177.864C526.08 175.657 530.33 175.532 533.989 173.917C534.771 173.572 534.095 172.429 533.32 172.771C529.648 174.392 525.436 174.494 522.016 176.717C521.299 177.182 521.965 178.332 522.684 177.864Z" fill="#100F0D"/>
<path d="M525.756 187.443C531.373 186.481 536.603 184.303 541.901 182.283C547.72 180.062 553.742 178.551 559.673 176.676C560.486 176.418 560.139 175.135 559.32 175.396C553.76 177.153 548.095 178.544 542.631 180.599C536.968 182.727 531.399 185.136 525.403 186.162C524.561 186.307 524.918 187.586 525.756 187.443Z" fill="#100F0D"/>
<path d="M526.633 195.271C530.01 193.772 533.632 193.038 537.102 191.806C540.851 190.477 544.376 188.639 548.189 187.442C549.003 187.187 548.655 185.905 547.836 186.162C544.019 187.36 540.452 189.041 536.749 190.525C533.22 191.941 529.454 192.575 525.964 194.125C525.181 194.472 525.859 195.615 526.633 195.271Z" fill="#100F0D"/>
<path d="M529.819 204.14C532.119 202.213 535.422 201.968 538.199 201.074C541.28 200.083 544.303 198.912 547.291 197.67C548.071 197.347 547.73 196.062 546.938 196.39C543.33 197.888 539.661 199.331 535.896 200.387C533.368 201.095 530.943 201.474 528.879 203.201C528.221 203.751 529.166 204.686 529.819 204.14Z" fill="#100F0D"/>
<path d="M531.119 211.421C533.701 209.706 536.713 209.143 539.642 208.28C542.664 207.389 545.559 206.25 548.521 205.194C554.038 203.225 559.507 201.07 564.495 197.964C565.222 197.513 564.555 196.363 563.826 196.818C558.221 200.305 552.068 202.213 546.032 204.741C541.015 206.843 535.016 207.24 530.45 210.275C529.741 210.746 530.405 211.898 531.119 211.421Z" fill="#100F0D"/>
<path d="M532.913 223.804C538.72 220.824 545.02 219 550.858 216.088C551.625 215.705 550.954 214.56 550.189 214.942C544.35 217.853 538.05 219.678 532.244 222.658C531.48 223.05 532.152 224.194 532.913 223.804Z" fill="#100F0D"/>
<path d="M568.268 377.802C567.562 377.802 566.973 377.646 566.474 377.339C565.038 376.453 564.653 374.454 564.516 371.726L565.843 371.66C565.944 373.657 566.174 375.591 567.173 376.207C568.03 376.743 569.639 376.472 572.092 375.391C577.631 372.952 583.685 370.2 586.584 368.269C589.281 366.471 590.334 365.244 589.879 360.27L591.201 360.15C591.694 365.536 590.462 367.281 587.319 369.374C584.345 371.356 578.5 374.021 572.626 376.607C570.807 377.408 569.389 377.802 568.268 377.802Z" fill="#100F0D"/>
<path d="M444.291 180.522C444.11 176.215 433.48 176.721 427.244 184.155C426.193 185.408 425.942 187.521 426.623 189.083C426.534 189.222 425.449 190.032 425.314 191.961C425.001 196.718 428.333 203.221 433.839 201.427C433.897 200.783 432.448 198.465 432.448 198.465C428.14 199.318 428.14 192.949 431.686 195.058C433.86 195.528 430.14 189.785 432.985 187.162C437.652 182.854 444.471 184.829 444.291 180.522" fill="#100F0D"/>
<path d="M602.463 216.696C599.952 224.08 600.462 235.957 613.267 241.424C626.075 246.893 668.517 245.333 678.807 236.227C686.843 229.118 684.193 217.905 679.307 208.886C671.021 193.573 610.383 193.873 602.463 216.696" fill="#FDE4AB"/>
<path d="M732.684 399.171C737.744 393.073 752.123 372.736 740.132 350.55C726.255 347.679 718.838 340.502 716.444 339.784C714.051 339.068 706.116 346.672 695.151 348.399C660.218 353.9 657.283 370.576 657.183 370.64C648.856 367.195 636.446 366.959 617.151 378.067C585.569 396.249 580.066 400.078 576.238 403.189C576.772 404.043 577.741 405.481 579.015 407.318C577.111 408.703 574.569 409.187 574.802 410.367C575.031 411.509 598.413 448.91 605.915 455.978C607.219 457.759 608.364 459.196 609.254 460.133C614.279 465.397 663.328 448.168 680.794 440.035C698.262 431.9 737.498 412.759 735.344 406.539C734.582 404.335 733.668 401.713 732.684 399.171" fill="white"/>
<path d="M577.117 403.332C577.67 404.185 578.504 405.416 579.562 406.939C579.767 407.236 579.698 407.642 579.405 407.854C578.652 408.403 577.828 408.808 577.099 409.165C576.508 409.456 575.405 409.998 575.453 410.238C576.029 411.776 598.899 448.456 606.371 455.495C607.789 457.414 608.895 458.79 609.735 459.674C610.011 459.964 610.833 460.45 613.218 460.45C626.017 460.451 665.061 446.629 680.513 439.433C714.787 423.471 736.063 410.646 734.717 406.756C733.943 404.518 733.035 401.92 732.065 399.411C731.978 399.187 732.019 398.933 732.173 398.747C736.877 393.078 751.272 372.942 739.692 351.136C729.604 348.988 722.81 344.527 719.143 342.12C717.838 341.263 716.806 340.584 716.253 340.418C716.211 340.406 716.155 340.398 716.09 340.398C715.231 340.398 713.423 341.433 711.327 342.628C707.354 344.898 701.911 348.007 695.255 349.055C663.98 353.979 658.617 367.949 657.86 370.698C657.815 370.858 657.678 371.111 657.539 371.2C657.358 371.317 657.129 371.336 656.928 371.254C653.652 369.896 650.055 369.21 646.244 369.21C638.029 369.21 628.353 372.382 617.481 378.642C587.037 396.172 580.86 400.348 577.117 403.332ZM613.22 461.778C613.218 461.778 613.218 461.778 613.217 461.778C610.991 461.778 609.537 461.39 608.775 460.591C607.894 459.664 606.752 458.244 605.38 456.37C597.818 449.261 574.412 411.794 574.15 410.498C573.905 409.254 575.172 408.631 576.514 407.972C577.015 407.728 577.566 407.457 578.084 407.14C576.979 405.541 576.152 404.304 575.675 403.539C575.497 403.256 575.559 402.884 575.818 402.673C579.593 399.608 585.009 395.806 616.82 377.49C627.895 371.114 637.794 367.882 646.244 367.882C649.971 367.882 653.507 368.512 656.763 369.758C658.146 365.722 664.904 352.489 695.048 347.743C701.464 346.732 706.785 343.695 710.669 341.475C713.504 339.855 715.422 338.79 716.636 339.146C717.374 339.369 718.368 340.021 719.872 341.009C723.757 343.559 730.258 347.829 740.266 349.901C740.459 349.939 740.623 350.063 740.715 350.235C752.751 372.501 738.537 393.053 733.442 399.295C734.368 401.71 735.231 404.181 735.972 406.323C738.128 412.55 707.309 428.419 681.074 440.636C665.125 448.063 626.414 461.778 613.22 461.778" fill="#100F0D"/>
<path d="M578.443 407.652C581.793 413.715 586.718 419.013 590.79 424.587C595.855 431.522 600.783 438.586 605.332 445.872C605.785 446.597 606.934 445.931 606.478 445.204C602.149 438.267 597.475 431.528 592.668 424.919C588.366 419.007 583.129 413.386 579.589 406.983C579.176 406.234 578.027 406.903 578.443 407.652" fill="#100F0D"/>
<path d="M656.713 371.109C663.062 377.35 668.881 384.062 674.577 390.896C680.338 397.81 686.804 404.58 691.706 412.137C692.171 412.853 693.321 412.188 692.852 411.468C688.093 404.129 681.864 397.608 676.289 390.887C670.352 383.73 664.288 376.692 657.652 370.17C657.041 369.57 656.101 370.509 656.713 371.109Z" fill="#100F0D"/>
<path d="M311.451 337.214C310.002 342.612 311.309 348.359 312.928 353.564C315.418 361.575 319.445 369.118 323.695 376.311C333.556 392.992 346.111 408.195 357.635 423.745C367.462 437.004 377.246 450.33 387.691 463.113C395.087 472.162 402.989 480.817 410.849 489.462C420.026 499.554 429.313 509.552 438.799 519.353C444.59 525.334 450.375 531.829 457.451 536.336C480.229 550.843 508.851 533.829 529.925 523.953C555.289 512.067 580.551 499.954 605.761 487.745C606.533 487.372 605.858 486.225 605.092 486.597C587.42 495.156 569.714 503.643 551.981 512.072C539.02 518.233 526.045 524.362 513.007 530.359C499.41 536.613 483.761 542.874 468.534 539.529C460.079 537.672 453.621 532.259 447.603 526.366C438.866 517.806 430.521 508.826 422.202 499.861C413.133 490.085 404.152 480.219 395.402 470.157C386.245 459.629 377.803 448.525 369.43 437.371C356.93 420.715 344.105 404.167 332.212 387.072C326.293 378.567 320.922 369.594 316.787 360.079C313.874 353.374 310.753 344.938 312.732 337.567C312.955 336.738 311.673 336.388 311.451 337.214" fill="#100F0D"/>
<path d="M815.912 377.197C822.677 377.274 829.635 374.258 835.793 371.805C845.581 367.906 855.078 363.265 864.454 358.474C879.752 350.653 895.539 342.611 909.624 332.7C910.318 332.21 909.655 331.058 908.954 331.552C895.288 341.167 880.003 348.954 865.193 356.602C855.863 361.421 846.399 366.034 836.679 370.023C830.314 372.635 822.94 375.948 815.912 375.869C815.055 375.858 815.057 377.186 815.912 377.197" fill="#100F0D"/>
<path d="M716.685 381.418C710.941 380.938 698.021 384.764 692.041 382.372C686.059 379.981 693.475 375.196 700.893 375.914C708.311 376.633 714.771 372.565 706.157 370.409C697.545 368.258 681.752 370.648 689.649 362.993C691.563 358.688 696.348 357.251 698.501 357.73C701.611 349.117 724.342 361.56 732.955 360.84C739.416 372.085 739.415 379.742 716.685 381.418" fill="#F5793B"/>
<path d="M717.714 220.08C706.848 225.831 698.332 241.597 696.838 250.545C695.347 259.492 695.891 262.751 693.23 262.944C689.205 263.236 685.67 262.832 684.713 265.282C682.965 269.738 690.233 270.143 690.02 275.683C689.804 281.221 685.333 301.034 689.381 313.814C693.429 326.597 700.886 332.989 711.537 334.905C722.188 336.823 727.301 330.642 728.367 341.935C729.43 353.228 731.774 375.383 731.774 375.383L775.019 365.156L766.713 329.369C766.713 329.369 786.312 211.985 717.714 220.08Z" fill="#F7925B"/>
<path d="M729.586 359.135C729.985 366.183 731.256 373.49 730.424 380.54C730.324 381.39 731.654 381.38 731.752 380.54C732.585 373.49 731.314 366.183 730.914 359.135C730.866 358.284 729.538 358.278 729.586 359.135Z" fill="#100F0D"/>
<path d="M715.385 221.486C718.58 221.486 726.447 223.916 726.874 229.242C722.188 239.678 724.319 248.415 732.627 254.165C740.934 259.917 745.835 265.244 735.61 274.405C725.384 283.565 725.171 295.069 737.526 303.162C749.883 311.259 752.866 314.028 747.75 324.681C742.638 335.332 735.577 345.105 745.922 357.521C755.976 350.132 765.862 349.392 775.019 350.245C784.18 351.096 789.934 350.245 795.473 339.38C801.011 328.514 812.729 333.203 821.887 335.971C831.049 338.74 835.735 335.332 840.208 324.681C844.684 314.028 853.206 315.732 859.381 314.241C865.561 312.749 867.691 296.561 873.228 294.216C864.707 287.185 860.501 292.999 855.6 287.459C850.701 281.919 857.096 270.212 850.279 262.331C843.464 254.449 833.046 263.928 830.49 257.323C827.934 250.719 841.913 243.728 827.425 227.323C812.942 210.918 801.862 223.699 792.276 211.345C782.69 198.989 737.331 196.35 715.385 221.486" fill="#100F0D"/>
<path d="M707.489 239.631C711.383 239.593 714.662 242.94 715.864 246.441C716.111 247.158 717.253 246.85 717.005 246.128C715.633 242.13 711.93 238.406 707.489 238.447C706.728 238.455 706.727 239.637 707.489 239.631" fill="#100F0D"/>
<path d="M690.632 288.888C692.56 290.54 695.179 291.646 697.772 291.209C700.836 290.695 702.894 288.66 705.174 286.708C705.753 286.213 704.914 285.379 704.338 285.871C700.476 289.181 696.205 292.113 691.469 288.051C690.894 287.557 690.054 288.389 690.632 288.888Z" fill="#100F0D"/>
<path d="M709.588 262.524C709.197 265.055 707.654 266.913 706.144 266.681C704.628 266.446 703.724 264.208 704.114 261.68C704.504 259.148 706.047 257.29 707.558 257.522C709.07 257.755 709.977 259.995 709.588 262.524Z" fill="#100F0D"/>
<path d="M670.023 413.959C668.357 414.908 662.846 413.242 657.101 410.602C657.031 410.501 656.929 410.384 656.815 410.241C652.565 405.361 620.078 373.019 613.805 363.945C613.777 363.888 613.732 363.828 613.719 363.773C609.986 356.896 625.32 350.107 629.109 353.897C632.942 357.727 664.28 398.643 666.676 401.04C667.023 401.384 667.368 401.874 667.711 402.461C669.735 405.992 671.457 413.141 670.023 413.959" fill="#100F0D"/>
<path d="M613.719 363.773C609.986 356.896 625.32 350.107 629.109 353.897C631.635 358.949 618.973 369.283 613.719 363.773Z" fill="#FDE4AB"/>
<path d="M670.023 413.959C668.357 414.908 662.846 413.242 657.101 410.602C657.032 410.501 656.929 410.384 656.815 410.241C662.313 411.103 666.821 407.113 667.711 402.461C669.735 405.992 671.457 413.141 670.023 413.959Z" fill="#FDE4AB"/>
<path d="M620.262 415.153C620.501 405.822 624.244 388.406 632.62 385.058C636.125 388.638 638.392 391.083 638.392 391.083C636.48 397.062 642.037 401.276 646.821 398.883C651.606 396.491 653.516 390.269 659.022 389.549C664.526 388.833 662.134 394.576 658.305 401.273C654.476 407.975 649.216 415.394 642.037 417.068C634.378 418.742 621.22 418.981 620.262 415.153" fill="#F7925B"/>
<path d="M647.059 448.411C647.777 437.404 645.861 421.612 644.427 415.87C642.992 410.129 631.983 402.952 618.825 415.153C605.667 427.356 591.788 496.024 604.948 514.207C618.108 532.393 644.071 531.256 659.863 516.644C682.662 495.545 706.196 473.015 708.35 471.817C710.501 470.619 704.492 535.016 708.56 543.87C738.467 551.766 866.4 532.15 868.795 529.04C871.189 525.932 874.524 501.539 853.23 451.293C872.135 449.577 882.469 437.157 867.265 407.299C854.943 383.099 836.974 370.113 809.936 362.754C772.533 352.573 740.374 360.84 709.746 385.245C679.12 409.65 651.124 442.432 647.059 448.411" fill="#27AE60"/>
<path d="M690.558 363.919C693.758 362.453 697.408 363.148 700.719 363.73C704.067 364.319 707.394 365.095 710.306 366.915C711.034 367.37 711.701 366.222 710.975 365.769C707.368 363.514 703.181 362.806 699.048 362.099C696.012 361.581 692.75 361.461 689.888 362.773C689.11 363.13 689.786 364.273 690.558 363.919" fill="#100F0D"/>
<path d="M695.207 359.266C699.329 358.463 702.722 358.43 706.801 359.568C709.858 360.42 713.516 361.711 716.23 363.326C716.967 363.766 717.634 362.617 716.9 362.18C713.639 360.24 709.638 358.981 705.997 357.964C702.094 356.876 698.762 357.222 694.854 357.985C694.013 358.148 694.37 359.428 695.207 359.266Z" fill="#100F0D"/>
<path d="M625.261 475.244C628.842 468.483 634.972 463.404 639.773 457.528C641.955 454.855 644.06 452.149 646.429 449.634C649.075 446.825 652.1 444.428 654.585 441.461C655.131 440.81 654.197 439.865 653.646 440.522C651.165 443.484 648.188 445.942 645.49 448.695C642.801 451.442 640.501 454.545 638.075 457.516C633.425 463.208 627.592 468.006 624.114 474.574C623.714 475.33 624.86 476 625.261 475.244" fill="#100F0D"/>
<path d="M836.4 412.136C841.069 418.99 843.765 427.983 846.866 435.699C849.503 442.266 852.959 449.122 854.497 456.061C854.683 456.897 855.963 456.543 855.778 455.709C854.19 448.544 850.605 441.468 847.882 434.688C844.812 427.053 842.173 418.258 837.546 411.467C837.068 410.763 835.917 411.427 836.4 412.136Z" fill="#100F0D"/>
<path d="M617.509 360.241C619.124 363.471 626.482 359.343 624.505 356.651C622.533 353.961 615.534 358.268 617.509 360.241Z" fill="#100F0D"/>
<path d="M669.763 407.626C668.808 410.156 666.578 413.108 664.574 413.479C667.122 414.221 669.13 414.467 670.023 413.959C670.901 413.46 670.595 410.587 669.763 407.626" fill="#100F0D"/>
<path d="M693.596 403.199C704.67 400.036 713.163 407.523 719.467 415.815C726.388 424.913 728.193 435.979 726.603 447.113C726.485 447.95 727.764 448.311 727.884 447.467C729.595 435.472 727.535 423.787 719.864 414.161C713.175 405.764 704.522 398.697 693.243 401.918C692.421 402.153 692.771 403.433 693.596 403.199" fill="#100F0D"/>
<path d="M714.735 398.84C716.75 393.804 721.583 389.982 725.102 385.967C728.742 381.814 732.842 378.646 737.141 375.229C737.812 374.696 736.865 373.764 736.202 374.29C731.266 378.213 726.91 381.953 722.7 386.686C719.386 390.412 715.347 393.759 713.454 398.488C713.136 399.283 714.42 399.625 714.735 398.84Z" fill="#100F0D"/>
<path d="M706.882 473.66C708.979 471.355 711.473 469.526 713.904 467.594C716.841 465.258 719.581 462.685 722.486 460.308C723.148 459.765 722.203 458.83 721.547 459.369C718.907 461.53 716.329 463.779 713.748 466.011C711.137 468.267 708.279 470.153 705.943 472.721C705.368 473.354 706.304 474.297 706.882 473.66" fill="#100F0D"/>
<path d="M721.951 475.805C721.951 484.508 721.856 493.219 721.975 501.922C722.09 510.489 722.907 519.028 722.947 527.6C722.951 528.455 724.279 528.455 724.275 527.6C724.235 519.028 723.486 510.486 723.303 501.922C723.115 493.223 723.279 484.504 723.279 475.805C723.279 474.948 721.951 474.948 721.951 475.805Z" fill="#100F0D"/>
<path d="M640.95 212.529C635.041 193.565 628.126 174.851 621.486 156.135C615.135 138.233 607.723 120.429 602.911 102.037C602.765 101.482 602.632 100.922 602.547 100.355C602.298 98.666 599.738 99.3871 599.987 101.062C600.493 104.474 601.837 107.86 602.897 111.125C604.751 116.838 606.715 122.518 608.691 128.19C611.719 136.883 614.862 145.53 617.978 154.19C624.846 173.279 631.554 192.457 637.903 211.725C638.068 212.227 638.231 212.731 638.391 213.234C638.897 214.865 641.463 214.169 640.95 212.529" fill="#100F0D"/>
<path d="M584.374 74.2026C588.919 71.3313 595.38 69.6566 599.685 72.0485C603.991 74.4404 612.367 84.7276 609.254 95.2566C606.145 105.784 595.617 102.435 591.309 99.8026C587.005 97.1704 578.152 79.4658 584.374 74.2026" fill="#01AB71"/>
<path d="M597.993 77.0553C601.453 73.6819 605.808 70.9886 609.691 68.1452C617.088 62.7293 624.539 57.3851 631.993 52.0489C643.917 43.5147 655.895 35.0588 667.829 26.5392C669.21 25.5538 667.885 23.2482 666.487 24.2469C654.357 32.906 642.182 41.5026 630.064 50.1776C622.653 55.482 615.25 60.8009 607.897 66.185C603.983 69.0496 599.6 71.7775 596.114 75.1774C594.887 76.3753 596.766 78.2519 597.993 77.0553" fill="#100F0D"/>
<path d="M687.734 57.9338C680.185 58.8448 668.354 61.2832 668.593 74.4431C668.832 87.6017 669.788 88.3189 665.004 91.4292C660.219 94.5396 641.556 112.006 645.386 130.189C649.213 148.376 679.359 156.748 707.353 149.571C735.346 142.393 742.047 130.189 740.133 119.424C738.217 108.656 730.083 91.1889 718.838 87.6017C708.311 84.2496 709.507 83.5338 708.071 73.4842C706.634 63.436 701.613 56.2591 687.734 57.9338" fill="#A5D9E2"/>
<path d="M675.687 28.3761C679.006 40.2265 684.561 51.4952 687.17 63.5475C687.531 65.2222 690.091 64.5117 689.73 62.8423C687.122 50.7887 681.567 39.52 678.246 27.6709C677.787 26.024 675.224 26.7239 675.687 28.3761" fill="#100F0D"/>
<path d="M584.851 76.3023C589.236 76.0526 592.689 82.0064 594.378 85.3492C595.692 87.9522 599.202 98.3165 594.245 99.4029C593.409 99.5861 593.765 100.866 594.599 100.683C599.794 99.545 597.794 91.1356 596.774 87.7795C595.342 83.0715 590.715 74.6396 584.851 74.9742C583.999 75.0234 583.994 76.3514 584.851 76.3023Z" fill="#100F0D"/>
<path d="M604.357 218.723C606.841 235.368 629.935 234.95 642.688 234.366C651.962 233.94 661.943 232.808 670.667 229.487C677.068 227.051 679.901 221.138 680.225 214.627C680.269 213.77 678.941 213.776 678.897 214.627C678.496 222.702 674.226 227.256 666.627 229.362C658.431 231.633 650.003 232.702 641.525 233.091C633.861 233.442 626.552 233.316 619.125 231.22C615.481 230.192 611.868 228.724 609.031 226.16C606.764 224.112 606.068 221.25 605.638 218.371C605.513 217.525 604.232 217.886 604.357 218.723" fill="#100F0D"/>
<path d="M666.919 22.0452C668.272 28.8131 671.703 32.3298 677.445 29.7002C683.188 27.0693 679.837 21.324 677.206 18.215C674.575 15.1033 665.724 16.0636 666.919 22.0452" fill="#FDE4AB"/>
<path d="M668.449 19.2666C672.003 17.7128 677.857 24.6772 675.301 27.7956C674.763 28.4516 675.696 29.3972 676.241 28.7345C679.813 24.3757 672.768 15.9398 667.78 18.1192C666.997 18.4619 667.673 19.6066 668.449 19.2666Z" fill="#100F0D"/>
<path d="M672.975 65.4136C671.784 71.8481 679.463 73.2346 684.27 73.5135C690.94 73.9 700.347 72.5971 704.336 66.6407C704.814 65.9262 703.663 65.2621 703.189 65.97C699.818 71.0034 692.292 71.9517 686.709 72.204C682.658 72.3859 673.132 71.8441 674.257 65.7655C674.412 64.9288 673.132 64.5716 672.975 65.4136" fill="#100F0D"/>
<path d="M668.647 90.4718C668.805 98.2464 677.39 100.08 683.545 100.403C692.368 100.865 701.347 99.5599 706.731 91.7641C707.218 91.0575 706.067 90.3935 705.583 91.0934C701.051 97.6568 693.41 99.3527 685.872 99.1747C680.08 99.0379 670.136 98.4376 669.975 90.4718C669.958 89.6166 668.63 89.6152 668.647 90.4718" fill="#100F0D"/>
</g>
</svg>
