<svg width="494" height="388" viewBox="0 0 494 388" fill="none" xmlns="http://www.w3.org/2000/svg">
<path d="M443.89 193.854C443.89 300.917 357.098 387.708 250.035 387.708C142.972 387.708 56.1806 300.917 56.1806 193.854C56.1806 86.7911 142.972 0 250.035 0C357.098 0 443.89 86.7911 443.89 193.854Z" fill="#0A8C60"/>
<path d="M484.494 207.248H8.58464C6.84072 207.248 5.41321 205.82 5.41321 204.076V109.019C5.41321 107.274 6.84072 105.847 8.58464 105.847H484.494C486.238 105.847 487.665 107.274 487.665 109.019V204.076C487.665 205.82 486.238 207.248 484.494 207.248Z" fill="white"/>
<path d="M14.6933 111.26C12.5606 111.26 10.8259 112.995 10.8259 115.127V197.969C10.8259 200.065 12.5968 201.836 14.6933 201.836H478.387C480.482 201.836 482.253 200.065 482.253 197.969V115.127C482.253 113.03 480.482 111.26 478.387 111.26H14.6933ZM478.387 212.66H14.6933C6.5912 212.66 0 206.07 0 197.969V115.127C0 107.025 6.5912 100.434 14.6933 100.434H478.387C486.487 100.434 493.079 107.025 493.079 115.127V197.969C493.079 206.07 486.487 212.66 478.387 212.66Z" fill="#1EA9E4"/>
<path d="M38.9542 143.975C41.8245 131.5 54.2638 123.713 66.7391 126.583C79.2145 129.453 87.0015 141.893 84.1317 154.368C81.262 166.843 68.8222 174.63 56.3468 171.76C43.8714 168.89 36.0844 156.45 38.9542 143.975Z" fill="white"/>
<path d="M101.939 191.639L94.7896 197.551C94.247 198 93.4363 197.924 92.9875 197.381L71.6723 171.608C71.2234 171.066 71.3001 170.255 71.8428 169.806L78.9914 163.894C79.534 163.445 80.3453 163.522 80.7941 164.064L102.109 189.837C102.558 190.38 102.481 191.191 101.939 191.639Z" fill="#2B4449"/>
<path d="M61.3584 126.569C57.2107 126.569 53.1361 127.73 49.533 129.985C44.4686 133.155 40.9421 138.108 39.6023 143.931C38.2631 149.754 39.2712 155.749 42.4414 160.814C45.611 165.878 50.5637 169.405 56.3866 170.744C62.2095 172.084 68.2053 171.076 73.2696 167.905C78.3346 164.735 81.861 159.783 83.2009 153.96C84.5401 148.137 83.532 142.142 80.3618 137.077C77.1916 132.013 72.2395 128.486 66.416 127.147C64.7358 126.76 63.041 126.569 61.3584 126.569ZM61.4534 176.011C59.4176 176.011 57.3689 175.78 55.3356 175.313C48.2931 173.692 42.3022 169.427 38.4679 163.301C34.6336 157.175 33.414 149.923 35.0346 142.88C36.6547 135.837 40.9201 129.846 47.0458 126.012C53.1716 122.177 60.4239 120.958 67.467 122.578C74.5101 124.198 80.5004 128.464 84.3353 134.59C88.1696 140.716 89.3886 147.968 87.7685 155.011C86.1485 162.054 81.8825 168.044 75.7567 171.879C71.3994 174.606 66.4699 176.011 61.4534 176.011Z" fill="#2B4449"/>
<path d="M480.213 228.435H106.756L85.0368 195.351C82.1965 191.023 75.8978 190.735 72.665 194.784L45.798 228.435H12.8659C8.76676 228.435 5.41321 231.752 5.41321 235.805V304.388C5.41321 308.441 8.76676 311.757 12.8659 311.757H480.213C484.312 311.757 487.665 308.441 487.665 304.388V235.805C487.665 231.752 484.312 228.435 480.213 228.435Z" fill="#D9D9D9"/>
<path d="M101.89 267.024C101.89 281.069 90.5041 292.456 76.4583 292.456C62.4125 292.456 51.0268 281.069 51.0268 267.024C51.0268 252.978 62.4125 241.592 76.4583 241.592C90.5041 241.592 101.89 252.978 101.89 267.024Z" fill="white"/>
<path d="M155.668 170L146.524 158.804V170H141.484V144.872H146.524V156.14L155.668 144.872H161.752L151.384 157.328L162.04 170H155.668ZM170.323 144.872V160.424C170.323 162.128 170.767 163.436 171.655 164.348C172.543 165.236 173.791 165.68 175.399 165.68C177.031 165.68 178.291 165.236 179.179 164.348C180.067 163.436 180.511 162.128 180.511 160.424V144.872H185.587V160.388C185.587 162.524 185.119 164.336 184.183 165.824C183.271 167.288 182.035 168.392 180.475 169.136C178.939 169.88 177.223 170.252 175.327 170.252C173.455 170.252 171.751 169.88 170.215 169.136C168.703 168.392 167.503 167.288 166.615 165.824C165.727 164.336 165.283 162.524 165.283 160.388V144.872H170.323ZM203.417 170L197.873 160.208H195.497V170H190.457V144.872H199.889C201.833 144.872 203.489 145.22 204.857 145.916C206.225 146.588 207.245 147.512 207.917 148.688C208.613 149.84 208.961 151.136 208.961 152.576C208.961 154.232 208.481 155.732 207.521 157.076C206.561 158.396 205.133 159.308 203.237 159.812L209.249 170H203.417ZM195.497 156.428H199.709C201.077 156.428 202.097 156.104 202.769 155.456C203.441 154.784 203.777 153.86 203.777 152.684C203.777 151.532 203.441 150.644 202.769 150.02C202.097 149.372 201.077 149.048 199.709 149.048H195.497V156.428ZM222.195 170.252C220.443 170.252 218.859 169.952 217.443 169.352C216.051 168.752 214.947 167.888 214.131 166.76C213.315 165.632 212.895 164.3 212.871 162.764H218.271C218.343 163.796 218.703 164.612 219.351 165.212C220.023 165.812 220.935 166.112 222.087 166.112C223.263 166.112 224.187 165.836 224.859 165.284C225.531 164.708 225.867 163.964 225.867 163.052C225.867 162.308 225.639 161.696 225.183 161.216C224.727 160.736 224.151 160.364 223.455 160.1C222.783 159.812 221.847 159.5 220.647 159.164C219.015 158.684 217.683 158.216 216.651 157.76C215.643 157.28 214.767 156.572 214.023 155.636C213.303 154.676 212.943 153.404 212.943 151.82C212.943 150.332 213.315 149.036 214.059 147.932C214.803 146.828 215.847 145.988 217.191 145.412C218.535 144.812 220.071 144.512 221.799 144.512C224.391 144.512 226.491 145.148 228.099 146.42C229.731 147.668 230.631 149.42 230.799 151.676H225.255C225.207 150.812 224.835 150.104 224.139 149.552C223.467 148.976 222.567 148.688 221.439 148.688C220.455 148.688 219.663 148.94 219.063 149.444C218.487 149.948 218.199 150.68 218.199 151.64C218.199 152.312 218.415 152.876 218.847 153.332C219.303 153.764 219.855 154.124 220.503 154.412C221.175 154.676 222.111 154.988 223.311 155.348C224.943 155.828 226.275 156.308 227.307 156.788C228.339 157.268 229.227 157.988 229.971 158.948C230.715 159.908 231.087 161.168 231.087 162.728C231.087 164.072 230.739 165.32 230.043 166.472C229.347 167.624 228.327 168.548 226.983 169.244C225.639 169.916 224.043 170.252 222.195 170.252ZM240.425 144.872V160.424C240.425 162.128 240.869 163.436 241.757 164.348C242.645 165.236 243.893 165.68 245.501 165.68C247.133 165.68 248.393 165.236 249.281 164.348C250.169 163.436 250.613 162.128 250.613 160.424V144.872H255.689V160.388C255.689 162.524 255.221 164.336 254.285 165.824C253.373 167.288 252.137 168.392 250.577 169.136C249.041 169.88 247.325 170.252 245.429 170.252C243.557 170.252 241.853 169.88 240.317 169.136C238.805 168.392 237.605 167.288 236.717 165.824C235.829 164.336 235.385 162.524 235.385 160.388V144.872H240.425ZM269.234 170.252C267.482 170.252 265.898 169.952 264.482 169.352C263.09 168.752 261.986 167.888 261.17 166.76C260.354 165.632 259.934 164.3 259.91 162.764H265.31C265.382 163.796 265.742 164.612 266.39 165.212C267.062 165.812 267.974 166.112 269.126 166.112C270.302 166.112 271.226 165.836 271.898 165.284C272.57 164.708 272.906 163.964 272.906 163.052C272.906 162.308 272.678 161.696 272.222 161.216C271.766 160.736 271.19 160.364 270.494 160.1C269.822 159.812 268.886 159.5 267.686 159.164C266.054 158.684 264.722 158.216 263.69 157.76C262.682 157.28 261.806 156.572 261.062 155.636C260.342 154.676 259.982 153.404 259.982 151.82C259.982 150.332 260.354 149.036 261.098 147.932C261.842 146.828 262.886 145.988 264.23 145.412C265.574 144.812 267.11 144.512 268.838 144.512C271.43 144.512 273.53 145.148 275.138 146.42C276.77 147.668 277.67 149.42 277.838 151.676H272.294C272.246 150.812 271.874 150.104 271.178 149.552C270.506 148.976 269.606 148.688 268.478 148.688C267.494 148.688 266.702 148.94 266.102 149.444C265.526 149.948 265.238 150.68 265.238 151.64C265.238 152.312 265.454 152.876 265.886 153.332C266.342 153.764 266.894 154.124 267.542 154.412C268.214 154.676 269.15 154.988 270.35 155.348C271.982 155.828 273.314 156.308 274.346 156.788C275.378 157.268 276.266 157.988 277.01 158.948C277.754 159.908 278.126 161.168 278.126 162.728C278.126 164.072 277.778 165.32 277.082 166.472C276.386 167.624 275.366 168.548 274.022 169.244C272.678 169.916 271.082 170.252 269.234 170.252ZM299.858 144.872C302.498 144.872 304.814 145.388 306.806 146.42C308.822 147.452 310.37 148.928 311.45 150.848C312.554 152.744 313.106 154.952 313.106 157.472C313.106 159.992 312.554 162.2 311.45 164.096C310.37 165.968 308.822 167.42 306.806 168.452C304.814 169.484 302.498 170 299.858 170H291.074V144.872H299.858ZM299.678 165.716C302.318 165.716 304.358 164.996 305.798 163.556C307.238 162.116 307.958 160.088 307.958 157.472C307.958 154.856 307.238 152.816 305.798 151.352C304.358 149.864 302.318 149.12 299.678 149.12H296.114V165.716H299.678ZM321.919 148.94V155.24H330.379V159.236H321.919V165.896H331.459V170H316.879V144.836H331.459V148.94H321.919ZM344.715 170.252C342.963 170.252 341.379 169.952 339.963 169.352C338.571 168.752 337.467 167.888 336.651 166.76C335.835 165.632 335.415 164.3 335.391 162.764H340.791C340.863 163.796 341.223 164.612 341.871 165.212C342.543 165.812 343.455 166.112 344.607 166.112C345.783 166.112 346.707 165.836 347.379 165.284C348.051 164.708 348.387 163.964 348.387 163.052C348.387 162.308 348.159 161.696 347.703 161.216C347.247 160.736 346.671 160.364 345.975 160.1C345.303 159.812 344.367 159.5 343.167 159.164C341.535 158.684 340.203 158.216 339.171 157.76C338.163 157.28 337.287 156.572 336.543 155.636C335.823 154.676 335.463 153.404 335.463 151.82C335.463 150.332 335.835 149.036 336.579 147.932C337.323 146.828 338.367 145.988 339.711 145.412C341.055 144.812 342.591 144.512 344.319 144.512C346.911 144.512 349.011 145.148 350.619 146.42C352.251 147.668 353.151 149.42 353.319 151.676H347.775C347.727 150.812 347.355 150.104 346.659 149.552C345.987 148.976 345.087 148.688 343.959 148.688C342.975 148.688 342.183 148.94 341.583 149.444C341.007 149.948 340.719 150.68 340.719 151.64C340.719 152.312 340.935 152.876 341.367 153.332C341.823 153.764 342.375 154.124 343.023 154.412C343.695 154.676 344.631 154.988 345.831 155.348C347.463 155.828 348.795 156.308 349.827 156.788C350.859 157.268 351.747 157.988 352.491 158.948C353.235 159.908 353.607 161.168 353.607 162.728C353.607 164.072 353.259 165.32 352.563 166.472C351.867 167.624 350.847 168.548 349.503 169.244C348.159 169.916 346.563 170.252 344.715 170.252ZM373.384 165.212H363.376L361.72 170H356.428L365.464 144.836H371.332L380.368 170H375.04L373.384 165.212ZM372.016 161.18L368.38 150.668L364.744 161.18H372.016ZM388.786 144.872V170H383.746V144.872H388.786ZM415.257 170H410.217L398.805 152.756V170H393.765V144.836H398.805L410.217 162.116V144.836H415.257V170Z" fill="#3E3E3E"/>
<path d="M129.632 280.664C132.341 278.488 134.464 276.707 136 275.32C137.536 273.912 138.827 272.451 139.872 270.936C140.939 269.4 141.472 267.896 141.472 266.424C141.472 265.037 141.131 263.949 140.448 263.16C139.787 262.349 138.709 261.944 137.216 261.944C135.765 261.944 134.635 262.403 133.824 263.32C133.035 264.216 132.608 265.421 132.544 266.936H129.728C129.813 264.547 130.539 262.701 131.904 261.4C133.269 260.099 135.029 259.448 137.184 259.448C139.381 259.448 141.12 260.056 142.4 261.272C143.701 262.488 144.352 264.163 144.352 266.296C144.352 268.067 143.819 269.795 142.752 271.48C141.707 273.144 140.512 274.616 139.168 275.896C137.824 277.155 136.107 278.627 134.016 280.312H145.024V282.744H129.632V280.664ZM148.39 271.192C148.39 267.523 148.988 264.664 150.182 262.616C151.377 260.547 153.468 259.512 156.454 259.512C159.42 259.512 161.5 260.547 162.694 262.616C163.889 264.664 164.486 267.523 164.486 271.192C164.486 274.925 163.889 277.827 162.694 279.896C161.5 281.965 159.42 283 156.454 283C153.468 283 151.377 281.965 150.182 279.896C148.988 277.827 148.39 274.925 148.39 271.192ZM161.606 271.192C161.606 269.336 161.478 267.768 161.222 266.488C160.988 265.187 160.486 264.141 159.718 263.352C158.972 262.563 157.884 262.168 156.454 262.168C155.004 262.168 153.894 262.563 153.126 263.352C152.38 264.141 151.878 265.187 151.622 266.488C151.388 267.768 151.27 269.336 151.27 271.192C151.27 273.112 151.388 274.723 151.622 276.024C151.878 277.325 152.38 278.371 153.126 279.16C153.894 279.949 155.004 280.344 156.454 280.344C157.884 280.344 158.972 279.949 159.718 279.16C160.486 278.371 160.988 277.325 161.222 276.024C161.478 274.723 161.606 273.112 161.606 271.192ZM168.484 271.192C168.484 267.523 169.081 264.664 170.276 262.616C171.471 260.547 173.561 259.512 176.548 259.512C179.513 259.512 181.593 260.547 182.788 262.616C183.983 264.664 184.58 267.523 184.58 271.192C184.58 274.925 183.983 277.827 182.788 279.896C181.593 281.965 179.513 283 176.548 283C173.561 283 171.471 281.965 170.276 279.896C169.081 277.827 168.484 274.925 168.484 271.192ZM181.7 271.192C181.7 269.336 181.572 267.768 181.316 266.488C181.081 265.187 180.58 264.141 179.812 263.352C179.065 262.563 177.977 262.168 176.548 262.168C175.097 262.168 173.988 262.563 173.22 263.352C172.473 264.141 171.972 265.187 171.716 266.488C171.481 267.768 171.364 269.336 171.364 271.192C171.364 273.112 171.481 274.723 171.716 276.024C171.972 277.325 172.473 278.371 173.22 279.16C173.988 279.949 175.097 280.344 176.548 280.344C177.977 280.344 179.065 279.949 179.812 279.16C180.58 278.371 181.081 277.325 181.316 276.024C181.572 274.723 181.7 273.112 181.7 271.192ZM214.485 267.16C213.866 265.859 212.97 264.856 211.797 264.152C210.624 263.427 209.258 263.064 207.701 263.064C206.144 263.064 204.736 263.427 203.477 264.152C202.24 264.856 201.258 265.88 200.533 267.224C199.829 268.547 199.477 270.083 199.477 271.832C199.477 273.581 199.829 275.117 200.533 276.44C201.258 277.763 202.24 278.787 203.477 279.512C204.736 280.216 206.144 280.568 207.701 280.568C209.877 280.568 211.669 279.917 213.077 278.616C214.485 277.315 215.306 275.555 215.541 273.336H206.645V270.968H218.645V273.208C218.474 275.043 217.898 276.728 216.917 278.264C215.936 279.779 214.645 280.984 213.045 281.88C211.445 282.755 209.664 283.192 207.701 283.192C205.632 283.192 203.744 282.712 202.037 281.752C200.33 280.771 198.976 279.416 197.973 277.688C196.992 275.96 196.501 274.008 196.501 271.832C196.501 269.656 196.992 267.704 197.973 265.976C198.976 264.227 200.33 262.872 202.037 261.912C203.744 260.931 205.632 260.44 207.701 260.44C210.069 260.44 212.16 261.027 213.973 262.2C215.808 263.373 217.141 265.027 217.973 267.16H214.485ZM225.343 260.696V274.808C225.343 276.792 225.823 278.264 226.783 279.224C227.765 280.184 229.119 280.664 230.847 280.664C232.554 280.664 233.887 280.184 234.847 279.224C235.829 278.264 236.319 276.792 236.319 274.808V260.696H239.231V274.776C239.231 276.632 238.858 278.2 238.111 279.48C237.365 280.739 236.351 281.677 235.071 282.296C233.813 282.915 232.394 283.224 230.815 283.224C229.237 283.224 227.807 282.915 226.527 282.296C225.269 281.677 224.266 280.739 223.519 279.48C222.794 278.2 222.431 276.632 222.431 274.776V260.696H225.343ZM255.833 283L250.521 273.88H247.001V283H244.089V260.696H251.289C252.974 260.696 254.393 260.984 255.545 261.56C256.718 262.136 257.593 262.915 258.169 263.896C258.745 264.877 259.033 265.997 259.033 267.256C259.033 268.792 258.585 270.147 257.689 271.32C256.814 272.493 255.492 273.272 253.721 273.656L259.321 283H255.833ZM247.001 271.544H251.289C252.868 271.544 254.052 271.16 254.841 270.392C255.63 269.603 256.025 268.557 256.025 267.256C256.025 265.933 255.63 264.909 254.841 264.184C254.073 263.459 252.889 263.096 251.289 263.096H247.001V271.544ZM266.406 260.696V274.808C266.406 276.792 266.886 278.264 267.846 279.224C268.827 280.184 270.182 280.664 271.91 280.664C273.616 280.664 274.95 280.184 275.91 279.224C276.891 278.264 277.382 276.792 277.382 274.808V260.696H280.294V274.776C280.294 276.632 279.92 278.2 279.174 279.48C278.427 280.739 277.414 281.677 276.134 282.296C274.875 282.915 273.456 283.224 271.878 283.224C270.299 283.224 268.87 282.915 267.59 282.296C266.331 281.677 265.328 280.739 264.582 279.48C263.856 278.2 263.494 276.632 263.494 274.776V260.696H266.406ZM307.411 260.696V263.064H301.331V283H298.419V263.064H292.307V260.696H307.411ZM313.907 263.064V270.52H322.035V272.92H313.907V280.6H322.995V283H310.995V260.664H322.995V263.064H313.907ZM339.146 283L333.834 273.88H330.314V283H327.402V260.696H334.602C336.287 260.696 337.706 260.984 338.858 261.56C340.031 262.136 340.906 262.915 341.482 263.896C342.058 264.877 342.346 265.997 342.346 267.256C342.346 268.792 341.898 270.147 341.002 271.32C340.127 272.493 338.804 273.272 337.034 273.656L342.634 283H339.146ZM330.314 271.544H334.602C336.18 271.544 337.364 271.16 338.154 270.392C338.943 269.603 339.338 268.557 339.338 267.256C339.338 265.933 338.943 264.909 338.154 264.184C337.386 263.459 336.202 263.096 334.602 263.096H330.314V271.544ZM353.942 283.224C352.47 283.224 351.148 282.968 349.974 282.456C348.822 281.923 347.916 281.197 347.254 280.28C346.593 279.341 346.252 278.264 346.23 277.048H349.334C349.441 278.093 349.868 278.979 350.614 279.704C351.382 280.408 352.492 280.76 353.942 280.76C355.329 280.76 356.417 280.419 357.206 279.736C358.017 279.032 358.422 278.136 358.422 277.048C358.422 276.195 358.188 275.501 357.718 274.968C357.249 274.435 356.662 274.029 355.958 273.752C355.254 273.475 354.305 273.176 353.11 272.856C351.638 272.472 350.454 272.088 349.558 271.704C348.684 271.32 347.926 270.723 347.286 269.912C346.668 269.08 346.358 267.971 346.358 266.584C346.358 265.368 346.668 264.291 347.286 263.352C347.905 262.413 348.769 261.688 349.878 261.176C351.009 260.664 352.3 260.408 353.75 260.408C355.841 260.408 357.548 260.931 358.87 261.976C360.214 263.021 360.972 264.408 361.142 266.136H357.942C357.836 265.283 357.388 264.536 356.598 263.896C355.809 263.235 354.764 262.904 353.462 262.904C352.246 262.904 351.254 263.224 350.486 263.864C349.718 264.483 349.334 265.357 349.334 266.488C349.334 267.299 349.558 267.96 350.006 268.472C350.476 268.984 351.041 269.379 351.702 269.656C352.385 269.912 353.334 270.211 354.55 270.552C356.022 270.957 357.206 271.363 358.102 271.768C358.998 272.152 359.766 272.76 360.406 273.592C361.046 274.403 361.366 275.512 361.366 276.92C361.366 278.008 361.078 279.032 360.502 279.992C359.926 280.952 359.073 281.731 357.942 282.328C356.812 282.925 355.478 283.224 353.942 283.224ZM368.564 263.064V270.52H376.692V272.92H368.564V280.6H377.652V283H365.652V260.664H377.652V263.064H368.564ZM389.002 260.696C391.434 260.696 393.535 261.155 395.306 262.072C397.098 262.968 398.463 264.259 399.402 265.944C400.362 267.629 400.842 269.613 400.842 271.896C400.842 274.179 400.362 276.163 399.402 277.848C398.463 279.512 397.098 280.792 395.306 281.688C393.535 282.563 391.434 283 389.002 283H382.058V260.696H389.002ZM389.002 280.6C391.882 280.6 394.079 279.843 395.594 278.328C397.108 276.792 397.866 274.648 397.866 271.896C397.866 269.123 397.098 266.957 395.562 265.4C394.047 263.843 391.86 263.064 389.002 263.064H384.97V280.6H389.002ZM407.595 260.696V283H404.683V260.696H407.595ZM425.742 278.04H416.014L414.222 283H411.15L419.214 260.824H422.574L430.606 283H427.534L425.742 278.04ZM424.91 275.672L420.878 264.408L416.846 275.672H424.91Z" fill="#3E3E3E"/>
</svg>
