<svg width="620" height="320" viewBox="0 0 620 320" fill="none" xmlns="http://www.w3.org/2000/svg">
<g filter="url(#filter0_d_119_703)">
<rect x="6" y="6" width="608" height="308" rx="8" fill="#1EA9E4"/>
<mask id="mask0_119_703" style="mask-type:alpha" maskUnits="userSpaceOnUse" x="6" y="6" width="608" height="308">
<rect x="6" y="6" width="608" height="308" rx="8" fill="#1EA9E4"/>
</mask>
<g mask="url(#mask0_119_703)">
<path d="M741.723 283.007V283.026L569.279 382.84L560.606 377.835L733.201 277.957L741.723 283.007Z" fill="white"/>
<path d="M741.723 283.025L746.028 294.139L745.987 294.183L573.586 393.973L569.279 382.839L741.723 283.025Z" fill="white"/>
<path d="M741.702 300.269L569.216 400.101L573.586 393.973L745.987 294.183L741.682 300.246L741.702 300.269Z" fill="#DEECF4"/>
<path d="M755.678 288.559L751.311 294.689L741.702 300.269L569.216 400.101" stroke="#228DD5" stroke-miterlimit="10" stroke-linecap="round" stroke-linejoin="round"/>
<path d="M751.375 277.425L755.678 288.559L745.987 294.183L573.586 393.973" stroke="#228DD5" stroke-miterlimit="10" stroke-linecap="round" stroke-linejoin="round"/>
<path d="M560.606 377.835L733.201 277.957L742.701 272.423L751.376 277.425L741.723 283.026L569.279 382.84" stroke="#228DD5" stroke-miterlimit="10" stroke-linecap="round" stroke-linejoin="round"/>
<path d="M513.856 344.704C507.462 348.42 497.037 348.42 490.603 344.704L372.92 276.762C369.678 274.89 368.063 272.432 368.068 269.979C368.045 278.12 368.022 286.256 368 294.397C367.992 296.849 369.61 299.305 372.852 301.173L490.532 369.119C496.965 372.832 507.393 372.832 513.785 369.119L711.779 254.057L711.848 229.644L513.856 344.704Z" fill="#DEECF4"/>
<path d="M513.856 344.704C507.462 348.42 497.037 348.42 490.603 344.704L372.92 276.762C369.678 274.89 368.063 272.432 368.068 269.979C368.045 278.12 368.022 286.256 368 294.397C367.992 296.849 369.61 299.305 372.852 301.173L490.532 369.119C496.965 372.832 507.393 372.832 513.785 369.119L711.779 254.057L711.848 229.644L513.856 344.704Z" stroke="#228DD5" stroke-miterlimit="10" stroke-linecap="round" stroke-linejoin="round"/>
<path d="M711.848 229.644L513.857 344.704C507.462 348.42 497.037 348.42 490.603 344.704L372.92 276.762C366.476 273.039 366.454 267.006 372.844 263.293L570.836 148.231L711.848 229.644Z" fill="white"/>
<path d="M711.848 229.644L513.857 344.704C507.462 348.42 497.037 348.42 490.603 344.704L372.92 276.762C366.476 273.039 366.454 267.006 372.844 263.293L570.836 148.231L711.848 229.644Z" stroke="#228DD5" stroke-miterlimit="10" stroke-linecap="round" stroke-linejoin="round"/>
<path d="M595.199 159.738C595.201 160.564 595.13 161.41 595.017 162.266L607.44 169.434C607.548 168.594 607.617 167.763 607.617 166.953C607.605 162.908 606.174 160.06 603.871 158.721L591.453 151.505C593.758 152.844 595.187 155.69 595.199 159.738Z" fill="#DEECF4"/>
<path d="M595.199 159.738C595.201 160.564 595.13 161.41 595.017 162.266L607.44 169.434C607.548 168.594 607.617 167.763 607.617 166.953C607.605 162.908 606.174 160.06 603.871 158.721L591.453 151.505C593.758 152.844 595.187 155.69 595.199 159.738V159.738Z" stroke="#228DD5" stroke-miterlimit="10" stroke-linecap="round" stroke-linejoin="round"/>
<path d="M596.211 143.318C592.656 141.254 587.734 141.544 582.3 144.683C575.411 148.659 569.366 156.238 565.901 164.429L578.317 171.647C581.784 163.458 587.826 155.877 594.715 151.896C600.15 148.76 605.074 148.468 608.629 150.536C604.49 148.13 600.35 145.725 596.211 143.318Z" fill="white"/>
<path d="M596.211 143.318C592.656 141.254 587.734 141.544 582.3 144.683C575.411 148.659 569.366 156.238 565.901 164.429L578.317 171.647C581.784 163.458 587.826 155.877 594.715 151.896C600.15 148.76 605.074 148.468 608.629 150.536C604.49 148.13 600.35 145.725 596.211 143.318Z" stroke="#228DD5" stroke-miterlimit="10" stroke-linecap="round" stroke-linejoin="round"/>
<path d="M594.738 159.613C601.827 155.522 607.591 158.81 607.617 166.953C607.617 167.763 607.548 168.594 607.439 169.434L612.858 172.558C613.811 169.349 614.338 166.13 614.331 163.076C614.294 150.665 605.516 145.665 594.715 151.896C587.826 155.877 581.784 163.458 578.317 171.647L587.527 166.327C589.582 163.532 592.062 161.16 594.738 159.613Z" fill="#DEECF4"/>
<path d="M594.738 159.613C601.827 155.522 607.591 158.81 607.617 166.953C607.617 167.763 607.548 168.594 607.439 169.434L612.858 172.558C613.811 169.349 614.338 166.13 614.331 163.076C614.294 150.665 605.516 145.665 594.715 151.896C587.826 155.877 581.784 163.458 578.317 171.647L587.527 166.327C589.582 163.532 592.062 161.16 594.738 159.613Z" stroke="#228DD5" stroke-miterlimit="10" stroke-linecap="round" stroke-linejoin="round"/>
<path d="M620.591 157.374C617.034 155.31 612.115 155.603 606.68 158.739C599.789 162.717 593.746 170.299 590.279 178.488L602.697 185.706C606.164 177.514 612.204 169.933 619.096 165.954C624.53 162.818 629.454 162.528 633.007 164.592C628.868 162.186 624.731 159.781 620.591 157.374Z" fill="white"/>
<path d="M620.591 157.374C617.034 155.31 612.115 155.603 606.68 158.739C599.789 162.717 593.746 170.299 590.279 178.488L602.697 185.706C606.164 177.514 612.204 169.933 619.096 165.954C624.53 162.818 629.454 162.528 633.007 164.592C628.868 162.186 624.731 159.781 620.591 157.374Z" stroke="#228DD5" stroke-miterlimit="10" stroke-linecap="round" stroke-linejoin="round"/>
<path d="M619.119 173.67C626.206 169.578 631.972 172.869 631.995 181.012C631.997 181.822 631.928 182.655 631.82 183.49L637.238 186.615C638.191 183.407 638.718 180.186 638.709 177.132C638.674 164.724 629.894 159.721 619.096 165.955C612.204 169.933 606.165 177.514 602.697 185.706L611.908 180.386C613.96 177.59 616.443 175.216 619.119 173.67Z" fill="#DEECF4"/>
<path d="M619.119 173.67C626.206 169.578 631.972 172.869 631.995 181.012C631.997 181.822 631.928 182.655 631.82 183.49L637.238 186.615C638.191 183.407 638.718 180.186 638.709 177.132C638.674 164.724 629.894 159.721 619.096 165.955C612.204 169.933 606.165 177.514 602.697 185.706L611.908 180.386C613.96 177.59 616.443 175.216 619.119 173.67Z" stroke="#228DD5" stroke-miterlimit="10" stroke-linecap="round" stroke-linejoin="round"/>
<path d="M651.79 229.923L562.788 178.534C559.672 176.735 554.643 176.737 551.548 178.534L508.495 203.554C505.401 205.351 505.401 208.276 508.516 210.077L597.518 261.464C600.633 263.263 605.679 263.251 608.776 261.45L651.826 236.437C654.923 234.635 654.907 231.72 651.79 229.923Z" fill="#DEECF4"/>
<path d="M651.79 229.923L562.788 178.534C559.672 176.735 554.643 176.737 551.548 178.534L508.495 203.554C505.401 205.351 505.401 208.276 508.516 210.077L597.518 261.464C600.633 263.263 605.679 263.251 608.776 261.45L651.826 236.437C654.923 234.635 654.907 231.72 651.79 229.923V229.923Z" stroke="#228DD5" stroke-miterlimit="10" stroke-linecap="round" stroke-linejoin="round"/>
<path d="M610.649 236.163C611.514 235.661 612.319 235.64 614.167 236.708C616.035 237.785 619.314 240.24 619.487 240.369L623.069 238.36C622.915 238.224 619.972 235.64 617.674 234.31C614.301 232.364 609.989 231.611 606.3 233.756C602.794 235.79 603.811 237.327 606.687 239.653C609.163 241.634 609.179 242.018 608.486 242.421C607.651 242.907 606.705 242.828 604.655 241.641C603.024 240.7 599.743 238.247 599.57 238.116L595.879 240.118C596.027 240.249 598.884 242.745 601.247 244.11C605.258 246.425 609.114 246.991 612.837 244.828C616.049 242.962 615.824 241.579 612.787 239.043C610.375 237.023 609.924 236.581 610.649 236.163Z" fill="#228DD5"/>
<path d="M598.799 227.44C600.801 228.595 600.728 229.504 598.151 231.002L592.603 227.799C595.044 226.416 596.747 226.255 598.799 227.44ZM589.86 233.171C587.559 231.848 587.509 230.829 589.393 229.699L598.809 235.136L602.085 233.611C606.887 230.82 606.995 228.112 602.301 225.404C597.624 222.702 592.313 222.999 586.662 226.282C580.933 229.612 580.592 232.184 585.426 234.975C588.408 236.699 592.759 238.227 592.987 238.302L596.075 236.439C595.896 236.351 592.488 234.69 589.86 233.171Z" fill="#228DD5"/>
<path d="M578.765 224.009L585.282 220.226L589.214 222.495L592.842 220.387L588.91 218.116L593.342 215.544L589.051 213.063L584.619 215.64L582.723 214.545L579.094 216.653L580.99 217.748L574.382 221.591C569.796 224.255 569.449 225.751 573.319 227.985C574.44 228.634 576.932 229.547 577.06 229.593L580.286 227.502C580.208 227.46 578.685 226.65 577.785 226.13C576.448 225.36 577.173 224.936 578.765 224.009Z" fill="#228DD5"/>
<path d="M568.559 215.544C565.469 217.339 563.177 217.93 560.816 216.566C558.439 215.192 559.454 213.862 562.542 212.07C565.63 210.275 567.857 209.716 570.234 211.092C572.597 212.456 571.644 213.747 568.559 215.544ZM573.865 208.984C568.283 205.761 563.099 206.706 558.191 209.555C553.294 212.401 551.61 215.452 557.19 218.673C562.753 221.885 568.013 220.901 572.907 218.054C577.815 215.201 579.428 212.196 573.865 208.984Z" fill="#228DD5"/>
<path d="M557.871 199.748C556.05 198.699 552.783 198.204 552.611 198.181L553.492 197.668L549.235 195.209L533.331 204.451L537.62 206.927L549.525 200.011C549.622 200.034 551.511 200.498 553.002 201.357C555.084 202.56 553.849 203.653 551.426 205.063L542.933 209.994L547.224 212.475L555.839 207.468C560.719 204.631 562.364 202.344 557.871 199.748Z" fill="#228DD5"/>
</g>
<rect x="50" y="238" width="218" height="43" rx="8" fill="white"/>
<path d="M80.1592 259.74C80.8099 259.879 81.3325 260.204 81.7272 260.716C82.1219 261.217 82.3192 261.793 82.3192 262.444C82.3192 263.383 81.9885 264.129 81.3272 264.684C80.6765 265.228 79.7645 265.5 78.5912 265.5H73.3592V254.268H78.4152C79.5565 254.268 80.4472 254.529 81.0872 255.052C81.7379 255.575 82.0632 256.284 82.0632 257.18C82.0632 257.841 81.8872 258.391 81.5352 258.828C81.1939 259.265 80.7352 259.569 80.1592 259.74ZM76.0952 258.812H77.8872C78.3352 258.812 78.6765 258.716 78.9112 258.524C79.1565 258.321 79.2792 258.028 79.2792 257.644C79.2792 257.26 79.1565 256.967 78.9112 256.764C78.6765 256.561 78.3352 256.46 77.8872 256.46H76.0952V258.812ZM78.1112 263.292C78.5699 263.292 78.9219 263.191 79.1672 262.988C79.4232 262.775 79.5512 262.471 79.5512 262.076C79.5512 261.681 79.4179 261.372 79.1512 261.148C78.8952 260.924 78.5379 260.812 78.0792 260.812H76.0952V263.292H78.1112ZM92.3221 260.892C92.3221 261.148 92.3061 261.415 92.2741 261.692H86.0821C86.1247 262.247 86.3007 262.673 86.6101 262.972C86.9301 263.26 87.3194 263.404 87.7781 263.404C88.4607 263.404 88.9354 263.116 89.2021 262.54H92.1141C91.9647 263.127 91.6927 263.655 91.2981 264.124C90.9141 264.593 90.4287 264.961 89.8421 265.228C89.2554 265.495 88.5994 265.628 87.8741 265.628C86.9994 265.628 86.2207 265.441 85.5381 265.068C84.8554 264.695 84.3221 264.161 83.9381 263.468C83.5541 262.775 83.3621 261.964 83.3621 261.036C83.3621 260.108 83.5487 259.297 83.9221 258.604C84.3061 257.911 84.8394 257.377 85.5221 257.004C86.2047 256.631 86.9887 256.444 87.8741 256.444C88.7381 256.444 89.5061 256.625 90.1781 256.988C90.8501 257.351 91.3727 257.868 91.7461 258.54C92.1301 259.212 92.3221 259.996 92.3221 260.892ZM89.5221 260.172C89.5221 259.703 89.3621 259.329 89.0421 259.052C88.7221 258.775 88.3221 258.636 87.8421 258.636C87.3834 258.636 86.9941 258.769 86.6741 259.036C86.3647 259.303 86.1727 259.681 86.0981 260.172H89.5221ZM99.2054 256.476C100.251 256.476 101.083 256.817 101.701 257.5C102.331 258.172 102.645 259.1 102.645 260.284V265.5H99.9254V260.652C99.9254 260.055 99.7708 259.591 99.4614 259.26C99.1521 258.929 98.7361 258.764 98.2134 258.764C97.6908 258.764 97.2748 258.929 96.9654 259.26C96.6561 259.591 96.5014 260.055 96.5014 260.652V265.5H93.7654V256.572H96.5014V257.756C96.7788 257.361 97.1521 257.052 97.6214 256.828C98.0908 256.593 98.6188 256.476 99.2054 256.476ZM112.963 260.892C112.963 261.148 112.947 261.415 112.915 261.692H106.723C106.765 262.247 106.941 262.673 107.251 262.972C107.571 263.26 107.96 263.404 108.419 263.404C109.101 263.404 109.576 263.116 109.843 262.54H112.755C112.605 263.127 112.333 263.655 111.939 264.124C111.555 264.593 111.069 264.961 110.483 265.228C109.896 265.495 109.24 265.628 108.515 265.628C107.64 265.628 106.861 265.441 106.179 265.068C105.496 264.695 104.963 264.161 104.579 263.468C104.195 262.775 104.003 261.964 104.003 261.036C104.003 260.108 104.189 259.297 104.563 258.604C104.947 257.911 105.48 257.377 106.163 257.004C106.845 256.631 107.629 256.444 108.515 256.444C109.379 256.444 110.147 256.625 110.819 256.988C111.491 257.351 112.013 257.868 112.387 258.54C112.771 259.212 112.963 259.996 112.963 260.892ZM110.163 260.172C110.163 259.703 110.003 259.329 109.683 259.052C109.363 258.775 108.963 258.636 108.483 258.636C108.024 258.636 107.635 258.769 107.315 259.036C107.005 259.303 106.813 259.681 106.739 260.172H110.163ZM118.886 258.844H117.414V265.5H114.678V258.844H113.686V256.572H114.678V256.316C114.678 255.217 114.993 254.385 115.622 253.82C116.251 253.244 117.174 252.956 118.39 252.956C118.593 252.956 118.742 252.961 118.838 252.972V255.292C118.315 255.26 117.947 255.335 117.734 255.516C117.521 255.697 117.414 256.023 117.414 256.492V256.572H118.886V258.844ZM121.548 255.644C121.068 255.644 120.673 255.505 120.364 255.228C120.065 254.94 119.916 254.588 119.916 254.172C119.916 253.745 120.065 253.393 120.364 253.116C120.673 252.828 121.068 252.684 121.548 252.684C122.017 252.684 122.401 252.828 122.7 253.116C123.009 253.393 123.164 253.745 123.164 254.172C123.164 254.588 123.009 254.94 122.7 255.228C122.401 255.505 122.017 255.644 121.548 255.644ZM122.908 256.572V265.5H120.172V256.572H122.908ZM129.866 263.18V265.5H128.474C127.482 265.5 126.709 265.26 126.154 264.78C125.6 264.289 125.322 263.495 125.322 262.396V258.844H124.234V256.572H125.322V254.396H128.058V256.572H129.85V258.844H128.058V262.428C128.058 262.695 128.122 262.887 128.25 263.004C128.378 263.121 128.592 263.18 128.89 263.18H129.866ZM138.845 265.612C138.024 265.612 137.288 265.479 136.637 265.212C135.986 264.945 135.464 264.551 135.069 264.028C134.685 263.505 134.482 262.876 134.461 262.14H137.373C137.416 262.556 137.56 262.876 137.805 263.1C138.05 263.313 138.37 263.42 138.765 263.42C139.17 263.42 139.49 263.329 139.725 263.148C139.96 262.956 140.077 262.695 140.077 262.364C140.077 262.087 139.981 261.857 139.789 261.676C139.608 261.495 139.378 261.345 139.101 261.228C138.834 261.111 138.45 260.977 137.949 260.828C137.224 260.604 136.632 260.38 136.173 260.156C135.714 259.932 135.32 259.601 134.989 259.164C134.658 258.727 134.493 258.156 134.493 257.452C134.493 256.407 134.872 255.591 135.629 255.004C136.386 254.407 137.373 254.108 138.589 254.108C139.826 254.108 140.824 254.407 141.581 255.004C142.338 255.591 142.744 256.412 142.797 257.468H139.837C139.816 257.105 139.682 256.823 139.437 256.62C139.192 256.407 138.877 256.3 138.493 256.3C138.162 256.3 137.896 256.391 137.693 256.572C137.49 256.743 137.389 256.993 137.389 257.324C137.389 257.687 137.56 257.969 137.901 258.172C138.242 258.375 138.776 258.593 139.501 258.828C140.226 259.073 140.813 259.308 141.261 259.532C141.72 259.756 142.114 260.081 142.445 260.508C142.776 260.935 142.941 261.484 142.941 262.156C142.941 262.796 142.776 263.377 142.445 263.9C142.125 264.423 141.656 264.839 141.037 265.148C140.418 265.457 139.688 265.612 138.845 265.612ZM153.041 260.892C153.041 261.148 153.025 261.415 152.993 261.692H146.801C146.843 262.247 147.019 262.673 147.329 262.972C147.649 263.26 148.038 263.404 148.497 263.404C149.179 263.404 149.654 263.116 149.921 262.54H152.833C152.683 263.127 152.411 263.655 152.017 264.124C151.633 264.593 151.147 264.961 150.561 265.228C149.974 265.495 149.318 265.628 148.593 265.628C147.718 265.628 146.939 265.441 146.257 265.068C145.574 264.695 145.041 264.161 144.657 263.468C144.273 262.775 144.081 261.964 144.081 261.036C144.081 260.108 144.267 259.297 144.641 258.604C145.025 257.911 145.558 257.377 146.241 257.004C146.923 256.631 147.707 256.444 148.593 256.444C149.457 256.444 150.225 256.625 150.897 256.988C151.569 257.351 152.091 257.868 152.465 258.54C152.849 259.212 153.041 259.996 153.041 260.892ZM150.241 260.172C150.241 259.703 150.081 259.329 149.761 259.052C149.441 258.775 149.041 258.636 148.561 258.636C148.102 258.636 147.713 258.769 147.393 259.036C147.083 259.303 146.891 259.681 146.817 260.172H150.241ZM157.22 257.836C157.476 257.42 157.844 257.084 158.324 256.828C158.804 256.572 159.354 256.444 159.972 256.444C160.708 256.444 161.375 256.631 161.972 257.004C162.57 257.377 163.039 257.911 163.38 258.604C163.732 259.297 163.908 260.103 163.908 261.02C163.908 261.937 163.732 262.748 163.38 263.452C163.039 264.145 162.57 264.684 161.972 265.068C161.375 265.441 160.708 265.628 159.972 265.628C159.343 265.628 158.794 265.505 158.324 265.26C157.855 265.004 157.487 264.668 157.22 264.252V265.5H154.484V253.66H157.22V257.836ZM161.124 261.02C161.124 260.337 160.932 259.804 160.548 259.42C160.175 259.025 159.711 258.828 159.156 258.828C158.612 258.828 158.148 259.025 157.764 259.42C157.391 259.815 157.204 260.353 157.204 261.036C157.204 261.719 157.391 262.257 157.764 262.652C158.148 263.047 158.612 263.244 159.156 263.244C159.7 263.244 160.164 263.047 160.548 262.652C160.932 262.247 161.124 261.703 161.124 261.02ZM164.8 261.02C164.8 260.103 164.97 259.297 165.312 258.604C165.664 257.911 166.138 257.377 166.736 257.004C167.333 256.631 168 256.444 168.736 256.444C169.365 256.444 169.914 256.572 170.384 256.828C170.864 257.084 171.232 257.42 171.488 257.836V256.572H174.224V265.5H171.488V264.236C171.221 264.652 170.848 264.988 170.368 265.244C169.898 265.5 169.349 265.628 168.72 265.628C167.994 265.628 167.333 265.441 166.736 265.068C166.138 264.684 165.664 264.145 165.312 263.452C164.97 262.748 164.8 261.937 164.8 261.02ZM171.488 261.036C171.488 260.353 171.296 259.815 170.912 259.42C170.538 259.025 170.08 258.828 169.536 258.828C168.992 258.828 168.528 259.025 168.144 259.42C167.77 259.804 167.584 260.337 167.584 261.02C167.584 261.703 167.77 262.247 168.144 262.652C168.528 263.047 168.992 263.244 169.536 263.244C170.08 263.244 170.538 263.047 170.912 262.652C171.296 262.257 171.488 261.719 171.488 261.036ZM179.595 256.444C180.224 256.444 180.774 256.572 181.243 256.828C181.723 257.084 182.091 257.42 182.347 257.836V256.572H185.083V265.484C185.083 266.305 184.918 267.047 184.587 267.708C184.267 268.38 183.771 268.913 183.099 269.308C182.438 269.703 181.611 269.9 180.619 269.9C179.296 269.9 178.224 269.585 177.403 268.956C176.582 268.337 176.112 267.495 175.995 266.428H178.699C178.784 266.769 178.987 267.036 179.307 267.228C179.627 267.431 180.022 267.532 180.491 267.532C181.056 267.532 181.504 267.367 181.835 267.036C182.176 266.716 182.347 266.199 182.347 265.484V264.22C182.08 264.636 181.712 264.977 181.243 265.244C180.774 265.5 180.224 265.628 179.595 265.628C178.859 265.628 178.192 265.441 177.595 265.068C176.998 264.684 176.523 264.145 176.171 263.452C175.83 262.748 175.659 261.937 175.659 261.02C175.659 260.103 175.83 259.297 176.171 258.604C176.523 257.911 176.998 257.377 177.595 257.004C178.192 256.631 178.859 256.444 179.595 256.444ZM182.347 261.036C182.347 260.353 182.155 259.815 181.771 259.42C181.398 259.025 180.939 258.828 180.395 258.828C179.851 258.828 179.387 259.025 179.003 259.42C178.63 259.804 178.443 260.337 178.443 261.02C178.443 261.703 178.63 262.247 179.003 262.652C179.387 263.047 179.851 263.244 180.395 263.244C180.939 263.244 181.398 263.047 181.771 262.652C182.155 262.257 182.347 261.719 182.347 261.036ZM186.518 261.02C186.518 260.103 186.689 259.297 187.03 258.604C187.382 257.911 187.857 257.377 188.454 257.004C189.052 256.631 189.718 256.444 190.454 256.444C191.084 256.444 191.633 256.572 192.102 256.828C192.582 257.084 192.95 257.42 193.206 257.836V256.572H195.942V265.5H193.206V264.236C192.94 264.652 192.566 264.988 192.086 265.244C191.617 265.5 191.068 265.628 190.438 265.628C189.713 265.628 189.052 265.441 188.454 265.068C187.857 264.684 187.382 264.145 187.03 263.452C186.689 262.748 186.518 261.937 186.518 261.02ZM193.206 261.036C193.206 260.353 193.014 259.815 192.63 259.42C192.257 259.025 191.798 258.828 191.254 258.828C190.71 258.828 190.246 259.025 189.862 259.42C189.489 259.804 189.302 260.337 189.302 261.02C189.302 261.703 189.489 262.247 189.862 262.652C190.246 263.047 190.71 263.244 191.254 263.244C191.798 263.244 192.257 263.047 192.63 262.652C193.014 262.257 193.206 261.719 193.206 261.036ZM199.298 255.644C198.818 255.644 198.423 255.505 198.114 255.228C197.815 254.94 197.666 254.588 197.666 254.172C197.666 253.745 197.815 253.393 198.114 253.116C198.423 252.828 198.818 252.684 199.298 252.684C199.767 252.684 200.151 252.828 200.45 253.116C200.759 253.393 200.914 253.745 200.914 254.172C200.914 254.588 200.759 254.94 200.45 255.228C200.151 255.505 199.767 255.644 199.298 255.644ZM200.658 256.572V265.5H197.922V256.572H200.658ZM213.487 257.82C213.284 257.447 212.991 257.164 212.607 256.972C212.234 256.769 211.791 256.668 211.279 256.668C210.394 256.668 209.684 256.961 209.151 257.548C208.618 258.124 208.351 258.897 208.351 259.868C208.351 260.903 208.628 261.713 209.183 262.3C209.748 262.876 210.522 263.164 211.503 263.164C212.175 263.164 212.74 262.993 213.199 262.652C213.668 262.311 214.01 261.82 214.223 261.18H210.751V259.164H216.703V261.708C216.5 262.391 216.154 263.025 215.663 263.612C215.183 264.199 214.57 264.673 213.823 265.036C213.076 265.399 212.234 265.58 211.295 265.58C210.186 265.58 209.194 265.34 208.319 264.86C207.455 264.369 206.778 263.692 206.287 262.828C205.807 261.964 205.567 260.977 205.567 259.868C205.567 258.759 205.807 257.772 206.287 256.908C206.778 256.033 207.455 255.356 208.319 254.876C209.183 254.385 210.17 254.14 211.279 254.14C212.623 254.14 213.754 254.465 214.671 255.116C215.599 255.767 216.212 256.668 216.511 257.82H213.487ZM227.035 256.572V265.5H224.299V264.284C224.021 264.679 223.643 264.999 223.163 265.244C222.693 265.479 222.171 265.596 221.595 265.596C220.912 265.596 220.309 265.447 219.787 265.148C219.264 264.839 218.859 264.396 218.571 263.82C218.283 263.244 218.139 262.567 218.139 261.788V256.572H220.859V261.42C220.859 262.017 221.013 262.481 221.323 262.812C221.632 263.143 222.048 263.308 222.571 263.308C223.104 263.308 223.525 263.143 223.835 262.812C224.144 262.481 224.299 262.017 224.299 261.42V256.572H227.035ZM231.736 258.06C232.056 257.569 232.456 257.185 232.936 256.908C233.416 256.62 233.949 256.476 234.536 256.476V259.372H233.784C233.101 259.372 232.589 259.521 232.248 259.82C231.906 260.108 231.736 260.62 231.736 261.356V265.5H229V256.572H231.736V258.06ZM244.66 256.572V265.5H241.924V264.284C241.646 264.679 241.268 264.999 240.788 265.244C240.318 265.479 239.796 265.596 239.22 265.596C238.537 265.596 237.934 265.447 237.412 265.148C236.889 264.839 236.484 264.396 236.196 263.82C235.908 263.244 235.764 262.567 235.764 261.788V256.572H238.484V261.42C238.484 262.017 238.638 262.481 238.948 262.812C239.257 263.143 239.673 263.308 240.196 263.308C240.729 263.308 241.15 263.143 241.46 262.812C241.769 262.481 241.924 262.017 241.924 261.42V256.572H244.66Z" fill="#1EA9E4"/>
<path d="M60.016 58.664C62.3627 58.664 64.4213 59.1227 66.192 60.04C67.984 60.9573 69.36 62.2693 70.32 63.976C71.3013 65.6613 71.792 67.624 71.792 69.864C71.792 72.104 71.3013 74.0667 70.32 75.752C69.36 77.416 67.984 78.7067 66.192 79.624C64.4213 80.5413 62.3627 81 60.016 81H52.208V58.664H60.016ZM59.856 77.192C62.2027 77.192 64.016 76.552 65.296 75.272C66.576 73.992 67.216 72.1893 67.216 69.864C67.216 67.5387 66.576 65.7253 65.296 64.424C64.016 63.1013 62.2027 62.44 59.856 62.44H56.688V77.192H59.856ZM73.9935 72.072C73.9935 70.28 74.3455 68.6907 75.0495 67.304C75.7748 65.9173 76.7455 64.8507 77.9615 64.104C79.1988 63.3573 80.5748 62.984 82.0895 62.984C83.4122 62.984 84.5642 63.2507 85.5455 63.784C86.5482 64.3173 87.3482 64.9893 87.9455 65.8V63.272H92.4575V81H87.9455V78.408C87.3695 79.24 86.5695 79.9333 85.5455 80.488C84.5428 81.0213 83.3802 81.288 82.0575 81.288C80.5642 81.288 79.1988 80.904 77.9615 80.136C76.7455 79.368 75.7748 78.2907 75.0495 76.904C74.3455 75.496 73.9935 73.8853 73.9935 72.072ZM87.9455 72.136C87.9455 71.048 87.7322 70.12 87.3055 69.352C86.8788 68.5627 86.3028 67.9653 85.5775 67.56C84.8522 67.1333 84.0735 66.92 83.2415 66.92C82.4095 66.92 81.6415 67.1227 80.9375 67.528C80.2335 67.9333 79.6575 68.5307 79.2095 69.32C78.7828 70.088 78.5695 71.0053 78.5695 72.072C78.5695 73.1387 78.7828 74.0773 79.2095 74.888C79.6575 75.6773 80.2335 76.2853 80.9375 76.712C81.6628 77.1387 82.4308 77.352 83.2415 77.352C84.0735 77.352 84.8522 77.1493 85.5775 76.744C86.3028 76.3173 86.8788 75.72 87.3055 74.952C87.7322 74.1627 87.9455 73.224 87.9455 72.136ZM101.313 65.832C101.889 65.0213 102.678 64.3493 103.681 63.816C104.705 63.2613 105.868 62.984 107.169 62.984C108.684 62.984 110.049 63.3573 111.265 64.104C112.502 64.8507 113.473 65.9173 114.177 67.304C114.902 68.6693 115.265 70.2587 115.265 72.072C115.265 73.8853 114.902 75.496 114.177 76.904C113.473 78.2907 112.502 79.368 111.265 80.136C110.049 80.904 108.684 81.288 107.169 81.288C105.868 81.288 104.716 81.0213 103.713 80.488C102.732 79.9547 101.932 79.2827 101.313 78.472V89.448H96.833V63.272H101.313V65.832ZM110.689 72.072C110.689 71.0053 110.465 70.088 110.017 69.32C109.59 68.5307 109.014 67.9333 108.289 67.528C107.585 67.1227 106.817 66.92 105.985 66.92C105.174 66.92 104.406 67.1333 103.681 67.56C102.977 67.9653 102.401 68.5627 101.953 69.352C101.526 70.1413 101.313 71.0693 101.313 72.136C101.313 73.2027 101.526 74.1307 101.953 74.92C102.401 75.7093 102.977 76.3173 103.681 76.744C104.406 77.1493 105.174 77.352 105.985 77.352C106.817 77.352 107.585 77.1387 108.289 76.712C109.014 76.2853 109.59 75.6773 110.017 74.888C110.465 74.0987 110.689 73.16 110.689 72.072ZM117.368 72.072C117.368 70.28 117.72 68.6907 118.424 67.304C119.15 65.9173 120.121 64.8507 121.337 64.104C122.574 63.3573 123.95 62.984 125.465 62.984C126.787 62.984 127.939 63.2507 128.921 63.784C129.923 64.3173 130.723 64.9893 131.321 65.8V63.272H135.833V81H131.321V78.408C130.745 79.24 129.945 79.9333 128.921 80.488C127.918 81.0213 126.755 81.288 125.433 81.288C123.939 81.288 122.574 80.904 121.337 80.136C120.121 79.368 119.15 78.2907 118.424 76.904C117.72 75.496 117.368 73.8853 117.368 72.072ZM131.321 72.136C131.321 71.048 131.107 70.12 130.681 69.352C130.254 68.5627 129.678 67.9653 128.953 67.56C128.227 67.1333 127.449 66.92 126.617 66.92C125.785 66.92 125.017 67.1227 124.312 67.528C123.609 67.9333 123.033 68.5307 122.585 69.32C122.158 70.088 121.945 71.0053 121.945 72.072C121.945 73.1387 122.158 74.0773 122.585 74.888C123.033 75.6773 123.609 76.2853 124.312 76.712C125.038 77.1387 125.806 77.352 126.617 77.352C127.449 77.352 128.227 77.1493 128.953 76.744C129.678 76.3173 130.254 75.72 130.681 74.952C131.107 74.1627 131.321 73.224 131.321 72.136ZM145.424 66.952V75.528C145.424 76.1253 145.563 76.5627 145.84 76.84C146.139 77.096 146.629 77.224 147.312 77.224H149.392V81H146.576C142.8 81 140.912 79.1653 140.912 75.496V66.952H138.8V63.272H140.912V58.888H145.424V63.272H149.392V66.952H145.424ZM163.11 81L157.094 73.448V81H152.614V57.32H157.094V70.792L163.046 63.272H168.87L161.062 72.168L168.934 81H163.11ZM170.15 72.072C170.15 70.28 170.502 68.6907 171.206 67.304C171.931 65.9173 172.902 64.8507 174.118 64.104C175.355 63.3573 176.731 62.984 178.246 62.984C179.568 62.984 180.72 63.2507 181.702 63.784C182.704 64.3173 183.504 64.9893 184.102 65.8V63.272H188.614V81H184.102V78.408C183.526 79.24 182.726 79.9333 181.702 80.488C180.699 81.0213 179.536 81.288 178.214 81.288C176.72 81.288 175.355 80.904 174.118 80.136C172.902 79.368 171.931 78.2907 171.206 76.904C170.502 75.496 170.15 73.8853 170.15 72.072ZM184.102 72.136C184.102 71.048 183.888 70.12 183.462 69.352C183.035 68.5627 182.459 67.9653 181.734 67.56C181.008 67.1333 180.23 66.92 179.398 66.92C178.566 66.92 177.798 67.1227 177.094 67.528C176.39 67.9333 175.814 68.5307 175.366 69.32C174.939 70.088 174.726 71.0053 174.726 72.072C174.726 73.1387 174.939 74.0773 175.366 74.888C175.814 75.6773 176.39 76.2853 177.094 76.712C177.819 77.1387 178.587 77.352 179.398 77.352C180.23 77.352 181.008 77.1493 181.734 76.744C182.459 76.3173 183.035 75.72 183.462 74.952C183.888 74.1627 184.102 73.224 184.102 72.136ZM202.813 63.016C204.925 63.016 206.632 63.688 207.933 65.032C209.235 66.3547 209.885 68.2107 209.885 70.6V81H205.405V71.208C205.405 69.8 205.053 68.7227 204.349 67.976C203.645 67.208 202.685 66.824 201.469 66.824C200.232 66.824 199.251 67.208 198.525 67.976C197.821 68.7227 197.469 69.8 197.469 71.208V81H192.989V63.272H197.469V65.48C198.067 64.712 198.824 64.1147 199.741 63.688C200.68 63.24 201.704 63.016 202.813 63.016ZM243.787 63.016C245.963 63.016 247.712 63.688 249.035 65.032C250.379 66.3547 251.051 68.2107 251.051 70.6V81H246.571V71.208C246.571 69.8213 246.219 68.7653 245.515 68.04C244.811 67.2933 243.851 66.92 242.635 66.92C241.419 66.92 240.448 67.2933 239.723 68.04C239.019 68.7653 238.667 69.8213 238.667 71.208V81H234.187V71.208C234.187 69.8213 233.835 68.7653 233.131 68.04C232.427 67.2933 231.467 66.92 230.251 66.92C229.013 66.92 228.032 67.2933 227.307 68.04C226.603 68.7653 226.251 69.8213 226.251 71.208V81H221.771V63.272H226.251V65.416C226.827 64.6693 227.563 64.0827 228.459 63.656C229.376 63.2293 230.379 63.016 231.467 63.016C232.853 63.016 234.091 63.3147 235.179 63.912C236.267 64.488 237.109 65.32 237.707 66.408C238.283 65.384 239.115 64.5627 240.203 63.944C241.312 63.3253 242.507 63.016 243.787 63.016ZM272.038 63.272V81H267.526V78.76C266.95 79.528 266.192 80.136 265.254 80.584C264.336 81.0107 263.334 81.224 262.246 81.224C260.859 81.224 259.632 80.936 258.566 80.36C257.499 79.7627 256.656 78.8987 256.038 77.768C255.44 76.616 255.142 75.2507 255.142 73.672V63.272H259.622V73.032C259.622 74.44 259.974 75.528 260.678 76.296C261.382 77.0427 262.342 77.416 263.558 77.416C264.795 77.416 265.766 77.0427 266.47 76.296C267.174 75.528 267.526 74.44 267.526 73.032V63.272H272.038ZM280.938 66.024C281.514 65.0853 282.261 64.3493 283.178 63.816C284.117 63.2827 285.183 63.016 286.378 63.016V67.72H285.194C283.786 67.72 282.719 68.0507 281.994 68.712C281.29 69.3733 280.938 70.5253 280.938 72.168V81H276.458V63.272H280.938V66.024ZM291.668 61.16C290.878 61.16 290.217 60.9147 289.684 60.424C289.172 59.912 288.916 59.2827 288.916 58.536C288.916 57.7893 289.172 57.1707 289.684 56.68C290.217 56.168 290.878 55.912 291.668 55.912C292.457 55.912 293.108 56.168 293.62 56.68C294.153 57.1707 294.42 57.7893 294.42 58.536C294.42 59.2827 294.153 59.912 293.62 60.424C293.108 60.9147 292.457 61.16 291.668 61.16ZM293.876 63.272V81H289.396V63.272H293.876ZM297.15 72.072C297.15 70.28 297.502 68.6907 298.206 67.304C298.931 65.9173 299.912 64.8507 301.15 64.104C302.387 63.3573 303.763 62.984 305.278 62.984C306.43 62.984 307.528 63.24 308.574 63.752C309.619 64.2427 310.451 64.904 311.07 65.736V57.32H315.614V81H311.07V78.376C310.515 79.2507 309.736 79.9547 308.734 80.488C307.731 81.0213 306.568 81.288 305.246 81.288C303.752 81.288 302.387 80.904 301.15 80.136C299.912 79.368 298.931 78.2907 298.206 76.904C297.502 75.496 297.15 73.8853 297.15 72.072ZM311.102 72.136C311.102 71.048 310.888 70.12 310.462 69.352C310.035 68.5627 309.459 67.9653 308.734 67.56C308.008 67.1333 307.23 66.92 306.398 66.92C305.566 66.92 304.798 67.1227 304.094 67.528C303.39 67.9333 302.814 68.5307 302.366 69.32C301.939 70.088 301.726 71.0053 301.726 72.072C301.726 73.1387 301.939 74.0773 302.366 74.888C302.814 75.6773 303.39 76.2853 304.094 76.712C304.819 77.1387 305.587 77.352 306.398 77.352C307.23 77.352 308.008 77.1493 308.734 76.744C309.459 76.3173 310.035 75.72 310.462 74.952C310.888 74.1627 311.102 73.224 311.102 72.136ZM334.398 81.288C332.948 81.288 331.646 81.032 330.494 80.52C329.342 79.9867 328.425 79.272 327.742 78.376C327.081 77.48 326.718 76.488 326.654 75.4H331.166C331.252 76.0827 331.582 76.648 332.158 77.096C332.756 77.544 333.492 77.768 334.366 77.768C335.22 77.768 335.881 77.5973 336.35 77.256C336.841 76.9147 337.086 76.4773 337.086 75.944C337.086 75.368 336.788 74.9413 336.19 74.664C335.614 74.3653 334.686 74.0453 333.406 73.704C332.084 73.384 330.996 73.0533 330.142 72.712C329.31 72.3707 328.585 71.848 327.966 71.144C327.369 70.44 327.07 69.4907 327.07 68.296C327.07 67.3147 327.348 66.4187 327.902 65.608C328.478 64.7973 329.289 64.1573 330.334 63.688C331.401 63.2187 332.649 62.984 334.078 62.984C336.19 62.984 337.876 63.5173 339.134 64.584C340.393 65.6293 341.086 67.048 341.214 68.84H336.926C336.862 68.136 336.564 67.5813 336.03 67.176C335.518 66.7493 334.825 66.536 333.95 66.536C333.14 66.536 332.51 66.6853 332.062 66.984C331.636 67.2827 331.422 67.6987 331.422 68.232C331.422 68.8293 331.721 69.288 332.318 69.608C332.916 69.9067 333.844 70.216 335.102 70.536C336.382 70.856 337.438 71.1867 338.27 71.528C339.102 71.8693 339.817 72.4027 340.414 73.128C341.033 73.832 341.353 74.7707 341.374 75.944C341.374 76.968 341.086 77.8853 340.51 78.696C339.956 79.5067 339.145 80.1467 338.078 80.616C337.033 81.064 335.806 81.288 334.398 81.288ZM361.532 71.752C361.532 72.392 361.489 72.968 361.404 73.48H348.444C348.55 74.76 348.998 75.7627 349.788 76.488C350.577 77.2133 351.548 77.576 352.7 77.576C354.364 77.576 355.548 76.8613 356.252 75.432H361.084C360.572 77.1387 359.59 78.5467 358.14 79.656C356.689 80.744 354.908 81.288 352.796 81.288C351.089 81.288 349.553 80.9147 348.188 80.168C346.844 79.4 345.788 78.3227 345.02 76.936C344.273 75.5493 343.9 73.9493 343.9 72.136C343.9 70.3013 344.273 68.6907 345.02 67.304C345.766 65.9173 346.812 64.8507 348.156 64.104C349.5 63.3573 351.046 62.984 352.796 62.984C354.481 62.984 355.985 63.3467 357.308 64.072C358.652 64.7973 359.686 65.832 360.412 67.176C361.158 68.4987 361.532 70.024 361.532 71.752ZM356.892 70.472C356.87 69.32 356.454 68.4027 355.644 67.72C354.833 67.016 353.841 66.664 352.668 66.664C351.558 66.664 350.62 67.0053 349.852 67.688C349.105 68.3493 348.646 69.2773 348.476 70.472H356.892ZM371.586 81.288C370.135 81.288 368.834 81.032 367.682 80.52C366.53 79.9867 365.612 79.272 364.93 78.376C364.268 77.48 363.906 76.488 363.842 75.4H368.354C368.439 76.0827 368.77 76.648 369.346 77.096C369.943 77.544 370.679 77.768 371.554 77.768C372.407 77.768 373.068 77.5973 373.538 77.256C374.028 76.9147 374.274 76.4773 374.274 75.944C374.274 75.368 373.975 74.9413 373.378 74.664C372.802 74.3653 371.874 74.0453 370.594 73.704C369.271 73.384 368.183 73.0533 367.33 72.712C366.498 72.3707 365.772 71.848 365.154 71.144C364.556 70.44 364.258 69.4907 364.258 68.296C364.258 67.3147 364.535 66.4187 365.09 65.608C365.666 64.7973 366.476 64.1573 367.522 63.688C368.588 63.2187 369.836 62.984 371.266 62.984C373.378 62.984 375.063 63.5173 376.322 64.584C377.58 65.6293 378.274 67.048 378.402 68.84H374.114C374.05 68.136 373.751 67.5813 373.218 67.176C372.706 66.7493 372.012 66.536 371.138 66.536C370.327 66.536 369.698 66.6853 369.25 66.984C368.823 67.2827 368.61 67.6987 368.61 68.232C368.61 68.8293 368.908 69.288 369.506 69.608C370.103 69.9067 371.031 70.216 372.29 70.536C373.57 70.856 374.626 71.1867 375.458 71.528C376.29 71.8693 377.004 72.4027 377.602 73.128C378.22 73.832 378.54 74.7707 378.562 75.944C378.562 76.968 378.274 77.8853 377.698 78.696C377.143 79.5067 376.332 80.1467 375.266 80.616C374.22 81.064 372.994 81.288 371.586 81.288ZM398.975 63.272V81H394.463V78.76C393.887 79.528 393.13 80.136 392.191 80.584C391.274 81.0107 390.271 81.224 389.183 81.224C387.797 81.224 386.57 80.936 385.503 80.36C384.437 79.7627 383.594 78.8987 382.975 77.768C382.378 76.616 382.079 75.2507 382.079 73.672V63.272H386.559V73.032C386.559 74.44 386.911 75.528 387.615 76.296C388.319 77.0427 389.279 77.416 390.495 77.416C391.733 77.416 392.703 77.0427 393.407 76.296C394.111 75.528 394.463 74.44 394.463 73.032V63.272H398.975ZM402.243 72.072C402.243 70.28 402.595 68.6907 403.299 67.304C404.025 65.9173 404.996 64.8507 406.212 64.104C407.449 63.3573 408.825 62.984 410.34 62.984C411.662 62.984 412.814 63.2507 413.796 63.784C414.798 64.3173 415.598 64.9893 416.196 65.8V63.272H420.708V81H416.196V78.408C415.62 79.24 414.82 79.9333 413.796 80.488C412.793 81.0213 411.63 81.288 410.308 81.288C408.814 81.288 407.449 80.904 406.212 80.136C404.996 79.368 404.025 78.2907 403.299 76.904C402.595 75.496 402.243 73.8853 402.243 72.072ZM416.196 72.136C416.196 71.048 415.982 70.12 415.556 69.352C415.129 68.5627 414.553 67.9653 413.828 67.56C413.102 67.1333 412.324 66.92 411.492 66.92C410.66 66.92 409.892 67.1227 409.188 67.528C408.484 67.9333 407.908 68.5307 407.46 69.32C407.033 70.088 406.82 71.0053 406.82 72.072C406.82 73.1387 407.033 74.0773 407.46 74.888C407.908 75.6773 408.484 76.2853 409.188 76.712C409.913 77.1387 410.681 77.352 411.492 77.352C412.324 77.352 413.102 77.1493 413.828 76.744C414.553 76.3173 415.129 75.72 415.556 74.952C415.982 74.1627 416.196 73.224 416.196 72.136ZM427.355 61.16C426.566 61.16 425.904 60.9147 425.371 60.424C424.859 59.912 424.603 59.2827 424.603 58.536C424.603 57.7893 424.859 57.1707 425.371 56.68C425.904 56.168 426.566 55.912 427.355 55.912C428.144 55.912 428.795 56.168 429.307 56.68C429.84 57.1707 430.107 57.7893 430.107 58.536C430.107 59.2827 429.84 59.912 429.307 60.424C428.795 60.9147 428.144 61.16 427.355 61.16ZM429.563 63.272V81H425.083V63.272H429.563ZM58.992 129.288C57.5413 129.288 56.24 129.032 55.088 128.52C53.936 127.987 53.0187 127.272 52.336 126.376C51.6747 125.48 51.312 124.488 51.248 123.4H55.76C55.8453 124.083 56.176 124.648 56.752 125.096C57.3493 125.544 58.0853 125.768 58.96 125.768C59.8133 125.768 60.4747 125.597 60.944 125.256C61.4347 124.915 61.68 124.477 61.68 123.944C61.68 123.368 61.3813 122.941 60.784 122.664C60.208 122.365 59.28 122.045 58 121.704C56.6773 121.384 55.5893 121.053 54.736 120.712C53.904 120.371 53.1787 119.848 52.56 119.144C51.9627 118.44 51.664 117.491 51.664 116.296C51.664 115.315 51.9413 114.419 52.496 113.608C53.072 112.797 53.8827 112.157 54.928 111.688C55.9947 111.219 57.2427 110.984 58.672 110.984C60.784 110.984 62.4693 111.517 63.728 112.584C64.9867 113.629 65.68 115.048 65.808 116.84H61.52C61.456 116.136 61.1573 115.581 60.624 115.176C60.112 114.749 59.4187 114.536 58.544 114.536C57.7333 114.536 57.104 114.685 56.656 114.984C56.2293 115.283 56.016 115.699 56.016 116.232C56.016 116.829 56.3147 117.288 56.912 117.608C57.5093 117.907 58.4373 118.216 59.696 118.536C60.976 118.856 62.032 119.187 62.864 119.528C63.696 119.869 64.4107 120.403 65.008 121.128C65.6267 121.832 65.9467 122.771 65.968 123.944C65.968 124.968 65.68 125.885 65.104 126.696C64.5493 127.507 63.7387 128.147 62.672 128.616C61.6267 129.064 60.4 129.288 58.992 129.288ZM80.1415 129L74.1255 121.448V129H69.6455V105.32H74.1255V118.792L80.0775 111.272H85.9015L78.0935 120.168L85.9655 129H80.1415ZM90.605 109.16C89.8157 109.16 89.1543 108.915 88.621 108.424C88.109 107.912 87.853 107.283 87.853 106.536C87.853 105.789 88.109 105.171 88.621 104.68C89.1543 104.168 89.8157 103.912 90.605 103.912C91.3943 103.912 92.045 104.168 92.557 104.68C93.0903 105.171 93.357 105.789 93.357 106.536C93.357 107.283 93.0903 107.912 92.557 108.424C92.045 108.915 91.3943 109.16 90.605 109.16ZM92.813 111.272V129H88.333V111.272H92.813ZM101.719 105.32V129H97.2393V105.32H101.719ZM110.626 105.32V129H106.146V105.32H110.626ZM136.373 124.744H127.477L126.005 129H121.301L129.333 106.632H134.549L142.581 129H137.845L136.373 124.744ZM135.157 121.16L131.925 111.816L128.693 121.16H135.157ZM155.407 111.016C157.519 111.016 159.226 111.688 160.527 113.032C161.828 114.355 162.479 116.211 162.479 118.6V129H157.999V119.208C157.999 117.8 157.647 116.723 156.943 115.976C156.239 115.208 155.279 114.824 154.063 114.824C152.826 114.824 151.844 115.208 151.119 115.976C150.415 116.723 150.063 117.8 150.063 119.208V129H145.583V111.272H150.063V113.48C150.66 112.712 151.418 112.115 152.335 111.688C153.274 111.24 154.298 111.016 155.407 111.016ZM165.587 120.072C165.587 118.28 165.939 116.691 166.643 115.304C167.369 113.917 168.35 112.851 169.587 112.104C170.825 111.357 172.201 110.984 173.715 110.984C174.867 110.984 175.966 111.24 177.011 111.752C178.057 112.243 178.889 112.904 179.507 113.736V105.32H184.051V129H179.507V126.376C178.953 127.251 178.174 127.955 177.171 128.488C176.169 129.021 175.006 129.288 173.683 129.288C172.19 129.288 170.825 128.904 169.587 128.136C168.35 127.368 167.369 126.291 166.643 124.904C165.939 123.496 165.587 121.885 165.587 120.072ZM179.539 120.136C179.539 119.048 179.326 118.12 178.899 117.352C178.473 116.563 177.897 115.965 177.171 115.56C176.446 115.133 175.667 114.92 174.835 114.92C174.003 114.92 173.235 115.123 172.531 115.528C171.827 115.933 171.251 116.531 170.803 117.32C170.377 118.088 170.163 119.005 170.163 120.072C170.163 121.139 170.377 122.077 170.803 122.888C171.251 123.677 171.827 124.285 172.531 124.712C173.257 125.139 174.025 125.352 174.835 125.352C175.667 125.352 176.446 125.149 177.171 124.744C177.897 124.317 178.473 123.72 178.899 122.952C179.326 122.163 179.539 121.224 179.539 120.136ZM187.275 120.072C187.275 118.28 187.627 116.691 188.331 115.304C189.056 113.917 190.027 112.851 191.243 112.104C192.48 111.357 193.856 110.984 195.371 110.984C196.693 110.984 197.845 111.251 198.827 111.784C199.829 112.317 200.629 112.989 201.227 113.8V111.272H205.739V129H201.227V126.408C200.651 127.24 199.851 127.933 198.827 128.488C197.824 129.021 196.661 129.288 195.339 129.288C193.845 129.288 192.48 128.904 191.243 128.136C190.027 127.368 189.056 126.291 188.331 124.904C187.627 123.496 187.275 121.885 187.275 120.072ZM201.227 120.136C201.227 119.048 201.013 118.12 200.587 117.352C200.16 116.563 199.584 115.965 198.859 115.56C198.133 115.133 197.355 114.92 196.523 114.92C195.691 114.92 194.923 115.123 194.219 115.528C193.515 115.933 192.939 116.531 192.491 117.32C192.064 118.088 191.851 119.005 191.851 120.072C191.851 121.139 192.064 122.077 192.491 122.888C192.939 123.677 193.515 124.285 194.219 124.712C194.944 125.139 195.712 125.352 196.523 125.352C197.355 125.352 198.133 125.149 198.859 124.744C199.584 124.317 200.16 123.72 200.587 122.952C201.013 122.163 201.227 121.224 201.227 120.136Z" fill="white"/>
<path d="M58.52 174.82C59.0267 174.9 59.4867 175.107 59.9 175.44C60.3267 175.773 60.66 176.187 60.9 176.68C61.1533 177.173 61.28 177.7 61.28 178.26C61.28 178.967 61.1 179.607 60.74 180.18C60.38 180.74 59.8533 181.187 59.16 181.52C58.48 181.84 57.6733 182 56.74 182H51.54V168.06H56.54C57.4867 168.06 58.2933 168.22 58.96 168.54C59.6267 168.847 60.1267 169.267 60.46 169.8C60.7933 170.333 60.96 170.933 60.96 171.6C60.96 172.427 60.7333 173.113 60.28 173.66C59.84 174.193 59.2533 174.58 58.52 174.82ZM53.36 174.08H56.42C57.2733 174.08 57.9333 173.88 58.4 173.48C58.8667 173.08 59.1 172.527 59.1 171.82C59.1 171.113 58.8667 170.56 58.4 170.16C57.9333 169.76 57.26 169.56 56.38 169.56H53.36V174.08ZM56.58 180.5C57.4867 180.5 58.1933 180.287 58.7 179.86C59.2067 179.433 59.46 178.84 59.46 178.08C59.46 177.307 59.1933 176.7 58.66 176.26C58.1267 175.807 57.4133 175.58 56.52 175.58H53.36V180.5H56.58ZM62.9256 176.48C62.9256 175.36 63.1523 174.38 63.6056 173.54C64.059 172.687 64.679 172.027 65.4656 171.56C66.2656 171.093 67.1523 170.86 68.1256 170.86C69.0856 170.86 69.919 171.067 70.6256 171.48C71.3323 171.893 71.859 172.413 72.2056 173.04V171.04H74.0456V182H72.2056V179.96C71.8456 180.6 71.3056 181.133 70.5856 181.56C69.879 181.973 69.0523 182.18 68.1056 182.18C67.1323 182.18 66.2523 181.94 65.4656 181.46C64.679 180.98 64.059 180.307 63.6056 179.44C63.1523 178.573 62.9256 177.587 62.9256 176.48ZM72.2056 176.5C72.2056 175.673 72.039 174.953 71.7056 174.34C71.3723 173.727 70.919 173.26 70.3456 172.94C69.7856 172.607 69.1656 172.44 68.4856 172.44C67.8056 172.44 67.1856 172.6 66.6256 172.92C66.0656 173.24 65.619 173.707 65.2856 174.32C64.9523 174.933 64.7856 175.653 64.7856 176.48C64.7856 177.32 64.9523 178.053 65.2856 178.68C65.619 179.293 66.0656 179.767 66.6256 180.1C67.1856 180.42 67.8056 180.58 68.4856 180.58C69.1656 180.58 69.7856 180.42 70.3456 180.1C70.919 179.767 71.3723 179.293 71.7056 178.68C72.039 178.053 72.2056 177.327 72.2056 176.5ZM81.4413 170.86C82.3879 170.86 83.2146 171.067 83.9213 171.48C84.6413 171.893 85.1746 172.413 85.5213 173.04V171.04H87.3613V182.24C87.3613 183.24 87.1479 184.127 86.7213 184.9C86.2946 185.687 85.6813 186.3 84.8813 186.74C84.0946 187.18 83.1746 187.4 82.1213 187.4C80.6813 187.4 79.4813 187.06 78.5213 186.38C77.5613 185.7 76.9946 184.773 76.8213 183.6H78.6213C78.8213 184.267 79.2346 184.8 79.8613 185.2C80.4879 185.613 81.2413 185.82 82.1213 185.82C83.1213 185.82 83.9346 185.507 84.5613 184.88C85.2013 184.253 85.5213 183.373 85.5213 182.24V179.94C85.1613 180.58 84.6279 181.113 83.9213 181.54C83.2146 181.967 82.3879 182.18 81.4413 182.18C80.4679 182.18 79.5813 181.94 78.7813 181.46C77.9946 180.98 77.3746 180.307 76.9213 179.44C76.4679 178.573 76.2413 177.587 76.2413 176.48C76.2413 175.36 76.4679 174.38 76.9213 173.54C77.3746 172.687 77.9946 172.027 78.7813 171.56C79.5813 171.093 80.4679 170.86 81.4413 170.86ZM85.5213 176.5C85.5213 175.673 85.3546 174.953 85.0213 174.34C84.6879 173.727 84.2346 173.26 83.6613 172.94C83.1013 172.607 82.4813 172.44 81.8013 172.44C81.1213 172.44 80.5013 172.6 79.9413 172.92C79.3813 173.24 78.9346 173.707 78.6013 174.32C78.2679 174.933 78.1013 175.653 78.1013 176.48C78.1013 177.32 78.2679 178.053 78.6013 178.68C78.9346 179.293 79.3813 179.767 79.9413 180.1C80.5013 180.42 81.1213 180.58 81.8013 180.58C82.4813 180.58 83.1013 180.42 83.6613 180.1C84.2346 179.767 84.6879 179.293 85.0213 178.68C85.3546 178.053 85.5213 177.327 85.5213 176.5ZM91.1769 169.26C90.8302 169.26 90.5369 169.14 90.2969 168.9C90.0569 168.66 89.9369 168.367 89.9369 168.02C89.9369 167.673 90.0569 167.38 90.2969 167.14C90.5369 166.9 90.8302 166.78 91.1769 166.78C91.5102 166.78 91.7902 166.9 92.0169 167.14C92.2569 167.38 92.3769 167.673 92.3769 168.02C92.3769 168.367 92.2569 168.66 92.0169 168.9C91.7902 169.14 91.5102 169.26 91.1769 169.26ZM92.0569 171.04V182H90.2369V171.04H92.0569ZM101.079 182L96.7788 177.16V182H94.9588V167.2H96.7788V175.9L100.999 171.04H103.539L98.3788 176.5L103.559 182H101.079ZM104.372 176.48C104.372 175.36 104.598 174.38 105.052 173.54C105.505 172.687 106.125 172.027 106.912 171.56C107.712 171.093 108.598 170.86 109.572 170.86C110.532 170.86 111.365 171.067 112.072 171.48C112.778 171.893 113.305 172.413 113.652 173.04V171.04H115.492V182H113.652V179.96C113.292 180.6 112.752 181.133 112.032 181.56C111.325 181.973 110.498 182.18 109.552 182.18C108.578 182.18 107.698 181.94 106.912 181.46C106.125 180.98 105.505 180.307 105.052 179.44C104.598 178.573 104.372 177.587 104.372 176.48ZM113.652 176.5C113.652 175.673 113.485 174.953 113.152 174.34C112.818 173.727 112.365 173.26 111.792 172.94C111.232 172.607 110.612 172.44 109.932 172.44C109.252 172.44 108.632 172.6 108.072 172.92C107.512 173.24 107.065 173.707 106.732 174.32C106.398 174.933 106.232 175.653 106.232 176.48C106.232 177.32 106.398 178.053 106.732 178.68C107.065 179.293 107.512 179.767 108.072 180.1C108.632 180.42 109.252 180.58 109.932 180.58C110.612 180.58 111.232 180.42 111.792 180.1C112.365 179.767 112.818 179.293 113.152 178.68C113.485 178.053 113.652 177.327 113.652 176.5ZM123.707 170.84C125.041 170.84 126.121 171.247 126.947 172.06C127.774 172.86 128.187 174.02 128.187 175.54V182H126.387V175.8C126.387 174.707 126.114 173.873 125.567 173.3C125.021 172.713 124.274 172.42 123.327 172.42C122.367 172.42 121.601 172.72 121.027 173.32C120.467 173.92 120.187 174.793 120.187 175.94V182H118.367V171.04H120.187V172.6C120.547 172.04 121.034 171.607 121.647 171.3C122.274 170.993 122.961 170.84 123.707 170.84ZM137.912 173.06C138.272 172.433 138.806 171.913 139.512 171.5C140.232 171.073 141.066 170.86 142.012 170.86C142.986 170.86 143.866 171.093 144.652 171.56C145.452 172.027 146.079 172.687 146.532 173.54C146.986 174.38 147.212 175.36 147.212 176.48C147.212 177.587 146.986 178.573 146.532 179.44C146.079 180.307 145.452 180.98 144.652 181.46C143.866 181.94 142.986 182.18 142.012 182.18C141.079 182.18 140.252 181.973 139.532 181.56C138.826 181.133 138.286 180.607 137.912 179.98V187.2H136.092V171.04H137.912V173.06ZM145.352 176.48C145.352 175.653 145.186 174.933 144.852 174.32C144.519 173.707 144.066 173.24 143.492 172.92C142.932 172.6 142.312 172.44 141.632 172.44C140.966 172.44 140.346 172.607 139.772 172.94C139.212 173.26 138.759 173.733 138.412 174.36C138.079 174.973 137.912 175.687 137.912 176.5C137.912 177.327 138.079 178.053 138.412 178.68C138.759 179.293 139.212 179.767 139.772 180.1C140.346 180.42 140.966 180.58 141.632 180.58C142.312 180.58 142.932 180.42 143.492 180.1C144.066 179.767 144.519 179.293 144.852 178.68C145.186 178.053 145.352 177.32 145.352 176.48ZM159.408 176.1C159.408 176.447 159.388 176.813 159.348 177.2H150.588C150.655 178.28 151.021 179.127 151.688 179.74C152.368 180.34 153.188 180.64 154.148 180.64C154.935 180.64 155.588 180.46 156.108 180.1C156.641 179.727 157.015 179.233 157.228 178.62H159.188C158.895 179.673 158.308 180.533 157.428 181.2C156.548 181.853 155.455 182.18 154.148 182.18C153.108 182.18 152.175 181.947 151.348 181.48C150.535 181.013 149.895 180.353 149.428 179.5C148.961 178.633 148.728 177.633 148.728 176.5C148.728 175.367 148.955 174.373 149.408 173.52C149.861 172.667 150.495 172.013 151.308 171.56C152.135 171.093 153.081 170.86 154.148 170.86C155.188 170.86 156.108 171.087 156.908 171.54C157.708 171.993 158.321 172.62 158.748 173.42C159.188 174.207 159.408 175.1 159.408 176.1ZM157.528 175.72C157.528 175.027 157.375 174.433 157.068 173.94C156.761 173.433 156.341 173.053 155.808 172.8C155.288 172.533 154.708 172.4 154.068 172.4C153.148 172.4 152.361 172.693 151.708 173.28C151.068 173.867 150.701 174.68 150.608 175.72H157.528ZM166.95 170.84C168.284 170.84 169.364 171.247 170.19 172.06C171.017 172.86 171.43 174.02 171.43 175.54V182H169.63V175.8C169.63 174.707 169.357 173.873 168.81 173.3C168.264 172.713 167.517 172.42 166.57 172.42C165.61 172.42 164.844 172.72 164.27 173.32C163.71 173.92 163.43 174.793 163.43 175.94V182H161.61V171.04H163.43V172.6C163.79 172.04 164.277 171.607 164.89 171.3C165.517 170.993 166.204 170.84 166.95 170.84ZM178.723 170.86C179.67 170.86 180.497 171.067 181.203 171.48C181.923 171.893 182.457 172.413 182.803 173.04V171.04H184.643V182.24C184.643 183.24 184.43 184.127 184.003 184.9C183.577 185.687 182.963 186.3 182.163 186.74C181.377 187.18 180.457 187.4 179.403 187.4C177.963 187.4 176.763 187.06 175.803 186.38C174.843 185.7 174.277 184.773 174.103 183.6H175.903C176.103 184.267 176.517 184.8 177.143 185.2C177.77 185.613 178.523 185.82 179.403 185.82C180.403 185.82 181.217 185.507 181.843 184.88C182.483 184.253 182.803 183.373 182.803 182.24V179.94C182.443 180.58 181.91 181.113 181.203 181.54C180.497 181.967 179.67 182.18 178.723 182.18C177.75 182.18 176.863 181.94 176.063 181.46C175.277 180.98 174.657 180.307 174.203 179.44C173.75 178.573 173.523 177.587 173.523 176.48C173.523 175.36 173.75 174.38 174.203 173.54C174.657 172.687 175.277 172.027 176.063 171.56C176.863 171.093 177.75 170.86 178.723 170.86ZM182.803 176.5C182.803 175.673 182.637 174.953 182.303 174.34C181.97 173.727 181.517 173.26 180.943 172.94C180.383 172.607 179.763 172.44 179.083 172.44C178.403 172.44 177.783 172.6 177.223 172.92C176.663 173.24 176.217 173.707 175.883 174.32C175.55 174.933 175.383 175.653 175.383 176.48C175.383 177.32 175.55 178.053 175.883 178.68C176.217 179.293 176.663 179.767 177.223 180.1C177.783 180.42 178.403 180.58 179.083 180.58C179.763 180.58 180.383 180.42 180.943 180.1C181.517 179.767 181.97 179.293 182.303 178.68C182.637 178.053 182.803 177.327 182.803 176.5ZM186.839 176.48C186.839 175.36 187.066 174.38 187.519 173.54C187.972 172.687 188.592 172.027 189.379 171.56C190.179 171.093 191.066 170.86 192.039 170.86C192.999 170.86 193.832 171.067 194.539 171.48C195.246 171.893 195.772 172.413 196.119 173.04V171.04H197.959V182H196.119V179.96C195.759 180.6 195.219 181.133 194.499 181.56C193.792 181.973 192.966 182.18 192.019 182.18C191.046 182.18 190.166 181.94 189.379 181.46C188.592 180.98 187.972 180.307 187.519 179.44C187.066 178.573 186.839 177.587 186.839 176.48ZM196.119 176.5C196.119 175.673 195.952 174.953 195.619 174.34C195.286 173.727 194.832 173.26 194.259 172.94C193.699 172.607 193.079 172.44 192.399 172.44C191.719 172.44 191.099 172.6 190.539 172.92C189.979 173.24 189.532 173.707 189.199 174.32C188.866 174.933 188.699 175.653 188.699 176.48C188.699 177.32 188.866 178.053 189.199 178.68C189.532 179.293 189.979 179.767 190.539 180.1C191.099 180.42 191.719 180.58 192.399 180.58C193.079 180.58 193.699 180.42 194.259 180.1C194.832 179.767 195.286 179.293 195.619 178.68C195.952 178.053 196.119 177.327 196.119 176.5ZM202.655 167.2V182H200.835V167.2H202.655ZM204.876 176.48C204.876 175.36 205.103 174.38 205.556 173.54C206.01 172.687 206.63 172.027 207.416 171.56C208.216 171.093 209.103 170.86 210.076 170.86C211.036 170.86 211.87 171.067 212.576 171.48C213.283 171.893 213.81 172.413 214.156 173.04V171.04H215.996V182H214.156V179.96C213.796 180.6 213.256 181.133 212.536 181.56C211.83 181.973 211.003 182.18 210.056 182.18C209.083 182.18 208.203 181.94 207.416 181.46C206.63 180.98 206.01 180.307 205.556 179.44C205.103 178.573 204.876 177.587 204.876 176.48ZM214.156 176.5C214.156 175.673 213.99 174.953 213.656 174.34C213.323 173.727 212.87 173.26 212.296 172.94C211.736 172.607 211.116 172.44 210.436 172.44C209.756 172.44 209.136 172.6 208.576 172.92C208.016 173.24 207.57 173.707 207.236 174.32C206.903 174.933 206.736 175.653 206.736 176.48C206.736 177.32 206.903 178.053 207.236 178.68C207.57 179.293 208.016 179.767 208.576 180.1C209.136 180.42 209.756 180.58 210.436 180.58C211.116 180.58 211.736 180.42 212.296 180.1C212.87 179.767 213.323 179.293 213.656 178.68C213.99 178.053 214.156 177.327 214.156 176.5ZM232.052 170.84C232.905 170.84 233.665 171.02 234.332 171.38C234.999 171.727 235.525 172.253 235.912 172.96C236.299 173.667 236.492 174.527 236.492 175.54V182H234.692V175.8C234.692 174.707 234.419 173.873 233.872 173.3C233.339 172.713 232.612 172.42 231.692 172.42C230.745 172.42 229.992 172.727 229.432 173.34C228.872 173.94 228.592 174.813 228.592 175.96V182H226.792V175.8C226.792 174.707 226.519 173.873 225.972 173.3C225.439 172.713 224.712 172.42 223.792 172.42C222.845 172.42 222.092 172.727 221.532 173.34C220.972 173.94 220.692 174.813 220.692 175.96V182H218.872V171.04H220.692V172.62C221.052 172.047 221.532 171.607 222.132 171.3C222.745 170.993 223.419 170.84 224.152 170.84C225.072 170.84 225.885 171.047 226.592 171.46C227.299 171.873 227.825 172.48 228.172 173.28C228.479 172.507 228.985 171.907 229.692 171.48C230.399 171.053 231.185 170.84 232.052 170.84ZM238.598 176.48C238.598 175.36 238.824 174.38 239.278 173.54C239.731 172.687 240.351 172.027 241.138 171.56C241.938 171.093 242.824 170.86 243.798 170.86C244.758 170.86 245.591 171.067 246.298 171.48C247.004 171.893 247.531 172.413 247.878 173.04V171.04H249.718V182H247.878V179.96C247.518 180.6 246.978 181.133 246.258 181.56C245.551 181.973 244.724 182.18 243.778 182.18C242.804 182.18 241.924 181.94 241.138 181.46C240.351 180.98 239.731 180.307 239.278 179.44C238.824 178.573 238.598 177.587 238.598 176.48ZM247.878 176.5C247.878 175.673 247.711 174.953 247.378 174.34C247.044 173.727 246.591 173.26 246.018 172.94C245.458 172.607 244.838 172.44 244.158 172.44C243.478 172.44 242.858 172.6 242.298 172.92C241.738 173.24 241.291 173.707 240.958 174.32C240.624 174.933 240.458 175.653 240.458 176.48C240.458 177.32 240.624 178.053 240.958 178.68C241.291 179.293 241.738 179.767 242.298 180.1C242.858 180.42 243.478 180.58 244.158 180.58C244.838 180.58 245.458 180.42 246.018 180.1C246.591 179.767 247.044 179.293 247.378 178.68C247.711 178.053 247.878 177.327 247.878 176.5ZM257.933 170.84C259.266 170.84 260.346 171.247 261.173 172.06C262 172.86 262.413 174.02 262.413 175.54V182H260.613V175.8C260.613 174.707 260.34 173.873 259.793 173.3C259.246 172.713 258.5 172.42 257.553 172.42C256.593 172.42 255.826 172.72 255.253 173.32C254.693 173.92 254.413 174.793 254.413 175.94V182H252.593V171.04H254.413V172.6C254.773 172.04 255.26 171.607 255.873 171.3C256.5 170.993 257.186 170.84 257.933 170.84ZM269.638 176.48C269.638 175.36 269.865 174.38 270.318 173.54C270.771 172.687 271.391 172.027 272.178 171.56C272.978 171.093 273.871 170.86 274.858 170.86C275.711 170.86 276.505 171.06 277.238 171.46C277.971 171.847 278.531 172.36 278.918 173V167.2H280.758V182H278.918V179.94C278.558 180.593 278.025 181.133 277.318 181.56C276.611 181.973 275.785 182.18 274.838 182.18C273.865 182.18 272.978 181.94 272.178 181.46C271.391 180.98 270.771 180.307 270.318 179.44C269.865 178.573 269.638 177.587 269.638 176.48ZM278.918 176.5C278.918 175.673 278.751 174.953 278.418 174.34C278.085 173.727 277.631 173.26 277.058 172.94C276.498 172.607 275.878 172.44 275.198 172.44C274.518 172.44 273.898 172.6 273.338 172.92C272.778 173.24 272.331 173.707 271.998 174.32C271.665 174.933 271.498 175.653 271.498 176.48C271.498 177.32 271.665 178.053 271.998 178.68C272.331 179.293 272.778 179.767 273.338 180.1C273.898 180.42 274.518 180.58 275.198 180.58C275.878 180.58 276.498 180.42 277.058 180.1C277.631 179.767 278.085 179.293 278.418 178.68C278.751 178.053 278.918 177.327 278.918 176.5ZM282.954 176.48C282.954 175.36 283.18 174.38 283.634 173.54C284.087 172.687 284.707 172.027 285.494 171.56C286.294 171.093 287.18 170.86 288.154 170.86C289.114 170.86 289.947 171.067 290.654 171.48C291.36 171.893 291.887 172.413 292.234 173.04V171.04H294.074V182H292.234V179.96C291.874 180.6 291.334 181.133 290.614 181.56C289.907 181.973 289.08 182.18 288.134 182.18C287.16 182.18 286.28 181.94 285.494 181.46C284.707 180.98 284.087 180.307 283.634 179.44C283.18 178.573 282.954 177.587 282.954 176.48ZM292.234 176.5C292.234 175.673 292.067 174.953 291.734 174.34C291.4 173.727 290.947 173.26 290.374 172.94C289.814 172.607 289.194 172.44 288.514 172.44C287.834 172.44 287.214 172.6 286.654 172.92C286.094 173.24 285.647 173.707 285.314 174.32C284.98 174.933 284.814 175.653 284.814 176.48C284.814 177.32 284.98 178.053 285.314 178.68C285.647 179.293 286.094 179.767 286.654 180.1C287.214 180.42 287.834 180.58 288.514 180.58C289.194 180.58 289.814 180.42 290.374 180.1C290.947 179.767 291.4 179.293 291.734 178.68C292.067 178.053 292.234 177.327 292.234 176.5ZM302.289 170.84C303.623 170.84 304.703 171.247 305.529 172.06C306.356 172.86 306.769 174.02 306.769 175.54V182H304.969V175.8C304.969 174.707 304.696 173.873 304.149 173.3C303.603 172.713 302.856 172.42 301.909 172.42C300.949 172.42 300.183 172.72 299.609 173.32C299.049 173.92 298.769 174.793 298.769 175.94V182H296.949V171.04H298.769V172.6C299.129 172.04 299.616 171.607 300.229 171.3C300.856 170.993 301.543 170.84 302.289 170.84ZM318.554 182.18C317.714 182.18 316.961 182.04 316.294 181.76C315.628 181.467 315.101 181.067 314.714 180.56C314.328 180.04 314.114 179.447 314.074 178.78H315.954C316.008 179.327 316.261 179.773 316.714 180.12C317.181 180.467 317.788 180.64 318.534 180.64C319.228 180.64 319.774 180.487 320.174 180.18C320.574 179.873 320.774 179.487 320.774 179.02C320.774 178.54 320.561 178.187 320.134 177.96C319.708 177.72 319.048 177.487 318.154 177.26C317.341 177.047 316.674 176.833 316.154 176.62C315.648 176.393 315.208 176.067 314.834 175.64C314.474 175.2 314.294 174.627 314.294 173.92C314.294 173.36 314.461 172.847 314.794 172.38C315.128 171.913 315.601 171.547 316.214 171.28C316.828 171 317.528 170.86 318.314 170.86C319.528 170.86 320.508 171.167 321.254 171.78C322.001 172.393 322.401 173.233 322.454 174.3H320.634C320.594 173.727 320.361 173.267 319.934 172.92C319.521 172.573 318.961 172.4 318.254 172.4C317.601 172.4 317.081 172.54 316.694 172.82C316.308 173.1 316.114 173.467 316.114 173.92C316.114 174.28 316.228 174.58 316.454 174.82C316.694 175.047 316.988 175.233 317.334 175.38C317.694 175.513 318.188 175.667 318.814 175.84C319.601 176.053 320.241 176.267 320.734 176.48C321.228 176.68 321.648 176.987 321.994 177.4C322.354 177.813 322.541 178.353 322.554 179.02C322.554 179.62 322.388 180.16 322.054 180.64C321.721 181.12 321.248 181.5 320.634 181.78C320.034 182.047 319.341 182.18 318.554 182.18ZM331.044 182L326.744 177.16V182H324.924V167.2H326.744V175.9L330.964 171.04H333.504L328.344 176.5L333.524 182H331.044ZM335.957 169.26C335.61 169.26 335.317 169.14 335.077 168.9C334.837 168.66 334.717 168.367 334.717 168.02C334.717 167.673 334.837 167.38 335.077 167.14C335.317 166.9 335.61 166.78 335.957 166.78C336.29 166.78 336.57 166.9 336.797 167.14C337.037 167.38 337.157 167.673 337.157 168.02C337.157 168.367 337.037 168.66 336.797 168.9C336.57 169.14 336.29 169.26 335.957 169.26ZM336.837 171.04V182H335.017V171.04H336.837ZM341.558 167.2V182H339.738V167.2H341.558ZM346.28 167.2V182H344.46V167.2H346.28ZM356.534 172.54V179C356.534 179.533 356.648 179.913 356.874 180.14C357.101 180.353 357.494 180.46 358.054 180.46H359.394V182H357.754C356.741 182 355.981 181.767 355.474 181.3C354.968 180.833 354.714 180.067 354.714 179V172.54H353.294V171.04H354.714V168.28H356.534V171.04H359.394V172.54H356.534ZM371.399 176.1C371.399 176.447 371.379 176.813 371.339 177.2H362.579C362.646 178.28 363.013 179.127 363.679 179.74C364.359 180.34 365.179 180.64 366.139 180.64C366.926 180.64 367.579 180.46 368.099 180.1C368.633 179.727 369.006 179.233 369.219 178.62H371.179C370.886 179.673 370.299 180.533 369.419 181.2C368.539 181.853 367.446 182.18 366.139 182.18C365.099 182.18 364.166 181.947 363.339 181.48C362.526 181.013 361.886 180.353 361.419 179.5C360.953 178.633 360.719 177.633 360.719 176.5C360.719 175.367 360.946 174.373 361.399 173.52C361.853 172.667 362.486 172.013 363.299 171.56C364.126 171.093 365.073 170.86 366.139 170.86C367.179 170.86 368.099 171.087 368.899 171.54C369.699 171.993 370.313 172.62 370.739 173.42C371.179 174.207 371.399 175.1 371.399 176.1ZM369.519 175.72C369.519 175.027 369.366 174.433 369.059 173.94C368.753 173.433 368.333 173.053 367.799 172.8C367.279 172.533 366.699 172.4 366.059 172.4C365.139 172.4 364.353 172.693 363.699 173.28C363.059 173.867 362.693 174.68 362.599 175.72H369.519ZM375.422 172.82C375.742 172.193 376.195 171.707 376.782 171.36C377.382 171.013 378.108 170.84 378.962 170.84V172.72H378.482C376.442 172.72 375.422 173.827 375.422 176.04V182H373.602V171.04H375.422V172.82ZM382.683 173.08C383.056 172.427 383.603 171.893 384.323 171.48C385.043 171.067 385.863 170.86 386.783 170.86C387.769 170.86 388.656 171.093 389.443 171.56C390.229 172.027 390.849 172.687 391.303 173.54C391.756 174.38 391.983 175.36 391.983 176.48C391.983 177.587 391.756 178.573 391.303 179.44C390.849 180.307 390.223 180.98 389.423 181.46C388.636 181.94 387.756 182.18 386.783 182.18C385.836 182.18 385.003 181.973 384.283 181.56C383.576 181.147 383.043 180.62 382.683 179.98V182H380.863V167.2H382.683V173.08ZM390.123 176.48C390.123 175.653 389.956 174.933 389.623 174.32C389.289 173.707 388.836 173.24 388.263 172.92C387.703 172.6 387.083 172.44 386.403 172.44C385.736 172.44 385.116 172.607 384.543 172.94C383.983 173.26 383.529 173.733 383.183 174.36C382.849 174.973 382.683 175.687 382.683 176.5C382.683 177.327 382.849 178.053 383.183 178.68C383.529 179.293 383.983 179.767 384.543 180.1C385.116 180.42 385.736 180.58 386.403 180.58C387.083 180.58 387.703 180.42 388.263 180.1C388.836 179.767 389.289 179.293 389.623 178.68C389.956 178.053 390.123 177.32 390.123 176.48ZM393.498 176.48C393.498 175.36 393.725 174.38 394.178 173.54C394.632 172.687 395.252 172.027 396.038 171.56C396.838 171.093 397.725 170.86 398.698 170.86C399.658 170.86 400.492 171.067 401.198 171.48C401.905 171.893 402.432 172.413 402.778 173.04V171.04H404.618V182H402.778V179.96C402.418 180.6 401.878 181.133 401.158 181.56C400.452 181.973 399.625 182.18 398.678 182.18C397.705 182.18 396.825 181.94 396.038 181.46C395.252 180.98 394.632 180.307 394.178 179.44C393.725 178.573 393.498 177.587 393.498 176.48ZM402.778 176.5C402.778 175.673 402.612 174.953 402.278 174.34C401.945 173.727 401.492 173.26 400.918 172.94C400.358 172.607 399.738 172.44 399.058 172.44C398.378 172.44 397.758 172.6 397.198 172.92C396.638 173.24 396.192 173.707 395.858 174.32C395.525 174.933 395.358 175.653 395.358 176.48C395.358 177.32 395.525 178.053 395.858 178.68C396.192 179.293 396.638 179.767 397.198 180.1C397.758 180.42 398.378 180.58 399.058 180.58C399.738 180.58 400.358 180.42 400.918 180.1C401.492 179.767 401.945 179.293 402.278 178.68C402.612 178.053 402.778 177.327 402.778 176.5ZM408.434 169.26C408.087 169.26 407.794 169.14 407.554 168.9C407.314 168.66 407.194 168.367 407.194 168.02C407.194 167.673 407.314 167.38 407.554 167.14C407.794 166.9 408.087 166.78 408.434 166.78C408.767 166.78 409.047 166.9 409.274 167.14C409.514 167.38 409.634 167.673 409.634 168.02C409.634 168.367 409.514 168.66 409.274 168.9C409.047 169.14 408.767 169.26 408.434 169.26ZM409.314 171.04V182H407.494V171.04H409.314ZM418.336 182L414.036 177.16V182H412.216V167.2H414.036V175.9L418.256 171.04H420.796L415.636 176.5L420.816 182H418.336ZM59.78 208.9H53.7L52.58 212H50.66L55.7 198.14H57.8L62.82 212H60.9L59.78 208.9ZM59.26 207.42L56.74 200.38L54.22 207.42H59.26ZM70.1566 200.84C71.4899 200.84 72.5699 201.247 73.3966 202.06C74.2232 202.86 74.6366 204.02 74.6366 205.54V212H72.8366V205.8C72.8366 204.707 72.5632 203.873 72.0166 203.3C71.4699 202.713 70.7232 202.42 69.7766 202.42C68.8166 202.42 68.0499 202.72 67.4766 203.32C66.9166 203.92 66.6366 204.793 66.6366 205.94V212H64.8166V201.04H66.6366V202.6C66.9966 202.04 67.4832 201.607 68.0966 201.3C68.7232 200.993 69.4099 200.84 70.1566 200.84ZM76.7295 206.48C76.7295 205.36 76.9562 204.38 77.4095 203.54C77.8629 202.687 78.4829 202.027 79.2695 201.56C80.0695 201.093 80.9629 200.86 81.9495 200.86C82.8029 200.86 83.5962 201.06 84.3295 201.46C85.0629 201.847 85.6229 202.36 86.0095 203V197.2H87.8495V212H86.0095V209.94C85.6495 210.593 85.1162 211.133 84.4095 211.56C83.7029 211.973 82.8762 212.18 81.9295 212.18C80.9562 212.18 80.0695 211.94 79.2695 211.46C78.4829 210.98 77.8629 210.307 77.4095 209.44C76.9562 208.573 76.7295 207.587 76.7295 206.48ZM86.0095 206.5C86.0095 205.673 85.8429 204.953 85.5095 204.34C85.1762 203.727 84.7229 203.26 84.1495 202.94C83.5895 202.607 82.9695 202.44 82.2895 202.44C81.6095 202.44 80.9895 202.6 80.4295 202.92C79.8695 203.24 79.4229 203.707 79.0895 204.32C78.7562 204.933 78.5895 205.653 78.5895 206.48C78.5895 207.32 78.7562 208.053 79.0895 208.68C79.4229 209.293 79.8695 209.767 80.4295 210.1C80.9895 210.42 81.6095 210.58 82.2895 210.58C82.9695 210.58 83.5895 210.42 84.1495 210.1C84.7229 209.767 85.1762 209.293 85.5095 208.68C85.8429 208.053 86.0095 207.327 86.0095 206.5ZM90.0452 206.48C90.0452 205.36 90.2718 204.38 90.7252 203.54C91.1785 202.687 91.7985 202.027 92.5852 201.56C93.3852 201.093 94.2718 200.86 95.2452 200.86C96.2052 200.86 97.0385 201.067 97.7452 201.48C98.4518 201.893 98.9785 202.413 99.3252 203.04V201.04H101.165V212H99.3252V209.96C98.9652 210.6 98.4252 211.133 97.7052 211.56C96.9985 211.973 96.1718 212.18 95.2252 212.18C94.2518 212.18 93.3718 211.94 92.5852 211.46C91.7985 210.98 91.1785 210.307 90.7252 209.44C90.2718 208.573 90.0452 207.587 90.0452 206.48ZM99.3252 206.5C99.3252 205.673 99.1585 204.953 98.8252 204.34C98.4918 203.727 98.0385 203.26 97.4652 202.94C96.9052 202.607 96.2852 202.44 95.6052 202.44C94.9252 202.44 94.3052 202.6 93.7452 202.92C93.1852 203.24 92.7385 203.707 92.4052 204.32C92.0718 204.933 91.9052 205.653 91.9052 206.48C91.9052 207.32 92.0718 208.053 92.4052 208.68C92.7385 209.293 93.1852 209.767 93.7452 210.1C94.3052 210.42 94.9252 210.58 95.6052 210.58C96.2852 210.58 96.9052 210.42 97.4652 210.1C98.0385 209.767 98.4918 209.293 98.8252 208.68C99.1585 208.053 99.3252 207.327 99.3252 206.5ZM122.353 200.84C123.206 200.84 123.966 201.02 124.633 201.38C125.299 201.727 125.826 202.253 126.213 202.96C126.599 203.667 126.793 204.527 126.793 205.54V212H124.993V205.8C124.993 204.707 124.719 203.873 124.173 203.3C123.639 202.713 122.913 202.42 121.993 202.42C121.046 202.42 120.293 202.727 119.733 203.34C119.173 203.94 118.893 204.813 118.893 205.96V212H117.093V205.8C117.093 204.707 116.819 203.873 116.273 203.3C115.739 202.713 115.013 202.42 114.093 202.42C113.146 202.42 112.393 202.727 111.833 203.34C111.273 203.94 110.993 204.813 110.993 205.96V212H109.173V201.04H110.993V202.62C111.353 202.047 111.833 201.607 112.433 201.3C113.046 200.993 113.719 200.84 114.453 200.84C115.373 200.84 116.186 201.047 116.893 201.46C117.599 201.873 118.126 202.48 118.473 203.28C118.779 202.507 119.286 201.907 119.993 201.48C120.699 201.053 121.486 200.84 122.353 200.84ZM139.578 206.1C139.578 206.447 139.558 206.813 139.518 207.2H130.758C130.825 208.28 131.192 209.127 131.858 209.74C132.538 210.34 133.358 210.64 134.318 210.64C135.105 210.64 135.758 210.46 136.278 210.1C136.812 209.727 137.185 209.233 137.398 208.62H139.358C139.065 209.673 138.478 210.533 137.598 211.2C136.718 211.853 135.625 212.18 134.318 212.18C133.278 212.18 132.345 211.947 131.518 211.48C130.705 211.013 130.065 210.353 129.598 209.5C129.132 208.633 128.898 207.633 128.898 206.5C128.898 205.367 129.125 204.373 129.578 203.52C130.032 202.667 130.665 202.013 131.478 201.56C132.305 201.093 133.252 200.86 134.318 200.86C135.358 200.86 136.278 201.087 137.078 201.54C137.878 201.993 138.492 202.62 138.918 203.42C139.358 204.207 139.578 205.1 139.578 206.1ZM137.698 205.72C137.698 205.027 137.545 204.433 137.238 203.94C136.932 203.433 136.512 203.053 135.978 202.8C135.458 202.533 134.878 202.4 134.238 202.4C133.318 202.4 132.532 202.693 131.878 203.28C131.238 203.867 130.872 204.68 130.778 205.72H137.698ZM143.601 197.2V212H141.781V197.2H143.601ZM145.823 206.48C145.823 205.36 146.049 204.38 146.503 203.54C146.956 202.687 147.576 202.027 148.363 201.56C149.163 201.093 150.049 200.86 151.023 200.86C151.983 200.86 152.816 201.067 153.523 201.48C154.229 201.893 154.756 202.413 155.103 203.04V201.04H156.943V212H155.103V209.96C154.743 210.6 154.203 211.133 153.483 211.56C152.776 211.973 151.949 212.18 151.003 212.18C150.029 212.18 149.149 211.94 148.363 211.46C147.576 210.98 146.956 210.307 146.503 209.44C146.049 208.573 145.823 207.587 145.823 206.48ZM155.103 206.5C155.103 205.673 154.936 204.953 154.603 204.34C154.269 203.727 153.816 203.26 153.243 202.94C152.683 202.607 152.063 202.44 151.383 202.44C150.703 202.44 150.083 202.6 149.523 202.92C148.963 203.24 148.516 203.707 148.183 204.32C147.849 204.933 147.683 205.653 147.683 206.48C147.683 207.32 147.849 208.053 148.183 208.68C148.516 209.293 148.963 209.767 149.523 210.1C150.083 210.42 150.703 210.58 151.383 210.58C152.063 210.58 152.683 210.42 153.243 210.1C153.816 209.767 154.269 209.293 154.603 208.68C154.936 208.053 155.103 207.327 155.103 206.5ZM161.638 197.2V212H159.818V197.2H161.638ZM174.26 201.04V212H172.44V210.38C172.093 210.94 171.607 211.38 170.98 211.7C170.367 212.007 169.687 212.16 168.94 212.16C168.087 212.16 167.32 211.987 166.64 211.64C165.96 211.28 165.42 210.747 165.02 210.04C164.633 209.333 164.44 208.473 164.44 207.46V201.04H166.24V207.22C166.24 208.3 166.513 209.133 167.06 209.72C167.607 210.293 168.353 210.58 169.3 210.58C170.273 210.58 171.04 210.28 171.6 209.68C172.16 209.08 172.44 208.207 172.44 207.06V201.04H174.26ZM178.073 199.26C177.726 199.26 177.433 199.14 177.193 198.9C176.953 198.66 176.833 198.367 176.833 198.02C176.833 197.673 176.953 197.38 177.193 197.14C177.433 196.9 177.726 196.78 178.073 196.78C178.406 196.78 178.686 196.9 178.913 197.14C179.153 197.38 179.273 197.673 179.273 198.02C179.273 198.367 179.153 198.66 178.913 198.9C178.686 199.14 178.406 199.26 178.073 199.26ZM178.953 201.04V212H177.133V201.04H178.953ZM193.107 212L188.807 207.16V212H186.987V197.2H188.807V205.9L193.027 201.04H195.567L190.407 206.5L195.587 212H193.107ZM206.8 201.04V212H204.98V210.38C204.633 210.94 204.147 211.38 203.52 211.7C202.907 212.007 202.227 212.16 201.48 212.16C200.627 212.16 199.86 211.987 199.18 211.64C198.5 211.28 197.96 210.747 197.56 210.04C197.173 209.333 196.98 208.473 196.98 207.46V201.04H198.78V207.22C198.78 208.3 199.053 209.133 199.6 209.72C200.147 210.293 200.893 210.58 201.84 210.58C202.813 210.58 203.58 210.28 204.14 209.68C204.7 209.08 204.98 208.207 204.98 207.06V201.04H206.8ZM211.493 202.82C211.813 202.193 212.266 201.707 212.853 201.36C213.453 201.013 214.179 200.84 215.033 200.84V202.72H214.553C212.513 202.72 211.493 203.827 211.493 206.04V212H209.673V201.04H211.493V202.82ZM220.814 212.18C219.974 212.18 219.22 212.04 218.554 211.76C217.887 211.467 217.36 211.067 216.974 210.56C216.587 210.04 216.374 209.447 216.334 208.78H218.214C218.267 209.327 218.52 209.773 218.974 210.12C219.44 210.467 220.047 210.64 220.794 210.64C221.487 210.64 222.034 210.487 222.434 210.18C222.834 209.873 223.034 209.487 223.034 209.02C223.034 208.54 222.82 208.187 222.394 207.96C221.967 207.72 221.307 207.487 220.414 207.26C219.6 207.047 218.934 206.833 218.414 206.62C217.907 206.393 217.467 206.067 217.094 205.64C216.734 205.2 216.554 204.627 216.554 203.92C216.554 203.36 216.72 202.847 217.054 202.38C217.387 201.913 217.86 201.547 218.474 201.28C219.087 201 219.787 200.86 220.574 200.86C221.787 200.86 222.767 201.167 223.514 201.78C224.26 202.393 224.66 203.233 224.714 204.3H222.894C222.854 203.727 222.62 203.267 222.194 202.92C221.78 202.573 221.22 202.4 220.514 202.4C219.86 202.4 219.34 202.54 218.954 202.82C218.567 203.1 218.374 203.467 218.374 203.92C218.374 204.28 218.487 204.58 218.714 204.82C218.954 205.047 219.247 205.233 219.594 205.38C219.954 205.513 220.447 205.667 221.074 205.84C221.86 206.053 222.5 206.267 222.994 206.48C223.487 206.68 223.907 206.987 224.254 207.4C224.614 207.813 224.8 208.353 224.814 209.02C224.814 209.62 224.647 210.16 224.314 210.64C223.98 211.12 223.507 211.5 222.894 211.78C222.294 212.047 221.6 212.18 220.814 212.18ZM236.903 201.04V212H235.083V210.38C234.736 210.94 234.25 211.38 233.623 211.7C233.01 212.007 232.33 212.16 231.583 212.16C230.73 212.16 229.963 211.987 229.283 211.64C228.603 211.28 228.063 210.747 227.663 210.04C227.276 209.333 227.083 208.473 227.083 207.46V201.04H228.883V207.22C228.883 208.3 229.156 209.133 229.703 209.72C230.25 210.293 230.996 210.58 231.943 210.58C232.916 210.58 233.683 210.28 234.243 209.68C234.803 209.08 235.083 208.207 235.083 207.06V201.04H236.903ZM243.656 212.18C242.816 212.18 242.063 212.04 241.396 211.76C240.729 211.467 240.203 211.067 239.816 210.56C239.429 210.04 239.216 209.447 239.176 208.78H241.056C241.109 209.327 241.363 209.773 241.816 210.12C242.283 210.467 242.889 210.64 243.636 210.64C244.329 210.64 244.876 210.487 245.276 210.18C245.676 209.873 245.876 209.487 245.876 209.02C245.876 208.54 245.663 208.187 245.236 207.96C244.809 207.72 244.149 207.487 243.256 207.26C242.443 207.047 241.776 206.833 241.256 206.62C240.749 206.393 240.309 206.067 239.936 205.64C239.576 205.2 239.396 204.627 239.396 203.92C239.396 203.36 239.563 202.847 239.896 202.38C240.229 201.913 240.703 201.547 241.316 201.28C241.929 201 242.629 200.86 243.416 200.86C244.629 200.86 245.609 201.167 246.356 201.78C247.103 202.393 247.503 203.233 247.556 204.3H245.736C245.696 203.727 245.463 203.267 245.036 202.92C244.623 202.573 244.063 202.4 243.356 202.4C242.703 202.4 242.183 202.54 241.796 202.82C241.409 203.1 241.216 203.467 241.216 203.92C241.216 204.28 241.329 204.58 241.556 204.82C241.796 205.047 242.089 205.233 242.436 205.38C242.796 205.513 243.289 205.667 243.916 205.84C244.703 206.053 245.343 206.267 245.836 206.48C246.329 206.68 246.749 206.987 247.096 207.4C247.456 207.813 247.643 208.353 247.656 209.02C247.656 209.62 247.489 210.16 247.156 210.64C246.823 211.12 246.349 211.5 245.736 211.78C245.136 212.047 244.443 212.18 243.656 212.18ZM250.605 212.12C250.258 212.12 249.965 212 249.725 211.76C249.485 211.52 249.365 211.227 249.365 210.88C249.365 210.533 249.485 210.24 249.725 210C249.965 209.76 250.258 209.64 250.605 209.64C250.938 209.64 251.218 209.76 251.445 210C251.685 210.24 251.805 210.533 251.805 210.88C251.805 211.227 251.685 211.52 251.445 211.76C251.218 212 250.938 212.12 250.605 212.12Z" fill="white"/>
</g>
<defs>
<filter id="filter0_d_119_703" x="0" y="0" width="620" height="320" filterUnits="userSpaceOnUse" color-interpolation-filters="sRGB">
<feFlood flood-opacity="0" result="BackgroundImageFix"/>
<feColorMatrix in="SourceAlpha" type="matrix" values="0 0 0 0 0 0 0 0 0 0 0 0 0 0 0 0 0 0 127 0" result="hardAlpha"/>
<feOffset/>
<feGaussianBlur stdDeviation="3"/>
<feComposite in2="hardAlpha" operator="out"/>
<feColorMatrix type="matrix" values="0 0 0 0 0 0 0 0 0 0 0 0 0 0 0 0 0 0 0.16 0"/>
<feBlend mode="normal" in2="BackgroundImageFix" result="effect1_dropShadow_119_703"/>
<feBlend mode="normal" in="SourceGraphic" in2="effect1_dropShadow_119_703" result="shape"/>
</filter>
</defs>
</svg>
