<svg width="32" height="32" viewBox="0 0 32 32" fill="none" xmlns="http://www.w3.org/2000/svg">
<path d="M16.0001 28C23.3639 28 29.3334 22.0305 29.3334 14.6667C29.3334 7.30288 23.3639 1.33334 16.0001 1.33334C8.63628 1.33334 2.66675 7.30288 2.66675 14.6667C2.66675 22.0305 8.63628 28 16.0001 28Z" fill="#FFF59D"/>
<path d="M24.6668 14.6667C24.6668 9.53333 20.2668 5.46666 15.0001 6.06666C11.0001 6.53333 7.80011 9.73333 7.40011 13.7333C7.06678 16.8 8.33344 19.5333 10.4668 21.2667C11.4001 22.0667 12.0001 23.2 12.0001 24.4667V24.6667H20.0001V24.6C20.0001 23.4 20.5334 22.2 21.4668 21.4C23.4001 19.8 24.6668 17.4 24.6668 14.6667Z" fill="#FBC02D"/>
<path d="M20.3999 13.4667L18.3999 12.1333C18.1999 12 17.8666 12 17.6666 12.1333L15.9999 13.2L14.3999 12.1333C14.1999 12 13.8666 12 13.6666 12.1333L11.6666 13.4667C11.5332 13.6 11.3999 13.7333 11.3999 13.9333C11.3999 14.1333 11.3999 14.3333 11.5332 14.4667L14.0666 17.6V24.6667H15.3999V17.3333C15.3999 17.2 15.3332 17.0667 15.2666 16.9333L13.0666 14.2L14.0666 13.5333L15.6666 14.6C15.8666 14.7333 16.1999 14.7333 16.3999 14.6L17.9999 13.5333L18.9999 14.2L16.7999 16.9333C16.7332 17.0667 16.6666 17.2 16.6666 17.3333V24.6667H17.9999V17.6L20.5332 14.4667C20.6666 14.3333 20.7332 14.1333 20.6666 13.9333C20.5999 13.7333 20.5332 13.5333 20.3999 13.4667Z" fill="#FFF59D"/>
<path d="M16 31.3333C17.1046 31.3333 18 30.4379 18 29.3333C18 28.2288 17.1046 27.3333 16 27.3333C14.8954 27.3333 14 28.2288 14 29.3333C14 30.4379 14.8954 31.3333 16 31.3333Z" fill="#5C6BC0"/>
<path d="M17.3333 30H14.6667C13.2 30 12 28.8 12 27.3333V24H20V27.3333C20 28.8 18.8 30 17.3333 30Z" fill="#9FA8DA"/>
<path d="M20 27.3333L12.2667 28.4C12.4667 28.8667 12.8667 29.3333 13.3333 29.6L19.6 28.7333C19.8667 28.3333 20 27.8667 20 27.3333ZM12 25.8V27.1333L20 26V24.6667L12 25.8Z" fill="#5C6BC0"/>
</svg>
