<svg width="12" height="16" viewBox="0 0 12 16" fill="none" xmlns="http://www.w3.org/2000/svg">
<path fill-rule="evenodd" clip-rule="evenodd" d="M5.262 15.675L6 15L5.262 15.675ZM6.738 15.675L6.743 15.67L6.755 15.656L6.8 15.606L6.966 15.42C7.79694 14.4737 8.58057 13.4868 9.314 12.463C9.956 11.563 10.614 10.543 11.115 9.53C11.605 8.54 12 7.451 12 6.444C12 2.871 9.382 0 6 0C2.618 0 0 2.87 0 6.444C0 7.451 0.395 8.54 0.885 9.53C1.386 10.543 2.045 11.563 2.685 12.463C3.46744 13.5542 4.30694 14.6033 5.2 15.606L5.245 15.656L5.257 15.67L5.262 15.675C5.3557 15.7775 5.4697 15.8593 5.59676 15.9153C5.72382 15.9713 5.86115 16.0002 6 16.0002C6.13885 16.0002 6.27618 15.9713 6.40324 15.9153C6.5303 15.8593 6.6443 15.7775 6.738 15.675ZM6 15L6.738 15.674L6 15ZM6 4C5.46957 4 4.96086 4.21071 4.58579 4.58579C4.21071 4.96086 4 5.46957 4 6C4 6.53043 4.21071 7.03914 4.58579 7.41421C4.96086 7.78929 5.46957 8 6 8C6.53043 8 7.03914 7.78929 7.41421 7.41421C7.78929 7.03914 8 6.53043 8 6C8 5.46957 7.78929 4.96086 7.41421 4.58579C7.03914 4.21071 6.53043 4 6 4Z" fill="#3E3E3E"/>
</svg>
