<svg width="620" height="320" viewBox="0 0 620 320" fill="none" xmlns="http://www.w3.org/2000/svg">
<g filter="url(#filter0_d_119_702)">
<rect x="6" y="6" width="608" height="308" rx="8" fill="#01AB71"/>
<mask id="mask0_119_702" style="mask-type:alpha" maskUnits="userSpaceOnUse" x="6" y="6" width="608" height="308">
<rect x="6" y="6" width="608" height="308" rx="8" fill="#01AB71"/>
</mask>
<g mask="url(#mask0_119_702)">
<path d="M667.92 209.537L500.265 112.74C499.246 112.152 498.185 111.927 497.17 112.02C495.019 112.22 492.87 112.42 490.719 112.621C491.735 112.527 492.794 112.753 493.814 113.341L661.469 210.136C664.766 212.039 666.396 217.004 665.111 221.233L620.986 366.632C620.1 369.551 618.06 371.353 615.796 371.564C617.947 371.363 620.097 371.163 622.247 370.965C624.511 370.754 626.55 368.953 627.436 366.034L671.561 220.634C672.845 216.403 671.217 211.439 667.92 209.537Z" fill="#EBF2F6"/>
<path d="M661.47 210.136L493.815 113.341C490.524 111.441 486.811 113.321 485.528 117.551L441.402 262.95C440.117 267.18 441.753 272.148 445.044 274.047L612.699 370.842C615.995 372.745 619.703 370.864 620.986 366.632L665.111 221.233C666.396 217.004 664.766 212.039 661.47 210.136Z" fill="white"/>
<path d="M661.47 210.136L493.815 113.341C490.524 111.441 486.811 113.321 485.528 117.551L441.402 262.95C440.117 267.18 441.753 272.148 445.044 274.047L612.699 370.842C615.995 372.745 619.703 370.864 620.986 366.632L665.111 221.233C666.396 217.004 664.766 212.039 661.47 210.136Z" stroke="#1FAD98" stroke-miterlimit="10" stroke-linecap="round" stroke-linejoin="round"/>
<path d="M494.074 118.702L447.993 270.548L606.793 362.233L652.876 210.386L494.074 118.702Z" fill="#1FAD98"/>
<path d="M615.796 371.564C617.947 371.363 620.097 371.163 622.247 370.965C624.511 370.754 626.55 368.953 627.436 366.034L671.561 220.634C672.845 216.403 671.217 211.439 667.92 209.537L500.265 112.74C499.246 112.152 498.185 111.927 497.17 112.02C495.019 112.22 492.87 112.42 490.719 112.621" stroke="#1FAD98" stroke-miterlimit="10" stroke-linecap="round" stroke-linejoin="round"/>
<path d="M546.172 176.121L502.223 150.747C501.055 150.074 499.73 150.746 499.273 152.243L473.687 236.184C473.231 237.685 473.811 239.447 474.98 240.121L518.929 265.495C520.096 266.168 521.41 265.5 521.867 264.002L547.455 180.062C547.912 178.563 547.339 176.795 546.172 176.121Z" fill="white"/>
<path d="M534.256 182.112L507.465 166.645C506.297 165.972 504.973 166.644 504.517 168.141L499.735 183.825C499.279 185.324 499.861 187.087 501.029 187.761L527.819 203.229C528.988 203.903 530.302 203.236 530.759 201.737L535.539 186.052C535.996 184.555 535.423 182.787 534.256 182.112Z" fill="#DEECF4"/>
<path d="M534.256 182.112L507.465 166.645C506.297 165.972 504.973 166.644 504.517 168.141L499.735 183.825C499.279 185.324 499.861 187.087 501.029 187.761L527.819 203.229C528.988 203.903 530.302 203.236 530.759 201.737L535.539 186.052C535.996 184.555 535.423 182.787 534.256 182.112V182.112Z" stroke="#228DD5" stroke-miterlimit="10" stroke-linecap="round" stroke-linejoin="round"/>
<path d="M597.282 236.237L547.078 207.251L546.628 208.725L596.834 237.71L597.282 236.237Z" fill="white"/>
<path d="M538.166 236.485L614.635 280.635L615.083 279.171L538.612 235.021L538.166 236.485Z" fill="white"/>
<path d="M554.18 234.163L617.634 270.8L618.079 269.333L554.626 232.697L554.18 234.163Z" fill="white"/>
<path d="M548.008 204.198L624.477 248.346L624.925 246.881L548.455 202.731L548.008 204.198Z" fill="white"/>
<path d="M535.167 246.323L611.637 290.471L612.084 289.006L535.614 244.856L535.167 246.323Z" fill="white"/>
<path d="M536.666 241.405L613.136 285.555L613.584 284.088L537.113 239.938L536.666 241.405Z" fill="white"/>
<path d="M539.666 231.566L616.134 275.716L616.581 274.25L540.111 230.102L539.666 231.566Z" fill="white"/>
<path d="M549.834 198.204L549.387 199.677L625.856 243.828L626.305 242.353L549.834 198.204Z" fill="white"/>
<path d="M565.976 192.057L564.694 196.267C564.666 196.268 564.153 196.281 563.645 195.987C562.984 195.606 563.062 195.133 563.428 193.929L564.295 191.086L563.375 190.554L562.513 193.38C561.93 195.294 561.937 196.247 563.144 196.943C563.671 197.247 564.388 197.152 564.425 197.147L564.324 197.48L565.236 198.008L566.891 192.585L565.976 192.057Z" fill="white"/>
<path d="M570.398 194.466C569.624 194.219 568.767 194.399 568.723 194.408L568.92 193.757L568.008 193.228L566.353 198.653L567.273 199.184L568.428 195.397C568.467 195.397 569.205 195.396 570.038 195.647L570.398 194.466Z" fill="white"/>
<path d="M556.908 185.577C557.319 185.815 557.998 186.311 558.35 186.621L558.68 185.662C558.353 185.339 557.712 184.776 557.109 184.429C555.377 183.428 554.583 184.339 553.765 187.019C552.992 189.56 552.997 191.085 554.768 192.107C555.306 192.418 556.058 192.7 556.491 192.815L556.77 191.807C556.385 191.673 555.68 191.369 555.247 191.119C554.106 190.461 554.116 189.624 554.738 187.579C555.378 185.478 555.841 184.96 556.908 185.577Z" fill="white"/>
<path d="M560.75 192.19C560.368 193.444 560.017 193.959 559.229 193.506C558.441 193.051 558.457 192.342 558.84 191.087C559.224 189.826 559.598 189.409 560.346 189.841C561.088 190.27 561.135 190.928 560.75 192.19ZM560.652 188.838C559.237 188.022 558.449 188.794 557.914 190.552C557.365 192.352 557.476 193.671 558.925 194.507C560.378 195.346 561.134 194.528 561.682 192.728C562.22 190.97 562.061 189.653 560.652 188.838Z" fill="white"/>
<path d="M576.832 201.024L575.048 199.995C575.374 198.957 575.773 198.719 576.402 199.082C577.018 199.437 577.162 199.942 576.832 201.024ZM576.7 198.104C575.533 197.431 574.591 197.95 573.987 199.929C573.404 201.842 573.628 202.996 574.897 203.728C575.637 204.157 576.627 204.447 576.679 204.461L576.936 203.575C576.889 203.553 576.016 203.16 575.344 202.771C574.646 202.368 574.523 201.79 574.777 200.911L577.404 202.427L577.718 201.614C578.236 199.92 577.886 198.789 576.7 198.104Z" fill="white"/>
<path d="M572.205 196.764C572.712 197.057 573.611 197.766 573.656 197.803L573.977 196.829C573.931 196.789 573.073 196.021 572.458 195.664C571.621 195.181 570.738 195.209 570.365 196.438C570.015 197.587 570.404 198.119 571.277 198.852C572.062 199.507 572.172 199.714 572.055 200.097C571.911 200.57 571.62 200.593 571.012 200.24C570.579 199.991 569.672 199.276 569.624 199.238L569.284 200.202C569.329 200.242 570.193 201.013 570.777 201.35C571.824 201.955 572.592 201.861 572.98 200.592C573.312 199.499 573.04 198.971 572.093 198.156C571.326 197.493 571.178 197.292 571.288 196.934C571.425 196.487 571.699 196.471 572.205 196.764Z" fill="white"/>
<path d="M435.738 301.613C435.841 302.377 436.211 302.957 436.284 303.065C436.955 304.066 437.937 304.72 439.286 305.069C440.73 305.445 442.184 305.237 442.731 305.159C443.054 305.113 443.054 305.113 449.723 303.577C452.917 302.843 457.154 301.869 462.161 300.714C467.168 299.562 472.95 298.231 479.235 296.784C485.517 295.339 492.307 293.777 499.33 292.159C506.352 290.543 513.613 288.873 520.837 287.209C528.061 285.547 535.254 283.89 542.142 282.306C549.032 280.72 555.62 279.203 561.637 277.82C567.654 276.434 573.099 275.181 577.704 274.12C582.312 273.06 586.077 272.194 588.735 271.582C593.246 270.543 593.246 270.543 593.719 270.416C594.118 270.305 595.137 269.961 596.149 269.568C600.458 267.9 606.741 264.908 610.116 263.303C611.479 262.605 611.649 261.908 611.548 261.445C611.531 261.381 611.479 261.18 611.291 260.989C610.971 260.664 610.507 260.484 609.829 260.426C609.663 260.414 609.614 260.412 609.015 260.417C608.329 260.423 607.643 260.434 606.958 260.436C606.403 260.44 605.661 260.453 605.104 260.46C601.187 260.517 598.711 260.623 598.443 260.635C594.601 260.803 592.6 260.979 591.061 261.29C591.038 261.295 591.007 261.303 590.987 261.307C580.492 263.722 569.997 266.137 559.505 268.554C532.036 274.875 504.569 281.196 477.102 287.52C471.981 288.698 465.15 290.27 460.028 291.449C455.021 292.603 450.785 293.577 447.591 294.311C441.268 295.768 441.268 295.768 440.749 295.905C439.996 296.106 439.282 296.453 438.937 296.619C438.379 296.889 436.504 297.932 435.866 299.983C435.774 300.33 435.635 300.855 435.738 301.613Z" fill="white"/>
<path d="M435.738 301.613C435.841 302.377 436.211 302.957 436.284 303.065C436.955 304.066 437.937 304.72 439.286 305.069C440.73 305.445 442.184 305.237 442.731 305.159C443.054 305.113 443.054 305.113 449.723 303.577C452.917 302.843 457.154 301.869 462.161 300.714C467.168 299.562 472.95 298.231 479.235 296.784C485.517 295.339 492.307 293.777 499.33 292.159C506.352 290.543 513.613 288.873 520.837 287.209C528.061 285.547 535.254 283.89 542.142 282.306C549.032 280.72 555.62 279.203 561.637 277.82C567.654 276.434 573.099 275.181 577.704 274.12C582.312 273.06 586.077 272.194 588.735 271.582C593.246 270.543 593.246 270.543 593.719 270.416C594.118 270.305 595.137 269.961 596.149 269.568C600.458 267.9 606.741 264.908 610.116 263.303C611.479 262.605 611.649 261.908 611.548 261.445C611.531 261.381 611.479 261.18 611.291 260.989C610.971 260.664 610.507 260.484 609.829 260.426C609.663 260.414 609.614 260.412 609.015 260.417C608.329 260.423 607.643 260.434 606.958 260.436C606.403 260.44 605.661 260.453 605.104 260.46C601.187 260.517 598.711 260.623 598.443 260.635C594.601 260.803 592.6 260.979 591.061 261.29C591.038 261.295 591.007 261.303 590.987 261.307C580.492 263.722 569.997 266.137 559.505 268.554C532.036 274.875 504.569 281.196 477.102 287.52C471.981 288.698 465.15 290.27 460.028 291.449C455.021 292.603 450.785 293.577 447.591 294.311C441.268 295.768 441.268 295.768 440.749 295.905C439.996 296.106 439.282 296.453 438.937 296.619C438.379 296.889 436.504 297.932 435.866 299.983C435.774 300.33 435.635 300.855 435.738 301.613Z" stroke="#1FAD98" stroke-miterlimit="10" stroke-linecap="round" stroke-linejoin="round"/>
<path d="M592.432 270.728C591.782 270.101 591.197 269.28 590.746 268.292C589.923 266.494 589.451 263.873 590.253 261.475" stroke="#228DD5" stroke-width="0.666667" stroke-miterlimit="10" stroke-linecap="round" stroke-linejoin="round"/>
<path d="M459.688 301.284C458.79 300.914 457.885 299.919 457.26 298.553C456.479 296.848 456.057 294.282 457.097 292.125M454.232 292.784C453.657 295.243 454.16 297.794 454.982 299.595C455.413 300.537 455.944 301.347 456.544 302.008" stroke="#228DD5" stroke-width="0.666667" stroke-miterlimit="10" stroke-linecap="round" stroke-linejoin="round"/>
<path d="M463.179 260.107L470.646 259.84L471.25 258.402L462.007 258.92L461.496 260.137L467.576 267.141L468.188 265.685L463.179 260.107Z" fill="white"/>
</g>
<rect x="68" y="191" width="218" height="43" rx="8" fill="white"/>
<path d="M98.0108 212.74C98.6614 212.879 99.1841 213.204 99.5788 213.716C99.9734 214.217 100.171 214.793 100.171 215.444C100.171 216.383 99.8401 217.129 99.1788 217.684C98.5281 218.228 97.6161 218.5 96.4428 218.5H91.2108V207.268H96.2668C97.4081 207.268 98.2988 207.529 98.9388 208.052C99.5894 208.575 99.9148 209.284 99.9148 210.18C99.9148 210.841 99.7388 211.391 99.3868 211.828C99.0454 212.265 98.5868 212.569 98.0108 212.74ZM93.9468 211.812H95.7388C96.1868 211.812 96.5281 211.716 96.7628 211.524C97.0081 211.321 97.1308 211.028 97.1308 210.644C97.1308 210.26 97.0081 209.967 96.7628 209.764C96.5281 209.561 96.1868 209.46 95.7388 209.46H93.9468V211.812ZM95.9628 216.292C96.4214 216.292 96.7734 216.191 97.0188 215.988C97.2748 215.775 97.4028 215.471 97.4028 215.076C97.4028 214.681 97.2694 214.372 97.0028 214.148C96.7468 213.924 96.3894 213.812 95.9308 213.812H93.9468V216.292H95.9628ZM110.174 213.892C110.174 214.148 110.158 214.415 110.126 214.692H103.934C103.976 215.247 104.152 215.673 104.462 215.972C104.782 216.26 105.171 216.404 105.63 216.404C106.312 216.404 106.787 216.116 107.054 215.54H109.966C109.816 216.127 109.544 216.655 109.15 217.124C108.766 217.593 108.28 217.961 107.694 218.228C107.107 218.495 106.451 218.628 105.726 218.628C104.851 218.628 104.072 218.441 103.39 218.068C102.707 217.695 102.174 217.161 101.79 216.468C101.406 215.775 101.214 214.964 101.214 214.036C101.214 213.108 101.4 212.297 101.774 211.604C102.158 210.911 102.691 210.377 103.374 210.004C104.056 209.631 104.84 209.444 105.726 209.444C106.59 209.444 107.358 209.625 108.03 209.988C108.702 210.351 109.224 210.868 109.598 211.54C109.982 212.212 110.174 212.996 110.174 213.892ZM107.374 213.172C107.374 212.703 107.214 212.329 106.894 212.052C106.574 211.775 106.174 211.636 105.694 211.636C105.235 211.636 104.846 211.769 104.526 212.036C104.216 212.303 104.024 212.681 103.95 213.172H107.374ZM117.057 209.476C118.102 209.476 118.934 209.817 119.553 210.5C120.182 211.172 120.497 212.1 120.497 213.284V218.5H117.777V213.652C117.777 213.055 117.622 212.591 117.313 212.26C117.004 211.929 116.588 211.764 116.065 211.764C115.542 211.764 115.126 211.929 114.817 212.26C114.508 212.591 114.353 213.055 114.353 213.652V218.5H111.617V209.572H114.353V210.756C114.63 210.361 115.004 210.052 115.473 209.828C115.942 209.593 116.47 209.476 117.057 209.476ZM130.814 213.892C130.814 214.148 130.798 214.415 130.766 214.692H124.574C124.617 215.247 124.793 215.673 125.102 215.972C125.422 216.26 125.812 216.404 126.27 216.404C126.953 216.404 127.428 216.116 127.694 215.54H130.606C130.457 216.127 130.185 216.655 129.79 217.124C129.406 217.593 128.921 217.961 128.334 218.228C127.748 218.495 127.092 218.628 126.366 218.628C125.492 218.628 124.713 218.441 124.03 218.068C123.348 217.695 122.814 217.161 122.43 216.468C122.046 215.775 121.854 214.964 121.854 214.036C121.854 213.108 122.041 212.297 122.414 211.604C122.798 210.911 123.332 210.377 124.014 210.004C124.697 209.631 125.481 209.444 126.366 209.444C127.23 209.444 127.998 209.625 128.67 209.988C129.342 210.351 129.865 210.868 130.238 211.54C130.622 212.212 130.814 212.996 130.814 213.892ZM128.014 213.172C128.014 212.703 127.854 212.329 127.534 212.052C127.214 211.775 126.814 211.636 126.334 211.636C125.876 211.636 125.486 211.769 125.166 212.036C124.857 212.303 124.665 212.681 124.59 213.172H128.014ZM136.738 211.844H135.266V218.5H132.53V211.844H131.538V209.572H132.53V209.316C132.53 208.217 132.844 207.385 133.474 206.82C134.103 206.244 135.026 205.956 136.242 205.956C136.444 205.956 136.594 205.961 136.69 205.972V208.292C136.167 208.26 135.799 208.335 135.586 208.516C135.372 208.697 135.266 209.023 135.266 209.492V209.572H136.738V211.844ZM139.399 208.644C138.919 208.644 138.525 208.505 138.215 208.228C137.917 207.94 137.767 207.588 137.767 207.172C137.767 206.745 137.917 206.393 138.215 206.116C138.525 205.828 138.919 205.684 139.399 205.684C139.869 205.684 140.253 205.828 140.551 206.116C140.861 206.393 141.015 206.745 141.015 207.172C141.015 207.588 140.861 207.94 140.551 208.228C140.253 208.505 139.869 208.644 139.399 208.644ZM140.759 209.572V218.5H138.023V209.572H140.759ZM147.718 216.18V218.5H146.326C145.334 218.5 144.561 218.26 144.006 217.78C143.451 217.289 143.174 216.495 143.174 215.396V211.844H142.086V209.572H143.174V207.396H145.91V209.572H147.702V211.844H145.91V215.428C145.91 215.695 145.974 215.887 146.102 216.004C146.23 216.121 146.443 216.18 146.742 216.18H147.718ZM156.697 218.612C155.875 218.612 155.139 218.479 154.489 218.212C153.838 217.945 153.315 217.551 152.921 217.028C152.537 216.505 152.334 215.876 152.313 215.14H155.225C155.267 215.556 155.411 215.876 155.657 216.1C155.902 216.313 156.222 216.42 156.617 216.42C157.022 216.42 157.342 216.329 157.577 216.148C157.811 215.956 157.929 215.695 157.929 215.364C157.929 215.087 157.833 214.857 157.641 214.676C157.459 214.495 157.23 214.345 156.953 214.228C156.686 214.111 156.302 213.977 155.801 213.828C155.075 213.604 154.483 213.38 154.025 213.156C153.566 212.932 153.171 212.601 152.841 212.164C152.51 211.727 152.345 211.156 152.345 210.452C152.345 209.407 152.723 208.591 153.481 208.004C154.238 207.407 155.225 207.108 156.441 207.108C157.678 207.108 158.675 207.407 159.433 208.004C160.19 208.591 160.595 209.412 160.649 210.468H157.689C157.667 210.105 157.534 209.823 157.289 209.62C157.043 209.407 156.729 209.3 156.345 209.3C156.014 209.3 155.747 209.391 155.545 209.572C155.342 209.743 155.241 209.993 155.241 210.324C155.241 210.687 155.411 210.969 155.753 211.172C156.094 211.375 156.627 211.593 157.353 211.828C158.078 212.073 158.665 212.308 159.113 212.532C159.571 212.756 159.966 213.081 160.297 213.508C160.627 213.935 160.793 214.484 160.793 215.156C160.793 215.796 160.627 216.377 160.297 216.9C159.977 217.423 159.507 217.839 158.889 218.148C158.27 218.457 157.539 218.612 156.697 218.612ZM170.892 213.892C170.892 214.148 170.876 214.415 170.844 214.692H164.652C164.695 215.247 164.871 215.673 165.18 215.972C165.5 216.26 165.89 216.404 166.348 216.404C167.031 216.404 167.506 216.116 167.772 215.54H170.684C170.535 216.127 170.263 216.655 169.868 217.124C169.484 217.593 168.999 217.961 168.412 218.228C167.826 218.495 167.17 218.628 166.444 218.628C165.57 218.628 164.791 218.441 164.108 218.068C163.426 217.695 162.892 217.161 162.508 216.468C162.124 215.775 161.932 214.964 161.932 214.036C161.932 213.108 162.119 212.297 162.492 211.604C162.876 210.911 163.41 210.377 164.092 210.004C164.775 209.631 165.559 209.444 166.444 209.444C167.308 209.444 168.076 209.625 168.748 209.988C169.42 210.351 169.943 210.868 170.316 211.54C170.7 212.212 170.892 212.996 170.892 213.892ZM168.092 213.172C168.092 212.703 167.932 212.329 167.612 212.052C167.292 211.775 166.892 211.636 166.412 211.636C165.954 211.636 165.564 211.769 165.244 212.036C164.935 212.303 164.743 212.681 164.668 213.172H168.092ZM175.072 210.836C175.328 210.42 175.696 210.084 176.176 209.828C176.656 209.572 177.205 209.444 177.824 209.444C178.56 209.444 179.226 209.631 179.824 210.004C180.421 210.377 180.89 210.911 181.232 211.604C181.584 212.297 181.76 213.103 181.76 214.02C181.76 214.937 181.584 215.748 181.232 216.452C180.89 217.145 180.421 217.684 179.824 218.068C179.226 218.441 178.56 218.628 177.824 218.628C177.194 218.628 176.645 218.505 176.176 218.26C175.706 218.004 175.338 217.668 175.072 217.252V218.5H172.336V206.66H175.072V210.836ZM178.976 214.02C178.976 213.337 178.784 212.804 178.4 212.42C178.026 212.025 177.562 211.828 177.008 211.828C176.464 211.828 176 212.025 175.616 212.42C175.242 212.815 175.056 213.353 175.056 214.036C175.056 214.719 175.242 215.257 175.616 215.652C176 216.047 176.464 216.244 177.008 216.244C177.552 216.244 178.016 216.047 178.4 215.652C178.784 215.247 178.976 214.703 178.976 214.02ZM182.651 214.02C182.651 213.103 182.822 212.297 183.163 211.604C183.515 210.911 183.99 210.377 184.587 210.004C185.184 209.631 185.851 209.444 186.587 209.444C187.216 209.444 187.766 209.572 188.235 209.828C188.715 210.084 189.083 210.42 189.339 210.836V209.572H192.075V218.5H189.339V217.236C189.072 217.652 188.699 217.988 188.219 218.244C187.75 218.5 187.2 218.628 186.571 218.628C185.846 218.628 185.184 218.441 184.587 218.068C183.99 217.684 183.515 217.145 183.163 216.452C182.822 215.748 182.651 214.937 182.651 214.02ZM189.339 214.036C189.339 213.353 189.147 212.815 188.763 212.42C188.39 212.025 187.931 211.828 187.387 211.828C186.843 211.828 186.379 212.025 185.995 212.42C185.622 212.804 185.435 213.337 185.435 214.02C185.435 214.703 185.622 215.247 185.995 215.652C186.379 216.047 186.843 216.244 187.387 216.244C187.931 216.244 188.39 216.047 188.763 215.652C189.147 215.257 189.339 214.719 189.339 214.036ZM197.447 209.444C198.076 209.444 198.625 209.572 199.095 209.828C199.575 210.084 199.943 210.42 200.199 210.836V209.572H202.935V218.484C202.935 219.305 202.769 220.047 202.439 220.708C202.119 221.38 201.623 221.913 200.951 222.308C200.289 222.703 199.463 222.9 198.471 222.9C197.148 222.9 196.076 222.585 195.255 221.956C194.433 221.337 193.964 220.495 193.847 219.428H196.551C196.636 219.769 196.839 220.036 197.159 220.228C197.479 220.431 197.873 220.532 198.343 220.532C198.908 220.532 199.356 220.367 199.687 220.036C200.028 219.716 200.199 219.199 200.199 218.484V217.22C199.932 217.636 199.564 217.977 199.095 218.244C198.625 218.5 198.076 218.628 197.447 218.628C196.711 218.628 196.044 218.441 195.447 218.068C194.849 217.684 194.375 217.145 194.023 216.452C193.681 215.748 193.511 214.937 193.511 214.02C193.511 213.103 193.681 212.297 194.023 211.604C194.375 210.911 194.849 210.377 195.447 210.004C196.044 209.631 196.711 209.444 197.447 209.444ZM200.199 214.036C200.199 213.353 200.007 212.815 199.623 212.42C199.249 212.025 198.791 211.828 198.247 211.828C197.703 211.828 197.239 212.025 196.855 212.42C196.481 212.804 196.295 213.337 196.295 214.02C196.295 214.703 196.481 215.247 196.855 215.652C197.239 216.047 197.703 216.244 198.247 216.244C198.791 216.244 199.249 216.047 199.623 215.652C200.007 215.257 200.199 214.719 200.199 214.036ZM204.37 214.02C204.37 213.103 204.541 212.297 204.882 211.604C205.234 210.911 205.709 210.377 206.306 210.004C206.903 209.631 207.57 209.444 208.306 209.444C208.935 209.444 209.485 209.572 209.954 209.828C210.434 210.084 210.802 210.42 211.058 210.836V209.572H213.794V218.5H211.058V217.236C210.791 217.652 210.418 217.988 209.938 218.244C209.469 218.5 208.919 218.628 208.29 218.628C207.565 218.628 206.903 218.441 206.306 218.068C205.709 217.684 205.234 217.145 204.882 216.452C204.541 215.748 204.37 214.937 204.37 214.02ZM211.058 214.036C211.058 213.353 210.866 212.815 210.482 212.42C210.109 212.025 209.65 211.828 209.106 211.828C208.562 211.828 208.098 212.025 207.714 212.42C207.341 212.804 207.154 213.337 207.154 214.02C207.154 214.703 207.341 215.247 207.714 215.652C208.098 216.047 208.562 216.244 209.106 216.244C209.65 216.244 210.109 216.047 210.482 215.652C210.866 215.257 211.058 214.719 211.058 214.036ZM217.149 208.644C216.669 208.644 216.275 208.505 215.965 208.228C215.667 207.94 215.517 207.588 215.517 207.172C215.517 206.745 215.667 206.393 215.965 206.116C216.275 205.828 216.669 205.684 217.149 205.684C217.619 205.684 218.003 205.828 218.301 206.116C218.611 206.393 218.765 206.745 218.765 207.172C218.765 207.588 218.611 207.94 218.301 208.228C218.003 208.505 217.619 208.644 217.149 208.644ZM218.509 209.572V218.5H215.773V209.572H218.509ZM236.603 207.268V218.5H233.867V211.764L231.355 218.5H229.147L226.619 211.748V218.5H223.883V207.268H227.115L230.267 215.044L233.387 207.268H236.603ZM247.386 209.572V218.5H244.65V217.284C244.373 217.679 243.994 217.999 243.514 218.244C243.045 218.479 242.522 218.596 241.946 218.596C241.263 218.596 240.661 218.447 240.138 218.148C239.615 217.839 239.21 217.396 238.922 216.82C238.634 216.244 238.49 215.567 238.49 214.788V209.572H241.21V214.42C241.21 215.017 241.365 215.481 241.674 215.812C241.983 216.143 242.399 216.308 242.922 216.308C243.455 216.308 243.877 216.143 244.186 215.812C244.495 215.481 244.65 215.017 244.65 214.42V209.572H247.386ZM252.087 211.06C252.407 210.569 252.807 210.185 253.287 209.908C253.767 209.62 254.301 209.476 254.887 209.476V212.372H254.135C253.453 212.372 252.941 212.521 252.599 212.82C252.258 213.108 252.087 213.62 252.087 214.356V218.5H249.351V209.572H252.087V211.06ZM257.571 208.644C257.091 208.644 256.696 208.505 256.387 208.228C256.088 207.94 255.939 207.588 255.939 207.172C255.939 206.745 256.088 206.393 256.387 206.116C256.696 205.828 257.091 205.684 257.571 205.684C258.04 205.684 258.424 205.828 258.723 206.116C259.032 206.393 259.187 206.745 259.187 207.172C259.187 207.588 259.032 207.94 258.723 208.228C258.424 208.505 258.04 208.644 257.571 208.644ZM258.931 209.572V218.5H256.195V209.572H258.931ZM260.37 214.02C260.37 213.103 260.541 212.297 260.882 211.604C261.234 210.911 261.709 210.377 262.306 210.004C262.903 209.631 263.57 209.444 264.306 209.444C264.893 209.444 265.426 209.567 265.906 209.812C266.397 210.057 266.781 210.388 267.058 210.804V206.66H269.794V218.5H267.058V217.22C266.802 217.647 266.434 217.988 265.954 218.244C265.485 218.5 264.935 218.628 264.306 218.628C263.57 218.628 262.903 218.441 262.306 218.068C261.709 217.684 261.234 217.145 260.882 216.452C260.541 215.748 260.37 214.937 260.37 214.02ZM267.058 214.036C267.058 213.353 266.866 212.815 266.482 212.42C266.109 212.025 265.65 211.828 265.106 211.828C264.562 211.828 264.098 212.025 263.714 212.42C263.341 212.804 263.154 213.337 263.154 214.02C263.154 214.703 263.341 215.247 263.714 215.652C264.098 216.047 264.562 216.244 265.106 216.244C265.65 216.244 266.109 216.047 266.482 215.652C266.866 215.257 267.058 214.719 267.058 214.036Z" fill="#01AB71"/>
<path d="M73.88 120.06C75.4 120.06 76.7133 120.347 77.82 120.92C78.94 121.48 79.7933 122.287 80.38 123.34C80.98 124.393 81.28 125.633 81.28 127.06C81.28 128.487 80.98 129.727 80.38 130.78C79.7933 131.82 78.94 132.62 77.82 133.18C76.7133 133.727 75.4 134 73.88 134H69.54V120.06H73.88ZM73.88 132.5C75.68 132.5 77.0533 132.027 78 131.08C78.9467 130.12 79.42 128.78 79.42 127.06C79.42 125.327 78.94 123.973 77.98 123C77.0333 122.027 75.6667 121.54 73.88 121.54H71.36V132.5H73.88ZM82.8006 128.48C82.8006 127.36 83.0273 126.38 83.4806 125.54C83.934 124.687 84.554 124.027 85.3406 123.56C86.1406 123.093 87.0273 122.86 88.0006 122.86C88.9606 122.86 89.794 123.067 90.5006 123.48C91.2073 123.893 91.734 124.413 92.0806 125.04V123.04H93.9206V134H92.0806V131.96C91.7206 132.6 91.1806 133.133 90.4606 133.56C89.754 133.973 88.9273 134.18 87.9806 134.18C87.0073 134.18 86.1273 133.94 85.3406 133.46C84.554 132.98 83.934 132.307 83.4806 131.44C83.0273 130.573 82.8006 129.587 82.8006 128.48ZM92.0806 128.5C92.0806 127.673 91.914 126.953 91.5806 126.34C91.2473 125.727 90.794 125.26 90.2206 124.94C89.6606 124.607 89.0406 124.44 88.3606 124.44C87.6806 124.44 87.0606 124.6 86.5006 124.92C85.9406 125.24 85.494 125.707 85.1606 126.32C84.8273 126.933 84.6606 127.653 84.6606 128.48C84.6606 129.32 84.8273 130.053 85.1606 130.68C85.494 131.293 85.9406 131.767 86.5006 132.1C87.0606 132.42 87.6806 132.58 88.3606 132.58C89.0406 132.58 89.6606 132.42 90.2206 132.1C90.794 131.767 91.2473 131.293 91.5806 130.68C91.914 130.053 92.0806 129.327 92.0806 128.5ZM98.6163 125.06C98.9763 124.433 99.5096 123.913 100.216 123.5C100.936 123.073 101.77 122.86 102.716 122.86C103.69 122.86 104.57 123.093 105.356 123.56C106.156 124.027 106.783 124.687 107.236 125.54C107.69 126.38 107.916 127.36 107.916 128.48C107.916 129.587 107.69 130.573 107.236 131.44C106.783 132.307 106.156 132.98 105.356 133.46C104.57 133.94 103.69 134.18 102.716 134.18C101.783 134.18 100.956 133.973 100.236 133.56C99.5296 133.133 98.9896 132.607 98.6163 131.98V139.2H96.7963V123.04H98.6163V125.06ZM106.056 128.48C106.056 127.653 105.89 126.933 105.556 126.32C105.223 125.707 104.77 125.24 104.196 124.92C103.636 124.6 103.016 124.44 102.336 124.44C101.67 124.44 101.05 124.607 100.476 124.94C99.9163 125.26 99.4629 125.733 99.1163 126.36C98.7829 126.973 98.6163 127.687 98.6163 128.5C98.6163 129.327 98.7829 130.053 99.1163 130.68C99.4629 131.293 99.9163 131.767 100.476 132.1C101.05 132.42 101.67 132.58 102.336 132.58C103.016 132.58 103.636 132.42 104.196 132.1C104.77 131.767 105.223 131.293 105.556 130.68C105.89 130.053 106.056 129.32 106.056 128.48ZM109.432 128.48C109.432 127.36 109.659 126.38 110.112 125.54C110.565 124.687 111.185 124.027 111.972 123.56C112.772 123.093 113.659 122.86 114.632 122.86C115.592 122.86 116.425 123.067 117.132 123.48C117.839 123.893 118.365 124.413 118.712 125.04V123.04H120.552V134H118.712V131.96C118.352 132.6 117.812 133.133 117.092 133.56C116.385 133.973 115.559 134.18 114.612 134.18C113.639 134.18 112.759 133.94 111.972 133.46C111.185 132.98 110.565 132.307 110.112 131.44C109.659 130.573 109.432 129.587 109.432 128.48ZM118.712 128.5C118.712 127.673 118.545 126.953 118.212 126.34C117.879 125.727 117.425 125.26 116.852 124.94C116.292 124.607 115.672 124.44 114.992 124.44C114.312 124.44 113.692 124.6 113.132 124.92C112.572 125.24 112.125 125.707 111.792 126.32C111.459 126.933 111.292 127.653 111.292 128.48C111.292 129.32 111.459 130.053 111.792 130.68C112.125 131.293 112.572 131.767 113.132 132.1C113.692 132.42 114.312 132.58 114.992 132.58C115.672 132.58 116.292 132.42 116.852 132.1C117.425 131.767 117.879 131.293 118.212 130.68C118.545 130.053 118.712 129.327 118.712 128.5ZM125.648 124.54V131C125.648 131.533 125.761 131.913 125.988 132.14C126.214 132.353 126.608 132.46 127.168 132.46H128.508V134H126.868C125.854 134 125.094 133.767 124.588 133.3C124.081 132.833 123.828 132.067 123.828 131V124.54H122.408V123.04H123.828V120.28H125.648V123.04H128.508V124.54H125.648ZM136.633 134L132.333 129.16V134H130.513V119.2H132.333V127.9L136.553 123.04H139.093L133.933 128.5L139.113 134H136.633ZM139.926 128.48C139.926 127.36 140.152 126.38 140.606 125.54C141.059 124.687 141.679 124.027 142.466 123.56C143.266 123.093 144.152 122.86 145.126 122.86C146.086 122.86 146.919 123.067 147.626 123.48C148.332 123.893 148.859 124.413 149.206 125.04V123.04H151.046V134H149.206V131.96C148.846 132.6 148.306 133.133 147.586 133.56C146.879 133.973 146.052 134.18 145.106 134.18C144.132 134.18 143.252 133.94 142.466 133.46C141.679 132.98 141.059 132.307 140.606 131.44C140.152 130.573 139.926 129.587 139.926 128.48ZM149.206 128.5C149.206 127.673 149.039 126.953 148.706 126.34C148.372 125.727 147.919 125.26 147.346 124.94C146.786 124.607 146.166 124.44 145.486 124.44C144.806 124.44 144.186 124.6 143.626 124.92C143.066 125.24 142.619 125.707 142.286 126.32C141.952 126.933 141.786 127.653 141.786 128.48C141.786 129.32 141.952 130.053 142.286 130.68C142.619 131.293 143.066 131.767 143.626 132.1C144.186 132.42 144.806 132.58 145.486 132.58C146.166 132.58 146.786 132.42 147.346 132.1C147.919 131.767 148.372 131.293 148.706 130.68C149.039 130.053 149.206 129.327 149.206 128.5ZM159.261 122.84C160.595 122.84 161.675 123.247 162.501 124.06C163.328 124.86 163.741 126.02 163.741 127.54V134H161.941V127.8C161.941 126.707 161.668 125.873 161.121 125.3C160.575 124.713 159.828 124.42 158.881 124.42C157.921 124.42 157.155 124.72 156.581 125.32C156.021 125.92 155.741 126.793 155.741 127.94V134H153.921V123.04H155.741V124.6C156.101 124.04 156.588 123.607 157.201 123.3C157.828 122.993 158.515 122.84 159.261 122.84ZM173.466 125.06C173.826 124.433 174.36 123.913 175.066 123.5C175.786 123.073 176.62 122.86 177.566 122.86C178.54 122.86 179.42 123.093 180.206 123.56C181.006 124.027 181.633 124.687 182.086 125.54C182.54 126.38 182.766 127.36 182.766 128.48C182.766 129.587 182.54 130.573 182.086 131.44C181.633 132.307 181.006 132.98 180.206 133.46C179.42 133.94 178.54 134.18 177.566 134.18C176.633 134.18 175.806 133.973 175.086 133.56C174.38 133.133 173.84 132.607 173.466 131.98V139.2H171.646V123.04H173.466V125.06ZM180.906 128.48C180.906 127.653 180.74 126.933 180.406 126.32C180.073 125.707 179.62 125.24 179.046 124.92C178.486 124.6 177.866 124.44 177.186 124.44C176.52 124.44 175.9 124.607 175.326 124.94C174.766 125.26 174.313 125.733 173.966 126.36C173.633 126.973 173.466 127.687 173.466 128.5C173.466 129.327 173.633 130.053 173.966 130.68C174.313 131.293 174.766 131.767 175.326 132.1C175.9 132.42 176.52 132.58 177.186 132.58C177.866 132.58 178.486 132.42 179.046 132.1C179.62 131.767 180.073 131.293 180.406 130.68C180.74 130.053 180.906 129.32 180.906 128.48ZM194.962 128.1C194.962 128.447 194.942 128.813 194.902 129.2H186.142C186.209 130.28 186.575 131.127 187.242 131.74C187.922 132.34 188.742 132.64 189.702 132.64C190.489 132.64 191.142 132.46 191.662 132.1C192.195 131.727 192.569 131.233 192.782 130.62H194.742C194.449 131.673 193.862 132.533 192.982 133.2C192.102 133.853 191.009 134.18 189.702 134.18C188.662 134.18 187.729 133.947 186.902 133.48C186.089 133.013 185.449 132.353 184.982 131.5C184.515 130.633 184.282 129.633 184.282 128.5C184.282 127.367 184.509 126.373 184.962 125.52C185.415 124.667 186.049 124.013 186.862 123.56C187.689 123.093 188.635 122.86 189.702 122.86C190.742 122.86 191.662 123.087 192.462 123.54C193.262 123.993 193.875 124.62 194.302 125.42C194.742 126.207 194.962 127.1 194.962 128.1ZM193.082 127.72C193.082 127.027 192.929 126.433 192.622 125.94C192.315 125.433 191.895 125.053 191.362 124.8C190.842 124.533 190.262 124.4 189.622 124.4C188.702 124.4 187.915 124.693 187.262 125.28C186.622 125.867 186.255 126.68 186.162 127.72H193.082ZM202.504 122.84C203.838 122.84 204.918 123.247 205.744 124.06C206.571 124.86 206.984 126.02 206.984 127.54V134H205.184V127.8C205.184 126.707 204.911 125.873 204.364 125.3C203.818 124.713 203.071 124.42 202.124 124.42C201.164 124.42 200.398 124.72 199.824 125.32C199.264 125.92 198.984 126.793 198.984 127.94V134H197.164V123.04H198.984V124.6C199.344 124.04 199.831 123.607 200.444 123.3C201.071 122.993 201.758 122.84 202.504 122.84ZM214.277 122.86C215.224 122.86 216.051 123.067 216.757 123.48C217.477 123.893 218.011 124.413 218.357 125.04V123.04H220.197V134.24C220.197 135.24 219.984 136.127 219.557 136.9C219.131 137.687 218.517 138.3 217.717 138.74C216.931 139.18 216.011 139.4 214.957 139.4C213.517 139.4 212.317 139.06 211.357 138.38C210.397 137.7 209.831 136.773 209.657 135.6H211.457C211.657 136.267 212.071 136.8 212.697 137.2C213.324 137.613 214.077 137.82 214.957 137.82C215.957 137.82 216.771 137.507 217.397 136.88C218.037 136.253 218.357 135.373 218.357 134.24V131.94C217.997 132.58 217.464 133.113 216.757 133.54C216.051 133.967 215.224 134.18 214.277 134.18C213.304 134.18 212.417 133.94 211.617 133.46C210.831 132.98 210.211 132.307 209.757 131.44C209.304 130.573 209.077 129.587 209.077 128.48C209.077 127.36 209.304 126.38 209.757 125.54C210.211 124.687 210.831 124.027 211.617 123.56C212.417 123.093 213.304 122.86 214.277 122.86ZM218.357 128.5C218.357 127.673 218.191 126.953 217.857 126.34C217.524 125.727 217.071 125.26 216.497 124.94C215.937 124.607 215.317 124.44 214.637 124.44C213.957 124.44 213.337 124.6 212.777 124.92C212.217 125.24 211.771 125.707 211.437 126.32C211.104 126.933 210.937 127.653 210.937 128.48C210.937 129.32 211.104 130.053 211.437 130.68C211.771 131.293 212.217 131.767 212.777 132.1C213.337 132.42 213.957 132.58 214.637 132.58C215.317 132.58 215.937 132.42 216.497 132.1C217.071 131.767 217.524 131.293 217.857 130.68C218.191 130.053 218.357 129.327 218.357 128.5ZM222.393 128.48C222.393 127.36 222.619 126.38 223.073 125.54C223.526 124.687 224.146 124.027 224.933 123.56C225.733 123.093 226.619 122.86 227.593 122.86C228.553 122.86 229.386 123.067 230.093 123.48C230.799 123.893 231.326 124.413 231.673 125.04V123.04H233.513V134H231.673V131.96C231.313 132.6 230.773 133.133 230.053 133.56C229.346 133.973 228.519 134.18 227.573 134.18C226.599 134.18 225.719 133.94 224.933 133.46C224.146 132.98 223.526 132.307 223.073 131.44C222.619 130.573 222.393 129.587 222.393 128.48ZM231.673 128.5C231.673 127.673 231.506 126.953 231.173 126.34C230.839 125.727 230.386 125.26 229.813 124.94C229.253 124.607 228.633 124.44 227.953 124.44C227.273 124.44 226.653 124.6 226.093 124.92C225.533 125.24 225.086 125.707 224.753 126.32C224.419 126.933 224.253 127.653 224.253 128.48C224.253 129.32 224.419 130.053 224.753 130.68C225.086 131.293 225.533 131.767 226.093 132.1C226.653 132.42 227.273 132.58 227.953 132.58C228.633 132.58 229.253 132.42 229.813 132.1C230.386 131.767 230.839 131.293 231.173 130.68C231.506 130.053 231.673 129.327 231.673 128.5ZM238.208 119.2V134H236.388V119.2H238.208ZM240.43 128.48C240.43 127.36 240.657 126.38 241.11 125.54C241.564 124.687 242.184 124.027 242.97 123.56C243.77 123.093 244.657 122.86 245.63 122.86C246.59 122.86 247.424 123.067 248.13 123.48C248.837 123.893 249.364 124.413 249.71 125.04V123.04H251.55V134H249.71V131.96C249.35 132.6 248.81 133.133 248.09 133.56C247.384 133.973 246.557 134.18 245.61 134.18C244.637 134.18 243.757 133.94 242.97 133.46C242.184 132.98 241.564 132.307 241.11 131.44C240.657 130.573 240.43 129.587 240.43 128.48ZM249.71 128.5C249.71 127.673 249.544 126.953 249.21 126.34C248.877 125.727 248.424 125.26 247.85 124.94C247.29 124.607 246.67 124.44 245.99 124.44C245.31 124.44 244.69 124.6 244.13 124.92C243.57 125.24 243.124 125.707 242.79 126.32C242.457 126.933 242.29 127.653 242.29 128.48C242.29 129.32 242.457 130.053 242.79 130.68C243.124 131.293 243.57 131.767 244.13 132.1C244.69 132.42 245.31 132.58 245.99 132.58C246.67 132.58 247.29 132.42 247.85 132.1C248.424 131.767 248.877 131.293 249.21 130.68C249.544 130.053 249.71 129.327 249.71 128.5ZM267.606 122.84C268.459 122.84 269.219 123.02 269.886 123.38C270.553 123.727 271.079 124.253 271.466 124.96C271.853 125.667 272.046 126.527 272.046 127.54V134H270.246V127.8C270.246 126.707 269.973 125.873 269.426 125.3C268.893 124.713 268.166 124.42 267.246 124.42C266.299 124.42 265.546 124.727 264.986 125.34C264.426 125.94 264.146 126.813 264.146 127.96V134H262.346V127.8C262.346 126.707 262.073 125.873 261.526 125.3C260.993 124.713 260.266 124.42 259.346 124.42C258.399 124.42 257.646 124.727 257.086 125.34C256.526 125.94 256.246 126.813 256.246 127.96V134H254.426V123.04H256.246V124.62C256.606 124.047 257.086 123.607 257.686 123.3C258.299 122.993 258.973 122.84 259.706 122.84C260.626 122.84 261.439 123.047 262.146 123.46C262.853 123.873 263.379 124.48 263.726 125.28C264.033 124.507 264.539 123.907 265.246 123.48C265.953 123.053 266.739 122.84 267.606 122.84ZM274.151 128.48C274.151 127.36 274.378 126.38 274.831 125.54C275.285 124.687 275.905 124.027 276.691 123.56C277.491 123.093 278.378 122.86 279.351 122.86C280.311 122.86 281.145 123.067 281.851 123.48C282.558 123.893 283.085 124.413 283.431 125.04V123.04H285.271V134H283.431V131.96C283.071 132.6 282.531 133.133 281.811 133.56C281.105 133.973 280.278 134.18 279.331 134.18C278.358 134.18 277.478 133.94 276.691 133.46C275.905 132.98 275.285 132.307 274.831 131.44C274.378 130.573 274.151 129.587 274.151 128.48ZM283.431 128.5C283.431 127.673 283.265 126.953 282.931 126.34C282.598 125.727 282.145 125.26 281.571 124.94C281.011 124.607 280.391 124.44 279.711 124.44C279.031 124.44 278.411 124.6 277.851 124.92C277.291 125.24 276.845 125.707 276.511 126.32C276.178 126.933 276.011 127.653 276.011 128.48C276.011 129.32 276.178 130.053 276.511 130.68C276.845 131.293 277.291 131.767 277.851 132.1C278.411 132.42 279.031 132.58 279.711 132.58C280.391 132.58 281.011 132.42 281.571 132.1C282.145 131.767 282.598 131.293 282.931 130.68C283.265 130.053 283.431 129.327 283.431 128.5ZM293.487 122.84C294.82 122.84 295.9 123.247 296.727 124.06C297.554 124.86 297.967 126.02 297.967 127.54V134H296.167V127.8C296.167 126.707 295.894 125.873 295.347 125.3C294.8 124.713 294.054 124.42 293.107 124.42C292.147 124.42 291.38 124.72 290.807 125.32C290.247 125.92 289.967 126.793 289.967 127.94V134H288.147V123.04H289.967V124.6C290.327 124.04 290.814 123.607 291.427 123.3C292.054 122.993 292.74 122.84 293.487 122.84ZM305.192 128.48C305.192 127.36 305.419 126.38 305.872 125.54C306.325 124.687 306.945 124.027 307.732 123.56C308.532 123.093 309.425 122.86 310.412 122.86C311.265 122.86 312.059 123.06 312.792 123.46C313.525 123.847 314.085 124.36 314.472 125V119.2H316.312V134H314.472V131.94C314.112 132.593 313.579 133.133 312.872 133.56C312.165 133.973 311.339 134.18 310.392 134.18C309.419 134.18 308.532 133.94 307.732 133.46C306.945 132.98 306.325 132.307 305.872 131.44C305.419 130.573 305.192 129.587 305.192 128.48ZM314.472 128.5C314.472 127.673 314.305 126.953 313.972 126.34C313.639 125.727 313.185 125.26 312.612 124.94C312.052 124.607 311.432 124.44 310.752 124.44C310.072 124.44 309.452 124.6 308.892 124.92C308.332 125.24 307.885 125.707 307.552 126.32C307.219 126.933 307.052 127.653 307.052 128.48C307.052 129.32 307.219 130.053 307.552 130.68C307.885 131.293 308.332 131.767 308.892 132.1C309.452 132.42 310.072 132.58 310.752 132.58C311.432 132.58 312.052 132.42 312.612 132.1C313.185 131.767 313.639 131.293 313.972 130.68C314.305 130.053 314.472 129.327 314.472 128.5ZM318.508 128.48C318.508 127.36 318.734 126.38 319.188 125.54C319.641 124.687 320.261 124.027 321.048 123.56C321.848 123.093 322.734 122.86 323.708 122.86C324.668 122.86 325.501 123.067 326.208 123.48C326.914 123.893 327.441 124.413 327.788 125.04V123.04H329.628V134H327.788V131.96C327.428 132.6 326.888 133.133 326.168 133.56C325.461 133.973 324.634 134.18 323.688 134.18C322.714 134.18 321.834 133.94 321.048 133.46C320.261 132.98 319.641 132.307 319.188 131.44C318.734 130.573 318.508 129.587 318.508 128.48ZM327.788 128.5C327.788 127.673 327.621 126.953 327.288 126.34C326.954 125.727 326.501 125.26 325.928 124.94C325.368 124.607 324.748 124.44 324.068 124.44C323.388 124.44 322.768 124.6 322.208 124.92C321.648 125.24 321.201 125.707 320.868 126.32C320.534 126.933 320.368 127.653 320.368 128.48C320.368 129.32 320.534 130.053 320.868 130.68C321.201 131.293 321.648 131.767 322.208 132.1C322.768 132.42 323.388 132.58 324.068 132.58C324.748 132.58 325.368 132.42 325.928 132.1C326.501 131.767 326.954 131.293 327.288 130.68C327.621 130.053 327.788 129.327 327.788 128.5ZM337.843 122.84C339.177 122.84 340.257 123.247 341.083 124.06C341.91 124.86 342.323 126.02 342.323 127.54V134H340.523V127.8C340.523 126.707 340.25 125.873 339.703 125.3C339.157 124.713 338.41 124.42 337.463 124.42C336.503 124.42 335.737 124.72 335.163 125.32C334.603 125.92 334.323 126.793 334.323 127.94V134H332.503V123.04H334.323V124.6C334.683 124.04 335.17 123.607 335.783 123.3C336.41 122.993 337.097 122.84 337.843 122.84ZM351.168 121.26C350.822 121.26 350.528 121.14 350.288 120.9C350.048 120.66 349.928 120.367 349.928 120.02C349.928 119.673 350.048 119.38 350.288 119.14C350.528 118.9 350.822 118.78 351.168 118.78C351.502 118.78 351.782 118.9 352.008 119.14C352.248 119.38 352.368 119.673 352.368 120.02C352.368 120.367 352.248 120.66 352.008 120.9C351.782 121.14 351.502 121.26 351.168 121.26ZM352.048 123.04V134H350.228V123.04H352.048ZM356.77 119.2V134H354.95V119.2H356.77ZM372.852 122.84C373.705 122.84 374.465 123.02 375.132 123.38C375.799 123.727 376.325 124.253 376.712 124.96C377.099 125.667 377.292 126.527 377.292 127.54V134H375.492V127.8C375.492 126.707 375.219 125.873 374.672 125.3C374.139 124.713 373.412 124.42 372.492 124.42C371.545 124.42 370.792 124.727 370.232 125.34C369.672 125.94 369.392 126.813 369.392 127.96V134H367.592V127.8C367.592 126.707 367.319 125.873 366.772 125.3C366.239 124.713 365.512 124.42 364.592 124.42C363.645 124.42 362.892 124.727 362.332 125.34C361.772 125.94 361.492 126.813 361.492 127.96V134H359.672V123.04H361.492V124.62C361.852 124.047 362.332 123.607 362.932 123.3C363.545 122.993 364.219 122.84 364.952 122.84C365.872 122.84 366.685 123.047 367.392 123.46C368.099 123.873 368.625 124.48 368.972 125.28C369.279 124.507 369.785 123.907 370.492 123.48C371.199 123.053 371.985 122.84 372.852 122.84ZM389.798 123.04V134H387.978V132.38C387.631 132.94 387.144 133.38 386.518 133.7C385.904 134.007 385.224 134.16 384.478 134.16C383.624 134.16 382.858 133.987 382.178 133.64C381.498 133.28 380.958 132.747 380.558 132.04C380.171 131.333 379.978 130.473 379.978 129.46V123.04H381.778V129.22C381.778 130.3 382.051 131.133 382.598 131.72C383.144 132.293 383.891 132.58 384.838 132.58C385.811 132.58 386.578 132.28 387.138 131.68C387.698 131.08 387.978 130.207 387.978 129.06V123.04H389.798ZM397.123 128.48C397.123 127.36 397.349 126.38 397.803 125.54C398.256 124.687 398.876 124.027 399.663 123.56C400.463 123.093 401.356 122.86 402.343 122.86C403.196 122.86 403.989 123.06 404.723 123.46C405.456 123.847 406.016 124.36 406.403 125V119.2H408.243V134H406.403V131.94C406.043 132.593 405.509 133.133 404.803 133.56C404.096 133.973 403.269 134.18 402.323 134.18C401.349 134.18 400.463 133.94 399.663 133.46C398.876 132.98 398.256 132.307 397.803 131.44C397.349 130.573 397.123 129.587 397.123 128.48ZM406.403 128.5C406.403 127.673 406.236 126.953 405.903 126.34C405.569 125.727 405.116 125.26 404.543 124.94C403.983 124.607 403.363 124.44 402.683 124.44C402.003 124.44 401.383 124.6 400.823 124.92C400.263 125.24 399.816 125.707 399.483 126.32C399.149 126.933 398.983 127.653 398.983 128.48C398.983 129.32 399.149 130.053 399.483 130.68C399.816 131.293 400.263 131.767 400.823 132.1C401.383 132.42 402.003 132.58 402.683 132.58C403.363 132.58 403.983 132.42 404.543 132.1C405.116 131.767 405.569 131.293 405.903 130.68C406.236 130.053 406.403 129.327 406.403 128.5ZM410.438 128.48C410.438 127.36 410.665 126.38 411.118 125.54C411.571 124.687 412.191 124.027 412.978 123.56C413.778 123.093 414.665 122.86 415.638 122.86C416.598 122.86 417.431 123.067 418.138 123.48C418.845 123.893 419.371 124.413 419.718 125.04V123.04H421.558V134H419.718V131.96C419.358 132.6 418.818 133.133 418.098 133.56C417.391 133.973 416.565 134.18 415.618 134.18C414.645 134.18 413.765 133.94 412.978 133.46C412.191 132.98 411.571 132.307 411.118 131.44C410.665 130.573 410.438 129.587 410.438 128.48ZM419.718 128.5C419.718 127.673 419.551 126.953 419.218 126.34C418.885 125.727 418.431 125.26 417.858 124.94C417.298 124.607 416.678 124.44 415.998 124.44C415.318 124.44 414.698 124.6 414.138 124.92C413.578 125.24 413.131 125.707 412.798 126.32C412.465 126.933 412.298 127.653 412.298 128.48C412.298 129.32 412.465 130.053 412.798 130.68C413.131 131.293 413.578 131.767 414.138 132.1C414.698 132.42 415.318 132.58 415.998 132.58C416.678 132.58 417.298 132.42 417.858 132.1C418.431 131.767 418.885 131.293 419.218 130.68C419.551 130.053 419.718 129.327 419.718 128.5ZM426.254 124.82C426.574 124.193 427.027 123.707 427.614 123.36C428.214 123.013 428.94 122.84 429.794 122.84V124.72H429.314C427.274 124.72 426.254 125.827 426.254 128.04V134H424.434V123.04H426.254V124.82ZM432.635 121.26C432.288 121.26 431.995 121.14 431.755 120.9C431.515 120.66 431.395 120.367 431.395 120.02C431.395 119.673 431.515 119.38 431.755 119.14C431.995 118.9 432.288 118.78 432.635 118.78C432.968 118.78 433.248 118.9 433.475 119.14C433.715 119.38 433.835 119.673 433.835 120.02C433.835 120.367 433.715 120.66 433.475 120.9C433.248 121.14 432.968 121.26 432.635 121.26ZM433.515 123.04V134H431.695V123.04H433.515ZM74.06 152.86C75.0067 152.86 75.8333 153.067 76.54 153.48C77.26 153.893 77.7933 154.413 78.14 155.04V153.04H79.98V164.24C79.98 165.24 79.7667 166.127 79.34 166.9C78.9133 167.687 78.3 168.3 77.5 168.74C76.7133 169.18 75.7933 169.4 74.74 169.4C73.3 169.4 72.1 169.06 71.14 168.38C70.18 167.7 69.6133 166.773 69.44 165.6H71.24C71.44 166.267 71.8533 166.8 72.48 167.2C73.1067 167.613 73.86 167.82 74.74 167.82C75.74 167.82 76.5533 167.507 77.18 166.88C77.82 166.253 78.14 165.373 78.14 164.24V161.94C77.78 162.58 77.2467 163.113 76.54 163.54C75.8333 163.967 75.0067 164.18 74.06 164.18C73.0867 164.18 72.2 163.94 71.4 163.46C70.6133 162.98 69.9933 162.307 69.54 161.44C69.0867 160.573 68.86 159.587 68.86 158.48C68.86 157.36 69.0867 156.38 69.54 155.54C69.9933 154.687 70.6133 154.027 71.4 153.56C72.2 153.093 73.0867 152.86 74.06 152.86ZM78.14 158.5C78.14 157.673 77.9733 156.953 77.64 156.34C77.3067 155.727 76.8533 155.26 76.28 154.94C75.72 154.607 75.1 154.44 74.42 154.44C73.74 154.44 73.12 154.6 72.56 154.92C72 155.24 71.5533 155.707 71.22 156.32C70.8867 156.933 70.72 157.653 70.72 158.48C70.72 159.32 70.8867 160.053 71.22 160.68C71.5533 161.293 72 161.767 72.56 162.1C73.12 162.42 73.74 162.58 74.42 162.58C75.1 162.58 75.72 162.42 76.28 162.1C76.8533 161.767 77.3067 161.293 77.64 160.68C77.9733 160.053 78.14 159.327 78.14 158.5ZM92.5756 153.04V164H90.7556V162.38C90.409 162.94 89.9223 163.38 89.2956 163.7C88.6823 164.007 88.0023 164.16 87.2556 164.16C86.4023 164.16 85.6356 163.987 84.9556 163.64C84.2756 163.28 83.7356 162.747 83.3356 162.04C82.949 161.333 82.7556 160.473 82.7556 159.46V153.04H84.5556V159.22C84.5556 160.3 84.829 161.133 85.3756 161.72C85.9223 162.293 86.669 162.58 87.6156 162.58C88.589 162.58 89.3556 162.28 89.9156 161.68C90.4756 161.08 90.7556 160.207 90.7556 159.06V153.04H92.5756ZM97.2686 154.82C97.5886 154.193 98.0419 153.707 98.6286 153.36C99.2286 153.013 99.9553 152.84 100.809 152.84V154.72H100.329C98.2886 154.72 97.2686 155.827 97.2686 158.04V164H95.4486V153.04H97.2686V154.82ZM112.43 153.04V164H110.61V162.38C110.263 162.94 109.776 163.38 109.15 163.7C108.536 164.007 107.856 164.16 107.11 164.16C106.256 164.16 105.49 163.987 104.81 163.64C104.13 163.28 103.59 162.747 103.19 162.04C102.803 161.333 102.61 160.473 102.61 159.46V153.04H104.41V159.22C104.41 160.3 104.683 161.133 105.23 161.72C105.776 162.293 106.523 162.58 107.47 162.58C108.443 162.58 109.21 162.28 109.77 161.68C110.33 161.08 110.61 160.207 110.61 159.06V153.04H112.43ZM122.655 154.54V161C122.655 161.533 122.768 161.913 122.995 162.14C123.221 162.353 123.615 162.46 124.175 162.46H125.515V164H123.875C122.861 164 122.101 163.767 121.595 163.3C121.088 162.833 120.835 162.067 120.835 161V154.54H119.415V153.04H120.835V150.28H122.655V153.04H125.515V154.54H122.655ZM137.52 158.1C137.52 158.447 137.5 158.813 137.46 159.2H128.7C128.766 160.28 129.133 161.127 129.8 161.74C130.48 162.34 131.3 162.64 132.26 162.64C133.046 162.64 133.7 162.46 134.22 162.1C134.753 161.727 135.126 161.233 135.34 160.62H137.3C137.006 161.673 136.42 162.533 135.54 163.2C134.66 163.853 133.566 164.18 132.26 164.18C131.22 164.18 130.286 163.947 129.46 163.48C128.646 163.013 128.006 162.353 127.54 161.5C127.073 160.633 126.84 159.633 126.84 158.5C126.84 157.367 127.066 156.373 127.52 155.52C127.973 154.667 128.606 154.013 129.42 153.56C130.246 153.093 131.193 152.86 132.26 152.86C133.3 152.86 134.22 153.087 135.02 153.54C135.82 153.993 136.433 154.62 136.86 155.42C137.3 156.207 137.52 157.1 137.52 158.1ZM135.64 157.72C135.64 157.027 135.486 156.433 135.18 155.94C134.873 155.433 134.453 155.053 133.92 154.8C133.4 154.533 132.82 154.4 132.18 154.4C131.26 154.4 130.473 154.693 129.82 155.28C129.18 155.867 128.813 156.68 128.72 157.72H135.64ZM141.542 154.82C141.862 154.193 142.315 153.707 142.902 153.36C143.502 153.013 144.229 152.84 145.082 152.84V154.72H144.602C142.562 154.72 141.542 155.827 141.542 158.04V164H139.722V153.04H141.542V154.82ZM148.803 155.08C149.176 154.427 149.723 153.893 150.443 153.48C151.163 153.067 151.983 152.86 152.903 152.86C153.89 152.86 154.776 153.093 155.563 153.56C156.35 154.027 156.97 154.687 157.423 155.54C157.876 156.38 158.103 157.36 158.103 158.48C158.103 159.587 157.876 160.573 157.423 161.44C156.97 162.307 156.343 162.98 155.543 163.46C154.756 163.94 153.876 164.18 152.903 164.18C151.956 164.18 151.123 163.973 150.403 163.56C149.696 163.147 149.163 162.62 148.803 161.98V164H146.983V149.2H148.803V155.08ZM156.243 158.48C156.243 157.653 156.076 156.933 155.743 156.32C155.41 155.707 154.956 155.24 154.383 154.92C153.823 154.6 153.203 154.44 152.523 154.44C151.856 154.44 151.236 154.607 150.663 154.94C150.103 155.26 149.65 155.733 149.303 156.36C148.97 156.973 148.803 157.687 148.803 158.5C148.803 159.327 148.97 160.053 149.303 160.68C149.65 161.293 150.103 161.767 150.663 162.1C151.236 162.42 151.856 162.58 152.523 162.58C153.203 162.58 153.823 162.42 154.383 162.1C154.956 161.767 155.41 161.293 155.743 160.68C156.076 160.053 156.243 159.32 156.243 158.48ZM159.619 158.48C159.619 157.36 159.845 156.38 160.299 155.54C160.752 154.687 161.372 154.027 162.159 153.56C162.959 153.093 163.845 152.86 164.819 152.86C165.779 152.86 166.612 153.067 167.319 153.48C168.025 153.893 168.552 154.413 168.899 155.04V153.04H170.739V164H168.899V161.96C168.539 162.6 167.999 163.133 167.279 163.56C166.572 163.973 165.745 164.18 164.799 164.18C163.825 164.18 162.945 163.94 162.159 163.46C161.372 162.98 160.752 162.307 160.299 161.44C159.845 160.573 159.619 159.587 159.619 158.48ZM168.899 158.5C168.899 157.673 168.732 156.953 168.399 156.34C168.065 155.727 167.612 155.26 167.039 154.94C166.479 154.607 165.859 154.44 165.179 154.44C164.499 154.44 163.879 154.6 163.319 154.92C162.759 155.24 162.312 155.707 161.979 156.32C161.645 156.933 161.479 157.653 161.479 158.48C161.479 159.32 161.645 160.053 161.979 160.68C162.312 161.293 162.759 161.767 163.319 162.1C163.879 162.42 164.499 162.58 165.179 162.58C165.859 162.58 166.479 162.42 167.039 162.1C167.612 161.767 168.065 161.293 168.399 160.68C168.732 160.053 168.899 159.327 168.899 158.5ZM174.554 151.26C174.208 151.26 173.914 151.14 173.674 150.9C173.434 150.66 173.314 150.367 173.314 150.02C173.314 149.673 173.434 149.38 173.674 149.14C173.914 148.9 174.208 148.78 174.554 148.78C174.888 148.78 175.168 148.9 175.394 149.14C175.634 149.38 175.754 149.673 175.754 150.02C175.754 150.367 175.634 150.66 175.394 150.9C175.168 151.14 174.888 151.26 174.554 151.26ZM175.434 153.04V164H173.614V153.04H175.434ZM184.456 164L180.156 159.16V164H178.336V149.2H180.156V157.9L184.376 153.04H186.916L181.756 158.5L186.936 164H184.456ZM189.009 164.12C188.662 164.12 188.369 164 188.129 163.76C187.889 163.52 187.769 163.227 187.769 162.88C187.769 162.533 187.889 162.24 188.129 162C188.369 161.76 188.662 161.64 189.009 161.64C189.342 161.64 189.622 161.76 189.849 162C190.089 162.24 190.209 162.533 190.209 162.88C190.209 163.227 190.089 163.52 189.849 163.76C189.622 164 189.342 164.12 189.009 164.12Z" fill="white"/>
<path d="M83.584 76.48C84.8853 76.7573 85.9307 77.408 86.72 78.432C87.5093 79.4347 87.904 80.5867 87.904 81.888C87.904 83.7653 87.2427 85.2587 85.92 86.368C84.6187 87.456 82.7947 88 80.448 88H69.984V65.536H80.096C82.3787 65.536 84.16 66.0587 85.44 67.104C86.7413 68.1493 87.392 69.568 87.392 71.36C87.392 72.6827 87.04 73.7813 86.336 74.656C85.6533 75.5307 84.736 76.1387 83.584 76.48ZM75.456 74.624H79.04C79.936 74.624 80.6187 74.432 81.088 74.048C81.5787 73.6427 81.824 73.056 81.824 72.288C81.824 71.52 81.5787 70.9333 81.088 70.528C80.6187 70.1227 79.936 69.92 79.04 69.92H75.456V74.624ZM79.488 83.584C80.4053 83.584 81.1093 83.3813 81.6 82.976C82.112 82.5493 82.368 81.9413 82.368 81.152C82.368 80.3627 82.1013 79.744 81.568 79.296C81.056 78.848 80.3413 78.624 79.424 78.624H75.456V83.584H79.488ZM107.59 78.784C107.59 79.296 107.558 79.8293 107.494 80.384H95.1098C95.1951 81.4933 95.5471 82.3467 96.1658 82.944C96.8058 83.52 97.5844 83.808 98.5018 83.808C99.8671 83.808 100.816 83.232 101.35 82.08H107.174C106.875 83.2533 106.331 84.3093 105.542 85.248C104.774 86.1867 103.803 86.9227 102.63 87.456C101.456 87.9893 100.144 88.256 98.6938 88.256C96.9444 88.256 95.3871 87.8827 94.0218 87.136C92.6564 86.3893 91.5898 85.3227 90.8218 83.936C90.0538 82.5493 89.6698 80.928 89.6698 79.072C89.6698 77.216 90.0431 75.5947 90.7898 74.208C91.5578 72.8213 92.6244 71.7547 93.9898 71.008C95.3551 70.2613 96.9231 69.888 98.6938 69.888C100.422 69.888 101.958 70.2507 103.302 70.976C104.646 71.7013 105.691 72.736 106.438 74.08C107.206 75.424 107.59 76.992 107.59 78.784ZM101.99 77.344C101.99 76.4053 101.67 75.6587 101.03 75.104C100.39 74.5493 99.5898 74.272 98.6298 74.272C97.7124 74.272 96.9338 74.5387 96.2938 75.072C95.6751 75.6053 95.2911 76.3627 95.1418 77.344H101.99ZM115.629 64.32V88H110.157V64.32H115.629ZM118.186 79.04C118.186 77.2053 118.527 75.5947 119.21 74.208C119.914 72.8213 120.863 71.7547 122.058 71.008C123.253 70.2613 124.586 69.888 126.058 69.888C127.317 69.888 128.415 70.144 129.354 70.656C130.314 71.168 131.05 71.84 131.562 72.672V70.144H137.034V88H131.562V85.472C131.029 86.304 130.282 86.976 129.322 87.488C128.383 88 127.285 88.256 126.026 88.256C124.575 88.256 123.253 87.8827 122.058 87.136C120.863 86.368 119.914 85.2907 119.21 83.904C118.527 82.496 118.186 80.8747 118.186 79.04ZM131.562 79.072C131.562 77.7067 131.178 76.6293 130.41 75.84C129.663 75.0507 128.746 74.656 127.658 74.656C126.57 74.656 125.642 75.0507 124.874 75.84C124.127 76.608 123.754 77.6747 123.754 79.04C123.754 80.4053 124.127 81.4933 124.874 82.304C125.642 83.0933 126.57 83.488 127.658 83.488C128.746 83.488 129.663 83.0933 130.41 82.304C131.178 81.5147 131.562 80.4373 131.562 79.072ZM143.393 68.288C142.433 68.288 141.643 68.0107 141.025 67.456C140.427 66.88 140.129 66.176 140.129 65.344C140.129 64.4907 140.427 63.7867 141.025 63.232C141.643 62.656 142.433 62.368 143.393 62.368C144.331 62.368 145.099 62.656 145.697 63.232C146.315 63.7867 146.625 64.4907 146.625 65.344C146.625 66.176 146.315 66.88 145.697 67.456C145.099 68.0107 144.331 68.288 143.393 68.288ZM146.145 90.304C146.145 92.5013 145.59 94.08 144.481 95.04C143.371 96.0213 141.825 96.512 139.841 96.512H137.697V91.872H139.009C139.606 91.872 140.033 91.7547 140.289 91.52C140.545 91.2853 140.673 90.9013 140.673 90.368V70.144H146.145V90.304ZM148.671 79.04C148.671 77.2053 149.012 75.5947 149.695 74.208C150.399 72.8213 151.348 71.7547 152.543 71.008C153.738 70.2613 155.071 69.888 156.543 69.888C157.802 69.888 158.9 70.144 159.839 70.656C160.799 71.168 161.535 71.84 162.047 72.672V70.144H167.519V88H162.047V85.472C161.514 86.304 160.767 86.976 159.807 87.488C158.868 88 157.77 88.256 156.511 88.256C155.06 88.256 153.738 87.8827 152.543 87.136C151.348 86.368 150.399 85.2907 149.695 83.904C149.012 82.496 148.671 80.8747 148.671 79.04ZM162.047 79.072C162.047 77.7067 161.663 76.6293 160.895 75.84C160.148 75.0507 159.231 74.656 158.143 74.656C157.055 74.656 156.127 75.0507 155.359 75.84C154.612 76.608 154.239 77.6747 154.239 79.04C154.239 80.4053 154.612 81.4933 155.359 82.304C156.127 83.0933 157.055 83.488 158.143 83.488C159.231 83.488 160.148 83.0933 160.895 82.304C161.663 81.5147 162.047 80.4373 162.047 79.072ZM176.63 73.12C177.27 72.1387 178.07 71.3707 179.03 70.816C179.99 70.24 181.056 69.952 182.23 69.952V75.744H180.726C179.36 75.744 178.336 76.0427 177.654 76.64C176.971 77.216 176.63 78.24 176.63 79.712V88H171.158V70.144H176.63V73.12ZM189.899 79.04C189.899 77.2053 190.24 75.5947 190.923 74.208C191.627 72.8213 192.576 71.7547 193.771 71.008C194.965 70.2613 196.299 69.888 197.771 69.888C198.944 69.888 200.011 70.1333 200.971 70.624C201.952 71.1147 202.72 71.776 203.275 72.608V64.32H208.747V88H203.275V85.44C202.763 86.2933 202.027 86.976 201.067 87.488C200.128 88 199.029 88.256 197.771 88.256C196.299 88.256 194.965 87.8827 193.771 87.136C192.576 86.368 191.627 85.2907 190.923 83.904C190.24 82.496 189.899 80.8747 189.899 79.04ZM203.275 79.072C203.275 77.7067 202.891 76.6293 202.123 75.84C201.376 75.0507 200.459 74.656 199.371 74.656C198.283 74.656 197.355 75.0507 196.587 75.84C195.84 76.608 195.467 77.6747 195.467 79.04C195.467 80.4053 195.84 81.4933 196.587 82.304C197.355 83.0933 198.283 83.488 199.371 83.488C200.459 83.488 201.376 83.0933 202.123 82.304C202.891 81.5147 203.275 80.4373 203.275 79.072ZM211.297 79.04C211.297 77.2053 211.639 75.5947 212.321 74.208C213.025 72.8213 213.975 71.7547 215.169 71.008C216.364 70.2613 217.697 69.888 219.169 69.888C220.428 69.888 221.527 70.144 222.465 70.656C223.425 71.168 224.161 71.84 224.673 72.672V70.144H230.145V88H224.673V85.472C224.14 86.304 223.393 86.976 222.433 87.488C221.495 88 220.396 88.256 219.137 88.256C217.687 88.256 216.364 87.8827 215.169 87.136C213.975 86.368 213.025 85.2907 212.321 83.904C211.639 82.496 211.297 80.8747 211.297 79.04ZM224.673 79.072C224.673 77.7067 224.289 76.6293 223.521 75.84C222.775 75.0507 221.857 74.656 220.769 74.656C219.681 74.656 218.753 75.0507 217.985 75.84C217.239 76.608 216.865 77.6747 216.865 79.04C216.865 80.4053 217.239 81.4933 217.985 82.304C218.753 83.0933 219.681 83.488 220.769 83.488C221.857 83.488 222.775 83.0933 223.521 82.304C224.289 81.5147 224.673 80.4373 224.673 79.072ZM239.256 73.12C239.896 72.1387 240.696 71.3707 241.656 70.816C242.616 70.24 243.683 69.952 244.856 69.952V75.744H243.352C241.987 75.744 240.963 76.0427 240.28 76.64C239.597 77.216 239.256 78.24 239.256 79.712V88H233.784V70.144H239.256V73.12ZM249.903 68.288C248.943 68.288 248.154 68.0107 247.535 67.456C246.938 66.88 246.639 66.176 246.639 65.344C246.639 64.4907 246.938 63.7867 247.535 63.232C248.154 62.656 248.943 62.368 249.903 62.368C250.842 62.368 251.61 62.656 252.207 63.232C252.826 63.7867 253.135 64.4907 253.135 65.344C253.135 66.176 252.826 66.88 252.207 67.456C251.61 68.0107 250.842 68.288 249.903 68.288ZM252.623 70.144V88H247.151V70.144H252.623ZM280.97 70.144L269.77 96.48H263.882L267.978 87.392L260.714 70.144H266.826L270.954 81.312L275.05 70.144H280.97ZM281.541 79.04C281.541 77.2053 281.882 75.5947 282.565 74.208C283.269 72.8213 284.218 71.7547 285.413 71.008C286.608 70.2613 287.941 69.888 289.413 69.888C290.672 69.888 291.77 70.144 292.709 70.656C293.669 71.168 294.405 71.84 294.917 72.672V70.144H300.389V88H294.917V85.472C294.384 86.304 293.637 86.976 292.677 87.488C291.738 88 290.64 88.256 289.381 88.256C287.93 88.256 286.608 87.8827 285.413 87.136C284.218 86.368 283.269 85.2907 282.565 83.904C281.882 82.496 281.541 80.8747 281.541 79.04ZM294.917 79.072C294.917 77.7067 294.533 76.6293 293.765 75.84C293.018 75.0507 292.101 74.656 291.013 74.656C289.925 74.656 288.997 75.0507 288.229 75.84C287.482 76.608 287.109 77.6747 287.109 79.04C287.109 80.4053 287.482 81.4933 288.229 82.304C288.997 83.0933 289.925 83.488 291.013 83.488C292.101 83.488 293.018 83.0933 293.765 82.304C294.533 81.5147 294.917 80.4373 294.917 79.072ZM314.908 69.952C316.998 69.952 318.662 70.6347 319.9 72C321.158 73.344 321.788 75.2 321.788 77.568V88H316.348V78.304C316.348 77.1093 316.038 76.1813 315.42 75.52C314.801 74.8587 313.969 74.528 312.924 74.528C311.878 74.528 311.046 74.8587 310.428 75.52C309.809 76.1813 309.5 77.1093 309.5 78.304V88H304.028V70.144H309.5V72.512C310.054 71.7227 310.801 71.104 311.74 70.656C312.678 70.1867 313.734 69.952 314.908 69.952ZM332.054 69.888C333.313 69.888 334.412 70.144 335.35 70.656C336.31 71.168 337.046 71.84 337.558 72.672V70.144H343.03V87.968C343.03 89.6107 342.7 91.0933 342.038 92.416C341.398 93.76 340.406 94.8267 339.062 95.616C337.74 96.4053 336.086 96.8 334.102 96.8C331.457 96.8 329.313 96.1707 327.67 94.912C326.028 93.6747 325.089 91.9893 324.854 89.856H330.262C330.433 90.5387 330.838 91.072 331.478 91.456C332.118 91.8613 332.908 92.064 333.846 92.064C334.977 92.064 335.873 91.7333 336.534 91.072C337.217 90.432 337.558 89.3973 337.558 87.968V85.44C337.025 86.272 336.289 86.9547 335.35 87.488C334.412 88 333.313 88.256 332.054 88.256C330.582 88.256 329.249 87.8827 328.054 87.136C326.86 86.368 325.91 85.2907 325.206 83.904C324.524 82.496 324.182 80.8747 324.182 79.04C324.182 77.2053 324.524 75.5947 325.206 74.208C325.91 72.8213 326.86 71.7547 328.054 71.008C329.249 70.2613 330.582 69.888 332.054 69.888ZM337.558 79.072C337.558 77.7067 337.174 76.6293 336.406 75.84C335.66 75.0507 334.742 74.656 333.654 74.656C332.566 74.656 331.638 75.0507 330.87 75.84C330.124 76.608 329.75 77.6747 329.75 79.04C329.75 80.4053 330.124 81.4933 330.87 82.304C331.638 83.0933 332.566 83.488 333.654 83.488C334.742 83.488 335.66 83.0933 336.406 82.304C337.174 81.5147 337.558 80.4373 337.558 79.072ZM363.082 83.36V88H360.298C358.314 88 356.768 87.52 355.658 86.56C354.549 85.5787 353.994 83.9893 353.994 81.792V74.688H351.818V70.144H353.994V65.792H359.466V70.144H363.05V74.688H359.466V81.856C359.466 82.3893 359.594 82.7733 359.85 83.008C360.106 83.2427 360.533 83.36 361.13 83.36H363.082ZM382.642 78.784C382.642 79.296 382.61 79.8293 382.546 80.384H370.162C370.248 81.4933 370.6 82.3467 371.218 82.944C371.858 83.52 372.637 83.808 373.554 83.808C374.92 83.808 375.869 83.232 376.402 82.08H382.226C381.928 83.2533 381.384 84.3093 380.594 85.248C379.826 86.1867 378.856 86.9227 377.682 87.456C376.509 87.9893 375.197 88.256 373.746 88.256C371.997 88.256 370.44 87.8827 369.074 87.136C367.709 86.3893 366.642 85.3227 365.874 83.936C365.106 82.5493 364.722 80.928 364.722 79.072C364.722 77.216 365.096 75.5947 365.842 74.208C366.61 72.8213 367.677 71.7547 369.042 71.008C370.408 70.2613 371.976 69.888 373.746 69.888C375.474 69.888 377.01 70.2507 378.354 70.976C379.698 71.7013 380.744 72.736 381.49 74.08C382.258 75.424 382.642 76.992 382.642 78.784ZM377.042 77.344C377.042 76.4053 376.722 75.6587 376.082 75.104C375.442 74.5493 374.642 74.272 373.682 74.272C372.765 74.272 371.986 74.5387 371.346 75.072C370.728 75.6053 370.344 76.3627 370.194 77.344H377.042ZM390.681 73.12C391.321 72.1387 392.121 71.3707 393.081 70.816C394.041 70.24 395.108 69.952 396.281 69.952V75.744H394.777C393.412 75.744 392.388 76.0427 391.705 76.64C391.022 77.216 390.681 78.24 390.681 79.712V88H385.209V70.144H390.681V73.12ZM404.048 72.672C404.56 71.84 405.296 71.168 406.256 70.656C407.216 70.144 408.315 69.888 409.552 69.888C411.024 69.888 412.358 70.2613 413.552 71.008C414.747 71.7547 415.686 72.8213 416.368 74.208C417.072 75.5947 417.424 77.2053 417.424 79.04C417.424 80.8747 417.072 82.496 416.368 83.904C415.686 85.2907 414.747 86.368 413.552 87.136C412.358 87.8827 411.024 88.256 409.552 88.256C408.294 88.256 407.195 88.0107 406.256 87.52C405.318 87.008 404.582 86.336 404.048 85.504V88H398.576V64.32H404.048V72.672ZM411.856 79.04C411.856 77.6747 411.472 76.608 410.704 75.84C409.958 75.0507 409.03 74.656 407.92 74.656C406.832 74.656 405.904 75.0507 405.136 75.84C404.39 76.6293 404.016 77.7067 404.016 79.072C404.016 80.4373 404.39 81.5147 405.136 82.304C405.904 83.0933 406.832 83.488 407.92 83.488C409.008 83.488 409.936 83.0933 410.704 82.304C411.472 81.4933 411.856 80.4053 411.856 79.04ZM418.887 79.04C418.887 77.2053 419.229 75.5947 419.911 74.208C420.615 72.8213 421.565 71.7547 422.759 71.008C423.954 70.2613 425.287 69.888 426.759 69.888C428.018 69.888 429.117 70.144 430.055 70.656C431.015 71.168 431.751 71.84 432.263 72.672V70.144H437.735V88H432.263V85.472C431.73 86.304 430.983 86.976 430.023 87.488C429.085 88 427.986 88.256 426.727 88.256C425.277 88.256 423.954 87.8827 422.759 87.136C421.565 86.368 420.615 85.2907 419.911 83.904C419.229 82.496 418.887 80.8747 418.887 79.04ZM432.263 79.072C432.263 77.7067 431.879 76.6293 431.111 75.84C430.365 75.0507 429.447 74.656 428.359 74.656C427.271 74.656 426.343 75.0507 425.575 75.84C424.829 76.608 424.455 77.6747 424.455 79.04C424.455 80.4053 424.829 81.4933 425.575 82.304C426.343 83.0933 427.271 83.488 428.359 83.488C429.447 83.488 430.365 83.0933 431.111 82.304C431.879 81.5147 432.263 80.4373 432.263 79.072ZM444.126 68.288C443.166 68.288 442.377 68.0107 441.758 67.456C441.161 66.88 440.862 66.176 440.862 65.344C440.862 64.4907 441.161 63.7867 441.758 63.232C442.377 62.656 443.166 62.368 444.126 62.368C445.065 62.368 445.833 62.656 446.43 63.232C447.049 63.7867 447.358 64.4907 447.358 65.344C447.358 66.176 447.049 66.88 446.43 67.456C445.833 68.0107 445.065 68.288 444.126 68.288ZM446.846 70.144V88H441.374V70.144H446.846ZM461.404 88L455.964 80.512V88H450.492V64.32H455.964V77.408L461.372 70.144H468.124L460.7 79.104L468.188 88H461.404Z" fill="white"/>
</g>
<defs>
<filter id="filter0_d_119_702" x="0" y="0" width="620" height="320" filterUnits="userSpaceOnUse" color-interpolation-filters="sRGB">
<feFlood flood-opacity="0" result="BackgroundImageFix"/>
<feColorMatrix in="SourceAlpha" type="matrix" values="0 0 0 0 0 0 0 0 0 0 0 0 0 0 0 0 0 0 127 0" result="hardAlpha"/>
<feOffset/>
<feGaussianBlur stdDeviation="3"/>
<feComposite in2="hardAlpha" operator="out"/>
<feColorMatrix type="matrix" values="0 0 0 0 0 0 0 0 0 0 0 0 0 0 0 0 0 0 0.16 0"/>
<feBlend mode="normal" in2="BackgroundImageFix" result="effect1_dropShadow_119_702"/>
<feBlend mode="normal" in="SourceGraphic" in2="effect1_dropShadow_119_702" result="shape"/>
</filter>
</defs>
</svg>
