<svg width="41" height="40" viewBox="0 0 41 40" fill="none" xmlns="http://www.w3.org/2000/svg">
<path d="M20.002 0C31.048 0 40.002 8.954 40.002 20C40.002 31.046 31.048 40 20.002 40C8.95595 40 0.00195312 31.046 0.00195312 20C0.00195312 8.954 8.95595 0 20.002 0ZM21.562 10.938L21.394 10.792C21.1391 10.6036 20.8311 10.5008 20.5142 10.4983C20.1973 10.4958 19.8878 10.5937 19.63 10.778L19.442 10.938L19.296 11.106C19.1071 11.361 19.004 11.6694 19.0015 11.9867C18.999 12.3041 19.0972 12.614 19.282 12.872L19.442 13.06L24.882 18.5H11.5L11.294 18.512C10.9697 18.557 10.6691 18.7069 10.438 18.9387C10.2069 19.1706 10.058 19.4716 10.014 19.796L9.99995 19.998L10.014 20.202C10.0586 20.5266 10.2083 20.8277 10.4401 21.0592C10.672 21.2907 10.9733 21.4399 11.298 21.484L11.5 21.498H24.88L19.44 26.938L19.294 27.108C19.0773 27.3969 18.9721 27.7542 18.9977 28.1143C19.0233 28.4745 19.178 28.8133 19.4333 29.0687C19.6886 29.324 20.0275 29.4786 20.3876 29.5042C20.7478 29.5298 21.1051 29.4246 21.394 29.208L21.562 29.062L29.564 21.062L29.71 20.892C29.8983 20.6371 30.0012 20.3292 30.0037 20.0123C30.0062 19.6954 29.9083 19.3858 29.724 19.128L29.564 18.94L21.564 10.938L21.394 10.792L21.562 10.938Z" fill="#1EA9E4"/>
</svg>
