<svg width="40" height="40" viewBox="0 0 40 40" fill="none" xmlns="http://www.w3.org/2000/svg">
<path d="M20 0.5C16.1433 0.5 12.3731 1.64366 9.16639 3.78634C5.95963 5.92903 3.46027 8.97451 1.98436 12.5377C0.508449 16.1008 0.122284 20.0216 0.874696 23.8043C1.62711 27.5869 3.4843 31.0615 6.21143 33.7886C8.93855 36.5157 12.4131 38.3729 16.1957 39.1253C19.9784 39.8777 23.8992 39.4916 27.4623 38.0156C31.0255 36.5397 34.071 34.0404 36.2137 30.8336C38.3564 27.6269 39.5 23.8567 39.5 20C39.4901 14.8313 37.4325 9.87718 33.7776 6.22237C30.1228 2.56755 25.1687 0.509911 20 0.5ZM20 36.5C16.7366 36.5 13.5465 35.5323 10.8331 33.7192C8.11969 31.9062 6.00484 29.3293 4.756 26.3143C3.50715 23.2993 3.1804 19.9817 3.81705 16.781C4.45371 13.5803 6.02518 10.6403 8.33275 8.33274C10.6403 6.02517 13.5803 4.4537 16.781 3.81704C19.9817 3.18039 23.2993 3.50714 26.3143 4.75599C29.3293 6.00483 31.9062 8.11968 33.7193 10.8331C35.5323 13.5465 36.5 16.7366 36.5 20C36.495 24.3745 34.7551 28.5685 31.6618 31.6618C28.5685 34.7551 24.3746 36.495 20 36.5ZM24.9313 18.9125L18.5 27.5H24.5C24.8978 27.5 25.2794 27.658 25.5607 27.9393C25.842 28.2206 26 28.6022 26 29C26 29.3978 25.842 29.7794 25.5607 30.0607C25.2794 30.342 24.8978 30.5 24.5 30.5H15.5C15.3406 30.5025 15.1819 30.4771 15.0313 30.425C14.7312 30.3263 14.47 30.1354 14.2848 29.8795C14.0997 29.6237 14 29.3159 14 29C13.9936 28.6656 14.1066 28.3398 14.3188 28.0813L22.5125 17.15C22.8107 16.6972 22.9806 16.1721 23.0042 15.6304C23.0278 15.0888 22.9041 14.5509 22.6464 14.0739C22.3887 13.5969 22.0065 13.1987 21.5405 12.9215C21.0745 12.6444 20.5422 12.4987 20 12.5C19.4104 12.4994 18.8338 12.6736 18.3432 13.0007C17.8526 13.3278 17.47 13.793 17.2438 14.3375C17.0871 14.7055 16.7907 14.9962 16.4197 15.1456C16.0488 15.2951 15.6336 15.291 15.2656 15.1344C14.8976 14.9777 14.607 14.6813 14.4575 14.3104C14.3081 13.9394 14.3121 13.5242 14.4688 13.1562C14.7968 12.3881 15.2817 11.697 15.8922 11.127C16.5028 10.557 17.2257 10.1208 18.0145 9.84632C18.8034 9.5718 19.6408 9.46501 20.4733 9.53278C21.3058 9.60054 22.115 9.84138 22.8491 10.2399C23.5831 10.6384 24.2259 11.1857 24.7363 11.8469C25.2466 12.5081 25.6133 13.2686 25.8128 14.0797C26.0123 14.8908 26.0403 15.7346 25.895 16.5571C25.7496 17.3796 25.4342 18.1627 24.9688 18.8563L24.9313 18.9125Z" fill="#3E3E3E"/>
</svg>
