<svg width="40" height="40" viewBox="0 0 40 40" fill="none" xmlns="http://www.w3.org/2000/svg">
<path d="M20 0.5C16.1433 0.5 12.3731 1.64366 9.16639 3.78634C5.95963 5.92903 3.46027 8.97451 1.98436 12.5377C0.508449 16.1008 0.122284 20.0216 0.874696 23.8043C1.62711 27.5869 3.4843 31.0615 6.21143 33.7886C8.93855 36.5157 12.4131 38.3729 16.1957 39.1253C19.9784 39.8777 23.8992 39.4916 27.4623 38.0157C31.0255 36.5397 34.071 34.0404 36.2137 30.8336C38.3564 27.6269 39.5 23.8567 39.5 20C39.4901 14.8313 37.4325 9.87718 33.7776 6.22237C30.1228 2.56755 25.1687 0.509911 20 0.5ZM20 36.5C16.7366 36.5 13.5465 35.5323 10.8331 33.7192C8.11969 31.9062 6.00484 29.3293 4.756 26.3143C3.50715 23.2993 3.1804 19.9817 3.81705 16.781C4.45371 13.5803 6.02518 10.6403 8.33275 8.33274C10.6403 6.02517 13.5803 4.4537 16.781 3.81704C19.9817 3.18039 23.2993 3.50714 26.3143 4.75599C29.3293 6.00483 31.9062 8.11968 33.7193 10.8331C35.5323 13.5465 36.5 16.7366 36.5 20C36.495 24.3745 34.7551 28.5685 31.6618 31.6618C28.5685 34.7551 24.3746 36.495 20 36.5ZM24.0313 19.7188C25.2054 21.0052 25.8385 22.6948 25.7987 24.4361C25.759 26.1774 25.0496 27.8364 23.818 29.068C22.5864 30.2996 20.9274 31.009 19.1861 31.0487C17.4448 31.0885 15.7552 30.4554 14.4688 29.2813C14.2296 28.9898 14.1073 28.6198 14.1258 28.2432C14.1443 27.8667 14.3022 27.5104 14.5688 27.2438C14.8354 26.9772 15.1917 26.8193 15.5682 26.8008C15.9448 26.7823 16.3148 26.9046 16.6063 27.1438C17.0422 27.5717 17.5765 27.8861 18.1624 28.0593C18.7482 28.2325 19.3676 28.2592 19.9661 28.1371C20.5647 28.0149 21.1241 27.7477 21.5953 27.3589C22.0664 26.97 22.4349 26.4714 22.6683 25.9069C22.9017 25.3424 22.993 24.7291 22.934 24.1211C22.8751 23.5131 22.6678 22.9288 22.3302 22.4196C21.9927 21.9104 21.5353 21.4919 20.9983 21.2008C20.4612 20.9097 19.8609 20.7549 19.25 20.75C18.976 20.7482 18.7076 20.6723 18.4733 20.5304C18.2389 20.3884 18.0473 20.1857 17.9188 19.9438C17.7903 19.7007 17.731 19.4269 17.7476 19.1525C17.7641 18.878 17.8558 18.6134 18.0125 18.3875L21.6125 13.25H15.5C15.1022 13.25 14.7207 13.092 14.4394 12.8107C14.158 12.5294 14 12.1478 14 11.75C14 11.3522 14.158 10.9706 14.4394 10.6893C14.7207 10.408 15.1022 10.25 15.5 10.25H24.5C24.774 10.2518 25.0424 10.3277 25.2768 10.4696C25.5111 10.6116 25.7027 10.8143 25.8313 11.0563C25.9598 11.2993 26.019 11.5731 26.0025 11.8475C25.9859 12.122 25.8943 12.3866 25.7375 12.6125L21.7813 18.2375C22.6188 18.5833 23.3826 19.0861 24.0313 19.7188Z" fill="#3E3E3E"/>
</svg>
