<svg width="48" height="48" viewBox="0 0 48 48" fill="none" xmlns="http://www.w3.org/2000/svg">
<rect width="48" height="48" rx="12" fill="#EFEFEF"/>
<path d="M36.61 30.52C35.0031 28.779 33.0532 27.3896 30.8829 26.4393C28.7127 25.489 26.3692 24.9984 24 24.9984C21.6308 24.9984 19.2873 25.489 17.1171 26.4393C14.9468 27.3896 12.9969 28.779 11.39 30.52C11.1419 30.7943 11.0031 31.1501 11 31.52V37.52C11.0053 37.9143 11.1656 38.2908 11.4463 38.5677C11.7271 38.8447 12.1056 39 12.5 39H35.5C35.8978 39 36.2794 38.842 36.5607 38.5607C36.842 38.2794 37 37.8978 37 37.5V31.5C36.992 31.1371 36.8536 30.7892 36.61 30.52Z" fill="#CCCCCC"/>
<path d="M24 23C27.866 23 31 19.866 31 16C31 12.134 27.866 9 24 9C20.134 9 17 12.134 17 16C17 19.866 20.134 23 24 23Z" fill="#CCCCCC"/>
</svg>
