<svg width="14" height="14" viewBox="0 0 14 14" fill="none" xmlns="http://www.w3.org/2000/svg">
<path d="M1.54583 7.56552H6.14125V12.1609C6.14125 12.628 6.52546 13.0198 7.00007 13.0198C7.47468 13.0198 7.85889 12.628 7.85889 12.1609V7.56552H12.4543C12.9214 7.56552 13.3131 7.18131 13.3131 6.7067C13.3131 6.23209 12.9214 5.84789 12.4543 5.84789H7.85889V1.25246C7.85889 0.785387 7.47468 0.393646 7.00007 0.393646C6.52546 0.393646 6.14125 0.785387 6.14125 1.25246V5.84789H1.54583C1.07875 5.84789 0.687012 6.23209 0.687012 6.7067C0.687012 7.18131 1.07875 7.56552 1.54583 7.56552Z" fill="black"/>
</svg>
