<svg width="40" height="40" viewBox="0 0 40 40" fill="none" xmlns="http://www.w3.org/2000/svg">
<path d="M20.56 29.06L20.706 28.894C20.92 28.6049 21.0229 28.2485 20.9961 27.8899C20.9693 27.5312 20.8146 27.1941 20.56 26.94L15.12 21.5H28.5L28.704 21.486C29.0631 21.4367 29.3922 21.259 29.6305 20.9859C29.8687 20.7127 30 20.3625 30 20L29.988 19.798C29.9391 19.4382 29.7613 19.1083 29.4877 18.8696C29.2141 18.6309 28.8631 18.4996 28.5 18.5H15.12L20.564 13.06L20.708 12.892C20.9341 12.5878 21.0367 12.2093 20.995 11.8325C20.9534 11.4558 20.7707 11.1088 20.4837 10.8612C20.1966 10.6137 19.8265 10.484 19.4478 10.4983C19.069 10.5125 18.7097 10.6696 18.442 10.938L10.44 18.938L10.294 19.106C10.08 19.3951 9.97706 19.7515 10.0039 20.1101C10.0307 20.4688 10.1854 20.8059 10.44 21.06L18.44 29.06L18.61 29.206C18.8987 29.4197 19.2545 29.5227 19.6127 29.4963C19.9709 29.4698 20.3078 29.3157 20.562 29.062L20.56 29.06ZM20 0C8.954 0 0 8.954 0 20C0 31.046 8.954 40 20 40C31.046 40 40 31.046 40 20C40 8.954 31.046 0 20 0ZM20 37C15.4913 37 11.1673 35.2089 7.97919 32.0208C4.79107 28.8327 3 24.5087 3 20C3 15.4913 4.79107 11.1673 7.97919 7.97919C11.1673 4.79107 15.4913 3 20 3C24.5087 3 28.8327 4.79107 32.0208 7.97919C35.2089 11.1673 37 15.4913 37 20C37 24.5087 35.2089 28.8327 32.0208 32.0208C28.8327 35.2089 24.5087 37 20 37Z" fill="#9093A2"/>
</svg>
