<svg width="20" height="19" viewBox="0 0 20 19" fill="none" xmlns="http://www.w3.org/2000/svg">
<path d="M1.036 4.952C0.905333 4.74667 0.784 4.46667 0.672 4.112C0.56 3.75733 0.504 3.384 0.504 2.992C0.504 2.264 0.662667 1.74133 0.98 1.424C1.316 1.10667 1.74533 0.947999 2.268 0.947999H14.476C14.6067 1.15333 14.728 1.43333 14.84 1.788C14.952 2.14267 15.008 2.516 15.008 2.908C15.008 3.636 14.84 4.15867 14.504 4.476C14.1867 4.79333 13.7667 4.952 13.244 4.952H10.136V17.888C9.93067 17.944 9.604 18 9.156 18.056C8.72667 18.112 8.29733 18.14 7.868 18.14C7.43867 18.14 7.056 18.1027 6.72 18.028C6.40267 17.972 6.132 17.86 5.908 17.692C5.684 17.524 5.516 17.2907 5.404 16.992C5.292 16.6933 5.236 16.3013 5.236 15.816V4.952H1.036ZM14.5001 15.732C14.5001 14.948 14.7427 14.2947 15.2281 13.772C15.7134 13.2493 16.3761 12.988 17.2161 12.988C18.0561 12.988 18.7187 13.2493 19.2041 13.772C19.6894 14.2947 19.9321 14.948 19.9321 15.732C19.9321 16.516 19.6894 17.1693 19.2041 17.692C18.7187 18.2147 18.0561 18.476 17.2161 18.476C16.3761 18.476 15.7134 18.2147 15.2281 17.692C14.7427 17.1693 14.5001 16.516 14.5001 15.732Z" fill="white"/>
</svg>
