<svg width="323" height="198" viewBox="0 0 323 198" fill="none" xmlns="http://www.w3.org/2000/svg">
<rect width="323" height="198" rx="16.91" fill="#EFEFEF"/>
<rect x="114" y="51.5" width="95" height="95" rx="19" fill="#E0E0E0"/>
<path d="M143.368 89.176C143.069 88.7067 142.792 88.0667 142.536 87.256C142.28 86.4453 142.152 85.592 142.152 84.696C142.152 83.032 142.515 81.8373 143.24 81.112C144.008 80.3867 144.989 80.024 146.184 80.024H174.088C174.387 80.4933 174.664 81.1333 174.92 81.944C175.176 82.7547 175.304 83.608 175.304 84.504C175.304 86.168 174.92 87.3627 174.152 88.088C173.427 88.8133 172.467 89.176 171.272 89.176H164.168V118.744C163.699 118.872 162.952 119 161.928 119.128C160.947 119.256 159.965 119.32 158.984 119.32C158.003 119.32 157.128 119.235 156.36 119.064C155.635 118.936 155.016 118.68 154.504 118.296C153.992 117.912 153.608 117.379 153.352 116.696C153.096 116.013 152.968 115.117 152.968 114.008V89.176H143.368ZM174.143 113.816C174.143 112.024 174.698 110.531 175.807 109.336C176.916 108.141 178.431 107.544 180.351 107.544C182.271 107.544 183.786 108.141 184.895 109.336C186.004 110.531 186.559 112.024 186.559 113.816C186.559 115.608 186.004 117.101 184.895 118.296C183.786 119.491 182.271 120.088 180.351 120.088C178.431 120.088 176.916 119.491 175.807 118.296C174.698 117.101 174.143 115.608 174.143 113.816Z" fill="white"/>
</svg>
