<svg width="515" height="515" viewBox="0 0 515 515" fill="none" xmlns="http://www.w3.org/2000/svg">
<path d="M377.889 329.636L378.082 329.909C381.288 327.661 384.584 325.562 388.078 323.768C406.162 314.474 423.124 304.924 437.286 290.246C454.057 272.862 465.823 249.384 465.828 224.718V224.71L465.751 224.713H465.828V224.71L465.751 224.713H465.828C465.828 212.373 462.509 199.887 456.457 189.201C450.406 178.512 441.615 169.618 430.664 164.491C421.643 160.268 412.198 158.777 402.539 158.777C383.029 158.78 362.635 164.852 342.967 166.878C337.727 167.419 332.489 167.663 327.254 167.663C294.644 167.666 262.158 158.138 229.845 151.256C211.635 147.375 192.65 144.419 174.022 144.419C154.282 144.419 134.938 147.741 117.363 156.815C89.8554 171.021 69.6141 199.112 64.3191 230.421C63.3695 236.04 62.9054 241.736 62.9054 247.437C62.9062 273.509 72.6065 299.679 89.961 318.865C105.216 335.729 124.834 346.425 146.178 353.172C167.522 359.918 190.596 362.717 212.789 363.791C222.306 364.252 231.832 364.481 241.356 364.481C264.558 364.481 287.746 363.116 310.774 360.394C325.436 358.659 339.192 355.672 352.175 348.359C361.52 343.093 369.464 335.953 378.082 329.909L377.889 329.636L377.698 329.361C369.036 335.44 361.108 342.563 351.848 347.777C338.973 355.028 325.318 358 310.694 359.73C287.694 362.449 264.532 363.811 241.356 363.811C231.843 363.811 222.328 363.582 212.821 363.124C190.662 362.053 167.642 359.254 146.379 352.533C125.115 345.812 105.613 335.172 90.4569 318.417C73.2209 299.364 63.5729 273.344 63.5739 247.437C63.5739 241.772 64.0351 236.112 64.9783 230.532C70.2339 199.434 90.3609 171.508 117.67 157.41C135.124 148.397 154.355 145.088 174.022 145.088C192.579 145.088 211.521 148.034 229.705 151.91C261.986 158.782 294.513 168.33 327.254 168.33C332.51 168.33 337.77 168.086 343.036 167.542C362.787 165.503 383.165 159.441 402.539 159.444C412.131 159.447 421.471 160.925 430.38 165.096C441.185 170.156 449.881 178.942 455.875 189.528C461.87 200.114 465.158 212.494 465.158 224.713V224.718H465.233H465.158H465.233H465.158C465.158 249.167 453.481 272.502 436.805 289.783C422.73 304.37 405.846 313.887 387.774 323.173C384.241 324.988 380.92 327.102 377.698 329.361L377.889 329.636Z" fill="#F4EBD7"/>
<path d="M176.619 360.454C153.787 357.752 130.812 352.234 110.638 340.145C90.4634 328.055 73.2423 308.755 66.5233 285.143C59.8041 261.53 65.113 233.707 82.407 217.961C103.93 198.365 135.816 201.481 163.841 196.344C199.966 189.721 231.655 168.274 264.064 150.344C296.47 132.417 332.955 117.369 369.18 124.957C398.345 131.068 424.635 152.476 438.038 181.038C451.441 209.597 451.642 244.63 438.564 272.798C419.694 313.442 378.025 335.232 337.68 349.425C307.947 359.885 277.379 367.759 246.371 372.945C234.972 374.853 223.338 376.398 211.856 374.593C200.373 372.785 188.908 367.239 181.803 357.304L176.619 360.454Z" fill="#F4EBD7"/>
<path d="M0 406.631H514.791V405.344H0V406.631Z" fill="#102048"/>
<path d="M272.548 246.188H425.344V99.2302H272.548V246.188Z" fill="white"/>
<path d="M382.261 199.632C382.215 199.421 382.169 199.21 382.12 199.001C383.219 198.695 384.293 198.363 385.341 198.002L385.55 198.612C384.481 198.978 383.381 199.318 382.261 199.632ZM390.339 196.699L390.069 196.115C391.655 195.383 393.148 194.58 394.541 193.702L394.884 194.248C393.468 195.141 391.946 195.958 390.339 196.699ZM398.976 191.068L398.528 190.607C399.758 189.412 400.824 188.109 401.739 186.718L402.277 187.071C401.337 188.5 400.243 189.842 398.976 191.068ZM404.666 182.475L404.069 182.235C404.692 180.68 405.179 179.058 405.544 177.387L406.173 177.526C405.802 179.225 405.305 180.883 404.666 182.475ZM406.922 172.412L406.278 172.36C406.371 171.199 406.415 170.027 406.415 168.85C406.415 168.325 406.407 167.8 406.389 167.275L407.033 167.254C407.051 167.787 407.059 168.317 407.059 168.85C407.059 170.043 407.015 171.232 406.922 172.412ZM405.977 162.197C405.902 161.633 405.823 161.071 405.735 160.51C405.565 159.452 405.212 158.406 404.692 157.387L405.266 157.093C405.812 158.169 406.191 159.279 406.368 160.41C406.459 160.976 406.541 161.545 406.616 162.114L405.977 162.197ZM296.055 154.835C296.055 154.709 296.053 154.58 296.053 154.454C296.053 154.405 296.053 154.358 296.053 154.309C296.053 153.475 296.079 152.623 296.133 151.768L296.776 151.809C296.725 152.595 296.699 153.377 296.697 154.147C296.473 154.371 296.261 154.6 296.055 154.835ZM297.449 146.772L296.818 146.641C297.173 144.939 297.662 143.268 298.303 141.682L298.898 141.921C298.275 143.469 297.796 145.104 297.449 146.772ZM301.308 137.497L300.788 137.121C301.811 135.708 303.023 134.454 304.45 133.426L304.826 133.949C303.461 134.933 302.295 136.135 301.308 137.497ZM330.2 135.172C329.809 135.005 329.417 134.842 329.026 134.683L329.268 134.085C329.744 134.279 330.215 134.477 330.689 134.678C330.522 134.84 330.36 135.005 330.2 135.172ZM324.236 132.927C322.627 132.414 320.989 131.982 319.313 131.66L319.436 131.026C321.139 131.356 322.802 131.796 324.432 132.314L324.236 132.927ZM309.314 131.783L309.136 131.165C310.679 130.722 312.378 130.483 314.248 130.483H314.284V131.127H314.248C312.435 131.127 310.795 131.358 309.314 131.783Z" fill="#798AB8"/>
<path d="M327.47 205.325C311.39 202.817 300.559 191.894 295.103 179.223C290.519 168.572 289.533 153.444 305.822 149.268C312.098 147.661 318.481 147.833 324.862 148.006C329.618 148.135 334.371 148.263 339.084 147.656C348.019 146.505 356.205 142.235 364.113 138.396C376.506 132.376 390.875 129.888 398.35 141.736C404.999 152.273 403.605 166.744 396.442 177.587C383.891 196.581 352.353 209.206 327.47 205.325Z" fill="#D3DFFF"/>
<path d="M305.516 114.562C305.516 118.09 302.658 120.95 299.13 120.95C295.602 120.95 292.741 118.09 292.741 114.562C292.741 111.037 295.602 108.176 299.13 108.176C302.658 108.176 305.516 111.037 305.516 114.562Z" fill="#EE6F57"/>
<path d="M300.515 117.286L299.12 115.399L297.711 117.286H296.305L298.424 114.521L296.395 111.84H297.814L299.151 113.624L300.484 111.84H301.862L299.823 114.5L301.955 117.286H300.515Z" fill="white"/>
<path d="M321.968 114.562C321.968 118.09 319.107 120.95 315.582 120.95C312.054 120.95 309.193 118.09 309.193 114.562C309.193 111.037 312.054 108.176 315.582 108.176C319.107 108.176 321.968 111.037 321.968 114.562Z" fill="#FBC343"/>
<path d="M318.152 115.262H313.009V113.861H318.152V115.262Z" fill="white"/>
<path d="M373.9 189.445C357.917 198.599 350.159 196.084 347.643 194.665C345.138 196.084 337.379 198.599 321.396 189.445C306.085 180.67 315.01 161.803 321.041 150.323C324.316 144.087 326.842 137.505 332.587 133.012C337.992 128.784 344.048 127.478 351.15 127.828C360.912 128.31 366.971 134.124 369.966 141.1C372.348 146.649 375.306 151.837 377.907 157.273C380.345 162.364 382.31 167.905 382.493 173.558C382.704 180.134 379.867 186.026 373.9 189.445Z" fill="#6F3428"/>
<path d="M377.709 188.333C367.921 177.32 349.894 179.617 347.975 179.897C346.057 179.617 328.029 177.32 318.242 188.333C310.869 196.624 310.965 229.723 310.965 229.723C310.965 228.907 345.256 228.665 347.975 228.65C350.694 228.665 384.986 228.907 384.986 229.723C384.986 229.723 385.081 196.624 377.709 188.333Z" fill="#EE6F57"/>
<path d="M332.788 155.108C328.946 155.499 325.748 164.857 336.138 165.052L338.623 162.109L332.788 155.108Z" fill="#E28B6D"/>
<path d="M363.253 155.108C367.584 155.334 370.661 164.857 360.271 165.052L357.786 162.109L363.253 155.108Z" fill="#E28B6D"/>
<path d="M347.975 188.655C343.199 188.655 339.326 184.782 339.326 180.005V169.093H356.625V180.005C356.625 184.782 352.752 188.655 347.975 188.655Z" fill="#F9B384"/>
<path d="M356.578 171.407C350.888 180.677 345.109 180.515 339.251 171.727L356.578 171.407Z" fill="#E28B6D"/>
<path d="M364.661 148.176C364.576 149.023 364.476 149.855 364.37 150.679C362.575 164.393 357.894 175.128 347.72 175.128C337.279 175.128 333.643 164.826 331.735 150.493C331.572 149.324 331.433 148.114 331.294 146.891L351.833 138.682L364.661 148.176Z" fill="#F9B384"/>
<path d="M329.626 154.786C334.856 156.55 344.836 150.648 344.836 150.648C344.061 148.402 345.156 146.193 347.337 144.004C347.208 146.229 347.723 149.716 349.713 151.001C349.713 151.001 351.06 151.32 353.146 150.872C352.636 148.33 353.009 146.103 354.557 144.293C354.557 144.293 356.9 150.679 358.054 152.123C359.516 153.949 364.772 156.707 369.476 154.4L360.719 134.572L337.521 134.091L327.028 143.811L329.626 154.786Z" fill="#6F3428"/>
<path d="M343.387 155.352C343.387 156.395 342.769 157.242 342.004 157.242C341.242 157.242 340.621 156.395 340.621 155.352C340.621 154.309 341.242 153.462 342.004 153.462C342.769 153.462 343.387 154.309 343.387 155.352Z" fill="#6F3428"/>
<path d="M355.002 155.352C355.002 156.395 354.382 157.242 353.62 157.242C352.855 157.242 352.237 156.395 352.237 155.352C352.237 154.309 352.855 153.462 353.62 153.462C354.382 153.462 355.002 154.309 355.002 155.352Z" fill="#6F3428"/>
<path d="M349.628 160.448C349.628 162.284 349.775 163.729 348.251 163.77C346.801 163.809 346.873 162.284 346.873 160.448C346.873 158.615 347.489 157.129 348.251 157.129C349.01 157.129 349.628 158.615 349.628 160.448Z" fill="#E28B6D"/>
<path d="M343.994 166.87L352.718 166.631C352.718 166.631 349.075 173.599 343.994 166.87Z" fill="white"/>
<path d="M356.553 165.598C354.511 165.598 352.857 163.945 352.857 161.903C352.857 159.861 354.511 158.208 356.553 158.208C358.592 158.208 360.248 159.861 360.248 161.903C360.248 163.945 358.592 165.598 356.553 165.598Z" fill="#F69E76"/>
<path d="M340.67 165.984C338.628 165.984 336.975 164.329 336.975 162.289C336.975 160.247 338.628 158.592 340.67 158.592C342.709 158.592 344.365 160.247 344.365 162.289C344.365 164.329 342.709 165.984 340.67 165.984Z" fill="#F69E76"/>
<path d="M347.849 193.223C346.003 193.223 344.156 192.934 342.413 192.324C341.445 191.984 340.503 191.562 339.63 191.008C338.77 190.447 337.953 189.757 337.4 188.861L337.768 188.603C338.386 189.324 339.166 189.899 340.026 190.334C340.873 190.782 341.777 191.135 342.707 191.395C344.319 191.84 345.992 192.08 347.661 192.08C347.919 192.08 348.173 192.074 348.428 192.062C350.347 191.979 352.255 191.583 353.99 190.784C355.729 189.989 357.245 188.745 358.443 187.197L358.821 187.445C358.329 188.338 357.686 189.149 356.952 189.875C356.202 190.586 355.353 191.194 354.438 191.688C352.602 192.667 350.53 193.128 348.477 193.21C348.269 193.218 348.058 193.223 347.849 193.223Z" fill="#BB5744"/>
<path d="M327.509 222.874H326.68L326.675 220.242C326.68 218.285 326.729 216.326 326.796 214.369C326.868 212.412 326.943 210.455 327.074 208.5C327.19 206.543 327.324 204.589 327.525 202.637L327.978 202.65C328.052 204.612 328.058 206.572 328.047 208.531C328.05 210.491 327.998 212.448 327.944 214.407C327.882 216.364 327.803 218.321 327.682 220.276L327.509 222.874Z" fill="#BB5744"/>
<path d="M371.045 222.874H370.285C370.264 222.732 370.241 222.591 370.221 222.447L369.832 219.496C369.585 217.528 369.379 215.558 369.191 213.583C369.008 211.608 368.828 209.636 368.704 207.656C368.567 205.678 368.444 203.698 368.392 201.71L368.84 201.666C369.17 203.626 369.43 205.593 369.675 207.56C369.932 209.528 370.133 211.5 370.334 213.473C370.527 215.445 370.705 217.42 370.836 219.4L371.024 222.369C371.029 222.537 371.037 222.707 371.045 222.874Z" fill="#BB5744"/>
<path d="M272.548 99.2302H272.098V240.376L291.907 223.325H425.794V98.7796H272.098V99.2302H272.548V99.6808H424.893V222.423H291.572L272.999 238.412V222.874V99.2302H272.548V99.6808V99.2302Z" fill="#708CD5"/>
<path d="M62.6585 434.511C49.148 434.511 38.196 432.427 38.196 429.855C38.196 427.283 49.148 425.197 62.6585 425.197C76.1685 425.197 87.1207 427.283 87.1207 429.855C87.1207 432.427 76.1685 434.511 62.6585 434.511Z" fill="#DEE2ED"/>
<path d="M49.7372 401.329C46.2812 401.329 43.4699 404.226 43.4699 407.79C43.4699 411.719 48.2346 417.57 51.4361 417.57C54.3776 417.57 56.0047 411.786 56.0047 407.79C56.0047 404.226 53.1928 401.329 49.7372 401.329ZM51.4361 420.788C46.143 420.788 40.2511 413.04 40.2511 407.79C40.2511 402.452 44.5066 398.11 49.7372 398.11C54.968 398.11 59.2235 402.452 59.2235 407.79C59.2235 412.816 57.1091 420.788 51.4361 420.788Z" fill="#1F3C88"/>
<path d="M69.7359 429.162H55.809C53.4949 429.162 51.5675 427.388 51.3761 425.084L48.4957 390.378H77.6254L74.1621 425.156C73.9355 427.432 72.0217 429.162 69.7359 429.162Z" fill="#1F3C88"/>
<path d="M51.8739 348.753C50.898 352.018 50.4617 355.381 51.0156 358.615C51.2909 360.227 51.7498 361.8 52.3868 363.309C53.0424 364.811 53.8553 366.25 54.7821 367.622C55.7402 368.977 56.7569 370.306 57.9071 371.534C58.1793 371.83 58.4764 372.196 58.7749 372.554C59.0664 372.917 59.3761 373.257 59.6491 373.635L60.4218 374.825C60.6891 375.211 60.8488 375.687 61.0607 376.112C61.285 376.537 61.3929 377.029 61.5324 377.498C61.6949 377.958 61.7215 378.471 61.7804 378.963C61.8178 379.21 61.8116 379.46 61.7889 379.712L61.7382 380.461C61.7029 380.709 61.6344 380.951 61.5816 381.195C61.5265 381.437 61.474 381.682 61.3707 381.909L61.0895 382.591C60.9744 382.807 60.8488 383.016 60.728 383.224C60.6145 383.441 60.4677 383.631 60.324 383.822C60.1801 384.012 60.0446 384.208 59.8752 384.375C59.2404 385.089 58.5328 385.663 57.6877 386.139L57.1511 385.287C58.3431 384.239 59.3195 382.828 59.6504 381.373C59.7148 381.198 59.7299 381.01 59.7508 380.827C59.7691 380.642 59.8059 380.461 59.8131 380.279L59.7884 379.725C59.7894 379.542 59.7776 379.362 59.7248 379.179C59.6401 378.816 59.6166 378.45 59.4521 378.1C59.3125 377.75 59.2222 377.389 59.0051 377.057C58.8029 376.722 58.6631 376.37 58.4221 376.05L57.731 375.085C57.4845 374.771 57.1915 374.482 56.9258 374.181L56.0709 373.249C55.4596 372.592 54.8493 371.936 54.29 371.227C53.7008 370.548 53.182 369.801 52.6613 369.062C51.6784 367.54 50.7592 365.954 50.1061 364.236C49.4598 362.519 49.0002 360.719 48.8349 358.888C48.4584 355.211 49.3318 351.524 50.9425 348.369L51.8739 348.753Z" fill="#D3DFFF"/>
<path d="M64.5249 347.759C66.3263 349.234 67.8005 351.292 68.4798 353.663C68.8359 354.84 68.9884 356.071 69.0056 357.294C69.0226 358.52 68.8249 359.722 68.5825 360.899C68.3078 362.068 67.9143 363.196 67.4586 364.283L67.1534 365.029C67.0633 365.264 66.9526 365.495 66.8761 365.73L66.6809 366.433C66.6091 366.67 66.6013 366.894 66.5519 367.125C66.4929 367.362 66.5161 367.579 66.5058 367.803C66.4801 368.037 66.5419 368.238 66.5619 368.457C66.5694 368.683 66.6727 368.866 66.7162 369.085C66.8122 369.273 66.8818 369.487 67.0126 369.664C67.4596 370.424 68.3181 371.07 69.215 371.477L69.0177 372.463C67.74 372.332 66.5491 371.786 65.5961 370.779C65.3576 370.535 65.1774 370.231 64.9835 369.943C64.8429 369.631 64.6467 369.322 64.5648 368.99C64.4741 368.658 64.3631 368.318 64.3474 367.983C64.316 367.648 64.262 367.303 64.2952 366.979C64.3207 366.657 64.3024 366.309 64.3747 366L64.5668 365.063C64.6441 364.756 64.7525 364.471 64.8457 364.172C64.9448 363.876 65.0401 363.569 65.1313 363.338C65.5337 362.346 65.8232 361.327 66.0876 360.312C66.3307 359.295 66.4811 358.267 66.5444 357.243C66.5923 356.218 66.5202 355.198 66.3462 354.189C65.9898 352.165 65.0406 350.257 63.7915 348.449L64.5249 347.759Z" fill="#D3DFFF"/>
<path d="M434.263 436.784C407.241 436.784 385.338 433.542 385.338 429.543C385.338 426.677 396.576 424.2 412.883 423.026C414.768 426.708 418.597 429.162 422.926 429.162H445.599C449.932 429.162 453.756 426.706 455.644 423.026C471.949 424.2 483.188 426.677 483.188 429.543C483.188 433.542 461.283 436.784 434.263 436.784Z" fill="#DEE2ED"/>
<path d="M430.512 378.739H437.377V311.575H430.512V378.739Z" fill="#27481F"/>
<path d="M435.659 307.061C435.569 311.923 435.118 316.017 434.74 318.664C434.449 320.696 434.204 321.867 434.204 321.867C415.458 315.785 406.858 304.164 403.278 292.443C402.944 291.374 402.66 290.3 402.416 289.229C398.631 272.919 403.703 257.376 403.703 257.376C412.299 259.174 418.651 262.92 423.32 267.743C424.123 268.565 424.87 269.417 425.573 270.298C434.212 281.126 435.865 296.053 435.659 307.061Z" fill="#49883A"/>
<path d="M459.962 274.59C459.589 287.635 454.516 302.828 438.783 317.413C437.577 318.535 436.303 319.655 434.964 320.768C434.822 320.889 434.681 321.005 434.539 321.123C434.539 321.123 431.933 317.297 429.247 311.078C429.209 310.988 429.17 310.905 429.139 310.815C428.199 308.621 427.252 306.129 426.415 303.407C425.727 301.185 425.109 298.816 424.612 296.318C422.72 286.719 422.715 275.34 427.947 264.074C431.874 255.587 438.775 247.174 450.066 239.622C450.066 239.622 460.541 254.583 459.962 274.59Z" fill="#49883A"/>
<path d="M437.377 326.173V318.692C437.856 318.267 438.324 317.84 438.783 317.413C439.174 322.454 438.015 326.103 438.015 326.103C437.802 326.129 437.59 326.152 437.377 326.173Z" fill="#93A38F"/>
<path d="M434.742 326.35C434.758 326.247 434.771 326.144 434.784 326.039C434.804 325.923 434.817 325.81 434.83 325.686C434.835 325.616 434.843 325.544 434.856 325.472C434.874 325.326 434.887 325.171 434.899 325.009L434.907 324.944C434.977 324.185 435.02 323.363 435.02 322.496C435.02 321.937 435.002 321.36 434.964 320.768C435.165 320.603 435.36 320.438 435.556 320.271C436.179 319.745 436.784 319.22 437.377 318.692V326.173C436.481 326.263 435.605 326.322 434.745 326.348C434.745 326.35 434.745 326.35 434.742 326.35Z" fill="#27481F"/>
<path d="M426.415 303.407C421.625 299.03 414.32 295.069 403.278 292.443C402.944 291.374 402.66 290.3 402.416 289.229C408.691 290.174 413.9 291.567 418.234 293.264C418.584 283.42 421.515 272.505 423.32 267.743C424.123 268.565 424.87 269.415 425.57 270.295C424.574 273.571 423.969 276.828 423.675 280.018C423.675 280.026 423.675 280.031 423.672 280.039C423.672 280.047 423.672 280.052 423.672 280.06C423.147 285.786 423.621 291.297 424.612 296.318C425.109 298.816 425.727 301.185 426.415 303.407Z" fill="#38682C"/>
<path d="M423.672 280.06C423.672 280.052 423.672 280.047 423.672 280.039C423.672 280.047 423.672 280.052 423.672 280.06ZM423.675 280.018C423.969 276.828 424.574 273.571 425.57 270.295C425.57 270.295 425.57 270.298 425.573 270.298C424.574 273.573 423.971 276.831 423.675 280.018Z" fill="#38682C"/>
<path d="M434.907 324.944L434.899 325.009C434.887 325.171 434.874 325.325 434.856 325.472C434.843 325.544 434.835 325.616 434.83 325.686C434.817 325.81 434.804 325.923 434.784 326.039C434.74 326.394 434.688 326.724 434.637 327.038C434.603 327.244 434.565 327.445 434.526 327.635C434.186 329.368 433.8 330.398 433.8 330.398C431.964 330.514 430.213 330.509 428.526 330.393C397.982 328.343 391.712 290.375 391.712 290.375C392.695 290.499 393.656 290.633 394.596 290.782C397.716 291.245 400.608 291.804 403.278 292.443C414.32 295.069 421.625 299.03 426.415 303.407C427.857 304.72 429.067 306.077 430.079 307.442C432.912 311.253 434.23 315.167 434.74 318.664C434.848 319.385 434.92 320.085 434.964 320.768C435.062 322.287 435.023 323.696 434.907 324.944Z" fill="#49883A"/>
<path d="M440.065 316.202C443.984 312.417 447.203 308.596 449.822 304.79C447.203 308.598 443.987 312.417 440.065 316.202Z" fill="#ADB9AA"/>
<path d="M434.964 320.768C434.92 320.085 434.848 319.385 434.74 318.664C434.23 315.167 432.912 311.253 430.079 307.442C429.067 306.077 427.857 304.72 426.415 303.407C425.727 301.185 425.109 298.816 424.612 296.318C426.358 297.335 427.903 298.409 429.255 299.529C430.213 300.317 431.063 301.121 431.843 301.939C435.865 291.413 443.971 280.636 459.962 274.59C459.774 281.113 458.409 288.168 455.126 295.425C453.728 298.52 451.979 301.651 449.822 304.79C447.203 308.596 443.984 312.417 440.065 316.202C439.645 316.607 439.218 317.011 438.783 317.413C438.749 317.441 438.718 317.472 438.685 317.498C438.221 317.928 437.745 318.36 437.256 318.793C437.114 318.921 436.972 319.05 436.826 319.179C436.408 319.539 435.986 319.908 435.556 320.271C435.36 320.438 435.165 320.603 434.964 320.768Z" fill="#3C7030"/>
<path d="M434.964 320.768C435.165 320.603 435.36 320.438 435.556 320.271C435.36 320.438 435.165 320.603 434.964 320.768Z" fill="#27481F"/>
<path d="M431.179 330.483C430.277 330.483 429.394 330.452 428.526 330.393C428.243 328.287 427.427 320.451 429.247 311.078C429.479 309.888 429.757 308.67 430.079 307.442C432.912 311.253 434.23 315.167 434.74 318.664C434.848 319.385 434.92 320.085 434.964 320.768C435.003 321.36 435.021 321.937 435.021 322.496C435.021 323.363 434.977 324.185 434.907 324.944L434.9 325.009C434.887 325.171 434.874 325.326 434.856 325.472C434.843 325.544 434.835 325.616 434.83 325.686C434.817 325.81 434.804 325.923 434.784 326.039C434.74 326.394 434.688 326.724 434.637 327.038C434.598 327.244 434.565 327.445 434.526 327.635C434.186 329.368 433.8 330.398 433.8 330.398C432.906 330.455 432.034 330.483 431.179 330.483Z" fill="#427B35"/>
<path d="M464.306 370.156L456.756 419.583C455.911 425.094 451.173 429.162 445.599 429.162H422.926C417.989 429.162 413.702 425.969 412.209 421.406C412.015 420.819 411.866 420.207 411.771 419.583L404.218 370.156H464.306Z" fill="#FBC343"/>
<path d="M433.007 330.457C433.007 330.457 424.733 281.391 477.353 274.315C477.353 274.315 480.655 328.086 433.007 330.457Z" fill="#49883A"/>
<path d="M445.599 429.162H422.926C417.989 429.162 413.702 425.969 412.208 421.406C441.646 416.686 449.538 386.379 451.135 370.156H464.306L458.932 405.344L458.734 406.631L456.756 419.583C455.911 425.094 451.173 429.162 445.599 429.162Z" fill="#E7B33D"/>
<path d="M186.747 473.957C178.27 473.957 171.344 472.5 169.306 468.22C168.219 465.939 173.574 464.633 181.942 463.899C185.652 467.375 191.735 469.762 196.642 470.11C196.887 470.131 197.125 470.144 197.363 470.151C197.488 470.154 197.618 470.156 197.754 470.156C200.627 470.156 205.812 469.263 211.055 468.174C219.167 466.495 227.407 464.357 227.407 464.357C230.294 464.816 232.822 465.019 235.028 465.019C237.585 465.019 239.708 464.744 241.45 464.275C247.434 464.916 251.062 465.751 251.062 466.665C251.062 467.538 247.083 467.785 242.573 467.785C236.676 467.785 229.872 467.363 229.872 467.363C229.872 467.363 204.791 473.957 186.747 473.957ZM241.646 464.221H241.647H241.646ZM203.157 447.62C202.191 447.553 201.262 447.504 200.364 447.471C200.593 445.153 200.163 442.807 198.801 440.572C150.031 439.182 114.646 435.036 114.646 430.138C114.646 428.04 121.149 426.078 132.425 424.414C141.407 429.137 151.688 431.688 161.924 432.78C171.557 433.805 181.213 434.207 190.879 434.207C197.672 434.207 204.473 434.009 211.266 433.689C212.156 436.733 212.587 439.236 212.169 440.539C210.45 445.905 203.157 447.62 203.157 447.62ZM240.144 441.061C239.825 440.593 239.638 440.325 239.638 440.325C239.638 438.44 239.354 435.296 238.971 431.91C264.174 430.136 294.158 432.554 318.291 422.282C340.868 424.27 354.904 427.056 354.904 430.138C354.904 436.014 303.999 440.804 240.144 441.061Z" fill="#DEE2ED"/>
<path d="M365.516 349.84C363.932 375.971 350.761 402.079 329.17 416.45C303.433 433.579 267.447 429.788 238.138 431.969C212.8 433.857 187.269 435.476 161.924 432.78C141.157 430.566 120.21 422.339 110.289 402.176C100.35 381.968 99.2747 355.118 109.214 334.665C112.381 328.14 116.624 322.339 121.613 317.279C122.424 316.447 123.267 315.638 124.123 314.845C124.703 314.312 125.289 313.784 125.887 313.267C126.801 312.476 127.741 311.704 128.694 310.952C129.01 310.707 129.325 310.46 129.647 310.215C129.963 309.973 130.284 309.734 130.606 309.494C130.928 309.258 131.25 309.021 131.578 308.786C131.823 308.614 132.067 308.441 132.312 308.266C132.718 307.978 133.13 307.692 133.548 307.416C137.25 304.919 141.151 302.725 145.174 300.837C149.088 298.988 153.118 297.433 157.174 296.169C170.506 292.031 184.43 290.563 198.187 288.753C227.381 284.924 257.103 283.616 286.528 283.636C310.54 283.644 337.577 287.234 353.632 307.849C362.696 319.485 366.425 334.956 365.516 349.84Z" fill="#EE6F57"/>
<path d="M316.084 305.707C316.084 305.707 322.277 299.89 325.56 296.522C328.843 293.153 321.682 293.045 318.152 297.24C314.621 301.437 316.084 305.707 316.084 305.707Z" fill="#F9B384"/>
<path d="M145.174 300.837C141.151 302.725 137.25 304.919 133.548 307.416C133.13 307.692 132.718 307.978 132.312 308.266C132.067 308.441 131.823 308.614 131.578 308.786C131.25 309.021 130.928 309.258 130.606 309.494C130.284 309.734 129.962 309.973 129.647 310.215C129.325 310.46 129.01 310.707 128.694 310.952C127.754 311.696 126.834 312.463 125.926 313.249L125.887 313.269C125.289 313.784 124.703 314.312 124.124 314.845C123.267 315.638 122.424 316.447 121.613 317.279C121.684 317.961 122.128 318.618 122.858 318.767C127.69 319.745 130.109 324.355 134.004 326.976C136.894 328.92 140.31 329.453 143.581 328.338C140.06 335.795 138.118 343.193 139.638 351.539C140.101 354.063 140.902 356.519 141.996 358.839C137.47 355.479 133.112 348.279 131.32 340.979C131.065 339.944 130.018 339.295 128.983 339.565C127.948 339.82 127.314 340.866 127.568 341.901C129.787 350.939 135.437 359.625 141.307 363.021C142.705 363.829 144.124 364.342 145.53 364.579C146.693 366.07 147.99 367.455 149.416 368.696L158.094 371.122L165.175 325.416L145.174 300.837Z" fill="#B35341"/>
<path d="M170.326 331.531C152.384 324.543 139.927 317.111 132.696 312.165C128.009 308.956 125.638 303.302 126.598 297.703L135.851 243.773C136.803 238.224 140.483 233.504 145.659 231.284C160.502 224.919 174.954 221.283 187.707 219.519C187.707 219.519 194.85 218.942 203.961 219.841C209.957 220.433 223.682 224.476 232.407 227.187C237.337 228.717 241.293 232.409 243.161 237.222C246.819 246.652 252.762 262.573 254.657 271.178C261.2 300.899 260.129 298.7 260.129 298.7L266.888 344.406L195.11 348.428L176.763 340.062L170.326 331.531Z" fill="#708CD5"/>
<path d="M214.744 168.178C214.744 168.178 208.387 155.144 191.489 161.097C179.258 158.442 169.923 172.927 178.936 192.641L195.914 196.586L214.744 168.178Z" fill="#102048"/>
<path d="M205.732 205.034V228.094C205.732 233.488 201.354 237.866 195.96 237.866C188.647 237.866 182.718 231.935 182.718 224.622V205.034H205.732Z" fill="#F9B384"/>
<path d="M205.732 214.601V227.179C195.477 227.231 188.672 213.97 188.672 213.97L205.732 214.601Z" fill="#E28B6D"/>
<path d="M215.877 202.13C215.259 205.323 214.377 208.593 213.109 211.472C210.895 216.524 207.515 220.374 202.352 220.484C190.269 220.742 180.948 204.228 180.948 204.228L182.879 181.697L192.052 171.397L217.319 187.009C217.319 187.009 217.39 194.335 215.877 202.13Z" fill="#F9B384"/>
<path d="M182.476 197.631C182.476 197.631 184.971 187.491 193.661 180.894C193.661 180.894 206.295 197.389 219.653 189.422C233.011 181.458 227.217 165.766 214.744 168.178L200.421 166.569L182.476 172.283L179.419 186.366L182.476 197.631Z" fill="#102048"/>
<path d="M195.158 314.487L174.685 310.3C168.633 300.443 152.265 298.888 152.265 298.888L159.596 257.608C159.623 262.246 158.626 277.552 163.888 291.083C167.643 300.739 182.986 288.186 195.158 314.487Z" fill="#506CB6"/>
<path d="M159.97 256.903C159.513 260.436 158.975 263.953 158.419 267.465C157.878 270.983 157.243 274.482 156.659 277.992C156.048 281.496 155.406 284.996 154.72 288.485L153.671 293.717C153.292 295.458 152.939 297.201 152.531 298.934L151.999 298.842C152.212 297.073 152.478 295.314 152.719 293.55L153.53 288.274C154.083 284.762 154.681 281.254 155.31 277.752C155.966 274.256 156.57 270.751 157.269 267.262C157.952 263.77 158.655 260.284 159.438 256.81L159.97 256.903Z" fill="#1F3C88"/>
<path d="M231.086 250.375C232.06 254.961 232.959 259.56 233.841 264.164C234.737 268.766 235.545 273.38 236.401 277.989C237.218 282.604 238.018 287.221 238.795 291.843L239.918 298.782C240.265 301.1 240.636 303.415 240.957 305.737L240.461 305.825C239.959 303.536 239.508 301.236 239.032 298.939L237.687 292.038C236.819 287.434 235.974 282.825 235.146 278.211C234.357 273.591 233.52 268.982 232.771 264.355C232.007 259.73 231.261 255.103 230.59 250.463L231.086 250.375Z" fill="#1F3C88"/>
<path d="M214.101 333.462L213.886 324.02C231.906 323.446 234.855 288.789 234.667 275.437C234.828 276.362 234.988 277.286 235.146 278.211C235.974 282.825 236.819 287.434 237.687 292.038L239.032 298.939C239.508 301.236 239.959 303.536 240.461 305.825L240.957 305.737C240.955 305.722 240.953 305.707 240.95 305.694L245.859 331.531L214.101 333.462Z" fill="#506CB6"/>
<path d="M240.461 305.825C239.959 303.536 239.508 301.236 239.032 298.939L237.687 292.038C236.819 287.434 235.974 282.825 235.146 278.211C234.988 277.286 234.828 276.362 234.667 275.437C234.645 273.844 234.578 272.556 234.486 271.662L240.95 305.694C240.953 305.707 240.955 305.722 240.957 305.737L240.461 305.825Z" fill="#1F3C88"/>
<path d="M193.018 322.841C207.341 316.725 210.079 316.952 212.008 317.047C218.607 317.369 228.102 330.566 228.102 330.566L227.941 332.981H191.73L193.018 322.841Z" fill="#E28B6D"/>
<path d="M248.112 337.379H203.532V330.62H248.112V337.379Z" fill="white"/>
<path d="M308.732 337.384H231.267L248.648 268.158H326.113L308.732 337.384Z" fill="#FBC343"/>
<path d="M315.752 309.072C308.088 307.926 283.304 302.776 232.233 333.893L231.053 338.182L308.732 337.384L315.752 309.072Z" fill="#C89B35"/>
<path d="M317.222 324.45C316.738 327.71 316.578 332.497 306.479 331.894L303.502 330.365L306.317 327.267L312.394 324.169L317.222 324.45Z" fill="#F9B384"/>
<path d="M318.175 315.651C318.175 315.651 323.701 322.872 318.146 325.094C312.111 327.509 306.317 327.267 306.317 327.267C308.892 320.024 317.261 320.508 317.261 320.508L318.175 315.651Z" fill="#F9B384"/>
<path d="M318.334 310.985C318.334 310.985 325.951 318.067 318.87 320.052C308.871 322.854 305.781 323.054 305.781 323.054C305.246 317.745 315.17 314.312 315.17 314.312L318.334 310.985Z" fill="#F9B384"/>
<path d="M316.779 304.816C316.779 304.816 327.187 311.145 317.423 314.686C307.658 318.226 305.351 318.175 305.351 318.175C304.816 312.862 315.278 311.039 315.278 311.039L316.779 304.816Z" fill="#F9B384"/>
<path d="M305.398 318.491C305.403 318.491 308.246 318.087 311.518 317.34C313.156 316.967 314.902 316.506 316.457 315.965C318.012 315.422 319.38 314.804 320.281 314.078L319.874 313.578C319.086 314.219 317.765 314.83 316.246 315.358C313.962 316.153 311.222 316.779 309.059 317.204C307.975 317.418 307.038 317.58 306.368 317.688C306.036 317.745 305.768 317.786 305.588 317.814C305.405 317.84 305.307 317.855 305.307 317.855L305.398 318.491Z" fill="#E28B6D"/>
<path d="M305.825 323.374C305.83 323.374 308.786 322.956 312.214 322.217C313.926 321.847 315.757 321.396 317.4 320.873C319.04 320.348 320.492 319.758 321.468 319.081L321.1 318.553C320.227 319.163 318.813 319.748 317.204 320.258C314.783 321.03 311.912 321.651 309.651 322.076C308.518 322.29 307.54 322.454 306.845 322.568C306.495 322.622 306.219 322.665 306.028 322.694C305.838 322.722 305.737 322.735 305.737 322.738L305.825 323.374Z" fill="#E28B6D"/>
<path d="M306.307 327.589C306.309 327.589 306.592 327.597 307.076 327.597C308.045 327.597 309.814 327.558 311.745 327.326C313.676 327.089 315.767 326.664 317.402 325.866L317.119 325.287C315.6 326.034 313.56 326.458 311.668 326.685C309.775 326.917 308.027 326.955 307.076 326.953C306.84 326.953 306.652 326.953 306.523 326.95C306.458 326.948 306.41 326.948 306.379 326.945C306.345 326.945 306.33 326.945 306.33 326.945L306.307 327.589Z" fill="#E28B6D"/>
<path d="M196.397 428.737C197.578 428.094 216.246 432.17 236.954 416.828L210.238 409.211L196.397 428.737Z" fill="#102048"/>
<path d="M295.759 357.209L295.78 357.178L295.844 357.153C295.819 357.173 295.785 357.191 295.759 357.209ZM315.02 340.127C315.909 338.857 316.676 336.99 315.556 335.922C314.389 334.802 312.484 335.788 311.261 336.843C309.106 338.697 307.149 340.729 305.338 342.895L260.237 351.274L198.438 366.294L209.063 379.856C239.963 382.109 257.562 382.689 276.9 379.277C286.757 377.536 295.566 375.744 302.14 370.388C303.703 369.106 305.184 366.958 304.167 365.212C303.479 364.033 302.05 363.726 300.613 363.739C303.917 362.959 307.123 361.821 310.166 360.333C311.526 359.676 313.038 358.646 313.007 357.14C312.986 356.058 312.111 355.144 311.106 354.758C310.102 354.372 308.995 354.405 307.921 354.482C303.801 354.791 299.725 355.692 295.857 357.145C302.9 352.229 310.063 347.136 315.02 340.127Z" fill="#B35341"/>
<path d="M211.525 346.016C211.525 346.016 271.717 317.369 291.351 318.656C310.985 319.944 310.342 344.406 302.938 355.028C295.535 365.65 278.154 379.813 214.1 375.628L211.525 346.016Z" fill="#102048"/>
<path d="M241.646 464.221C238.389 465.143 233.767 465.367 227.407 464.357C227.407 464.357 219.167 466.495 211.055 468.174C205.565 469.312 200.137 470.239 197.363 470.151C197.125 470.143 196.887 470.131 196.642 470.11C191.318 469.731 184.61 466.956 181.051 462.993L181.025 462.959C180.046 461.865 179.306 460.675 178.907 459.424C176.975 453.414 181.057 446.119 203.157 447.62C203.157 447.62 210.45 445.905 212.169 440.539C213.888 435.175 201.225 409.425 201.225 409.425L219.25 397.194L236.954 416.828C236.954 416.828 239.638 434.531 239.638 440.325C239.638 440.325 247.144 451.055 248.219 455.775C248.908 458.788 247.402 462.591 241.646 464.221Z" fill="#D3DFFF"/>
<path d="M140.3 301.182C142.365 300.387 144.468 299.745 146.595 299.153C147.66 298.862 148.731 298.592 149.822 298.378C150.367 298.267 150.918 298.172 151.476 298.097C151.757 298.059 152.036 298.03 152.328 298.007C152.638 297.992 152.941 297.994 153.23 298.023C155.542 298.267 157.639 298.994 159.721 299.763C161.793 300.551 163.82 301.435 165.812 302.393C167.809 303.338 169.752 304.388 171.664 305.493C173.575 306.598 175.455 307.756 177.283 308.995C180.914 311.503 184.408 314.256 187.415 317.5L187.033 317.881C185.415 316.419 183.73 315.033 181.978 313.738C180.24 312.425 178.441 311.194 176.601 310.025C172.952 307.643 169.12 305.547 165.22 303.611C163.268 302.645 161.281 301.751 159.263 300.953C157.246 300.201 155.18 299.393 153.125 299.115C152.869 299.079 152.624 299.068 152.385 299.071C152.131 299.084 151.863 299.104 151.6 299.133C151.07 299.189 150.536 299.266 150.004 299.359C148.938 299.545 147.87 299.761 146.807 300C144.681 300.482 142.562 301.046 140.482 301.69L140.3 301.182Z" fill="#1F3C88"/>
<path d="M151.013 385.447C158.255 384.962 165.372 385.48 170.54 383.675C176.066 381.744 190.496 383.031 190.496 383.031L182.557 371.606L150.369 379.653L151.013 385.447Z" fill="#B35341"/>
<path d="M151.335 364.362C143.932 352.453 143.932 328.956 153.266 318.334C163.935 306.196 186.741 301.597 198.65 315.759C210.56 329.922 232.447 381.744 236.954 416.828C236.954 416.828 212.813 408.781 196.397 428.737C196.397 428.737 174.832 379.491 170.325 361.466L158.094 371.122L151.335 364.362Z" fill="#1F3C88"/>
<path d="M170.325 361.466C170.325 361.466 167.107 360.286 162.6 363.289C162.6 363.289 127.409 362.539 119.577 370.478C111.744 378.417 117.753 389.039 129.233 390.221C138.868 391.209 157.572 383.737 163.336 381.309C164.506 380.814 165.75 380.518 167.017 380.436L176.548 379.812L170.325 361.466Z" fill="#D3DFFF"/>
<path d="M184.379 198.288C184.379 198.288 182.019 190.465 176.827 192.419C171.634 194.376 174.399 204.558 184.649 207.391L184.379 198.288Z" fill="#F9B384"/>
<path d="M178.849 241.422C181.412 243.229 184.144 244.785 187.041 245.887C189.935 246.973 192.989 247.661 196.053 247.586C199.109 247.55 202.136 246.796 204.867 245.4L205.895 244.877C206.231 244.692 206.54 244.458 206.865 244.252C207.506 243.822 208.17 243.42 208.742 242.895L209.647 242.161L210.101 241.793C210.248 241.666 210.379 241.522 210.519 241.386C211.068 240.835 211.625 240.286 212.191 239.743L212.576 240.067C212.07 240.678 211.553 241.288 211.029 241.893C210.897 242.042 210.773 242.199 210.633 242.344L210.197 242.756L209.321 243.582C208.753 244.154 208.085 244.607 207.436 245.086C207.107 245.32 206.794 245.578 206.45 245.789L205.395 246.391C202.573 247.983 199.319 248.843 196.066 248.863C192.814 248.869 189.586 248.166 186.634 246.896C183.672 245.637 180.947 243.896 178.539 241.818L178.849 241.422Z" fill="#1F3C88"/>
<path d="M164.991 340.915L167.781 350.674C168.729 353.921 169.616 357.183 170.608 360.415C171.578 363.652 172.545 366.889 173.563 370.107C174.072 371.717 174.575 373.331 175.133 374.923C175.405 375.721 175.652 376.532 175.94 377.325C176.228 378.118 176.508 378.914 176.781 379.715L176.316 379.91C175.598 378.37 174.924 376.81 174.288 375.234C173.656 373.656 173.08 372.059 172.496 370.465C171.353 367.267 170.342 364.028 169.384 360.776C168.455 357.513 167.536 354.248 166.73 350.954C165.914 347.664 165.144 344.362 164.502 341.03L164.991 340.915Z" fill="#102048"/>
<path d="M205.169 469.214C214.02 467.442 226.895 456.499 225.447 449.58C238.161 453.764 241.621 460.122 241.646 464.221C239.868 464.723 237.682 465.019 235.028 465.019C232.822 465.019 230.294 464.816 227.407 464.357C227.407 464.357 213.779 467.844 205.169 469.214Z" fill="#C1CEF3"/>
<path d="M196.642 470.11C191.318 469.732 184.61 466.956 181.051 462.993L181.025 462.959C180.645 462.444 180.291 461.909 179.982 461.355C181.874 463.122 183.935 464.561 186.155 465.663C187.269 466.191 188.395 466.698 189.574 467.054C190.146 467.272 190.745 467.401 191.338 467.569C191.923 467.749 192.535 467.821 193.14 467.929C194.484 468.156 195.85 468.279 197.217 468.279C200.743 468.279 204.273 467.455 207.418 465.431C205.777 467.453 203.33 468.823 200.762 469.513C199.416 469.873 198.032 470.066 196.642 470.11Z" fill="#8B9ECF"/>
<path d="M182.046 199.398C181.927 198.695 181.596 198.038 181.208 197.441C180.81 196.848 180.336 196.295 179.789 195.909C179.24 195.525 178.645 195.334 178.143 195.605C177.616 195.867 177.198 196.509 176.834 197.157L176.478 197.034C176.631 196.269 176.913 195.43 177.713 194.876C178.107 194.6 178.647 194.503 179.115 194.588C179.587 194.673 179.999 194.873 180.347 195.126C181.042 195.638 181.551 196.303 181.921 197.029C182.281 197.752 182.539 198.569 182.424 199.405L182.046 199.398Z" fill="#E28B6D"/>
<path d="M212.676 199.202C212.449 200.312 211.613 201.079 210.807 200.917C210.002 200.752 209.532 199.72 209.758 198.607C209.985 197.497 210.821 196.73 211.627 196.895C212.432 197.06 212.902 198.092 212.676 199.202Z" fill="#102048"/>
<path d="M200.133 198.715C199.951 199.835 199.145 200.634 198.334 200.502C197.522 200.368 197.012 199.354 197.195 198.236C197.377 197.119 198.183 196.318 198.994 196.452C199.806 196.583 200.316 197.598 200.133 198.715Z" fill="#102048"/>
<path d="M205.457 200.227C205.533 201.141 205.57 202.05 205.581 202.938C205.617 203.281 205.775 203.572 206.059 203.881C206.334 204.19 206.688 204.509 206.995 204.957C207.148 205.179 207.269 205.459 207.328 205.737C207.393 206.013 207.4 206.286 207.382 206.556C207.337 207.092 207.147 207.62 206.791 208.052C206.616 208.271 206.383 208.451 206.129 208.583C205.865 208.696 205.581 208.768 205.307 208.755C204.757 208.732 204.284 208.518 203.891 208.243L204.069 207.911C204.486 208.045 204.903 208.15 205.27 208.081C205.635 208.029 205.925 207.836 206.119 207.535C206.513 206.948 206.57 206.031 206.19 205.482C205.992 205.166 205.663 204.867 205.351 204.473C205.036 204.102 204.735 203.541 204.757 202.956C204.827 202.022 204.938 201.105 205.081 200.193L205.457 200.227Z" fill="#E28B6D"/>
<path d="M195.08 194.837C195.593 194.325 196.203 193.9 196.887 193.594C197.569 193.287 198.343 193.12 199.128 193.166C199.912 193.213 200.682 193.504 201.295 193.962C201.913 194.415 202.39 195.002 202.743 195.638L202.444 195.87C201.912 195.417 201.398 194.989 200.837 194.675C200.278 194.361 199.679 194.168 199.06 194.127C197.812 194.029 196.542 194.526 195.301 195.141L195.08 194.837Z" fill="#102048"/>
<path d="M208.178 195.939C208.391 195.252 208.96 194.714 209.588 194.392C210.222 194.06 210.936 193.921 211.642 193.931C212.348 193.946 213.058 194.129 213.673 194.49C214.288 194.845 214.797 195.391 215.063 196.027L214.747 196.233C213.872 195.352 212.772 194.933 211.617 194.891C210.477 194.868 209.27 195.182 208.516 196.104L208.178 195.939Z" fill="#102048"/>
<path d="M199.389 211.055L207.928 211.662C207.928 211.662 203.164 217.982 199.389 211.055Z" fill="white"/>
<path d="M213.109 211.472C211.442 210.687 210.289 208.987 210.289 207.017C210.289 204.293 212.504 202.086 215.227 202.086C215.446 202.086 215.665 202.099 215.877 202.13C215.259 205.323 214.377 208.593 213.109 211.472Z" fill="#F59872"/>
<path d="M194.144 210.828C191.419 210.828 189.209 208.619 189.209 205.892C189.209 203.167 191.419 200.958 194.144 200.958C196.87 200.958 199.08 203.167 199.08 205.892C199.08 208.619 196.87 210.828 194.144 210.828Z" fill="#F59872"/>
<path d="M124.73 196.135C130.143 190.143 133.441 182.202 133.441 173.491C133.441 154.824 118.308 139.691 99.6417 139.691C80.9752 139.691 65.843 154.824 65.843 173.491C65.843 192.157 80.9752 207.29 99.6417 207.29C103.965 207.29 108.093 206.469 111.893 204.991L130.036 212.396L124.73 196.135Z" fill="white"/>
<path d="M124.73 196.135L125.065 196.436C130.549 190.365 133.892 182.318 133.891 173.491C133.891 154.575 118.557 139.241 99.6417 139.241C80.7262 139.241 65.3926 154.575 65.3924 173.491C65.3926 192.407 80.7262 207.741 99.6417 207.741C104.021 207.741 108.206 206.909 112.056 205.41L111.893 204.991L111.723 205.408L130.766 213.179L125.159 195.996L124.73 196.135L125.065 196.436L124.73 196.135L124.302 196.274L129.306 211.611L111.897 204.504L111.729 204.571C107.98 206.028 103.907 206.839 99.6417 206.839C90.4317 206.839 82.0974 203.106 76.0611 197.07C70.0256 191.034 66.2939 182.701 66.2936 173.491C66.2939 164.28 70.0256 155.947 76.0611 149.909C82.0974 143.873 90.4314 140.142 99.6417 140.142C108.852 140.142 117.186 143.873 123.222 149.909C129.258 155.947 132.99 164.28 132.99 173.491C132.99 182.089 129.737 189.919 124.396 195.834L124.221 196.027L124.302 196.274L124.73 196.135Z" fill="#8CBFBE"/>
<path d="M88.1585 174.304C88.1585 176.297 86.5427 177.914 84.5496 177.914C82.5563 177.914 80.9405 176.297 80.9405 174.304C80.9405 172.311 82.5563 170.697 84.5496 170.697C86.5427 170.697 88.1585 172.311 88.1585 174.304Z" fill="#8CBFBE"/>
<path d="M103.251 174.304C103.251 176.297 101.635 177.914 99.6417 177.914C97.6486 177.914 96.0328 176.297 96.0328 174.304C96.0328 172.311 97.6486 170.697 99.6417 170.697C101.635 170.697 103.251 172.311 103.251 174.304Z" fill="#8CBFBE"/>
<path d="M118.343 174.304C118.343 176.297 116.727 177.914 114.734 177.914C112.741 177.914 111.125 176.297 111.125 174.304C111.125 172.311 112.741 170.697 114.734 170.697C116.727 170.697 118.343 172.311 118.343 174.304Z" fill="#8CBFBE"/>
<path d="M211.15 78.1461H144.673C140.902 78.1461 137.818 81.2309 137.818 85.0007V113.527C137.818 117.296 140.902 120.381 144.673 120.381H150.811L160.789 135.378L163.756 120.381H211.15C214.92 120.381 218.004 117.296 218.004 113.527V85.0007C218.004 81.2309 214.92 78.1461 211.15 78.1461Z" fill="white"/>
<path d="M211.15 78.1461V77.6955H144.672C140.652 77.6955 137.369 80.9786 137.367 85.0008V113.527C137.369 117.549 140.652 120.829 144.672 120.832H150.569L161.019 136.537L164.126 120.832H211.15C215.171 120.829 218.453 117.549 218.455 113.527V85.0008C218.453 80.9786 215.171 77.6955 211.15 77.6955V78.1461V78.5967C212.911 78.5967 214.51 79.3152 215.672 80.4765C216.834 81.6404 217.554 83.2395 217.554 85.0008V113.527C217.554 115.288 216.834 116.887 215.672 118.048C214.51 119.212 212.911 119.931 211.15 119.931H163.386L160.559 134.219L151.052 119.931H144.672C142.912 119.931 141.313 119.212 140.15 118.048C138.988 116.887 138.269 115.288 138.269 113.527V85.0008C138.269 83.2395 138.988 81.6404 140.15 80.4765C141.313 79.3152 142.912 78.5967 144.672 78.5967H211.15V78.1461Z" fill="#8CBFBE"/>
<path d="M206.383 91.8013H149.439V88.5311H206.383V91.8013Z" fill="#8CBFBE"/>
<path d="M206.383 100.425H149.439V97.1547H206.383V100.425Z" fill="#C6EAE9"/>
<path d="M206.383 109.051H149.439V105.778H206.383V109.051Z" fill="#C6EAE9"/>
</svg>
