<svg width="86" height="20" viewBox="0 0 86 20" fill="none" xmlns="http://www.w3.org/2000/svg">
<path d="M13.608 2.152V5.44H9.144V19H5.04V5.44H0.576V2.152H13.608ZM19.5317 7.84C20.0117 7.104 20.6117 6.528 21.3317 6.112C22.0517 5.68 22.8517 5.464 23.7317 5.464V9.808H22.6037C21.5797 9.808 20.8117 10.032 20.2997 10.48C19.7877 10.912 19.5317 11.68 19.5317 12.784V19H15.4277V5.608H19.5317V7.84ZM31.5493 19.192C30.2373 19.192 29.0533 18.912 27.9973 18.352C26.9573 17.792 26.1333 16.992 25.5253 15.952C24.9333 14.912 24.6373 13.696 24.6373 12.304C24.6373 10.928 24.9413 9.72 25.5493 8.68C26.1573 7.624 26.9893 6.816 28.0453 6.256C29.1013 5.696 30.2853 5.416 31.5973 5.416C32.9093 5.416 34.0933 5.696 35.1493 6.256C36.2053 6.816 37.0373 7.624 37.6453 8.68C38.2533 9.72 38.5573 10.928 38.5573 12.304C38.5573 13.68 38.2453 14.896 37.6213 15.952C37.0133 16.992 36.1733 17.792 35.1013 18.352C34.0453 18.912 32.8613 19.192 31.5493 19.192ZM31.5493 15.64C32.3333 15.64 32.9973 15.352 33.5413 14.776C34.1013 14.2 34.3813 13.376 34.3813 12.304C34.3813 11.232 34.1093 10.408 33.5653 9.832C33.0373 9.256 32.3813 8.968 31.5973 8.968C30.7973 8.968 30.1333 9.256 29.6053 9.832C29.0773 10.392 28.8133 11.216 28.8133 12.304C28.8133 13.376 29.0693 14.2 29.5813 14.776C30.1093 15.352 30.7653 15.64 31.5493 15.64ZM47.2146 9.016H45.0066V19H40.9026V9.016H39.4146V5.608H40.9026V5.224C40.9026 3.576 41.3746 2.328 42.3186 1.48C43.2626 0.615999 44.6466 0.183999 46.4706 0.183999C46.7746 0.183999 46.9986 0.191999 47.1426 0.207999V3.688C46.3586 3.64 45.8066 3.752 45.4866 4.024C45.1666 4.296 45.0066 4.784 45.0066 5.488V5.608H47.2146V9.016ZM55.623 9.016H53.415V19H49.311V9.016H47.823V5.608H49.311V5.224C49.311 3.576 49.783 2.328 50.727 1.48C51.671 0.615999 53.055 0.183999 54.879 0.183999C55.183 0.183999 55.407 0.191999 55.551 0.207999V3.688C54.767 3.64 54.215 3.752 53.895 4.024C53.575 4.296 53.415 4.784 53.415 5.488V5.608H55.623V9.016ZM69.9354 12.088C69.9354 12.472 69.9114 12.872 69.8634 13.288H60.5754C60.6394 14.12 60.9034 14.76 61.3674 15.208C61.8474 15.64 62.4314 15.856 63.1194 15.856C64.1434 15.856 64.8554 15.424 65.2554 14.56H69.6234C69.3994 15.44 68.9914 16.232 68.3994 16.936C67.8234 17.64 67.0954 18.192 66.2154 18.592C65.3354 18.992 64.3514 19.192 63.2634 19.192C61.9514 19.192 60.7834 18.912 59.7594 18.352C58.7354 17.792 57.9354 16.992 57.3594 15.952C56.7834 14.912 56.4954 13.696 56.4954 12.304C56.4954 10.912 56.7754 9.696 57.3354 8.656C57.9114 7.616 58.7114 6.816 59.7354 6.256C60.7594 5.696 61.9354 5.416 63.2634 5.416C64.5594 5.416 65.7114 5.688 66.7194 6.232C67.7274 6.776 68.5114 7.552 69.0714 8.56C69.6474 9.568 69.9354 10.744 69.9354 12.088ZM65.7354 11.008C65.7354 10.304 65.4954 9.744 65.0154 9.328C64.5354 8.912 63.9354 8.704 63.2154 8.704C62.5274 8.704 61.9434 8.904 61.4634 9.304C60.9994 9.704 60.7114 10.272 60.5994 11.008H65.7354ZM80.0205 5.464C81.5885 5.464 82.8365 5.976 83.7645 7C84.7085 8.008 85.1805 9.4 85.1805 11.176V19H81.1005V11.728C81.1005 10.832 80.8685 10.136 80.4045 9.64C79.9405 9.144 79.3165 8.896 78.5325 8.896C77.7485 8.896 77.1245 9.144 76.6605 9.64C76.1965 10.136 75.9645 10.832 75.9645 11.728V19H71.8605V5.608H75.9645V7.384C76.3805 6.792 76.9405 6.328 77.6445 5.992C78.3485 5.64 79.1405 5.464 80.0205 5.464Z" fill="white"/>
</svg>
