<svg width="54" height="54" viewBox="0 0 54 54" fill="none" xmlns="http://www.w3.org/2000/svg">
<path d="M27 0C32.4124 6.45417e-08 37.6998 1.62663 42.1763 4.66883L38.3822 10.2516C35.0248 7.96997 31.0593 6.75 27 6.75V0Z" fill="#27AE60"/>
<path d="M42.8728 5.15846C47.2511 8.34029 50.5721 12.7645 52.4049 17.8571L46.0537 20.1429C44.6791 16.3234 42.1884 13.0052 38.9046 10.6188L42.8728 5.15846Z" fill="#27AE60"/>
<path d="M52.6389 18.5355C54.3357 23.675 54.4486 29.2059 52.9632 34.4104L46.4724 32.5578C47.5865 28.6544 47.5017 24.5063 46.2292 20.6516L52.6389 18.5355Z" fill="#27AE60"/>
<path d="M52.7271 35.1924C51.0849 40.3496 47.9306 44.8942 43.6736 48.2366L39.5052 42.9274C42.6979 40.4207 45.0637 37.0122 46.2953 33.1443L52.7271 35.1924Z" fill="#27AE60"/>
<path d="M43.0041 48.7456C38.645 51.9537 33.4224 53.7777 28.0138 53.981L27.7604 47.2357C31.8168 47.0833 35.7337 45.7153 39.003 43.3092L43.0041 48.7456Z" fill="#27AE60"/>
<path d="M27 54C21.5876 54 16.3002 52.3734 11.8238 49.3312L15.6178 43.7484C18.9752 46.03 22.9407 47.25 27 47.25L27 54Z" fill="#BCCCBF"/>
<path d="M11.2714 48.9456C6.8722 45.7927 3.52215 41.3904 1.65589 36.31L7.99192 33.9825C9.39161 37.7928 11.9042 41.0945 15.2035 43.4592L11.2714 48.9456Z" fill="#BCCCBF"/>
<path d="M1.37772 35.5146C-0.329103 30.3784 -0.4529 24.8478 1.02239 19.6404L7.51679 21.4803C6.41032 25.3859 6.50317 29.5338 7.78329 33.386L1.37772 35.5146Z" fill="#BCCCBF"/>
<path d="M1.25255 18.8717C2.88193 13.7104 6.02487 9.15799 10.2736 5.80504L14.4552 11.1038C11.2687 13.6185 8.91145 17.0328 7.68941 20.9038L1.25255 18.8717Z" fill="#BCCCBF"/>
<path d="M10.9794 5.26664C15.336 2.05518 20.5572 0.227176 25.9656 0.0198218L26.2242 6.76487C22.1679 6.92038 18.252 8.29138 14.9845 10.7L10.9794 5.26664Z" fill="#BCCCBF"/>
<path d="M20.602 23.488H16.066V25.882C16.262 25.6393 16.542 25.4433 16.906 25.294C17.27 25.1353 17.6573 25.056 18.068 25.056C18.8147 25.056 19.426 25.2193 19.902 25.546C20.378 25.8727 20.7233 26.2927 20.938 26.806C21.1527 27.31 21.26 27.8513 21.26 28.43C21.26 29.5033 20.952 30.3667 20.336 31.02C19.7293 31.6733 18.8613 32 17.732 32C16.668 32 15.8187 31.734 15.184 31.202C14.5493 30.67 14.19 29.9747 14.106 29.116H16.01C16.094 29.4893 16.2807 29.788 16.57 30.012C16.8687 30.236 17.2467 30.348 17.704 30.348C18.2547 30.348 18.67 30.1753 18.95 29.83C19.23 29.4847 19.37 29.0273 19.37 28.458C19.37 27.8793 19.2253 27.4407 18.936 27.142C18.656 26.834 18.2407 26.68 17.69 26.68C17.298 26.68 16.9713 26.778 16.71 26.974C16.4487 27.17 16.262 27.4313 16.15 27.758H14.274V21.766H20.602V23.488ZM22.6118 26.764C22.6118 25.1493 22.9011 23.8847 23.4798 22.97C24.0678 22.0553 25.0384 21.598 26.3918 21.598C27.7451 21.598 28.7111 22.0553 29.2898 22.97C29.8778 23.8847 30.1718 25.1493 30.1718 26.764C30.1718 28.388 29.8778 29.662 29.2898 30.586C28.7111 31.51 27.7451 31.972 26.3918 31.972C25.0384 31.972 24.0678 31.51 23.4798 30.586C22.9011 29.662 22.6118 28.388 22.6118 26.764ZM28.2398 26.764C28.2398 26.0733 28.1931 25.4947 28.0998 25.028C28.0158 24.552 27.8384 24.1647 27.5678 23.866C27.3064 23.5673 26.9144 23.418 26.3918 23.418C25.8691 23.418 25.4724 23.5673 25.2018 23.866C24.9404 24.1647 24.7631 24.552 24.6698 25.028C24.5858 25.4947 24.5438 26.0733 24.5438 26.764C24.5438 27.4733 24.5858 28.0707 24.6698 28.556C24.7538 29.032 24.9311 29.4193 25.2018 29.718C25.4724 30.0073 25.8691 30.152 26.3918 30.152C26.9144 30.152 27.3111 30.0073 27.5818 29.718C27.8524 29.4193 28.0298 29.032 28.1138 28.556C28.1978 28.0707 28.2398 27.4733 28.2398 26.764ZM31.2985 24.3C31.2985 23.5907 31.5039 23.0353 31.9145 22.634C32.3345 22.2327 32.8712 22.032 33.5245 22.032C34.1779 22.032 34.7099 22.2327 35.1205 22.634C35.5405 23.0353 35.7505 23.5907 35.7505 24.3C35.7505 25.0187 35.5405 25.5787 35.1205 25.98C34.7099 26.3813 34.1779 26.582 33.5245 26.582C32.8712 26.582 32.3345 26.3813 31.9145 25.98C31.5039 25.5787 31.2985 25.0187 31.2985 24.3ZM40.2865 22.2L34.7845 32H32.8805L38.3685 22.2H40.2865ZM33.5105 23.208C32.9972 23.208 32.7405 23.572 32.7405 24.3C32.7405 25.0373 32.9972 25.406 33.5105 25.406C33.7625 25.406 33.9585 25.3173 34.0985 25.14C34.2385 24.9533 34.3085 24.6733 34.3085 24.3C34.3085 23.572 34.0425 23.208 33.5105 23.208ZM37.4445 29.886C37.4445 29.1673 37.6499 28.612 38.0605 28.22C38.4805 27.8187 39.0172 27.618 39.6705 27.618C40.3239 27.618 40.8512 27.8187 41.2525 28.22C41.6632 28.612 41.8685 29.1673 41.8685 29.886C41.8685 30.6047 41.6632 31.1647 41.2525 31.566C40.8512 31.9673 40.3239 32.168 39.6705 32.168C39.0079 32.168 38.4712 31.9673 38.0605 31.566C37.6499 31.1647 37.4445 30.6047 37.4445 29.886ZM39.6565 28.794C39.1245 28.794 38.8585 29.158 38.8585 29.886C38.8585 30.6233 39.1245 30.992 39.6565 30.992C40.1792 30.992 40.4405 30.6233 40.4405 29.886C40.4405 29.158 40.1792 28.794 39.6565 28.794Z" fill="black"/>
</svg>
