<svg width="21" height="21" viewBox="0 0 21 21" fill="none" xmlns="http://www.w3.org/2000/svg">
<path d="M9.74348 13C9.74348 12.8011 9.66276 12.6103 9.51908 12.4697C9.37539 12.329 9.18052 12.25 8.97732 12.25C8.77413 12.25 8.57925 12.329 8.43557 12.4697C8.29189 12.6103 8.21117 12.8011 8.21117 13C8.21117 13.1989 8.29189 13.3897 8.43557 13.5303C8.57925 13.671 8.77413 13.75 8.97732 13.75C9.18052 13.75 9.37539 13.671 9.51908 13.5303C9.66276 13.3897 9.74348 13.1989 9.74348 13ZM6.55117 13C6.55117 12.8011 6.47045 12.6103 6.32677 12.4697C6.18309 12.329 5.98822 12.25 5.78502 12.25C5.58182 12.25 5.38695 12.329 5.24327 12.4697C5.09959 12.6103 5.01887 12.8011 5.01887 13C5.01887 13.1989 5.09959 13.3897 5.24327 13.5303C5.38695 13.671 5.58182 13.75 5.78502 13.75C5.98822 13.75 6.18309 13.671 6.32677 13.5303C6.47045 13.3897 6.55117 13.1989 6.55117 13ZM12.9358 13C12.9358 12.8011 12.8551 12.6103 12.7114 12.4697C12.5677 12.329 12.3728 12.25 12.1696 12.25C11.9664 12.25 11.7716 12.329 11.6279 12.4697C11.4842 12.6103 11.4035 12.8011 11.4035 13C11.4035 13.1989 11.4842 13.3897 11.6279 13.5303C11.7716 13.671 11.9664 13.75 12.1696 13.75C12.3728 13.75 12.5677 13.671 12.7114 13.5303C12.8551 13.3897 12.9358 13.1989 12.9358 13ZM2.38202 15.7125C2.74275 16.5516 3.25991 17.3047 3.91912 17.9516C4.57372 18.5947 5.35081 19.1059 6.2064 19.4562C7.08429 19.8172 8.01644 20 8.97732 20H9.00925C9.97651 19.9953 10.9135 19.8078 11.7945 19.4391C12.6428 19.0851 13.4126 18.573 14.0611 17.9313C14.7139 17.2859 15.2263 16.5359 15.5806 15.7C15.9477 14.8344 16.1329 13.9141 16.1281 12.9672C16.1227 11.8821 15.8604 10.813 15.3619 9.84375V7.46875C15.3619 7.27813 15.2846 7.09531 15.1469 6.96052C15.0092 6.82573 14.8224 6.75 14.6277 6.75H12.2C11.2099 6.26202 10.1177 6.0053 9.00925 6H8.97573C8.01963 6 7.09227 6.18125 6.21917 6.53594C5.3679 6.88211 4.59371 7.38736 3.93987 8.02344C3.28066 8.6625 2.76191 9.40938 2.39958 10.2422C2.02289 11.1047 1.83135 12.0219 1.82656 12.9688C1.82178 13.9203 2.01012 14.8438 2.38202 15.7125ZM4.79381 8.86875C5.91271 7.78437 7.39713 7.1875 8.97732 7.1875H9.00446C9.96694 7.19219 10.923 7.42656 11.7674 7.86719L11.9015 7.9375H14.1489V10.1375L14.2207 10.2688C14.6708 11.0953 14.9102 12.0312 14.915 12.9734C14.9214 14.5312 14.3133 15.9938 13.1975 17.0953C12.0834 18.1969 10.5942 18.8062 9.00286 18.8125H8.97573C8.17765 18.8125 7.40352 18.6609 6.67408 18.3609C5.96219 18.0688 5.32373 17.6484 4.77466 17.1109C4.22718 16.575 3.79622 15.9484 3.49774 15.2516C3.18808 14.5297 3.03325 13.7641 3.03645 12.9734C3.04602 11.4172 3.67012 9.95937 4.79381 8.86875Z" fill="#192A3E"/>
<circle cx="15" cy="6" r="5.5" fill="#FF3D00" stroke="white"/>
</svg>
