<svg width="17" height="21" viewBox="0 0 17 21" fill="none" xmlns="http://www.w3.org/2000/svg">
<path d="M2.00314 2.627L2.00005 4.75V15.254C2.00005 16.116 2.3535 16.9426 2.98266 17.5521C3.61181 18.1616 4.46513 18.504 5.35489 18.504H14.2488C14.0886 18.9427 13.7919 19.3225 13.3996 19.5911C13.0073 19.8598 12.5388 20.004 12.0584 20.004H5.35489C4.05447 20.004 2.80732 19.5036 1.88778 18.6128C0.968249 17.722 0.45166 16.5138 0.45166 15.254V4.75C0.45166 3.77 1.09889 2.935 2.00314 2.627ZM14.6452 0C14.9502 0 15.2522 0.058198 15.534 0.171271C15.8158 0.284344 16.0718 0.450078 16.2875 0.65901C16.5032 0.867941 16.6743 1.11598 16.791 1.38896C16.9077 1.66194 16.9678 1.95453 16.9678 2.25V15.25C16.9678 15.5455 16.9077 15.8381 16.791 16.111C16.6743 16.384 16.5032 16.6321 16.2875 16.841C16.0718 17.0499 15.8158 17.2157 15.534 17.3287C15.2522 17.4418 14.9502 17.5 14.6452 17.5H5.35489C4.7389 17.5 4.14814 17.2629 3.71257 16.841C3.27701 16.419 3.03231 15.8467 3.03231 15.25V2.25C3.03231 1.65326 3.27701 1.08097 3.71257 0.65901C4.14814 0.237053 4.7389 0 5.35489 0H14.6452ZM14.6452 1.5H5.35489C5.14956 1.5 4.95264 1.57902 4.80745 1.71967C4.66226 1.86032 4.58069 2.05109 4.58069 2.25V15.25C4.58069 15.664 4.92753 16 5.35489 16H14.6452C14.8505 16 15.0475 15.921 15.1926 15.7803C15.3378 15.6397 15.4194 15.4489 15.4194 15.25V2.25C15.4194 2.05109 15.3378 1.86032 15.1926 1.71967C15.0475 1.57902 14.8505 1.5 14.6452 1.5Z" fill="#1EA9E4"/>
</svg>
