<svg width="6" height="5" viewBox="0 0 6 5" fill="none" xmlns="http://www.w3.org/2000/svg">
<path d="M2.98025 4.896C2.57492 4.896 2.20158 4.8 1.86025 4.608C1.51892 4.40533 1.24692 4.13333 1.04425 3.792C0.85225 3.45067 0.75625 3.07733 0.75625 2.672C0.75625 2.256 0.85225 1.87733 1.04425 1.536C1.24692 1.19467 1.51892 0.928 1.86025 0.736C2.20158 0.533333 2.57492 0.432 2.98025 0.432C3.39625 0.432 3.77492 0.533333 4.11625 0.736C4.46825 0.928 4.74025 1.19467 4.93225 1.536C5.13492 1.87733 5.23625 2.256 5.23625 2.672C5.23625 3.07733 5.13492 3.45067 4.93225 3.792C4.74025 4.13333 4.46825 4.40533 4.11625 4.608C3.77492 4.8 3.39625 4.896 2.98025 4.896Z" fill="#242525"/>
</svg>
