<svg width="108" height="108" viewBox="0 0 108 108" fill="none" xmlns="http://www.w3.org/2000/svg">
<path d="M54 0C68.3217 0 82.0568 5.68927 92.1838 15.8162C102.311 25.9432 108 39.6783 108 54C108 68.3217 102.311 82.0568 92.1838 92.1838C82.0568 102.311 68.3217 108 54 108C39.6783 108 25.9432 102.311 15.8162 92.1838C5.68927 82.0568 0 68.3217 0 54C0 39.6783 5.68927 25.9432 15.8162 15.8162C25.9432 5.68927 39.6783 0 54 0ZM47.2731 64.6534L35.2774 52.65C34.8474 52.22 34.3369 51.8788 33.775 51.6461C33.2131 51.4134 32.6109 51.2936 32.0027 51.2936C31.3945 51.2936 30.7923 51.4134 30.2305 51.6461C29.6686 51.8788 29.158 52.22 28.728 52.65C27.8595 53.5185 27.3716 54.6965 27.3716 55.9247C27.3716 57.153 27.8595 58.3309 28.728 59.1994L44.0023 74.4737C44.4311 74.9059 44.9413 75.2489 45.5033 75.483C46.0653 75.7171 46.6682 75.8377 47.277 75.8377C47.8858 75.8377 48.4887 75.7171 49.0507 75.483C49.6127 75.2489 50.1229 74.9059 50.5517 74.4737L82.1803 42.8374C82.6161 42.4092 82.9628 41.8989 83.2003 41.336C83.4379 40.773 83.5617 40.1687 83.5646 39.5577C83.5674 38.9467 83.4492 38.3412 83.2169 37.7761C82.9846 37.211 82.6426 36.6975 82.2109 36.2652C81.7791 35.8329 81.266 35.4904 80.7011 35.2574C80.1363 35.0244 79.531 34.9055 78.92 34.9076C78.309 34.9097 77.7044 35.0328 77.1413 35.2697C76.5781 35.5066 76.0673 35.8527 75.6386 36.288L47.2731 64.6534Z" fill="#27AE60"/>
</svg>
