<svg width="18" height="16" viewBox="0 0 18 16" fill="none" xmlns="http://www.w3.org/2000/svg">
<path d="M9.74348 8C9.74348 7.80109 9.66276 7.61032 9.51908 7.46967C9.37539 7.32902 9.18052 7.25 8.97732 7.25C8.77413 7.25 8.57925 7.32902 8.43557 7.46967C8.29189 7.61032 8.21117 7.80109 8.21117 8C8.21117 8.19891 8.29189 8.38968 8.43557 8.53033C8.57925 8.67098 8.77413 8.75 8.97732 8.75C9.18052 8.75 9.37539 8.67098 9.51908 8.53033C9.66276 8.38968 9.74348 8.19891 9.74348 8V8ZM6.55117 8C6.55117 7.80109 6.47045 7.61032 6.32677 7.46967C6.18309 7.32902 5.98822 7.25 5.78502 7.25C5.58182 7.25 5.38695 7.32902 5.24327 7.46967C5.09959 7.61032 5.01887 7.80109 5.01887 8C5.01887 8.19891 5.09959 8.38968 5.24327 8.53033C5.38695 8.67098 5.58182 8.75 5.78502 8.75C5.98822 8.75 6.18309 8.67098 6.32677 8.53033C6.47045 8.38968 6.55117 8.19891 6.55117 8ZM12.9358 8C12.9358 7.80109 12.8551 7.61032 12.7114 7.46967C12.5677 7.32902 12.3728 7.25 12.1696 7.25C11.9664 7.25 11.7716 7.32902 11.6279 7.46967C11.4842 7.61032 11.4035 7.80109 11.4035 8C11.4035 8.19891 11.4842 8.38968 11.6279 8.53033C11.7716 8.67098 11.9664 8.75 12.1696 8.75C12.3728 8.75 12.5677 8.67098 12.7114 8.53033C12.8551 8.38968 12.9358 8.19891 12.9358 8V8ZM2.38202 10.7125C2.74276 11.5516 3.25991 12.3047 3.91912 12.9516C4.57372 13.5947 5.35081 14.1059 6.2064 14.4562C7.08429 14.8172 8.01644 15 8.97732 15H9.00925C9.97651 14.9953 10.9135 14.8078 11.7945 14.4391C12.6428 14.0851 13.4126 13.573 14.0611 12.9313C14.7139 12.2859 15.2263 11.5359 15.5806 10.7C15.9477 9.83437 16.1329 8.91406 16.1281 7.96719C16.1227 6.88208 15.8604 5.81296 15.3619 4.84375V2.46875C15.3619 2.27813 15.2846 2.09531 15.1469 1.96052C15.0092 1.82573 14.8224 1.75 14.6277 1.75H12.2C11.2099 1.26202 10.1177 1.0053 9.00925 1H8.97573C8.01963 1 7.09227 1.18125 6.21917 1.53594C5.3679 1.88211 4.59371 2.38736 3.93987 3.02344C3.28066 3.6625 2.76191 4.40938 2.39958 5.24219C2.02289 6.10469 1.83135 7.02188 1.82656 7.96875C1.82178 8.92031 2.01012 9.84375 2.38202 10.7125V10.7125ZM4.79381 3.86875C5.91271 2.78437 7.39713 2.1875 8.97732 2.1875H9.00446C9.96694 2.19219 10.923 2.42656 11.7674 2.86719L11.9015 2.9375H14.1489V5.1375L14.2207 5.26875C14.6708 6.09531 14.9102 7.03125 14.915 7.97344C14.9214 9.53125 14.3133 10.9938 13.1975 12.0953C12.0834 13.1969 10.5942 13.8062 9.00286 13.8125H8.97573C8.17765 13.8125 7.40352 13.6609 6.67408 13.3609C5.96219 13.0688 5.32373 12.6484 4.77466 12.1109C4.22718 11.575 3.79622 10.9484 3.49774 10.2516C3.18808 9.52969 3.03325 8.76406 3.03645 7.97344C3.04602 6.41719 3.67012 4.95937 4.79381 3.86875V3.86875Z" fill="#192A3E"/>
</svg>
