<svg width="70" height="70" viewBox="0 0 70 70" fill="none" xmlns="http://www.w3.org/2000/svg">
<rect width="70" height="70" rx="16" fill="#1EA9E4"/>
<path opacity="0.8" d="M48.755 20.0902C47.6798 19.905 46.591 19.8097 45.5 19.8052C41.7775 19.8021 38.1327 20.8695 35 22.8802C31.8592 20.8959 28.215 19.8547 24.5 19.8802C23.409 19.8847 22.3202 19.98 21.245 20.1652C20.8928 20.2259 20.5739 20.4104 20.3456 20.6854C20.1174 20.9604 19.9948 21.3078 20 21.6652V39.6652C19.9968 39.8856 20.0422 40.104 20.133 40.3048C20.2238 40.5057 20.3577 40.6841 20.5253 40.8273C20.6928 40.9705 20.8899 41.075 21.1024 41.1334C21.315 41.1918 21.5378 41.2027 21.755 41.1652C23.9045 40.793 26.1068 40.8548 28.2321 41.3468C30.3574 41.8388 32.3627 42.7512 34.13 44.0302L34.31 44.1352H34.475C34.6413 44.2045 34.8198 44.2402 35 44.2402C35.1802 44.2402 35.3586 44.2045 35.525 44.1352H35.69L35.87 44.0302C37.6249 42.7226 39.6245 41.7807 41.7502 41.2602C43.8759 40.7397 46.0845 40.6513 48.245 41.0002C48.4622 41.0377 48.685 41.0268 48.8976 40.9684C49.1101 40.91 49.3072 40.8055 49.4747 40.6623C49.6423 40.5191 49.7762 40.3407 49.867 40.1398C49.9578 39.939 50.0032 39.7206 50 39.5002V21.5002C49.9844 21.1584 49.8524 20.8322 49.626 20.5758C49.3995 20.3193 49.0922 20.148 48.755 20.0902ZM33.5 40.0252C30.7248 38.5652 27.6358 37.8032 24.5 37.8052C24.005 37.8052 23.51 37.8052 23 37.8052V22.8052C23.4996 22.7764 24.0004 22.7764 24.5 22.8052C27.7001 22.8016 30.8303 23.7407 33.5 25.5052V40.0252ZM47 37.8652C46.49 37.8652 45.995 37.8652 45.5 37.8652C42.3642 37.8632 39.2752 38.6252 36.5 40.0852V25.5052C39.1697 23.7407 42.2999 22.8016 45.5 22.8052C45.9996 22.7764 46.5004 22.7764 47 22.8052V37.8652ZM48.755 44.0902C47.6798 43.905 46.591 43.8097 45.5 43.8052C41.7775 43.8021 38.1327 44.8695 35 46.8802C31.8673 44.8695 28.2224 43.8021 24.5 43.8052C23.409 43.8097 22.3202 43.905 21.245 44.0902C21.0497 44.1212 20.8625 44.1904 20.6941 44.294C20.5257 44.3976 20.3795 44.5335 20.2638 44.6938C20.1481 44.8541 20.0652 45.0357 20.0199 45.2281C19.9747 45.4206 19.9679 45.6201 20 45.8152C20.0762 46.2047 20.3037 46.5481 20.6327 46.7703C20.9616 46.9924 21.3652 47.075 21.755 47.0002C23.9045 46.628 26.1068 46.6898 28.2321 47.1818C30.3574 47.6738 32.3627 48.5862 34.13 49.8652C34.384 50.0461 34.6881 50.1433 35 50.1433C35.3118 50.1433 35.616 50.0461 35.87 49.8652C37.6373 48.5862 39.6426 47.6738 41.7679 47.1818C43.8932 46.6898 46.0955 46.628 48.245 47.0002C48.6348 47.075 49.0384 46.9924 49.3673 46.7703C49.6963 46.5481 49.9238 46.2047 50 45.8152C50.0321 45.6201 50.0253 45.4206 49.98 45.2281C49.9348 45.0357 49.8519 44.8541 49.7362 44.6938C49.6205 44.5335 49.4742 44.3976 49.3058 44.294C49.1375 44.1904 48.9503 44.1212 48.755 44.0902Z" fill="white"/>
</svg>
