<svg width="70" height="70" viewBox="0 0 70 70" fill="none" xmlns="http://www.w3.org/2000/svg">
<rect width="70" height="70" rx="16" fill="#1EA9E4"/>
<path opacity="0.8" d="M48.5 44.0003H45.5V39.5003C45.5 39.1025 45.342 38.721 45.0607 38.4396C44.7794 38.1583 44.3978 38.0003 44 38.0003H36.5V33.9353L38.195 34.8203C38.4422 34.9496 38.7205 35.0074 38.9988 34.9873C39.277 34.9671 39.5441 34.8697 39.7701 34.7061C39.996 34.5425 40.1718 34.3191 40.2778 34.061C40.3838 33.803 40.4157 33.5205 40.37 33.2453L39.77 29.6903L42.35 27.1553C42.5454 26.9645 42.685 26.7239 42.7537 26.4596C42.8225 26.1952 42.8177 25.9171 42.74 25.6553C42.6531 25.3887 42.4931 25.1518 42.2784 24.9715C42.0636 24.7913 41.8026 24.6748 41.525 24.6353L38 24.0803L36.35 20.8403C36.2272 20.5867 36.0354 20.3728 35.7966 20.2232C35.5579 20.0735 35.2818 19.9941 35 19.9941C34.7182 19.9941 34.4421 20.0735 34.2034 20.2232C33.9646 20.3728 33.7728 20.5867 33.65 20.8403L32 24.0803L28.415 24.6053C28.1374 24.6448 27.8764 24.7613 27.6616 24.9415C27.4469 25.1218 27.2869 25.3587 27.2 25.6253C27.1223 25.8871 27.1175 26.1652 27.1863 26.4296C27.255 26.6939 27.3946 26.9345 27.59 27.1253L30.23 29.6903L29.63 33.2453C29.5843 33.5205 29.6162 33.803 29.7222 34.061C29.8282 34.3191 30.004 34.5425 30.2299 34.7061C30.4559 34.8697 30.723 34.9671 31.0012 34.9873C31.2795 35.0074 31.5578 34.9496 31.805 34.8203L33.5 33.9353V38.0003H26C25.6022 38.0003 25.2206 38.1583 24.9393 38.4396C24.658 38.721 24.5 39.1025 24.5 39.5003V44.0003H21.5C21.1022 44.0003 20.7206 44.1583 20.4393 44.4396C20.158 44.7209 20 45.1025 20 45.5003V48.5003C20 48.8981 20.158 49.2797 20.4393 49.561C20.7206 49.8423 21.1022 50.0003 21.5 50.0003C21.8978 50.0003 22.2794 49.8423 22.5607 49.561C22.842 49.2797 23 48.8981 23 48.5003V47.0003H29V48.5003C29 48.8981 29.158 49.2797 29.4393 49.561C29.7206 49.8423 30.1022 50.0003 30.5 50.0003C30.8978 50.0003 31.2794 49.8423 31.5607 49.561C31.842 49.2797 32 48.8981 32 48.5003V45.5003C32 45.1025 31.842 44.7209 31.5607 44.4396C31.2794 44.1583 30.8978 44.0003 30.5 44.0003H27.5V41.0003H42.5V44.0003H39.5C39.1022 44.0003 38.7206 44.1583 38.4393 44.4396C38.158 44.7209 38 45.1025 38 45.5003V48.5003C38 48.8981 38.158 49.2797 38.4393 49.561C38.7206 49.8423 39.1022 50.0003 39.5 50.0003C39.8978 50.0003 40.2794 49.8423 40.5607 49.561C40.842 49.2797 41 48.8981 41 48.5003V47.0003H47V48.5003C47 48.8981 47.158 49.2797 47.4393 49.561C47.7206 49.8423 48.1022 50.0003 48.5 50.0003C48.8978 50.0003 49.2794 49.8423 49.5607 49.561C49.842 49.2797 50 48.8981 50 48.5003V45.5003C50 45.1025 49.842 44.7209 49.5607 44.4396C49.2794 44.1583 48.8978 44.0003 48.5 44.0003ZM35 29.9453C34.7538 29.9465 34.5117 30.0084 34.295 30.1253L33.095 30.7553L33.32 29.4053C33.3594 29.1665 33.3404 28.9217 33.2646 28.6919C33.1889 28.462 33.0586 28.2539 32.885 28.0853L31.91 27.1253L33.26 26.9303C33.5015 26.898 33.7315 26.8074 33.9302 26.6663C34.1288 26.5252 34.2901 26.3378 34.4 26.1203L35 24.8903L35.6 26.1203C35.7099 26.3378 35.8712 26.5252 36.0698 26.6663C36.2685 26.8074 36.4985 26.898 36.74 26.9303L38.09 27.1253L37.115 28.0853C36.9414 28.2539 36.8111 28.462 36.7354 28.6919C36.6596 28.9217 36.6406 29.1665 36.68 29.4053L36.905 30.7553L35.705 30.1253C35.4883 30.0084 35.2462 29.9465 35 29.9453Z" fill="white"/>
</svg>
